  0
SECTION
  2
HEADER
  9
$ACADVER
  1
AC1014
  9
$ACADMAINTVER
 70
     9
  9
$DWGCODEPAGE
  3
ANSI_1252
  9
$INSBASE
 10
0.0
 20
0.0
 30
0.0
  9
$EXTMIN
 10
2960.586558404572
 20
1556.834145229365
 30
0.0
  9
$EXTMAX
 10
2984.595882773134
 20
1575.956061205916
 30
31.96927622246645
  9
$LIMMIN
 10
0.0
 20
0.0
  9
$LIMMAX
 10
420.0
 20
297.0
  9
$ORTHOMODE
 70
     0
  9
$REGENMODE
 70
     1
  9
$FILLMODE
 70
     1
  9
$QTEXTMODE
 70
     0
  9
$MIRRTEXT
 70
     0
  9
$DRAGMODE
 70
     2
  9
$LTSCALE
 40
1.0
  9
$OSMODE
 70
    37
  9
$ATTMODE
 70
     1
  9
$TEXTSIZE
 40
2.5
  9
$TRACEWID
 40
1.0
  9
$TEXTSTYLE
  7
STANDARD
  9
$CLAYER
  8
0
  9
$CELTYPE
  6
BYLAYER
  9
$CECOLOR
 62
   256
  9
$CELTSCALE
 40
1.0
  9
$DELOBJ
 70
     1
  9
$DISPSILH
 70
     0
  9
$DIMSCALE
 40
1.0
  9
$DIMASZ
 40
2.5
  9
$DIMEXO
 40
0.625
  9
$DIMDLI
 40
3.75
  9
$DIMRND
 40
0.0
  9
$DIMDLE
 40
0.0
  9
$DIMEXE
 40
1.25
  9
$DIMTP
 40
0.0
  9
$DIMTM
 40
0.0
  9
$DIMTXT
 40
2.5
  9
$DIMCEN
 40
2.5
  9
$DIMTSZ
 40
0.0
  9
$DIMTOL
 70
     0
  9
$DIMLIM
 70
     0
  9
$DIMTIH
 70
     0
  9
$DIMTOH
 70
     0
  9
$DIMSE1
 70
     0
  9
$DIMSE2
 70
     0
  9
$DIMTAD
 70
     1
  9
$DIMZIN
 70
     8
  9
$DIMBLK
  1

  9
$DIMASO
 70
     1
  9
$DIMSHO
 70
     1
  9
$DIMPOST
  1

  9
$DIMAPOST
  1

  9
$DIMALT
 70
     0
  9
$DIMALTD
 70
     3
  9
$DIMALTF
 40
0.03937007874016
  9
$DIMLFAC
 40
1.0
  9
$DIMTOFL
 70
     1
  9
$DIMTVP
 40
0.0
  9
$DIMTIX
 70
     0
  9
$DIMSOXD
 70
     0
  9
$DIMSAH
 70
     0
  9
$DIMBLK1
  1

  9
$DIMBLK2
  1

  9
$DIMSTYLE
  2
ISO-25
  9
$DIMCLRD
 70
     0
  9
$DIMCLRE
 70
     0
  9
$DIMCLRT
 70
     0
  9
$DIMTFAC
 40
1.0
  9
$DIMGAP
 40
0.625
  9
$DIMJUST
 70
     0
  9
$DIMSD1
 70
     0
  9
$DIMSD2
 70
     0
  9
$DIMTOLJ
 70
     0
  9
$DIMTZIN
 70
     8
  9
$DIMALTZ
 70
     0
  9
$DIMALTTZ
 70
     0
  9
$DIMFIT
 70
     3
  9
$DIMUPT
 70
     0
  9
$DIMUNIT
 70
     2
  9
$DIMDEC
 70
     2
  9
$DIMTDEC
 70
     2
  9
$DIMALTU
 70
     2
  9
$DIMALTTD
 70
     3
  9
$DIMTXSTY
  7
STANDARD
  9
$DIMAUNIT
 70
     0
  9
$LUNITS
 70
     2
  9
$LUPREC
 70
     4
  9
$SKETCHINC
 40
1.0
  9
$FILLETRAD
 40
0.0
  9
$AUNITS
 70
     0
  9
$AUPREC
 70
     0
  9
$MENU
  1
.
  9
$ELEVATION
 40
0.0
  9
$PELEVATION
 40
0.0
  9
$THICKNESS
 40
0.0
  9
$LIMCHECK
 70
     0
  9
$CHAMFERA
 40
0.0
  9
$CHAMFERB
 40
0.0
  9
$CHAMFERC
 40
0.0
  9
$CHAMFERD
 40
0.0
  9
$SKPOLY
 70
     0
  9
$TDCREATE
 40
2460873.286875
  9
$TDUPDATE
 40
2460942.908277431
  9
$TDINDWG
 40
0.0002430556
  9
$TDUSRTIMER
 40
0.0002430556
  9
$USRTIMER
 70
     1
  9
$ANGBASE
 50
0.0
  9
$ANGDIR
 70
     0
  9
$PDMODE
 70
     0
  9
$PDSIZE
 40
0.0
  9
$PLINEWID
 40
0.0
  9
$COORDS
 70
     1
  9
$SPLFRAME
 70
     0
  9
$SPLINETYPE
 70
     6
  9
$SPLINESEGS
 70
     8
  9
$ATTDIA
 70
     0
  9
$ATTREQ
 70
     1
  9
$HANDLING
 70
     1
  9
$HANDSEED
  5
58B
  9
$SURFTAB1
 70
     6
  9
$SURFTAB2
 70
     6
  9
$SURFTYPE
 70
     6
  9
$SURFU
 70
     6
  9
$SURFV
 70
     6
  9
$UCSNAME
  2

  9
$UCSORG
 10
0.0
 20
0.0
 30
0.0
  9
$UCSXDIR
 10
1.0
 20
0.0
 30
0.0
  9
$UCSYDIR
 10
0.0
 20
1.0
 30
0.0
  9
$PUCSNAME
  2

  9
$PUCSORG
 10
0.0
 20
0.0
 30
0.0
  9
$PUCSXDIR
 10
1.0
 20
0.0
 30
0.0
  9
$PUCSYDIR
 10
0.0
 20
1.0
 30
0.0
  9
$USERI1
 70
     0
  9
$USERI2
 70
     0
  9
$USERI3
 70
     0
  9
$USERI4
 70
     0
  9
$USERI5
 70
     0
  9
$USERR1
 40
0.0
  9
$USERR2
 40
0.0
  9
$USERR3
 40
0.0
  9
$USERR4
 40
0.0
  9
$USERR5
 40
0.0
  9
$WORLDVIEW
 70
     1
  9
$SHADEDGE
 70
     3
  9
$SHADEDIF
 70
    70
  9
$TILEMODE
 70
     1
  9
$MAXACTVP
 70
    64
  9
$PINSBASE
 10
0.0
 20
0.0
 30
0.0
  9
$PLIMCHECK
 70
     0
  9
$PEXTMIN
 10
0.0
 20
0.0
 30
0.0
  9
$PEXTMAX
 10
0.0
 20
0.0
 30
0.0
  9
$PLIMMIN
 10
0.0
 20
0.0
  9
$PLIMMAX
 10
12.0
 20
9.0
  9
$UNITMODE
 70
     0
  9
$VISRETAIN
 70
     1
  9
$PLINEGEN
 70
     0
  9
$PSLTSCALE
 70
     1
  9
$TREEDEPTH
 70
  3020
  9
$PICKSTYLE
 70
     1
  9
$CMLSTYLE
  2
STANDARD
  9
$CMLJUST
 70
     0
  9
$CMLSCALE
 40
20.0
  9
$PROXYGRAPHICS
 70
     1
  9
$MEASUREMENT
 70
     1
  0
ENDSEC
  0
SECTION
  2
CLASSES
  0
CLASS
  1
ACDBDICTIONARYWDFLT
  2
AcDbDictionaryWithDefault
  3
ObjectDBX Classes
 90
        0
280
     0
281
     0
  0
CLASS
  1
ACDBPLACEHOLDER
  2
AcDbPlaceHolder
  3
ObjectDBX Classes
 90
        0
280
     0
281
     0
  0
CLASS
  1
LAYOUT
  2
AcDbLayout
  3
ObjectDBX Classes
 90
        0
280
     0
281
     0
  0
CLASS
  1
DICTIONARYVAR
  2
AcDbDictionaryVar
  3
ObjectDBX Classes
 90
        0
280
     0
281
     0
  0
CLASS
  1
TABLESTYLE
  2
AcDbTableStyle
  3
ObjectDBX Classes
 90
     4095
280
     0
281
     0
  0
CLASS
  1
MATERIAL
  2
AcDbMaterial
  3
ObjectDBX Classes
 90
     1153
280
     0
281
     0
  0
CLASS
  1
VISUALSTYLE
  2
AcDbVisualStyle
  3
ObjectDBX Classes
 90
     4095
280
     0
281
     0
  0
CLASS
  1
SCALE
  2
AcDbScale
  3
ObjectDBX Classes
 90
     1153
280
     0
281
     0
  0
CLASS
  1
MLEADERSTYLE
  2
AcDbMLeaderStyle
  3
ACDB_MLEADERSTYLE_CLASS
 90
     4095
280
     0
281
     0
  0
CLASS
  1
CELLSTYLEMAP
  2
AcDbCellStyleMap
  3
ObjectDBX Classes
 90
     1152
280
     0
281
     0
  0
CLASS
  1
EXACXREFPANELOBJECT
  2
ExAcXREFPanelObject
  3
EXAC_ESW
 90
     1025
280
     1
281
     0
  0
CLASS
  1
NPOCOLLECTION
  2
AcDbImpNonPersistentObjectsCollection
  3
ObjectDBX Classes
 90
     1153
280
     1
281
     0
  0
CLASS
  1
LAYER_INDEX
  2
AcDbLayerIndex
  3
ObjectDBX Classes
 90
        0
280
     0
281
     0
  0
CLASS
  1
SPATIAL_INDEX
  2
AcDbSpatialIndex
  3
AutoCAD 2000
 90
        0
280
     0
281
     0
  0
CLASS
  1
IDBUFFER
  2
AcDbIdBuffer
  3
ObjectDBX Classes
 90
        0
280
     0
281
     0
  0
CLASS
  1
ACDBSECTIONVIEWSTYLE
  2
AcDbSectionViewStyle
  3
ObjectDBX Classes
 90
     1025
280
     0
281
     0
  0
CLASS
  1
ACDBDETAILVIEWSTYLE
  2
AcDbDetailViewStyle
  3
ObjectDBX Classes
 90
     1025
280
     0
281
     0
  0
CLASS
  1
DIMASSOC
  2
AcDbDimAssoc
  3
"AcDbDimAssoc|Product Desc:     AcDim ARX App For Dimension|Company:          Autodesk, Inc.|WEB Address:      www.autodesk.com"
 90
        0
280
     0
281
     0
  0
CLASS
  1
WIPEOUTVARIABLES
  2
AcDbWipeoutVariables
  3
WipeOut|AutoCAD Express Tool|expresstools@autodesk.com
 90
        0
280
     0
281
     0
  0
CLASS
  1
XRECORD
  2
AcDbXrecord
  3
ObjectDBX Classes
 90
        0
280
     0
281
     0
  0
CLASS
  1
LWPOLYLINE
  2
AcDbPolyline
  3
ObjectDBX Classes
 90
        0
280
     0
281
     1
  0
CLASS
  1
HATCH
  2
AcDbHatch
  3
ObjectDBX Classes
 90
        0
280
     0
281
     1
  0
ENDSEC
  0
SECTION
  2
TABLES
  0
TABLE
  2
VPORT
  5
8
102
{ACAD_XDICTIONARY
360
585
102
}
330
0
100
AcDbSymbolTable
 70
     1
  0
VPORT
  5
EA
330
8
100
AcDbSymbolTableRecord
100
AcDbViewportTableRecord
  2
*ACTIVE
 70
     0
 10
0.0
 20
0.0
 11
1.0
 21
1.0
 12
2973.69216968452
 22
1566.699513313936
 13
0.0
 23
0.0
 14
10.0
 24
10.0
 15
10.0
 25
10.0
 16
0.0
 26
0.0
 36
1.0
 17
0.0
 27
0.0
 37
0.0
 40
25.31796398563165
 41
2.57085020242915
 42
50.0
 43
0.0
 44
0.0
 50
0.0
 51
0.0
 71
     0
 72
  1000
 73
     1
 74
     3
 75
     0
 76
     1
 77
     0
 78
     0
1001
ACAD_NAV_VCDISPLAY
1070
     3
  0
ENDTAB
  0
TABLE
  2
LTYPE
  5
5
330
0
100
AcDbSymbolTable
 70
     1
  0
LTYPE
  5
14
330
5
100
AcDbSymbolTableRecord
100
AcDbLinetypeTableRecord
  2
BYBLOCK
 70
     0
  3

 72
    65
 73
     0
 40
0.0
  0
LTYPE
  5
15
330
5
100
AcDbSymbolTableRecord
100
AcDbLinetypeTableRecord
  2
BYLAYER
 70
     0
  3

 72
    65
 73
     0
 40
0.0
  0
LTYPE
  5
16
330
5
100
AcDbSymbolTableRecord
100
AcDbLinetypeTableRecord
  2
CONTINUOUS
 70
     0
  3
Solid line
 72
    65
 73
     0
 40
0.0
  0
ENDTAB
  0
TABLE
  2
LAYER
  5
2
102
{ACAD_XDICTIONARY
360
1FF
102
}
330
0
100
AcDbSymbolTable
 70
     6
  0
LAYER
  5
10
330
2
100
AcDbSymbolTableRecord
100
AcDbLayerTableRecord
  2
0
 70
     0
 62
     7
  6
CONTINUOUS
  0
LAYER
  5
2F7
330
2
100
AcDbSymbolTableRecord
100
AcDbLayerTableRecord
  2
DEFPOINTS
 70
     0
 62
     7
  6
CONTINUOUS
  0
LAYER
  5
2F8
330
2
100
AcDbSymbolTableRecord
100
AcDbLayerTableRecord
  2
TEXT
 70
     0
 62
   255
  6
CONTINUOUS
1001
RAK
1000
{ACET-LAYISO
1070
     0
1070
   184
1000
Continuous
1071
       -3
1071
        1
1005
F
1000
ACET-LAYISO}
  0
LAYER
  5
2FA
330
2
100
AcDbSymbolTableRecord
100
AcDbLayerTableRecord
  2
DIM
 70
     0
 62
   252
  6
CONTINUOUS
1001
ACAECLAYERSTANDARD
1000

1000

  0
LAYER
  5
2FC
330
2
100
AcDbSymbolTableRecord
100
AcDbLayerTableRecord
  2
TEXT_
 70
     0
 62
   255
  6
CONTINUOUS
1001
ACAECLAYERSTANDARD
1000

1000

1001
RAK
1000
{ACET-LAYISO
1070
     0
1070
    13
1000
Continuous
1071
       20
1071
        1
1005
F
1000
ACET-LAYISO}
  0
LAYER
  5
2FD
330
2
100
AcDbSymbolTableRecord
100
AcDbLayerTableRecord
  2
COL
 70
     0
 62
    20
  6
CONTINUOUS
1001
ACAECLAYERSTANDARD
1000

1000

  0
ENDTAB
  0
TABLE
  2
STYLE
  5
3
330
0
100
AcDbSymbolTable
 70
     4
  0
STYLE
  5
11
330
3
100
AcDbSymbolTableRecord
100
AcDbTextStyleTableRecord
  2
STANDARD
 70
     0
 40
0.0
 41
1.0
 50
0.0
 71
     0
 42
2.5
  3
arial.ttf
  4

1001
ACAD
1000
Arial
1071
       34
  0
STYLE
  5
132
330
3
100
AcDbSymbolTableRecord
100
AcDbTextStyleTableRecord
  2
ANNOTATIVE
 70
     0
 40
0.0
 41
1.0
 50
0.0
 71
     0
 42
2.5
  3
arial.ttf
  4

1001
ACADANNOTATIVE
1000
AnnotativeData
1002
{
1070
     1
1070
     1
1002
}
1001
ACAD
1000
Arial
1071
       34
  0
STYLE
  5
2FE
330
3
100
AcDbSymbolTableRecord
100
AcDbTextStyleTableRecord
  2
AN
 70
     0
 40
0.0
 41
1.0
 50
0.0
 71
     0
 42
0.8
  3
ARIALN.TTF
  4

1001
ACAD
1000
Arial Narrow
1071
       34
  0
STYLE
  5
2FF
330
3
100
AcDbSymbolTableRecord
100
AcDbTextStyleTableRecord
  2
AR
 70
     0
 40
0.0
 41
1.0
 50
0.0
 71
     0
 42
2.5
  3
arial.ttf
  4

1001
ACAD
1000
Arial TUR
1071
    41506
  0
ENDTAB
  0
TABLE
  2
VIEW
  5
6
330
0
100
AcDbSymbolTable
 70
     0
  0
ENDTAB
  0
TABLE
  2
UCS
  5
7
330
0
100
AcDbSymbolTable
 70
     0
  0
ENDTAB
  0
TABLE
  2
APPID
  5
9
330
0
100
AcDbSymbolTable
 70
    12
  0
APPID
  5
12
330
9
100
AcDbSymbolTableRecord
100
AcDbRegAppTableRecord
  2
ACAD
 70
     0
  0
APPID
  5
9E
330
9
100
AcDbSymbolTableRecord
100
AcDbRegAppTableRecord
  2
ACAD_PSEXT
 70
     0
  0
APPID
  5
133
330
9
100
AcDbSymbolTableRecord
100
AcDbRegAppTableRecord
  2
ACADANNOPO
 70
     0
  0
APPID
  5
134
330
9
100
AcDbSymbolTableRecord
100
AcDbRegAppTableRecord
  2
ACADANNOTATIVE
 70
     0
  0
APPID
  5
135
330
9
100
AcDbSymbolTableRecord
100
AcDbRegAppTableRecord
  2
ACAD_DSTYLE_DIMJAG
 70
     0
  0
APPID
  5
136
330
9
100
AcDbSymbolTableRecord
100
AcDbRegAppTableRecord
  2
ACAD_DSTYLE_DIMTALN
 70
     0
  0
APPID
  5
165
330
9
100
AcDbSymbolTableRecord
100
AcDbRegAppTableRecord
  2
ACAD_MLEADERVER
 70
     0
  0
APPID
  5
217
330
9
100
AcDbSymbolTableRecord
100
AcDbRegAppTableRecord
  2
ACAD_NAV_VCDISPLAY
 70
     0
  0
APPID
  5
301
330
9
100
AcDbSymbolTableRecord
100
AcDbRegAppTableRecord
  2
GRADIENTCOLOR1ACI
 70
     0
  0
APPID
  5
302
330
9
100
AcDbSymbolTableRecord
100
AcDbRegAppTableRecord
  2
GRADIENTCOLOR2ACI
 70
     0
  0
APPID
  5
303
330
9
100
AcDbSymbolTableRecord
100
AcDbRegAppTableRecord
  2
RAK
 70
     0
  0
APPID
  5
304
330
9
100
AcDbSymbolTableRecord
100
AcDbRegAppTableRecord
  2
ACAECLAYERSTANDARD
 70
     0
  0
ENDTAB
  0
TABLE
  2
DIMSTYLE
  5
A
330
0
100
AcDbSymbolTable
 70
     4
  0
DIMSTYLE
105
1B0
330
A
100
AcDbSymbolTableRecord
100
AcDbDimStyleTableRecord
  2
STANDARD
 70
     0
  3

  4

  5

  6

  7

 40
1.0
 41
0.18
 42
0.0625
 43
0.38
 44
0.18
 45
0.0
 46
0.0
 47
0.0
 48
0.0
140
0.18
141
0.09
142
0.0
143
25.4
144
1.0
145
0.0
146
1.0
147
0.09
 71
     0
 72
     0
 73
     1
 74
     1
 75
     0
 76
     0
 77
     0
 78
     0
170
     0
171
     2
172
     0
173
     0
174
     0
175
     0
176
     0
177
     0
178
     0
270
     2
271
     4
272
     4
273
     2
274
     2
340
11
275
     0
280
     0
281
     0
282
     0
283
     1
284
     0
285
     0
286
     0
287
     3
288
     0
  0
DIMSTYLE
105
137
330
A
100
AcDbSymbolTableRecord
100
AcDbDimStyleTableRecord
  2
ANNOTATIVE
 70
     0
  3

  4

  5

  6

  7

 40
0.0
 41
2.5
 42
0.625
 43
3.75
 44
1.25
 45
0.0
 46
0.0
 47
0.0
 48
0.0
140
2.5
141
2.5
142
0.0
143
0.03937007874016
144
1.0
145
0.0
146
1.0
147
0.625
 71
     0
 72
     0
 73
     0
 74
     0
 75
     0
 76
     0
 77
     1
 78
     8
170
     0
171
     3
172
     1
173
     0
174
     0
175
     0
176
     0
177
     0
178
     0
270
     2
271
     2
272
     2
273
     2
274
     3
340
11
275
     0
280
     0
281
     0
282
     0
283
     0
284
     8
285
     0
286
     0
287
     3
288
     0
1001
ACADANNOTATIVE
1000
AnnotativeData
1002
{
1070
     1
1070
     1
1002
}
1001
ACAD_DSTYLE_DIMJAG
1070
   388
1040
1.5
1001
ACAD_DSTYLE_DIMTALN
1070
   392
1070
     0
  0
DIMSTYLE
105
27
330
A
100
AcDbSymbolTableRecord
100
AcDbDimStyleTableRecord
  2
ISO-25
 70
     0
  3

  4

  5

  6

  7

 40
1.0
 41
2.5
 42
0.625
 43
3.75
 44
1.25
 45
0.0
 46
0.0
 47
0.0
 48
0.0
140
2.5
141
2.5
142
0.0
143
0.03937007874016
144
1.0
145
0.0
146
1.0
147
0.625
 71
     0
 72
     0
 73
     0
 74
     0
 75
     0
 76
     0
 77
     1
 78
     8
170
     0
171
     3
172
     1
173
     0
174
     0
175
     0
176
     0
177
     0
178
     0
270
     2
271
     2
272
     2
273
     2
274
     3
340
11
275
     0
280
     0
281
     0
282
     0
283
     0
284
     8
285
     0
286
     0
287
     3
288
     0
  0
DIMSTYLE
105
300
102
{ACAD_REACTORS
330
4CD
330
4D0
330
4D3
330
4D6
102
}
330
A
100
AcDbSymbolTableRecord
100
AcDbDimStyleTableRecord
  2
_BM__FOR_MM
 70
     0
  3

  4

  5

  6

  7

 40
1.0
 41
0.18
 42
0.3
 43
0.1
 44
0.08
 45
0.0
 46
0.0
 47
0.0
 48
0.0
140
0.18
141
0.09
142
0.0
143
1.0
144
1000.0
145
0.0
146
1.0
147
0.1
 71
     0
 72
     0
 73
     0
 74
     0
 75
     0
 76
     0
 77
     1
 78
     0
170
     0
171
     2
172
     1
173
     0
174
     0
175
     0
176
   256
177
   256
178
     4
270
     2
271
     0
272
     0
273
     6
274
     2
340
2FF
275
     0
280
     0
281
     0
282
     0
283
     1
284
     0
285
     0
286
     0
287
     5
288
     0
1001
ACAD_DSTYLE_DIMJAG
1070
   388
1040
1.5
1001
ACAD_DSTYLE_DIMTALN
1070
   392
1070
     0
  0
ENDTAB
  0
TABLE
  2
BLOCK_RECORD
  5
1
330
0
100
AcDbSymbolTable
 70
     5
  0
BLOCK_RECORD
  5
1F
330
1
100
AcDbSymbolTableRecord
100
AcDbBlockTableRecord
  2
*MODEL_SPACE
  0
BLOCK_RECORD
  5
D2
330
1
100
AcDbSymbolTableRecord
100
AcDbBlockTableRecord
  2
*PAPER_SPACE
  0
BLOCK_RECORD
  5
2C1
330
1
100
AcDbSymbolTableRecord
100
AcDbBlockTableRecord
  2
_OPEN30
  0
BLOCK_RECORD
  5
513
330
1
100
AcDbSymbolTableRecord
100
AcDbBlockTableRecord
  2
*D7
  0
BLOCK_RECORD
  5
51F
330
1
100
AcDbSymbolTableRecord
100
AcDbBlockTableRecord
  2
*D8
  0
BLOCK_RECORD
  5
52B
330
1
100
AcDbSymbolTableRecord
100
AcDbBlockTableRecord
  2
*D9
  0
BLOCK_RECORD
  5
537
330
1
100
AcDbSymbolTableRecord
100
AcDbBlockTableRecord
  2
*D10
  0
ENDTAB
  0
ENDSEC
  0
SECTION
  2
BLOCKS
  0
BLOCK
  5
20
330
1F
100
AcDbEntity
  8
0
100
AcDbBlockBegin
  2
*MODEL_SPACE
 70
     0
 10
0.0
 20
0.0
 30
0.0
  3
*MODEL_SPACE
  1

  0
ENDBLK
  5
21
330
1F
100
AcDbEntity
  8
0
100
AcDbBlockEnd
  0
BLOCK
  5
D4
330
D2
100
AcDbEntity
 67
     1
  8
0
100
AcDbBlockBegin
  2
*PAPER_SPACE
 70
     0
 10
0.0
 20
0.0
 30
0.0
  3
*PAPER_SPACE
  1

  0
ENDBLK
  5
D5
330
D2
100
AcDbEntity
 67
     1
  8
0
100
AcDbBlockEnd
  0
BLOCK
  5
2C2
330
2C1
100
AcDbEntity
  8
0
100
AcDbBlockBegin
  2
_OPEN30
 70
     0
 10
0.0
 20
0.0
 30
0.0
  3
_OPEN30
  1

  0
LINE
  5
2C3
330
2C1
100
AcDbEntity
  8
0
  6
BYBLOCK
 62
     0
100
AcDbLine
 10
-1.0
 20
0.26794919
 30
0.0
 11
0.0
 21
0.0
 31
0.0
  0
LINE
  5
2C4
330
2C1
100
AcDbEntity
  8
0
  6
BYBLOCK
 62
     0
100
AcDbLine
 10
0.0
 20
0.0
 30
0.0
 11
-1.0
 21
-0.26794919
 31
0.0
  0
LINE
  5
2C5
330
2C1
100
AcDbEntity
  8
0
  6
BYBLOCK
 62
     0
100
AcDbLine
 10
0.0
 20
0.0
 30
0.0
 11
-1.0
 21
0.0
 31
0.0
  0
ENDBLK
  5
2C6
330
2C1
100
AcDbEntity
  8
0
100
AcDbBlockEnd
  0
BLOCK
  5
514
330
513
100
AcDbEntity
  8
0
100
AcDbBlockBegin
  2
*D7
 70
     1
 10
0.0
 20
0.0
 30
0.0
  3
*D7
  1

  0
LINE
  5
555
330
513
100
AcDbEntity
  8
0
  6
CONTINUOUS
100
AcDbLine
 10
2964.395882773138
 20
1566.97922917348
 30
0.0
 11
2964.395882773139
 21
1567.05922917348
 31
0.0
  0
LINE
  5
556
330
513
100
AcDbEntity
  8
0
  6
CONTINUOUS
100
AcDbLine
 10
2960.595882773142
 20
1566.979229173528
 30
0.0
 11
2960.595882773143
 21
1567.059229173527
 31
0.0
  0
LINE
  5
557
330
513
100
AcDbEntity
  8
0
  6
CONTINUOUS
100
AcDbLine
 10
2964.215882773138
 20
1566.979229173482
 30
0.0
 11
2960.775882773142
 21
1566.979229173525
 31
0.0
  0
SOLID
  5
558
330
513
100
AcDbEntity
  8
0
  6
CONTINUOUS
100
AcDbTrace
 10
2964.215882773138
 20
1567.009229173482
 30
0.0
 11
2964.215882773137
 21
1566.949229173482
 31
0.0
 12
2964.395882773138
 22
1566.97922917348
 32
0.0
 13
2964.395882773138
 23
1566.97922917348
 33
0.0
  0
SOLID
  5
559
330
513
100
AcDbEntity
  8
0
  6
CONTINUOUS
100
AcDbTrace
 10
2960.775882773142
 20
1567.009229173525
 30
0.0
 11
2960.775882773141
 21
1566.949229173525
 31
0.0
 12
2960.595882773142
 22
1566.979229173528
 32
0.0
 13
2960.595882773142
 23
1566.979229173528
 33
0.0
  0
MTEXT
  5
55A
330
513
100
AcDbEntity
  8
0
  6
CONTINUOUS
 62
     4
100
AcDbMText
 10
2962.495882773142
 20
1567.171193702835
 30
0.0
 40
0.18
 41
0.0
 71
     5
 72
     1
  1
\A1;3800
  7
AR
  0
POINT
  5
55B
330
513
100
AcDbEntity
  8
DEFPOINTS
  6
CONTINUOUS
 62
     0
100
AcDbPoint
 10
2964.395882753451
 20
1566.952865487306
 30
0.0
  0
POINT
  5
55C
330
513
100
AcDbEntity
  8
DEFPOINTS
  6
CONTINUOUS
 62
     0
100
AcDbPoint
 10
2960.595882753455
 20
1566.952865487298
 30
0.0
  0
POINT
  5
55D
330
513
100
AcDbEntity
  8
DEFPOINTS
  6
CONTINUOUS
 62
     0
100
AcDbPoint
 10
2960.595882753455
 20
1566.979229210722
 30
0.0
  0
ENDBLK
  5
515
330
513
100
AcDbEntity
  8
0
100
AcDbBlockEnd
  0
BLOCK
  5
520
330
51F
100
AcDbEntity
  8
0
100
AcDbBlockBegin
  2
*D8
 70
     1
 10
0.0
 20
0.0
 30
0.0
  3
*D8
  1

  0
LINE
  5
522
330
51F
100
AcDbEntity
  8
0
  6
CONTINUOUS
100
AcDbLine
 10
2972.727624161027
 20
1575.942446363983
 30
0.0
 11
2972.807624161027
 21
1575.942446363982
 31
0.0
  0
LINE
  5
523
330
51F
100
AcDbEntity
  8
0
  6
CONTINUOUS
100
AcDbLine
 10
2972.727624160979
 20
1572.142446363974
 30
0.0
 11
2972.807624160979
 21
1572.142446363973
 31
0.0
  0
LINE
  5
524
330
51F
100
AcDbEntity
  8
0
  6
CONTINUOUS
100
AcDbLine
 10
2972.727624161024
 20
1575.762446363983
 30
0.0
 11
2972.727624160981
 21
1572.322446363974
 31
0.0
  0
SOLID
  5
525
330
51F
100
AcDbEntity
  8
0
  6
CONTINUOUS
100
AcDbTrace
 10
2972.697624161024
 20
1575.762446363983
 30
0.0
 11
2972.757624161025
 21
1575.762446363983
 31
0.0
 12
2972.727624161027
 22
1575.942446363983
 32
0.0
 13
2972.727624161027
 23
1575.942446363983
 33
0.0
  0
SOLID
  5
526
330
51F
100
AcDbEntity
  8
0
  6
CONTINUOUS
100
AcDbTrace
 10
2972.697624160981
 20
1572.322446363974
 30
0.0
 11
2972.757624160981
 21
1572.322446363974
 31
0.0
 12
2972.727624160979
 22
1572.142446363974
 32
0.0
 13
2972.727624160979
 23
1572.142446363974
 33
0.0
  0
MTEXT
  5
527
330
51F
100
AcDbEntity
  8
0
  6
CONTINUOUS
 62
     4
100
AcDbMText
 10
2972.535659631671
 20
1574.042446363981
 30
0.0
 40
0.18
 41
0.0
 71
     5
 72
     1
  1
\A1;3800
  7
AR
 11
1.256334497899823E-11
 21
1.0
 31
0.0
  0
POINT
  5
528
330
51F
100
AcDbEntity
  8
DEFPOINTS
  6
CONTINUOUS
 62
     0
100
AcDbPoint
 10
2972.595882753428
 20
1575.942446401332
 30
0.0
  0
POINT
  5
529
330
51F
100
AcDbEntity
  8
DEFPOINTS
  6
CONTINUOUS
 62
     0
100
AcDbPoint
 10
2972.595882753453
 20
1572.142446401323
 30
0.0
  0
POINT
  5
52A
330
51F
100
AcDbEntity
  8
DEFPOINTS
  6
CONTINUOUS
 62
     0
100
AcDbPoint
 10
2972.727624141227
 20
1572.142446401323
 30
0.0
  0
ENDBLK
  5
521
330
51F
100
AcDbEntity
  8
0
100
AcDbBlockEnd
  0
BLOCK
  5
52C
330
52B
100
AcDbEntity
  8
0
100
AcDbBlockBegin
  2
*D9
 70
     1
 10
0.0
 20
0.0
 30
0.0
  3
*D9
  1

  0
LINE
  5
54C
330
52B
100
AcDbEntity
  8
0
  6
CONTINUOUS
100
AcDbLine
 10
2980.795882773137
 20
1566.092446363909
 30
0.0
 11
2980.795882773138
 21
1566.172446363909
 31
0.0
  0
LINE
  5
54D
330
52B
100
AcDbEntity
  8
0
  6
CONTINUOUS
100
AcDbLine
 10
2984.595882773132
 20
1566.092446363861
 30
0.0
 11
2984.595882773134
 21
1566.172446363861
 31
0.0
  0
LINE
  5
54E
330
52B
100
AcDbEntity
  8
0
  6
CONTINUOUS
100
AcDbLine
 10
2980.975882773137
 20
1566.092446363907
 30
0.0
 11
2984.415882773133
 21
1566.092446363864
 31
0.0
  0
SOLID
  5
54F
330
52B
100
AcDbEntity
  8
0
  6
CONTINUOUS
100
AcDbTrace
 10
2980.975882773137
 20
1566.122446363907
 30
0.0
 11
2980.975882773137
 21
1566.062446363907
 31
0.0
 12
2980.795882773137
 22
1566.092446363909
 32
0.0
 13
2980.795882773137
 23
1566.092446363909
 33
0.0
  0
SOLID
  5
550
330
52B
100
AcDbEntity
  8
0
  6
CONTINUOUS
100
AcDbTrace
 10
2984.415882773133
 20
1566.122446363864
 30
0.0
 11
2984.415882773133
 21
1566.062446363864
 31
0.0
 12
2984.595882773132
 22
1566.092446363861
 32
0.0
 13
2984.595882773132
 23
1566.092446363861
 33
0.0
  0
MTEXT
  5
551
330
52B
100
AcDbEntity
  8
0
  6
CONTINUOUS
 62
     4
100
AcDbMText
 10
2982.695882773137
 20
1566.284410893217
 30
0.0
 40
0.18
 41
0.0
 71
     5
 72
     1
  1
\A1;3800
  7
AR
  0
POINT
  5
552
330
52B
100
AcDbEntity
  8
DEFPOINTS
  6
CONTINUOUS
 62
     0
100
AcDbPoint
 10
2980.795882753462
 20
1566.09244640135
 30
0.0
  0
POINT
  5
553
330
52B
100
AcDbEntity
  8
DEFPOINTS
  6
CONTINUOUS
 62
     0
100
AcDbPoint
 10
2984.595882753457
 20
1566.092446401358
 30
0.0
  0
POINT
  5
554
330
52B
100
AcDbEntity
  8
DEFPOINTS
  6
CONTINUOUS
 62
     0
100
AcDbPoint
 10
2984.595882753457
 20
1566.092446401358
 30
0.0
  0
ENDBLK
  5
52D
330
52B
100
AcDbEntity
  8
0
100
AcDbBlockEnd
  0
BLOCK
  5
538
330
537
100
AcDbEntity
  8
0
100
AcDbBlockBegin
  2
*D10
 70
     1
 10
0.0
 20
0.0
 30
0.0
  3
*D10
  1

  0
LINE
  5
543
330
537
100
AcDbEntity
  8
0
  6
CONTINUOUS
100
AcDbLine
 10
2973.246431918511
 20
1559.942446363976
 30
0.0
 11
2973.326431918511
 21
1559.942446363975
 31
0.0
  0
LINE
  5
544
330
537
100
AcDbEntity
  8
0
  6
CONTINUOUS
100
AcDbLine
 10
2973.246431918486
 20
1557.942446363977
 30
0.0
 11
2973.326431918486
 21
1557.942446363976
 31
0.0
  0
LINE
  5
545
330
537
100
AcDbEntity
  8
0
  6
CONTINUOUS
100
AcDbLine
 10
2973.246431918509
 20
1559.762446363976
 30
0.0
 11
2973.246431918489
 21
1558.122446363977
 31
0.0
  0
SOLID
  5
546
330
537
100
AcDbEntity
  8
0
  6
CONTINUOUS
100
AcDbTrace
 10
2973.216431918509
 20
1559.762446363976
 30
0.0
 11
2973.276431918509
 21
1559.762446363975
 31
0.0
 12
2973.246431918511
 22
1559.942446363976
 32
0.0
 13
2973.246431918511
 23
1559.942446363976
 33
0.0
  0
SOLID
  5
547
330
537
100
AcDbEntity
  8
0
  6
CONTINUOUS
100
AcDbTrace
 10
2973.216431918489
 20
1558.122446363977
 30
0.0
 11
2973.276431918489
 21
1558.122446363976
 31
0.0
 12
2973.246431918486
 22
1557.942446363977
 32
0.0
 13
2973.246431918486
 23
1557.942446363977
 33
0.0
  0
MTEXT
  5
548
330
537
100
AcDbEntity
  8
0
  6
CONTINUOUS
 62
     4
100
AcDbMText
 10
2973.054528780709
 20
1558.942446363979
 30
0.0
 40
0.18
 41
0.0
 71
     5
 72
     1
  1
\A1;2000
  7
AR
 11
1.256334497899823E-11
 21
1.0
 31
0.0
  0
POINT
  5
549
330
537
100
AcDbEntity
  8
DEFPOINTS
  6
CONTINUOUS
 62
     0
100
AcDbPoint
 10
2973.125023962821
 20
1559.942446401331
 30
0.0
  0
POINT
  5
54A
330
537
100
AcDbEntity
  8
DEFPOINTS
  6
CONTINUOUS
 62
     0
100
AcDbPoint
 10
2973.125023962822
 20
1557.942446401332
 30
0.0
  0
POINT
  5
54B
330
537
100
AcDbEntity
  8
DEFPOINTS
  6
CONTINUOUS
 62
     0
100
AcDbPoint
 10
2973.246431898913
 20
1557.942446401332
 30
0.0
  0
ENDBLK
  5
539
330
537
100
AcDbEntity
  8
0
100
AcDbBlockEnd
  0
ENDSEC
  0
SECTION
  2
ENTITIES
  0
LINE
  5
420
102
{ACAD_REACTORS
330
4D8
102
}
330
1F
100
AcDbEntity
  8
0
  6
CONTINUOUS
 62
     0
100
AcDbLine
 39
31.96927622246645
 10
2960.595882753463
 20
1557.942446401306
 30
0.0
 11
2984.595882753463
 21
1557.942446401355
 31
0.0
  0
LINE
  5
421
102
{ACAD_REACTORS
330
4D5
102
}
330
1F
100
AcDbEntity
  8
0
  6
CONTINUOUS
 62
     0
100
AcDbLine
 39
31.96927622246645
 10
2984.595882753463
 20
1557.942446401355
 30
0.0
 11
2984.595882753427
 21
1575.942446401355
 31
0.0
  0
LINE
  5
422
102
{ACAD_REACTORS
330
4D2
102
}
330
1F
100
AcDbEntity
  8
0
  6
CONTINUOUS
 62
     0
100
AcDbLine
 39
31.96927622246645
 10
2984.595882753427
 20
1575.942446401355
 30
0.0
 11
2960.595882753427
 21
1575.942446401307
 31
0.0
  0
LINE
  5
423
102
{ACAD_REACTORS
330
4CF
102
}
330
1F
100
AcDbEntity
  8
0
  6
CONTINUOUS
 62
     0
100
AcDbLine
 39
31.96927622246645
 10
2960.595882753427
 20
1575.942446401307
 30
0.0
 11
2960.595882753463
 21
1557.942446401306
 31
0.0
  0
LINE
  5
424
102
{ACAD_REACTORS
330
4CF
102
}
330
1F
100
AcDbEntity
  8
0
  6
CONTINUOUS
 62
     0
100
AcDbLine
 39
31.96927622246645
 10
2964.395882753442
 20
1571.142446401315
 30
0.0
 11
2964.395882753463
 21
1560.942446401312
 31
0.0
  0
LINE
  5
425
330
1F
100
AcDbEntity
  8
0
  6
CONTINUOUS
 62
     0
100
AcDbLine
 39
31.96927622246645
 10
2964.545882753437
 20
1570.992446401315
 30
0.0
 11
2964.545882753449
 21
1568.292446401316
 31
0.0
  0
LINE
  5
426
330
1F
100
AcDbEntity
  8
0
  6
CONTINUOUS
 62
     0
100
AcDbLine
 39
31.96927622246645
 10
2964.545882753443
 20
1568.192446401317
 30
0.0
 11
2964.545882753452
 21
1565.492446401317
 31
0.0
  0
LINE
  5
427
330
1F
100
AcDbEntity
  8
0
  6
CONTINUOUS
 62
     0
100
AcDbLine
 39
31.96927622246645
 10
2964.545882753456
 20
1565.392446401317
 30
0.0
 11
2964.545882753451
 21
1564.292446401313
 31
0.0
  0
LINE
  5
428
330
1F
100
AcDbEntity
  8
0
  6
CONTINUOUS
 62
     0
100
AcDbLine
 39
31.96927622246645
 10
2964.545882753455
 20
1564.192446401313
 30
0.0
 11
2964.545882753464
 21
1561.092446401312
 31
0.0
  0
LINE
  5
429
330
1F
100
AcDbEntity
  8
0
  6
CONTINUOUS
 62
     1
100
AcDbLine
 39
31.96927622246645
 10
2971.02588275347
 20
1560.042446401327
 30
0.0
 11
2974.075882753473
 21
1560.042446401332
 31
0.0
  0
LINE
  5
42A
330
1F
100
AcDbEntity
  8
0
  6
CONTINUOUS
 62
     0
100
AcDbLine
 39
31.96927622246645
 10
2971.025882753467
 20
1561.142446401328
 30
0.0
 11
2973.175882753465
 21
1561.142446401333
 31
0.0
  0
LINE
  5
42B
330
1F
100
AcDbEntity
  8
0
  6
CONTINUOUS
 62
     0
100
AcDbLine
 39
31.96927622246645
 10
2974.075882753473
 20
1559.942446401332
 30
0.0
 11
2979.795882753463
 21
1559.942446401346
 31
0.0
  0
LINE
  5
42C
330
1F
100
AcDbEntity
  8
0
  6
CONTINUOUS
 62
     0
100
AcDbLine
 39
31.96927622246645
 10
2971.025882753474
 20
1561.29244640133
 30
0.0
 11
2973.175882753472
 21
1561.292446401334
 31
0.0
  0
LINE
  5
42D
330
1F
100
AcDbEntity
  8
0
  6
CONTINUOUS
 62
     0
100
AcDbLine
 39
31.96927622246645
 10
2974.175882753475
 20
1560.092446401335
 30
0.0
 11
2976.425882753479
 21
1560.092446401339
 31
0.0
  0
LINE
  5
42E
330
1F
100
AcDbEntity
  8
0
  6
CONTINUOUS
 62
     0
100
AcDbLine
 39
31.96927622246645
 10
2976.525882753481
 20
1560.09244640134
 30
0.0
 11
2979.645882753465
 21
1560.092446401346
 31
0.0
  0
LINE
  5
42F
330
1F
100
AcDbEntity
  8
0
  6
CONTINUOUS
 62
     1
100
AcDbLine
 39
31.96927622246645
 10
2980.795882753463
 20
1559.94244640135
 30
0.0
 11
2980.795882753471
 21
1563.04244640135
 31
0.0
  0
LINE
  5
430
330
1F
100
AcDbEntity
  8
0
  6
CONTINUOUS
 62
     1
100
AcDbLine
 39
31.96927622246645
 10
2980.695882753468
 20
1560.092446401346
 30
0.0
 11
2980.695882753473
 21
1563.042446401349
 31
0.0
  0
LINE
  5
431
102
{ACAD_REACTORS
330
4D5
102
}
330
1F
100
AcDbEntity
  8
0
  6
CONTINUOUS
 62
     0
100
AcDbLine
 39
31.96927622246645
 10
2980.795882753471
 20
1563.042446401351
 30
0.0
 11
2980.795882753452
 21
1569.142446401348
 31
0.0
  0
LINE
  5
432
330
1F
100
AcDbEntity
  8
0
  6
CONTINUOUS
 62
     1
100
AcDbLine
 39
31.96927622246645
 10
2980.795882753456
 20
1569.142446401348
 30
0.0
 11
2980.795882753442
 21
1572.142446401346
 31
0.0
  0
LINE
  5
433
330
1F
100
AcDbEntity
  8
0
  6
CONTINUOUS
 62
     0
100
AcDbLine
 39
31.96927622246645
 10
2980.645882753463
 20
1563.142446401348
 30
0.0
 11
2980.645882753447
 21
1569.042446401347
 31
0.0
  0
LINE
  5
434
330
1F
100
AcDbEntity
  8
0
  6
CONTINUOUS
 62
     1
100
AcDbLine
 39
31.96927622246645
 10
2980.645882753454
 20
1569.142446401348
 30
0.0
 11
2980.645882753448
 21
1572.042446401345
 31
0.0
  0
LINE
  5
435
330
1F
100
AcDbEntity
  8
0
  6
CONTINUOUS
 62
     0
100
AcDbLine
 39
31.96927622246645
 10
2979.795882753442
 20
1572.142446401343
 30
0.0
 11
2974.075882753437
 21
1572.142446401331
 31
0.0
  0
LINE
  5
436
330
1F
100
AcDbEntity
  8
0
  6
CONTINUOUS
 62
     0
100
AcDbLine
 39
31.96927622246645
 10
2979.645882753448
 20
1571.992446401342
 30
0.0
 11
2976.525882753434
 21
1571.992446401337
 31
0.0
  0
LINE
  5
437
330
1F
100
AcDbEntity
  8
0
  6
CONTINUOUS
 62
     0
100
AcDbLine
 39
31.96927622246645
 10
2976.42588275344
 20
1571.992446401336
 30
0.0
 11
2974.175882753443
 21
1571.992446401331
 31
0.0
  0
LINE
  5
438
330
1F
100
AcDbEntity
  8
0
  6
CONTINUOUS
 62
     0
100
AcDbLine
 39
31.96927622246645
 10
2980.795882753463
 20
1569.142446401348
 30
0.0
 11
2977.42588275345
 21
1569.142446401341
 31
0.0
  0
LINE
  5
439
330
1F
100
AcDbEntity
  8
0
  6
CONTINUOUS
 62
     0
100
AcDbLine
 39
31.96927622246645
 10
2979.795882753447
 20
1570.042446401345
 30
0.0
 11
2979.64588275346
 21
1570.042446401345
 31
0.0
  0
LINE
  5
43A
330
1F
100
AcDbEntity
  8
0
  6
CONTINUOUS
 62
     0
100
AcDbLine
 39
31.96927622246645
 10
2980.645882753447
 20
1569.042446401348
 30
0.0
 11
2977.425882753453
 21
1569.042446401342
 31
0.0
  0
LINE
  5
43B
330
1F
100
AcDbEntity
  8
0
  6
CONTINUOUS
 62
     0
100
AcDbLine
 39
31.96927622246645
 10
2976.525882753448
 20
1569.04244640134
 30
0.0
 11
2976.425882753453
 21
1569.042446401338
 31
0.0
  0
LINE
  5
43C
330
1F
100
AcDbEntity
  8
0
  6
CONTINUOUS
 62
     0
100
AcDbLine
 39
31.96927622246645
 10
2977.625882753452
 20
1568.142446401342
 30
0.0
 11
2976.425882753448
 21
1568.142446401338
 31
0.0
  0
LINE
  5
43D
330
1F
100
AcDbEntity
  8
0
  6
CONTINUOUS
 62
     0
100
AcDbLine
 39
31.96927622246645
 10
2977.625882753459
 20
1568.042446401342
 30
0.0
 11
2976.525882753457
 21
1568.042446401339
 31
0.0
  0
LINE
  5
43E
330
1F
100
AcDbEntity
  8
0
  6
CONTINUOUS
 62
     0
100
AcDbLine
 39
31.96927622246645
 10
2977.625882753458
 20
1567.292446401342
 30
0.0
 11
2977.525882753444
 21
1567.292446401341
 31
0.0
  0
LINE
  5
43F
330
1F
100
AcDbEntity
  8
0
  6
CONTINUOUS
 62
     0
100
AcDbLine
 39
31.96927622246645
 10
2970.925882753464
 20
1565.542446401329
 30
0.0
 11
2970.925882753475
 21
1559.942446401325
 31
0.0
  0
LINE
  5
440
330
1F
100
AcDbEntity
  8
0
  6
CONTINUOUS
 62
     0
100
AcDbLine
 39
31.96927622246645
 10
2967.875882753474
 20
1564.492446401323
 30
0.0
 11
2967.875882753483
 21
1560.092446401318
 31
0.0
  0
LINE
  5
441
330
1F
100
AcDbEntity
  8
0
  6
CONTINUOUS
 62
     0
100
AcDbLine
 39
31.96927622246645
 10
2967.775882753479
 20
1564.492446401323
 30
0.0
 11
2967.775882753481
 21
1559.942446401319
 31
0.0
  0
LINE
  5
442
330
1F
100
AcDbEntity
  8
0
  6
CONTINUOUS
 62
     0
100
AcDbLine
 39
31.96927622246645
 10
2966.875882753478
 20
1564.292446401318
 30
0.0
 11
2966.875882753482
 21
1564.192446401318
 31
0.0
  0
LINE
  5
443
330
1F
100
AcDbEntity
  8
0
  6
CONTINUOUS
 62
     0
100
AcDbLine
 39
31.96927622246645
 10
2966.875882753484
 20
1561.092446401316
 30
0.0
 11
2966.875882753481
 21
1560.942446401318
 31
0.0
  0
LINE
  5
444
330
1F
100
AcDbEntity
  8
0
  6
CONTINUOUS
 62
     0
100
AcDbLine
 39
31.96927622246645
 10
2971.025882753455
 20
1565.542446401328
 30
0.0
 11
2971.02588275347
 21
1560.042446401327
 31
0.0
  0
LINE
  5
445
330
1F
100
AcDbEntity
  8
0
  6
CONTINUOUS
 62
     0
100
AcDbLine
 39
31.96927622246645
 10
2970.925882753464
 20
1565.542446401328
 30
0.0
 11
2971.025882753455
 21
1565.542446401329
 31
0.0
  0
LINE
  5
446
330
1F
100
AcDbEntity
  8
0
  6
CONTINUOUS
 62
     0
100
AcDbLine
 39
31.96927622246645
 10
2970.925882753438
 20
1572.992446401326
 30
0.0
 11
2970.925882753449
 21
1567.49244640132
 31
0.0
  0
HATCH
  5
447
330
1F
100
AcDbEntity
  8
0
  6
CONTINUOUS
 62
     1
100
AcDbHatch
 10
0.0
 20
0.0
 30
0.0
210
0.0
220
0.0
230
1.0
  2
SOLID
 70
     1
 71
     1
 91
        1
 92
        7
 72
     0
 73
     1
 93
       10
 10
2968.525882753451
 20
1567.392446401328
 10
2967.695882753453
 20
1567.392446401322
 10
2967.695882753465
 20
1565.392446401322
 10
2969.59588275347
 20
1565.392446401327
 10
2969.595882753465
 20
1567.392446401335
 10
2969.445882753467
 20
1567.392446401333
 10
2969.445882753468
 20
1565.542446401326
 10
2967.845882753462
 20
1565.542446401323
 10
2967.845882753451
 20
1567.242446401323
 10
2968.525882753452
 20
1567.242446401328
 97
       10
330
4DB
330
4DD
330
4E0
330
4CB
330
4DA
330
4CA
330
4C8
330
4DC
330
4D9
330
448
 75
     1
 76
     1
 47
0.0072474183762364
 98
        1
 10
2967.961667336155
 20
1567.332405864571
1001
GRADIENTCOLOR1ACI
1070
     5
1001
GRADIENTCOLOR2ACI
1070
     2
1001
ACAD
1010
0.0
1020
0.0
1030
0.0
  0
LINE
  5
448
102
{ACAD_REACTORS
330
447
102
}
330
1F
100
AcDbEntity
  8
0
  6
CONTINUOUS
 62
     0
100
AcDbLine
 39
31.96927622246645
 10
2968.525882753444
 20
1572.992446401322
 30
0.0
 11
2968.525882753452
 21
1567.242446401328
 31
0.0
  0
LINE
  5
449
330
1F
100
AcDbEntity
  8
0
  6
CONTINUOUS
 62
     0
100
AcDbLine
 39
31.96927622246645
 10
2968.375882753437
 20
1572.142446401322
 30
0.0
 11
2968.375882753471
 21
1567.392446401328
 31
0.0
  0
LINE
  5
44A
330
1F
100
AcDbEntity
  8
0
  6
CONTINUOUS
 62
     0
100
AcDbLine
 39
31.96927622246645
 10
2967.625882753448
 20
1569.89244640132
 30
0.0
 11
2967.625882753452
 21
1569.792446401323
 31
0.0
  0
LINE
  5
44B
330
1F
100
AcDbEntity
  8
0
  6
CONTINUOUS
 62
     0
100
AcDbLine
 39
31.96927622246645
 10
2967.37588275344
 20
1571.992446401319
 30
0.0
 11
2967.375882753468
 21
1569.692446401322
 31
0.0
  0
LINE
  5
44C
330
1F
100
AcDbEntity
  8
0
  6
CONTINUOUS
 62
     0
100
AcDbLine
 39
31.96927622246645
 10
2967.475882753472
 20
1568.292446401323
 30
0.0
 11
2967.475882753469
 21
1568.192446401323
 31
0.0
  0
LINE
  5
44D
330
1F
100
AcDbEntity
  8
0
  6
CONTINUOUS
 62
     0
100
AcDbLine
 39
31.96927622246645
 10
2967.275882753438
 20
1572.14244640132
 30
0.0
 11
2967.275882753469
 21
1569.692446401323
 31
0.0
  0
LINE
  5
44E
330
1F
100
AcDbEntity
  8
0
  6
CONTINUOUS
 62
     0
100
AcDbLine
 39
31.96927622246645
 10
2970.925882753458
 20
1566.59244640132
 30
0.0
 11
2970.925882753454
 21
1566.49244640132
 31
0.0
  0
LINE
  5
44F
330
1F
100
AcDbEntity
  8
0
  6
CONTINUOUS
 62
     0
100
AcDbLine
 39
31.96927622246645
 10
2971.025882753447
 20
1573.142446401328
 30
0.0
 11
2971.025882753458
 21
1567.492446401321
 31
0.0
  0
LINE
  5
450
330
1F
100
AcDbEntity
  8
0
  6
CONTINUOUS
 62
     0
100
AcDbLine
 39
31.96927622246645
 10
2974.075882753437
 20
1572.142446401331
 30
0.0
 11
2974.075882753456
 21
1568.792446401329
 31
0.0
  0
LINE
  5
451
330
1F
100
AcDbEntity
  8
0
  6
CONTINUOUS
 62
     0
100
AcDbLine
 39
31.96927622246645
 10
2973.175882753445
 20
1571.142526232953
 30
0.0
 11
2973.175882753438
 21
1570.992526232951
 31
0.0
  0
LINE
  5
452
330
1F
100
AcDbEntity
  8
0
  6
CONTINUOUS
 62
     0
100
AcDbLine
 39
31.96927622246645
 10
2974.075882753453
 20
1568.142446401332
 30
0.0
 11
2974.075882753454
 21
1564.042446401315
 31
0.0
  0
LINE
  5
453
330
1F
100
AcDbEntity
  8
0
  6
CONTINUOUS
 62
     0
100
AcDbLine
 39
31.96927622246645
 10
2974.075882753466
 20
1563.39244640131
 30
0.0
 11
2974.075882753473
 21
1559.942446401332
 31
0.0
  0
LINE
  5
454
330
1F
100
AcDbEntity
  8
0
  6
CONTINUOUS
 62
     0
100
AcDbLine
 39
31.96927622246645
 10
2973.175882753469
 20
1561.292446401334
 30
0.0
 11
2973.175882753461
 21
1561.142446401333
 31
0.0
  0
LINE
  5
455
330
1F
100
AcDbEntity
  8
0
  6
CONTINUOUS
 62
     0
100
AcDbLine
 39
31.96927622246645
 10
2974.175882753447
 20
1571.992446401331
 30
0.0
 11
2974.175882753454
 21
1568.792446401329
 31
0.0
  0
LINE
  5
456
330
1F
100
AcDbEntity
  8
0
  6
CONTINUOUS
 62
     0
100
AcDbLine
 39
31.96927622246645
 10
2974.175882753451
 20
1568.042446401332
 30
0.0
 11
2974.17588275345
 21
1566.742446401332
 31
0.0
  0
LINE
  5
457
330
1F
100
AcDbEntity
  8
0
  6
CONTINUOUS
 62
     0
100
AcDbLine
 39
31.96927622246645
 10
2974.17588275345
 20
1566.642446401333
 30
0.0
 11
2974.175882753453
 21
1565.542446401315
 31
0.0
  0
LINE
  5
458
330
1F
100
AcDbEntity
  8
0
  6
CONTINUOUS
 62
     0
100
AcDbLine
 39
31.96927622246645
 10
2974.175882753457
 20
1565.442446401315
 30
0.0
 11
2974.17588275346
 21
1564.142446401316
 31
0.0
  0
LINE
  5
459
330
1F
100
AcDbEntity
  8
0
  6
CONTINUOUS
 62
     0
100
AcDbLine
 39
31.96927622246645
 10
2974.175882753465
 20
1563.39244640131
 30
0.0
 11
2974.175882753479
 21
1560.092446401335
 31
0.0
  0
LINE
  5
45A
330
1F
100
AcDbEntity
  8
0
  6
CONTINUOUS
 62
     0
100
AcDbLine
 39
31.96927622246645
 10
2976.425882753443
 20
1571.992446401336
 30
0.0
 11
2976.425882753446
 21
1569.042446401339
 31
0.0
  0
LINE
  5
45B
330
1F
100
AcDbEntity
  8
0
  6
CONTINUOUS
 62
     0
100
AcDbLine
 39
31.96927622246645
 10
2976.425882753448
 20
1568.142446401338
 30
0.0
 11
2976.42588275345
 21
1566.742446401338
 31
0.0
  0
LINE
  5
45C
330
1F
100
AcDbEntity
  8
0
  6
CONTINUOUS
 62
     0
100
AcDbLine
 39
31.96927622246645
 10
2976.425882753447
 20
1566.642446401338
 30
0.0
 11
2976.42588275345
 21
1565.542446401334
 31
0.0
  0
LINE
  5
45D
330
1F
100
AcDbEntity
  8
0
  6
CONTINUOUS
 62
     0
100
AcDbLine
 39
31.96927622246645
 10
2976.425882753453
 20
1565.442446401334
 30
0.0
 11
2976.42588275346
 21
1564.04244640133
 31
0.0
  0
LINE
  5
45E
330
1F
100
AcDbEntity
  8
0
  6
CONTINUOUS
 62
     0
100
AcDbLine
 39
31.96927622246645
 10
2975.67588275344
 20
1568.142446401337
 30
0.0
 11
2975.675882753451
 21
1568.042446401336
 31
0.0
  0
LINE
  5
45F
330
1F
100
AcDbEntity
  8
0
  6
CONTINUOUS
 62
     0
100
AcDbLine
 39
31.96927622246645
 10
2975.67588275346
 20
1564.142446401328
 30
0.0
 11
2975.675882753452
 21
1564.042446401328
 31
0.0
  0
LINE
  5
460
330
1F
100
AcDbEntity
  8
0
  6
CONTINUOUS
 62
     0
100
AcDbLine
 39
31.96927622246645
 10
2976.425882753465
 20
1563.142446401337
 30
0.0
 11
2976.425882753479
 21
1560.092446401339
 31
0.0
  0
LINE
  5
461
330
1F
100
AcDbEntity
  8
0
  6
CONTINUOUS
 62
     0
100
AcDbLine
 39
31.96927622246645
 10
2976.525882753438
 20
1571.992446401337
 30
0.0
 11
2976.525882753448
 21
1569.04244640134
 31
0.0
  0
LINE
  5
462
330
1F
100
AcDbEntity
  8
0
  6
CONTINUOUS
 62
     0
100
AcDbLine
 39
31.96927622246645
 10
2977.425882753453
 20
1569.142446401341
 30
0.0
 11
2977.42588275345
 21
1569.042446401343
 31
0.0
  0
LINE
  5
463
330
1F
100
AcDbEntity
  8
0
  6
CONTINUOUS
 62
     0
100
AcDbLine
 39
31.96927622246645
 10
2976.525882753457
 20
1568.042446401339
 30
0.0
 11
2976.525882753469
 21
1564.142446401331
 31
0.0
  0
LINE
  5
464
330
1F
100
AcDbEntity
  8
0
  6
CONTINUOUS
 62
     0
100
AcDbLine
 39
31.96927622246645
 10
2976.525882753471
 20
1563.142446401338
 30
0.0
 11
2976.525882753481
 21
1560.09244640134
 31
0.0
  0
LINE
  5
465
330
1F
100
AcDbEntity
  8
0
  6
CONTINUOUS
 62
     0
100
AcDbLine
 39
31.96927622246645
 10
2977.425882753472
 20
1563.142446401341
 30
0.0
 11
2977.425882753483
 21
1563.04244640134
 31
0.0
  0
LINE
  5
466
330
1F
100
AcDbEntity
  8
0
  6
CONTINUOUS
 62
     0
100
AcDbLine
 39
31.96927622246645
 10
2977.525882753448
 20
1567.292446401341
 30
0.0
 11
2977.525882753451
 21
1566.142446401339
 31
0.0
  0
LINE
  5
467
330
1F
100
AcDbEntity
  8
0
  6
CONTINUOUS
 62
     0
100
AcDbLine
 39
31.96927622246645
 10
2977.525882753451
 20
1566.042446401339
 30
0.0
 11
2977.525882753453
 21
1564.892446401339
 31
0.0
  0
LINE
  5
468
330
1F
100
AcDbEntity
  8
0
  6
CONTINUOUS
 62
     0
100
AcDbLine
 39
31.96927622246645
 10
2977.625882753448
 20
1568.142446401342
 30
0.0
 11
2977.625882753456
 21
1568.042446401342
 31
0.0
  0
LINE
  5
469
330
1F
100
AcDbEntity
  8
0
  6
CONTINUOUS
 62
     0
100
AcDbLine
 39
31.96927622246645
 10
2977.625882753454
 20
1567.292446401342
 30
0.0
 11
2977.625882753457
 21
1566.142446401339
 31
0.0
  0
LINE
  5
46A
330
1F
100
AcDbEntity
  8
0
  6
CONTINUOUS
 62
     0
100
AcDbLine
 39
31.96927622246645
 10
2977.625882753457
 20
1566.04244640134
 30
0.0
 11
2977.625882753462
 21
1564.89244640134
 31
0.0
  0
LINE
  5
46B
330
1F
100
AcDbEntity
  8
0
  6
CONTINUOUS
 62
     0
100
AcDbLine
 39
31.96927622246645
 10
2977.625882753468
 20
1564.14244640134
 30
0.0
 11
2977.625882753464
 21
1564.042446401341
 31
0.0
  0
LINE
  5
46C
330
1F
100
AcDbEntity
  8
0
  6
CONTINUOUS
 62
     0
100
AcDbLine
 39
31.96927622246645
 10
2980.645882753453
 20
1566.042446401348
 30
0.0
 11
2976.525882753462
 21
1566.042446401336
 31
0.0
  0
LINE
  5
46D
330
1F
100
AcDbEntity
  8
0
  6
CONTINUOUS
 62
     0
100
AcDbLine
 39
31.96927622246645
 10
2974.075882753459
 20
1566.492446401329
 30
0.0
 11
2970.925882753458
 21
1566.49244640132
 31
0.0
  0
LINE
  5
46E
330
1F
100
AcDbEntity
  8
0
  6
CONTINUOUS
 62
     0
100
AcDbLine
 39
31.96927622246645
 10
2980.645882753453
 20
1566.142446401348
 30
0.0
 11
2976.525882753462
 21
1566.142446401337
 31
0.0
  0
LINE
  5
46F
330
1F
100
AcDbEntity
  8
0
  6
CONTINUOUS
 62
     0
100
AcDbLine
 39
31.96927622246645
 10
2974.075882753463
 20
1566.592446401329
 30
0.0
 11
2970.925882753458
 21
1566.59244640132
 31
0.0
  0
LINE
  5
470
330
1F
100
AcDbEntity
  8
0
  6
CONTINUOUS
 62
     0
100
AcDbLine
 39
31.96927622246645
 10
2975.675882753455
 20
1568.042446401336
 30
0.0
 11
2974.175882753451
 21
1568.042446401332
 31
0.0
  0
LINE
  5
471
330
1F
100
AcDbEntity
  8
0
  6
CONTINUOUS
 62
     0
100
AcDbLine
 39
31.96927622246645
 10
2976.425882753454
 20
1566.742446401339
 30
0.0
 11
2974.075882753452
 21
1566.742446401332
 31
0.0
  0
LINE
  5
472
330
1F
100
AcDbEntity
  8
0
  6
CONTINUOUS
 62
     0
100
AcDbLine
 39
31.96927622246645
 10
2976.425882753454
 20
1566.642446401338
 30
0.0
 11
2974.17588275345
 21
1566.642446401333
 31
0.0
  0
LINE
  5
473
330
1F
100
AcDbEntity
  8
0
  6
CONTINUOUS
 62
     0
100
AcDbLine
 39
31.96927622246645
 10
2975.675882753444
 20
1568.142446401337
 30
0.0
 11
2974.075882753449
 21
1568.142446401331
 31
0.0
  0
LINE
  5
474
330
1F
100
AcDbEntity
  8
0
  6
CONTINUOUS
 62
     0
100
AcDbLine
 39
31.96927622246645
 10
2974.175882753454
 20
1568.792446401329
 30
0.0
 11
2974.075882753456
 21
1568.792446401329
 31
0.0
  0
LINE
  5
475
330
1F
100
AcDbEntity
  8
0
  6
CONTINUOUS
 62
     0
100
AcDbLine
 39
31.96927622246645
 10
2971.025882753462
 20
1567.492446401321
 30
0.0
 11
2970.925882753449
 21
1567.492446401321
 31
0.0
  0
LINE
  5
476
330
1F
100
AcDbEntity
  8
0
  6
CONTINUOUS
 62
     0
100
AcDbLine
 39
31.96927622246645
 10
2980.795882753471
 20
1563.04244640135
 30
0.0
 11
2977.42588275348
 21
1563.04244640134
 31
0.0
  0
LINE
  5
477
330
1F
100
AcDbEntity
  8
0
  6
CONTINUOUS
 62
     0
100
AcDbLine
 39
31.96927622246645
 10
2979.795882753477
 20
1562.142446401347
 30
0.0
 11
2979.645882753472
 21
1562.142446401347
 31
0.0
  0
LINE
  5
478
330
1F
100
AcDbEntity
  8
0
  6
CONTINUOUS
 62
     0
100
AcDbLine
 39
31.96927622246645
 10
2980.645882753463
 20
1563.142446401349
 30
0.0
 11
2977.425882753472
 21
1563.14244640134
 31
0.0
  0
LINE
  5
479
330
1F
100
AcDbEntity
  8
0
  6
CONTINUOUS
 62
     0
100
AcDbLine
 39
31.96927622246645
 10
2976.525882753471
 20
1563.142446401338
 30
0.0
 11
2976.425882753472
 21
1563.142446401337
 31
0.0
  0
LINE
  5
47A
330
1F
100
AcDbEntity
  8
0
  6
CONTINUOUS
 62
     1
100
AcDbLine
 39
31.96927622246645
 10
2970.925882753464
 20
1565.542446401337
 30
0.0
 11
2970.925882753469
 21
1566.49244640132
 31
0.0
  0
LINE
  5
47B
330
1F
100
AcDbEntity
  8
0
  6
CONTINUOUS
 62
     1
100
AcDbLine
 39
31.96927622246645
 10
2970.925882753452
 20
1567.49244640132
 30
0.0
 11
2970.925882753458
 21
1566.59244640132
 31
0.0
  0
LINE
  5
47C
330
1F
100
AcDbEntity
  8
0
  6
CONTINUOUS
 62
     0
100
AcDbLine
 39
31.96927622246645
 10
2979.79588275345
 20
1570.042446401345
 30
0.0
 11
2979.795882753442
 21
1572.142446401343
 31
0.0
  0
LINE
  5
47D
330
1F
100
AcDbEntity
  8
0
  6
CONTINUOUS
 62
     0
100
AcDbLine
 39
31.96927622246645
 10
2979.645882753456
 20
1570.042446401345
 30
0.0
 11
2979.645882753448
 21
1571.992446401342
 31
0.0
  0
LINE
  5
47E
330
1F
100
AcDbEntity
  8
0
  6
CONTINUOUS
 62
     1
100
AcDbLine
 39
31.96927622246645
 10
2979.795882753446
 20
1572.142446401343
 30
0.0
 11
2980.795882753446
 21
1572.142446401346
 31
0.0
  0
LINE
  5
47F
330
1F
100
AcDbEntity
  8
0
  6
CONTINUOUS
 62
     1
100
AcDbLine
 39
31.96927622246645
 10
2979.795882753453
 20
1572.042446401344
 30
0.0
 11
2980.645882753448
 21
1572.042446401345
 31
0.0
  0
LINE
  5
480
330
1F
100
AcDbEntity
  8
0
  6
CONTINUOUS
 62
     1
100
AcDbLine
 39
31.96927622246645
 10
2976.525882753448
 20
1569.04244640134
 30
0.0
 11
2977.425882753453
 21
1569.042446401342
 31
0.0
  0
LINE
  5
481
330
1F
100
AcDbEntity
  8
0
  6
CONTINUOUS
 62
     1
100
AcDbLine
 39
31.96927622246645
 10
2977.525882753454
 20
1568.142446401341
 30
0.0
 11
2977.525882753452
 21
1569.042446401342
 31
0.0
  0
LINE
  5
482
330
1F
100
AcDbEntity
  8
0
  6
CONTINUOUS
 62
     0
100
AcDbLine
 39
31.96927622246645
 10
2977.625882753471
 20
1564.042446401341
 30
0.0
 11
2976.425882753456
 21
1564.04244640133
 31
0.0
  0
LINE
  5
483
330
1F
100
AcDbEntity
  8
0
  6
CONTINUOUS
 62
     0
100
AcDbLine
 39
31.96927622246645
 10
2977.625882753475
 20
1564.14244640134
 30
0.0
 11
2976.525882753465
 21
1564.142446401331
 31
0.0
  0
LINE
  5
484
330
1F
100
AcDbEntity
  8
0
  6
CONTINUOUS
 62
     0
100
AcDbLine
 39
31.96927622246645
 10
2977.625882753462
 20
1564.89244640134
 30
0.0
 11
2977.525882753453
 21
1564.892446401339
 31
0.0
  0
LINE
  5
485
330
1F
100
AcDbEntity
  8
0
  6
CONTINUOUS
 62
     0
100
AcDbLine
 39
31.96927622246645
 10
2975.67588275346
 20
1564.142446401328
 30
0.0
 11
2974.175882753456
 21
1564.142446401316
 31
0.0
  0
LINE
  5
486
330
1F
100
AcDbEntity
  8
0
  6
CONTINUOUS
 62
     0
100
AcDbLine
 39
31.96927622246645
 10
2976.425882753457
 20
1565.442446401334
 30
0.0
 11
2974.075882753455
 21
1565.442446401315
 31
0.0
  0
LINE
  5
487
330
1F
100
AcDbEntity
  8
0
  6
CONTINUOUS
 62
     0
100
AcDbLine
 39
31.96927622246645
 10
2976.425882753453
 20
1565.542446401334
 30
0.0
 11
2974.175882753453
 21
1565.542446401315
 31
0.0
  0
LINE
  5
488
330
1F
100
AcDbEntity
  8
0
  6
CONTINUOUS
 62
     0
100
AcDbLine
 39
31.96927622246645
 10
2975.675882753456
 20
1564.042446401328
 30
0.0
 11
2974.075882753465
 21
1564.042446401315
 31
0.0
  0
LINE
  5
489
330
1F
100
AcDbEntity
  8
0
  6
CONTINUOUS
 62
     0
100
AcDbLine
 39
31.96927622246645
 10
2974.175882753465
 20
1563.392446401311
 30
0.0
 11
2974.075882753485
 21
1563.39244640131
 31
0.0
  0
LINE
  5
48A
330
1F
100
AcDbEntity
  8
0
  6
CONTINUOUS
 62
     1
100
AcDbLine
 39
31.96927622246645
 10
2974.17588275345
 20
1566.642446401332
 30
0.0
 11
2976.42588275345
 21
1565.542446401334
 31
0.0
  0
LINE
  5
48B
330
1F
100
AcDbEntity
  8
0
  6
CONTINUOUS
 62
     1
100
AcDbLine
 39
31.96927622246645
 10
2974.175882753453
 20
1565.542446401315
 30
0.0
 11
2976.42588275345
 21
1566.642446401338
 31
0.0
  0
LINE
  5
48C
330
1F
100
AcDbEntity
  8
0
  6
CONTINUOUS
 62
     1
100
AcDbLine
 39
31.96927622246645
 10
2977.525882753462
 20
1564.04244640134
 30
0.0
 11
2977.525882753471
 21
1563.142446401339
 31
0.0
  0
LINE
  5
48D
330
1F
100
AcDbEntity
  8
0
  6
CONTINUOUS
 62
     1
100
AcDbLine
 39
31.96927622246645
 10
2976.525882753471
 20
1563.142446401338
 30
0.0
 11
2977.425882753472
 21
1563.14244640134
 31
0.0
  0
LINE
  5
48E
330
1F
100
AcDbEntity
  8
0
  6
CONTINUOUS
 62
     0
100
AcDbLine
 39
31.96927622246645
 10
2979.795882753463
 20
1559.942446401346
 30
0.0
 11
2979.795882753473
 21
1562.142446401346
 31
0.0
  0
LINE
  5
48F
330
1F
100
AcDbEntity
  8
0
  6
CONTINUOUS
 62
     0
100
AcDbLine
 39
31.96927622246645
 10
2979.645882753465
 20
1560.092446401346
 30
0.0
 11
2979.645882753472
 21
1562.142446401346
 31
0.0
  0
LINE
  5
490
330
1F
100
AcDbEntity
  8
0
  6
CONTINUOUS
 62
     1
100
AcDbLine
 39
31.96927622246645
 10
2979.795882753463
 20
1559.942446401346
 30
0.0
 11
2980.795882753463
 21
1559.942446401347
 31
0.0
  0
LINE
  5
491
330
1F
100
AcDbEntity
  8
0
  6
CONTINUOUS
 62
     1
100
AcDbLine
 39
31.96927622246645
 10
2979.795882753467
 20
1560.092446401346
 30
0.0
 11
2980.695882753468
 21
1560.092446401346
 31
0.0
  0
LINE
  5
492
330
1F
100
AcDbEntity
  8
0
  6
CONTINUOUS
 62
     1
100
AcDbLine
 39
31.96927622246645
 10
2975.67588275344
 20
1568.142446401337
 30
0.0
 11
2976.425882753444
 21
1568.142446401338
 31
0.0
  0
LINE
  5
493
330
1F
100
AcDbEntity
  8
0
  6
CONTINUOUS
 62
     1
100
AcDbLine
 39
31.96927622246645
 10
2975.675882753452
 20
1564.042446401328
 30
0.0
 11
2976.425882753452
 21
1564.04244640133
 31
0.0
  0
LINE
  5
494
330
1F
100
AcDbEntity
  8
0
  6
CONTINUOUS
 62
     1
100
AcDbLine
 39
31.96927622246645
 10
2977.625882753459
 20
1568.042446401342
 30
0.0
 11
2977.625882753461
 21
1567.292446401342
 31
0.0
  0
LINE
  5
495
330
1F
100
AcDbEntity
  8
0
  6
CONTINUOUS
 62
     1
100
AcDbLine
 39
31.96927622246645
 10
2977.625882753466
 20
1564.89244640134
 30
0.0
 11
2977.625882753468
 21
1564.14244640134
 31
0.0
  0
LINE
  5
496
330
1F
100
AcDbEntity
  8
0
  6
CONTINUOUS
 62
     1
100
AcDbLine
 39
31.96927622246645
 10
2979.79588275345
 20
1570.042446401345
 30
0.0
 11
2979.795882753452
 21
1569.142446401346
 31
0.0
  0
LINE
  5
497
330
1F
100
AcDbEntity
  8
0
  6
CONTINUOUS
 62
     1
100
AcDbLine
 39
31.96927622246645
 10
2979.795882753477
 20
1562.142446401347
 30
0.0
 11
2979.795882753475
 21
1563.042446401346
 31
0.0
  0
MTEXT
  5
498
330
1F
100
AcDbEntity
  8
TEXT
  6
BYBLOCK
100
AcDbMText
 10
2972.498042342714
 20
1563.770920123455
 30
0.0
 40
0.2
 41
2.261163692157627
 71
     2
 72
     5
  1
LIVING\P3.05X5.20\P10'0''X17'0''
  7
AN
1001
ACAD
1000
ACAD_MTEXT_DEFINED_HEIGHT_BEGIN
1070
    46
1040
1.835570745916574
1000
ACAD_MTEXT_DEFINED_HEIGHT_END
  0
MTEXT
  5
499
330
1F
100
AcDbEntity
  8
TEXT
  6
BYBLOCK
100
AcDbMText
 10
2972.653198486189
 20
1560.742799732381
 30
0.0
 40
0.2
 41
4.744804561593632
 71
     2
 72
     5
  1
4'0'' W. BALCONY
  7
AN
1001
ACAD
1000
ACAD_MTEXT_DEFINED_HEIGHT_BEGIN
1070
    46
1040
0.6826164889145233
1000
ACAD_MTEXT_DEFINED_HEIGHT_END
  0
LINE
  5
49A
330
1F
100
AcDbEntity
  8
0
  6
CONTINUOUS
 62
     1
100
AcDbLine
 39
31.96927622246645
 10
2973.175882753465
 20
1561.142446401333
 30
0.0
 11
2974.075882753466
 21
1561.142446401335
 31
0.0
  0
MTEXT
  5
49B
330
1F
100
AcDbEntity
  8
TEXT
  6
BYBLOCK
100
AcDbMText
 10
2975.196370319596
 20
1562.004160015546
 30
0.0
 40
0.2
 41
2.111163692163365
 71
     2
 72
     5
  1
KITCHEN\P2.25X3.95\P7'6''X13'1''
  7
AN
1001
ACAD
1000
ACAD_MTEXT_DEFINED_HEIGHT_BEGIN
1070
    46
1040
1.885570745916756
1000
ACAD_MTEXT_DEFINED_HEIGHT_END
  0
MTEXT
  5
49C
330
1F
100
AcDbEntity
  8
TEXT
  6
BYBLOCK
100
AcDbMText
 10
2980.133678732345
 20
1561.409448741026
 30
0.0
 40
0.2
 41
4.724804561602291
 71
     8
 72
     5
  1
3'3'' W. BALCONY
  7
AN
 11
1.063193425053002E-10
 21
-1.0
 31
0.0
1001
ACAD
1000
ACAD_MTEXT_DEFINED_HEIGHT_BEGIN
1070
    46
1040
0.6826164889145233
1000
ACAD_MTEXT_DEFINED_HEIGHT_END
  0
MTEXT
  5
49D
330
1F
100
AcDbEntity
  8
TEXT
  6
BYBLOCK
100
AcDbMText
 10
2978.960492334918
 20
1564.947633271258
 30
0.0
 40
0.2
 41
2.111163692156172
 71
     2
 72
     5
  1
BED\P3.12X2.90\P10'3''X9'6''
  7
AN
1001
ACAD
1000
ACAD_MTEXT_DEFINED_HEIGHT_BEGIN
1070
    46
1040
1.835570745916574
1000
ACAD_MTEXT_DEFINED_HEIGHT_END
  0
MTEXT
  5
49E
330
1F
100
AcDbEntity
  8
TEXT
100
AcDbMText
 10
2977.026929680334
 20
1565.482617558792
 30
0.0
 40
0.15
 41
1.015155066465427
 71
     2
 72
     5
  1
TOILET\P1.00X1.90\P3'3''X6'1''
 11
1.0
 21
1.003312726057560E-10
 31
0.0
1001
ACAD
1000
ACAD_MTEXT_DEFINED_HEIGHT_BEGIN
1070
    46
1040
0.1725955299206738
1000
ACAD_MTEXT_DEFINED_HEIGHT_END
  0
MTEXT
  5
49F
330
1F
100
AcDbEntity
  8
TEXT
100
AcDbMText
 10
2977.026929680363
 20
1567.378258766353
 30
0.0
 40
0.15
 41
1.01515506641164
 71
     2
 72
     5
  1
TOILET\P1.00X1.90\P3'3''X6'1''
 11
1.0
 21
1.003312726057560E-10
 31
0.0
1001
ACAD
1000
ACAD_MTEXT_DEFINED_HEIGHT_BEGIN
1070
    46
1040
0.1725955299206738
1000
ACAD_MTEXT_DEFINED_HEIGHT_END
  0
MTEXT
  5
4A0
330
1F
100
AcDbEntity
  8
TEXT
100
AcDbMText
 10
2975.170095702561
 20
1565.083461080168
 30
0.0
 40
0.15
 41
1.015155066433077
 71
     2
 72
     5
  1
TOILET\P2.25X1.20\P7'6''X4'0''
 11
1.0
 21
1.003312726057560E-10
 31
0.0
1001
ACAD
1000
ACAD_MTEXT_DEFINED_HEIGHT_BEGIN
1070
    46
1040
0.1725955299206738
1000
ACAD_MTEXT_DEFINED_HEIGHT_END
  0
MTEXT
  5
4A1
330
1F
100
AcDbEntity
  8
TEXT
100
AcDbMText
 10
2975.170095702559
 20
1567.741450621352
 30
0.0
 40
0.15
 41
1.015155066433077
 71
     2
 72
     5
  1
TOILET\P2.25X1.20\P7'6''X4'0''
 11
1.0
 21
1.003312726057560E-10
 31
0.0
1001
ACAD
1000
ACAD_MTEXT_DEFINED_HEIGHT_BEGIN
1070
    46
1040
0.1725955299206738
1000
ACAD_MTEXT_DEFINED_HEIGHT_END
  0
LINE
  5
4A2
102
{ACAD_REACTORS
330
4D2
102
}
330
1F
100
AcDbEntity
  8
0
  6
CONTINUOUS
 62
     1
100
AcDbLine
 39
31.96927622246645
 10
2971.025882753438
 20
1572.142446401309
 30
0.0
 11
2974.075882753441
 21
1572.142446401331
 31
0.0
  0
LINE
  5
4A3
330
1F
100
AcDbEntity
  8
0
  6
CONTINUOUS
 62
     1
100
AcDbLine
 39
31.96927622246645
 10
2971.025882753445
 20
1572.042446401327
 30
0.0
 11
2974.075882753448
 21
1572.042446401332
 31
0.0
  0
LINE
  5
4A4
330
1F
100
AcDbEntity
  8
0
  6
CONTINUOUS
 62
     0
100
AcDbLine
 39
31.96927622246645
 10
2973.175882753434
 20
1570.992526232951
 30
0.0
 11
2971.025882753444
 21
1570.992526232948
 31
0.0
  0
LINE
  5
4A5
330
1F
100
AcDbEntity
  8
0
  6
CONTINUOUS
 62
     0
100
AcDbLine
 39
31.96927622246645
 10
2971.025882753454
 20
1571.142526232949
 30
0.0
 11
2973.175882753441
 21
1571.142526232953
 31
0.0
  0
LINE
  5
4A6
330
1F
100
AcDbEntity
  8
0
  6
CONTINUOUS
 62
     1
100
AcDbLine
 39
31.96927622246645
 10
2973.175882753445
 20
1571.142526232953
 30
0.0
 11
2974.075882753446
 21
1571.142526232956
 31
0.0
  0
MTEXT
  5
4A7
330
1F
100
AcDbEntity
  8
TEXT
  6
BYBLOCK
100
AcDbMText
 10
2972.49804234271
 20
1569.27104074422
 30
0.0
 40
0.2
 41
2.261163692157627
 71
     2
 72
     5
  1
LIVING\P3.05X4.40\P10'0''X14'7''
  7
AN
1001
ACAD
1000
ACAD_MTEXT_DEFINED_HEIGHT_BEGIN
1070
    46
1040
1.835570745916574
1000
ACAD_MTEXT_DEFINED_HEIGHT_END
  0
MTEXT
  5
4A8
330
1F
100
AcDbEntity
  8
TEXT
  6
BYBLOCK
100
AcDbMText
 10
2975.196370319587
 20
1570.514477736483
 30
0.0
 40
0.2
 41
2.111163692163365
 71
     2
 72
     5
  1
KITCHEN\P2.25X3.85\P7'6''X13'0''
  7
AN
1001
ACAD
1000
ACAD_MTEXT_DEFINED_HEIGHT_BEGIN
1070
    46
1040
1.885570745916756
1000
ACAD_MTEXT_DEFINED_HEIGHT_END
  0
MTEXT
  5
4A9
330
1F
100
AcDbEntity
  8
TEXT
  6
BYBLOCK
100
AcDbMText
 10
2978.123611807923
 20
1571.106778288085
 30
0.0
 40
0.2
 41
2.111163692156172
 71
     2
 72
     5
  1
BED\P3.12X2.85\P10'3''X9'5''
  7
AN
1001
ACAD
1000
ACAD_MTEXT_DEFINED_HEIGHT_BEGIN
1070
    46
1040
1.835570745916574
1000
ACAD_MTEXT_DEFINED_HEIGHT_END
  0
MTEXT
  5
4AA
330
1F
100
AcDbEntity
  8
TEXT
  6
BYBLOCK
100
AcDbMText
 10
2978.960492334919
 20
1568.012334982496
 30
0.0
 40
0.2
 41
2.111163692156172
 71
     2
 72
     5
  1
BED\P3.12X2.90\P10'3''X9'6''
  7
AN
1001
ACAD
1000
ACAD_MTEXT_DEFINED_HEIGHT_BEGIN
1070
    46
1040
1.835570745916574
1000
ACAD_MTEXT_DEFINED_HEIGHT_END
  0
MTEXT
  5
4AB
330
1F
100
AcDbEntity
  8
TEXT
  6
BYBLOCK
100
AcDbMText
 10
2980.110179854644
 20
1570.466868794661
 30
0.0
 40
0.2
 41
4.724804561602291
 71
     8
 72
     5
  1
3'3'' W. BALCONY
  7
AN
 11
1.063193425053002E-10
 21
-1.0
 31
0.0
1001
ACAD
1000
ACAD_MTEXT_DEFINED_HEIGHT_BEGIN
1070
    46
1040
0.6826164889145233
1000
ACAD_MTEXT_DEFINED_HEIGHT_END
  0
MTEXT
  5
4AC
330
1F
100
AcDbEntity
  8
TEXT
  6
BYBLOCK
100
AcDbMText
 10
2972.627999769306
 20
1571.763512574547
 30
0.0
 40
0.2
 41
4.744804561593632
 71
     2
 72
     5
  1
3'3'' W. BALCONY
  7
AN
1001
ACAD
1000
ACAD_MTEXT_DEFINED_HEIGHT_BEGIN
1070
    46
1040
0.6826164889145233
1000
ACAD_MTEXT_DEFINED_HEIGHT_END
  0
LWPOLYLINE
  5
4AD
330
1F
100
AcDbEntity
  8
0
  6
CONTINUOUS
 62
     0
100
AcDbPolyline
 90
        3
 70
     0
 43
0.0
 39
31.96927622246645
 10
2971.025882753455
 20
1565.542446401329
 10
2970.925882753457
 20
1565.542446401337
 10
2970.925882753454
 20
1566.492446401321
  0
LWPOLYLINE
  5
4AE
330
1F
100
AcDbEntity
  8
0
  6
CONTINUOUS
 62
     1
100
AcDbPolyline
 90
       14
 70
     1
 43
0.0
 39
31.96927622246645
 10
2971.025882753455
 20
1565.542446401329
 10
2970.925882753457
 20
1565.542446401337
 10
2970.925882753469
 20
1566.49244640132
 10
2974.075882753456
 20
1566.492446401322
 10
2974.075882753455
 20
1565.442446401315
 10
2976.525882753463
 20
1565.442446401324
 10
2976.525882753462
 20
1566.042446401337
 10
2980.645882753457
 20
1566.042446401345
 10
2980.645882753473
 20
1563.042446401349
 10
2980.695882753469
 20
1563.042446401348
 10
2980.695882753468
 20
1560.092446401346
 10
2974.075882753473
 20
1560.092446401327
 10
2974.075882753473
 20
1560.042446401332
 10
2971.02588275347
 20
1560.042446401324
  0
LINE
  5
4AF
330
1F
100
AcDbEntity
  8
0
  6
CONTINUOUS
 62
     0
100
AcDbLine
 39
31.96927622246645
 10
2971.025882753447
 20
1573.142446401328
 30
0.0
 11
2968.375882753435
 21
1573.142446401322
 31
0.0
  0
LINE
  5
4B0
330
1F
100
AcDbEntity
  8
0
  6
CONTINUOUS
 62
     0
100
AcDbLine
 39
31.96927622246645
 10
2968.375882753437
 20
1572.142446401322
 30
0.0
 11
2967.275882753438
 21
1572.14244640132
 31
0.0
  0
LINE
  5
4B1
330
1F
100
AcDbEntity
  8
0
  6
CONTINUOUS
 62
     1
100
AcDbLine
 39
31.96927622246645
 10
2967.275882753438
 20
1572.14244640132
 30
0.0
 11
2964.395882753433
 21
1572.142446401315
 31
0.0
  0
LINE
  5
4B2
330
1F
100
AcDbEntity
  8
0
  6
CONTINUOUS
 62
     1
100
AcDbLine
 39
31.96927622246645
 10
2967.275882753445
 20
1572.042446401321
 30
0.0
 11
2964.495882753443
 21
1572.042446401314
 31
0.0
  0
LINE
  5
4B3
330
1F
100
AcDbEntity
  8
0
  6
CONTINUOUS
 62
     0
100
AcDbLine
 39
31.96927622246645
 10
2970.925882753449
 20
1572.992446401327
 30
0.0
 11
2968.525882753451
 21
1572.992446401322
 31
0.0
  0
LINE
  5
4B4
330
1F
100
AcDbEntity
  8
0
  6
CONTINUOUS
 62
     1
100
AcDbLine
 39
31.96927622246645
 10
2970.925882753459
 20
1571.792446401327
 30
0.0
 11
2968.525882753454
 21
1571.792446401323
 31
0.0
  0
LINE
  5
4B5
330
1F
100
AcDbEntity
  8
0
  6
CONTINUOUS
 62
     1
100
AcDbLine
 39
31.96927622246645
 10
2970.92588275346
 20
1571.542446401327
 30
0.0
 11
2968.525882753454
 21
1571.542446401323
 31
0.0
  0
LINE
  5
4B6
330
1F
100
AcDbEntity
  8
0
  6
CONTINUOUS
 62
     1
100
AcDbLine
 39
31.96927622246645
 10
2970.92588275346
 20
1571.292446401327
 30
0.0
 11
2968.525882753454
 21
1571.292446401323
 31
0.0
  0
LINE
  5
4B7
330
1F
100
AcDbEntity
  8
0
  6
CONTINUOUS
 62
     1
100
AcDbLine
 39
31.96927622246645
 10
2970.92588275346
 20
1571.042446401327
 30
0.0
 11
2968.525882753454
 21
1571.042446401323
 31
0.0
  0
LINE
  5
4B8
330
1F
100
AcDbEntity
  8
0
  6
CONTINUOUS
 62
     1
100
AcDbLine
 39
31.96927622246645
 10
2970.925882753457
 20
1570.792446401327
 30
0.0
 11
2968.525882753452
 21
1570.792446401323
 31
0.0
  0
LINE
  5
4B9
330
1F
100
AcDbEntity
  8
0
  6
CONTINUOUS
 62
     1
100
AcDbLine
 39
31.96927622246645
 10
2970.925882753458
 20
1570.542446401327
 30
0.0
 11
2968.525882753453
 21
1570.542446401323
 31
0.0
  0
LINE
  5
4BA
330
1F
100
AcDbEntity
  8
0
  6
CONTINUOUS
 62
     1
100
AcDbLine
 39
31.96927622246645
 10
2970.925882753458
 20
1570.292446401327
 30
0.0
 11
2968.525882753453
 21
1570.292446401323
 31
0.0
  0
LINE
  5
4BB
330
1F
100
AcDbEntity
  8
0
  6
CONTINUOUS
 62
     1
100
AcDbLine
 39
31.96927622246645
 10
2970.925882753459
 20
1570.042446401327
 30
0.0
 11
2968.525882753454
 21
1570.042446401323
 31
0.0
  0
LINE
  5
4BC
330
1F
100
AcDbEntity
  8
0
  6
CONTINUOUS
 62
     1
100
AcDbLine
 39
31.96927622246645
 10
2970.925882753459
 20
1569.792446401327
 30
0.0
 11
2968.525882753454
 21
1569.792446401323
 31
0.0
  0
LINE
  5
4BD
330
1F
100
AcDbEntity
  8
0
  6
CONTINUOUS
 62
     1
100
AcDbLine
 39
31.96927622246645
 10
2970.92588275346
 20
1569.542446401327
 30
0.0
 11
2968.525882753454
 21
1569.542446401323
 31
0.0
  0
LINE
  5
4BE
330
1F
100
AcDbEntity
  8
0
  6
CONTINUOUS
 62
     0
100
AcDbLine
 39
31.96927622246645
 10
2968.375882753444
 20
1571.992446401322
 30
0.0
 11
2967.37588275344
 21
1571.99244640132
 31
0.0
  0
LINE
  5
4BF
102
{ACAD_REACTORS
330
4D8
102
}
330
1F
100
AcDbEntity
  8
0
  6
CONTINUOUS
 62
     0
100
AcDbLine
 39
31.96927622246645
 10
2974.075882753476
 20
1559.942446401332
 30
0.0
 11
2970.925882753475
 21
1559.942446401325
 31
0.0
  0
LINE
  5
4C0
330
1F
100
AcDbEntity
  8
0
  6
CONTINUOUS
 62
     0
100
AcDbLine
 39
31.96927622246645
 10
2970.925882753479
 20
1559.942446401324
 30
0.0
 11
2967.775882753484
 21
1559.942446401319
 31
0.0
  0
LINE
  5
4C1
330
1F
100
AcDbEntity
  8
0
  6
CONTINUOUS
 62
     1
100
AcDbLine
 39
31.96927622246645
 10
2967.775882753481
 20
1559.942446401318
 30
0.0
 11
2964.395882753462
 21
1559.942446401312
 31
0.0
  0
LINE
  5
4C2
330
1F
100
AcDbEntity
  8
0
  6
CONTINUOUS
 62
     1
100
AcDbLine
 39
31.96927622246645
 10
2967.775882753481
 20
1560.042446401318
 30
0.0
 11
2964.49588275346
 21
1560.042446401312
 31
0.0
  0
LINE
  5
4C3
330
1F
100
AcDbEntity
  8
0
  6
CONTINUOUS
 62
     0
100
AcDbLine
 39
31.96927622246645
 10
2970.925882753482
 20
1560.092446401325
 30
0.0
 11
2967.875882753483
 21
1560.092446401318
 31
0.0
  0
LINE
  5
4C4
330
1F
100
AcDbEntity
  8
0
  6
CONTINUOUS
 62
     0
100
AcDbLine
 39
31.96927622246645
 10
2966.875882753478
 20
1564.292446401317
 30
0.0
 11
2964.545882753451
 21
1564.292446401313
 31
0.0
  0
LINE
  5
4C5
330
1F
100
AcDbEntity
  8
0
  6
CONTINUOUS
 62
     0
100
AcDbLine
 39
31.96927622246645
 10
2966.795882753457
 20
1565.042446401316
 30
0.0
 11
2966.695882753454
 21
1565.042446401317
 31
0.0
  0
LINE
  5
4C6
330
1F
100
AcDbEntity
  8
0
  6
CONTINUOUS
 62
     0
100
AcDbLine
 39
31.96927622246645
 10
2966.875882753482
 20
1564.192446401318
 30
0.0
 11
2964.545882753455
 21
1564.192446401312
 31
0.0
  0
LINE
  5
4C7
330
1F
100
AcDbEntity
  8
0
  6
CONTINUOUS
 62
     1
100
AcDbLine
 39
31.96927622246645
 10
2969.725882753459
 20
1569.542446401324
 30
0.0
 11
2969.725882753454
 21
1571.792446401325
 31
0.0
  0
LINE
  5
4C8
102
{ACAD_REACTORS
330
447
102
}
330
1F
100
AcDbEntity
  8
0
  6
CONTINUOUS
 62
     0
100
AcDbLine
 39
31.96927622246645
 10
2969.445882753468
 20
1565.542446401326
 30
0.0
 11
2967.845882753462
 21
1565.542446401323
 31
0.0
  0
LINE
  5
4C9
330
1F
100
AcDbEntity
  8
0
  6
CONTINUOUS
 62
     0
100
AcDbLine
 39
31.96927622246645
 10
2969.595882753473
 20
1565.392446401327
 30
0.0
 11
2967.695882753465
 21
1565.392446401323
 31
0.0
  0
LINE
  5
4CA
102
{ACAD_REACTORS
330
447
102
}
330
1F
100
AcDbEntity
  8
0
  6
CONTINUOUS
 62
     0
100
AcDbLine
 39
31.96927622246645
 10
2969.445882753467
 20
1567.392446401333
 30
0.0
 11
2969.445882753468
 21
1565.542446401326
 31
0.0
  0
LINE
  5
4CB
102
{ACAD_REACTORS
330
447
102
}
330
1F
100
AcDbEntity
  8
0
  6
CONTINUOUS
 62
     0
100
AcDbLine
 39
31.96927622246645
 10
2969.595882753465
 20
1567.392446401335
 30
0.0
 11
2969.59588275347
 21
1565.392446401327
 31
0.0
  0
LINE
  5
4CC
330
1F
100
AcDbEntity
  8
0
  6
CONTINUOUS
 62
     0
100
AcDbLine
 39
31.96927622246645
 10
2970.495882753467
 20
1565.542446401328
 30
0.0
 11
2970.495882753471
 21
1565.392446401328
 31
0.0
  0
DIMENSION
  5
4CD
102
{ACAD_REACTORS
330
4CF
102
}
102
{ACAD_XDICTIONARY
360
4CE
102
}
330
1F
100
AcDbEntity
  8
0
  6
CONTINUOUS
 62
     0
100
AcDbDimension
  2
*D7
 10
2960.595882753455
 20
1566.979229210722
 30
0.0
 11
2962.495882753453
 21
1567.171193740054
 31
0.0
 70
    32
 51
0.0000000007198231
  3
_BM__FOR_MM
100
AcDbAlignedDimension
 13
2964.395882753451
 23
1566.952865487306
 33
0.0
 14
2960.595882753455
 24
1566.952865487298
 34
0.0
 50
0.0000000001042204
100
AcDbRotatedDimension
  0
DIMENSION
  5
4D0
102
{ACAD_REACTORS
330
4D2
102
}
102
{ACAD_XDICTIONARY
360
4D1
102
}
330
1F
100
AcDbEntity
  8
0
  6
CONTINUOUS
 62
     0
100
AcDbDimension
  2
*D8
 10
2972.727624141227
 20
1572.142446401323
 30
0.0
 11
2972.535659611896
 21
1574.042446401326
 31
0.0
 70
    32
 51
0.0000000007198231
  3
_BM__FOR_MM
100
AcDbAlignedDimension
 13
2972.595882753427
 23
1575.942446401331
 33
0.0
 14
2972.595882753452
 24
1572.142446401322
 34
0.0
 50
90.00000000010422
100
AcDbRotatedDimension
  0
DIMENSION
  5
4D3
102
{ACAD_REACTORS
330
4D5
102
}
102
{ACAD_XDICTIONARY
360
4D4
102
}
330
1F
100
AcDbEntity
  8
0
  6
CONTINUOUS
 62
     0
100
AcDbDimension
  2
*D9
 10
2984.595882753457
 20
1566.092446401358
 30
0.0
 11
2982.69588275346
 21
1566.284410930689
 31
0.0
 70
    32
 51
0.0000000007198231
  3
_BM__FOR_MM
100
AcDbAlignedDimension
 13
2980.795882753462
 23
1566.09244640135
 33
0.0
 14
2984.595882753457
 24
1566.092446401358
 34
0.0
 50
0.0000000001042204
100
AcDbRotatedDimension
  0
DIMENSION
  5
4D6
102
{ACAD_REACTORS
330
4D8
102
}
102
{ACAD_XDICTIONARY
360
4D7
102
}
330
1F
100
AcDbEntity
  8
0
  6
CONTINUOUS
 62
     0
100
AcDbDimension
  2
*D10
 10
2973.246431898913
 20
1557.942446401332
 30
0.0
 11
2973.054528761123
 21
1558.94244640133
 31
0.0
 70
    32
 51
0.0000000007198231
  3
_BM__FOR_MM
100
AcDbAlignedDimension
 13
2973.12502396282
 23
1559.94244640133
 33
0.0
 14
2973.125023962821
 24
1557.942446401331
 34
0.0
 50
90.00000000010422
100
AcDbRotatedDimension
  0
LINE
  5
4D9
102
{ACAD_REACTORS
330
447
102
}
330
1F
100
AcDbEntity
  8
0
  6
CONTINUOUS
 62
     0
100
AcDbLine
 39
31.96927622246645
 10
2968.525882753455
 20
1567.242446401328
 30
0.0
 11
2967.845882753451
 21
1567.242446401323
 31
0.0
  0
LINE
  5
4DA
102
{ACAD_REACTORS
330
447
102
}
330
1F
100
AcDbEntity
  8
0
  6
CONTINUOUS
 62
     0
100
AcDbLine
 39
31.96927622246645
 10
2969.595882753465
 20
1567.392446401335
 30
0.0
 11
2969.445882753467
 21
1567.392446401333
 31
0.0
  0
LINE
  5
4DB
102
{ACAD_REACTORS
330
447
102
}
330
1F
100
AcDbEntity
  8
0
  6
CONTINUOUS
 62
     0
100
AcDbLine
 39
31.96927622246645
 10
2968.525882753458
 20
1567.392446401328
 30
0.0
 11
2967.695882753453
 21
1567.392446401323
 31
0.0
  0
LINE
  5
4DC
102
{ACAD_REACTORS
330
447
102
}
330
1F
100
AcDbEntity
  8
0
  6
CONTINUOUS
 62
     0
100
AcDbLine
 39
31.96927622246645
 10
2967.845882753451
 20
1567.242446401323
 30
0.0
 11
2967.845882753462
 21
1565.542446401324
 31
0.0
  0
LINE
  5
4DD
102
{ACAD_REACTORS
330
447
102
}
330
1F
100
AcDbEntity
  8
0
  6
CONTINUOUS
 62
     0
100
AcDbLine
 39
31.96927622246645
 10
2967.695882753453
 20
1567.392446401323
 30
0.0
 11
2967.695882753465
 21
1565.392446401323
 31
0.0
  0
LINE
  5
4DE
330
1F
100
AcDbEntity
  8
0
  6
CONTINUOUS
 62
     0
100
AcDbLine
 39
31.96927622246645
 10
2970.925882753457
 20
1565.542446401328
 30
0.0
 11
2970.495882753464
 21
1565.542446401328
 31
0.0
  0
LINE
  5
4DF
330
1F
100
AcDbEntity
  8
0
  6
CONTINUOUS
 62
     0
100
AcDbLine
 39
31.96927622246645
 10
2970.92588275346
 20
1565.392446401328
 30
0.0
 11
2970.495882753471
 21
1565.392446401328
 31
0.0
  0
LINE
  5
4E0
102
{ACAD_REACTORS
330
447
102
}
330
1F
100
AcDbEntity
  8
0
  6
CONTINUOUS
 62
     0
100
AcDbLine
 39
31.96927622246645
 10
2969.59588275347
 20
1565.392446401327
 30
0.0
 11
2967.695882753465
 21
1565.392446401323
 31
0.0
  0
LINE
  5
4E1
330
1F
100
AcDbEntity
  8
0
  6
CONTINUOUS
 62
     0
100
AcDbLine
 39
31.96927622246645
 10
2967.875882753474
 20
1564.492446401322
 30
0.0
 11
2967.775882753479
 21
1564.492446401322
 31
0.0
  0
LINE
  5
4E2
330
1F
100
AcDbEntity
  8
0
  6
CONTINUOUS
 62
     0
100
AcDbLine
 39
31.96927622246645
 10
2967.625882753452
 20
1569.792446401323
 30
0.0
 11
2967.375882753463
 21
1569.792446401322
 31
0.0
  0
LINE
  5
4E3
330
1F
100
AcDbEntity
  8
0
  6
CONTINUOUS
 62
     0
100
AcDbLine
 39
31.96927622246645
 10
2967.475882753465
 20
1568.192446401324
 30
0.0
 11
2964.545882753443
 21
1568.192446401317
 31
0.0
  0
LINE
  5
4E4
330
1F
100
AcDbEntity
  8
0
  6
CONTINUOUS
 62
     0
100
AcDbLine
 39
31.96927622246645
 10
2967.625882753456
 20
1569.89244640132
 30
0.0
 11
2967.375882753463
 21
1569.89244640132
 31
0.0
  0
LINE
  5
4E5
330
1F
100
AcDbEntity
  8
0
  6
CONTINUOUS
 62
     0
100
AcDbLine
 39
31.96927622246645
 10
2967.475882753468
 20
1568.292446401323
 30
0.0
 11
2964.545882753449
 21
1568.292446401317
 31
0.0
  0
LINE
  5
4E6
330
1F
100
AcDbEntity
  8
0
  6
CONTINUOUS
 62
     0
100
AcDbLine
 39
31.96927622246645
 10
2967.375882753471
 20
1569.692446401322
 30
0.0
 11
2967.275882753473
 21
1569.692446401322
 31
0.0
  0
LINE
  5
4E7
330
1F
100
AcDbEntity
  8
0
  6
CONTINUOUS
 62
     0
100
AcDbLine
 39
31.96927622246645
 10
2966.875882753481
 20
1560.942446401317
 30
0.0
 11
2964.395882753456
 21
1560.942446401312
 31
0.0
  0
LINE
  5
4E8
330
1F
100
AcDbEntity
  8
0
  6
CONTINUOUS
 62
     0
100
AcDbLine
 39
31.96927622246645
 10
2966.875882753484
 20
1561.092446401316
 30
0.0
 11
2964.54588275346
 21
1561.092446401312
 31
0.0
  0
LINE
  5
4E9
330
1F
100
AcDbEntity
  8
0
  6
CONTINUOUS
 62
     0
100
AcDbLine
 39
31.96927622246645
 10
2966.795882753463
 20
1565.49244640132
 30
0.0
 11
2964.545882753452
 21
1565.492446401317
 31
0.0
  0
LINE
  5
4EA
330
1F
100
AcDbEntity
  8
0
  6
CONTINUOUS
 62
     0
100
AcDbLine
 39
31.96927622246645
 10
2966.695882753457
 20
1565.39244640132
 30
0.0
 11
2964.545882753459
 21
1565.392446401317
 31
0.0
  0
LINE
  5
4EB
330
1F
100
AcDbEntity
  8
0
  6
CONTINUOUS
 62
     0
100
AcDbLine
 39
31.96927622246645
 10
2966.795882753459
 20
1565.492446401321
 30
0.0
 11
2966.79588275346
 21
1565.042446401317
 31
0.0
  0
LINE
  5
4EC
330
1F
100
AcDbEntity
  8
0
  6
CONTINUOUS
 62
     0
100
AcDbLine
 39
31.96927622246645
 10
2966.695882753457
 20
1565.392446401321
 30
0.0
 11
2966.695882753458
 21
1565.042446401317
 31
0.0
  0
MTEXT
  5
4ED
330
1F
100
AcDbEntity
  8
COL
  6
BYBLOCK
100
AcDbMText
 10
2971.822390151261
 20
1575.895488218188
 30
0.0
 40
0.2
 41
2.644179769046332
 71
     2
 72
     5
  1
24.00 M.
  7
AN
1001
ACAD
1000
ACAD_MTEXT_DEFINED_HEIGHT_BEGIN
1070
    46
1040
0.6826164889145233
1000
ACAD_MTEXT_DEFINED_HEIGHT_END
  0
MTEXT
  5
4EE
330
1F
100
AcDbEntity
  8
COL
  6
BYBLOCK
100
AcDbMText
 10
2960.6471313923
 20
1566.376839068357
 30
0.0
 40
0.2
 41
2.644179769046332
 71
     2
 72
     5
  1
18.00 M.
  7
AN
 11
-1.454447742048020E-11
 21
1.0
 31
0.0
1001
ACAD
1000
ACAD_MTEXT_DEFINED_HEIGHT_BEGIN
1070
    46
1040
0.6826164889145233
1000
ACAD_MTEXT_DEFINED_HEIGHT_END
  0
LINE
  5
4EF
330
1F
100
AcDbEntity
  8
0
  6
CONTINUOUS
 62
     0
100
AcDbLine
 39
31.96927622246645
 10
2967.27588275344
 20
1571.14244640132
 30
0.0
 11
2964.395882753442
 21
1571.142446401315
 31
0.0
  0
LINE
  5
4F0
330
1F
100
AcDbEntity
  8
0
  6
CONTINUOUS
 62
     0
100
AcDbLine
 39
31.96927622246645
 10
2967.275882753436
 20
1570.99244640132
 30
0.0
 11
2964.545882753437
 21
1570.992446401315
 31
0.0
  0
MTEXT
  5
4F1
330
1F
100
AcDbEntity
  8
TEXT
  6
BYBLOCK
100
AcDbMText
 10
2977.773264023372
 20
1562.006778288084
 30
0.0
 40
0.2
 41
2.111163692156172
 71
     2
 72
     5
  1
BED\P3.12X2.95\P10'3''X9'6''
  7
AN
1001
ACAD
1000
ACAD_MTEXT_DEFINED_HEIGHT_BEGIN
1070
    46
1040
1.835570745916574
1000
ACAD_MTEXT_DEFINED_HEIGHT_END
  0
LWPOLYLINE
  5
4F2
330
1F
100
AcDbEntity
  8
0
  6
CONTINUOUS
 62
     1
100
AcDbPolyline
 90
       16
 70
     1
 43
0.0
 39
31.96927622246645
 10
2971.025882753462
 20
1567.492446401321
 10
2970.925882753449
 20
1567.492446401321
 10
2970.925882753461
 20
1566.592446401321
 10
2974.075882753466
 20
1566.592446401322
 10
2974.075882753463
 20
1566.742446401332
 10
2976.525882753453
 20
1566.742446401342
 10
2976.525882753454
 20
1566.142446401337
 10
2980.645882753453
 20
1566.142446401348
 10
2980.645882753458
 20
1569.142446401348
 10
2980.695882753461
 20
1569.142446401348
 10
2980.695882753454
 20
1572.042611858816
 10
2979.795882753453
 20
1572.042446401344
 10
2979.795882753453
 20
1571.992446401343
 10
2974.075882753441
 20
1571.992446401322
 10
2974.075882753445
 20
1572.042446401332
 10
2971.025882753456
 20
1572.042446401327
  0
MTEXT
  5
4F3
330
1F
100
AcDbEntity
  8
TEXT
  6
BYBLOCK
100
AcDbMText
 10
2969.247752043323
 20
1563.770920123448
 30
0.0
 40
0.2
 41
2.231620157627436
 71
     2
 72
     5
  1
LIVING\P3.05X5.30\P10'0''X17'3''
  7
AN
1001
ACAD
1000
ACAD_MTEXT_DEFINED_HEIGHT_BEGIN
1070
    46
1040
1.835570745916574
1000
ACAD_MTEXT_DEFINED_HEIGHT_END
  0
LINE
  5
4F4
330
1F
100
AcDbEntity
  8
0
  6
CONTINUOUS
 62
     1
100
AcDbLine
 39
31.96927622246645
 10
2970.495882753464
 20
1565.542446401328
 30
0.0
 11
2969.595882753466
 21
1565.542446401326
 31
0.0
  0
LINE
  5
4F5
330
1F
100
AcDbEntity
  8
0
  6
CONTINUOUS
 62
     1
100
AcDbLine
 39
31.96927622246645
 10
2964.395882753442
 20
1571.142446401315
 30
0.0
 11
2964.395882753437
 21
1572.142446401315
 31
0.0
  0
LINE
  5
4F6
330
1F
100
AcDbEntity
  8
0
  6
CONTINUOUS
 62
     1
100
AcDbLine
 39
31.96927622246645
 10
2964.495882753441
 20
1571.142446401314
 30
0.0
 11
2964.495882753443
 21
1572.042446401314
 31
0.0
  0
LINE
  5
4F7
330
1F
100
AcDbEntity
  8
0
  6
CONTINUOUS
 62
     1
100
AcDbLine
 39
31.96927622246645
 10
2967.475882753469
 20
1568.192446401323
 30
0.0
 11
2968.375882753463
 21
1568.19244640133
 31
0.0
  0
LINE
  5
4F8
330
1F
100
AcDbEntity
  8
0
  6
CONTINUOUS
 62
     1
100
AcDbLine
 39
31.96927622246645
 10
2967.625882753452
 20
1569.792446401323
 30
0.0
 11
2968.375882753452
 21
1569.792446401329
 31
0.0
  0
MTEXT
  5
4F9
330
1F
100
AcDbEntity
  8
TEXT
  6
BYBLOCK
100
AcDbMText
 10
2965.884146719211
 20
1571.661700632869
 30
0.0
 40
0.2
 41
4.744804561593632
 71
     2
 72
     5
  1
3'3'' W. BALCONY
  7
AN
1001
ACAD
1000
ACAD_MTEXT_DEFINED_HEIGHT_BEGIN
1070
    46
1040
0.6826164889145233
1000
ACAD_MTEXT_DEFINED_HEIGHT_END
  0
MTEXT
  5
4FA
330
1F
100
AcDbEntity
  8
TEXT
  6
BYBLOCK
100
AcDbMText
 10
2965.82859202928
 20
1570.151475466455
 30
0.0
 40
0.2
 41
2.111163692156172
 71
     2
 72
     5
  1
BED\P2.73X2.70\P9'1''X9'0''
  7
AN
1001
ACAD
1000
ACAD_MTEXT_DEFINED_HEIGHT_BEGIN
1070
    46
1040
1.835570745916574
1000
ACAD_MTEXT_DEFINED_HEIGHT_END
  0
MTEXT
  5
4FB
330
1F
100
AcDbEntity
  8
TEXT
100
AcDbMText
 10
2967.86830522022
 20
1571.23805977096
 30
0.0
 40
0.15
 41
1.01515506641164
 71
     2
 72
     5
  1
TOILET\P1.00X2.10\P3'3''X7'0''
 11
1.0
 21
1.003312108068668E-10
 31
0.0
1001
ACAD
1000
ACAD_MTEXT_DEFINED_HEIGHT_BEGIN
1070
    46
1040
0.1725955299206738
1000
ACAD_MTEXT_DEFINED_HEIGHT_END
  0
LINE
  5
4FC
330
1F
100
AcDbEntity
  8
0
  6
CONTINUOUS
 62
     1
100
AcDbLine
 39
31.96927622246645
 10
2964.395882753462
 20
1559.942446401312
 30
0.0
 11
2964.395882753456
 21
1560.942446401312
 31
0.0
  0
LINE
  5
4FD
330
1F
100
AcDbEntity
  8
0
  6
CONTINUOUS
 62
     1
100
AcDbLine
 39
31.96927622246645
 10
2964.49588275346
 20
1560.042446401312
 30
0.0
 11
2964.495882753455
 21
1560.942446401312
 31
0.0
  0
LINE
  5
4FE
330
1F
100
AcDbEntity
  8
0
  6
CONTINUOUS
 62
     0
100
AcDbLine
 39
31.96927622246645
 10
2966.875882753481
 20
1560.942446401318
 30
0.0
 11
2967.775882753483
 21
1560.942446401318
 31
0.0
  0
MTEXT
  5
4FF
330
1F
100
AcDbEntity
  8
TEXT
  6
BYBLOCK
100
AcDbMText
 10
2966.134865356313
 20
1560.742799732368
 30
0.0
 40
0.2
 41
4.744804561593632
 71
     2
 72
     5
  1
3'3'' W. BALCONY
  7
AN
1001
ACAD
1000
ACAD_MTEXT_DEFINED_HEIGHT_BEGIN
1070
    46
1040
0.6826164889145233
1000
ACAD_MTEXT_DEFINED_HEIGHT_END
  0
LINE
  5
500
330
1F
100
AcDbEntity
  8
0
  6
CONTINUOUS
 62
     0
100
AcDbLine
 39
31.96927622246645
 10
2968.525882753458
 20
1567.392446401328
 30
0.0
 11
2969.445882753471
 21
1567.392446401328
 31
0.0
  0
MTEXT
  5
501
330
1F
100
AcDbEntity
  8
TEXT
  6
BYBLOCK
100
AcDbMText
 10
2965.703353132936
 20
1563.040120669706
 30
0.0
 40
0.2
 41
2.111163692156172
 71
     2
 72
     5
  1
BED\P3.23X3.10\P10'8''X10'3''
  7
AN
1001
ACAD
1000
ACAD_MTEXT_DEFINED_HEIGHT_BEGIN
1070
    46
1040
1.835570745916574
1000
ACAD_MTEXT_DEFINED_HEIGHT_END
  0
LINE
  5
502
330
1F
100
AcDbEntity
  8
0
  6
CONTINUOUS
 62
     1
100
AcDbLine
 39
31.96927622246645
 10
2966.875882753478
 20
1564.292446401318
 30
0.0
 11
2967.775882753476
 21
1564.292446401318
 31
0.0
  0
LINE
  5
503
330
1F
100
AcDbEntity
  8
0
  6
CONTINUOUS
 62
     1
100
AcDbLine
 39
31.96927622246645
 10
2966.79588275346
 20
1565.042446401316
 30
0.0
 11
2966.795882753458
 21
1564.292446401317
 31
0.0
  0
MTEXT
  5
504
330
1F
100
AcDbEntity
  8
TEXT
100
AcDbMText
 10
2965.544838882852
 20
1565.161973947375
 30
0.0
 40
0.15
 41
1.015155066433077
 71
     2
 72
     5
  1
TOILET\P2.15X1.10\P7'1''X3'7''
 11
1.0
 21
1.003312108068668E-10
 31
0.0
1001
ACAD
1000
ACAD_MTEXT_DEFINED_HEIGHT_BEGIN
1070
    46
1040
0.1725955299206738
1000
ACAD_MTEXT_DEFINED_HEIGHT_END
  0
MTEXT
  5
505
330
1F
100
AcDbEntity
  8
TEXT
  6
BYBLOCK
100
AcDbMText
 10
2965.828592029286
 20
1567.209952827342
 30
0.0
 40
0.2
 41
2.111163692156172
 71
     2
 72
     5
  1
KITCHEN\P3.15X2.70\P10'3''X9'0''
  7
AN
1001
ACAD
1000
ACAD_MTEXT_DEFINED_HEIGHT_BEGIN
1070
    46
1040
1.835570745916574
1000
ACAD_MTEXT_DEFINED_HEIGHT_END
  0
LINE
  5
506
330
1F
100
AcDbEntity
  8
0
  6
CONTINUOUS
 62
     0
100
AcDbLine
 39
31.96927622246645
 10
2968.375882753437
 20
1572.142446401322
 30
0.0
 11
2968.375882753435
 21
1573.142446401322
 31
0.0
  0
MTEXT
  5
507
330
1F
100
AcDbEntity
  8
TEXT
100
AcDbMText
 10
2968.610340594696
 20
1566.729870895118
 30
0.0
 40
0.15
 41
1.015155066433077
 71
     2
 72
     5
  1
LIFT\P1.60X1.70\P5'3''X5'6''
 11
1.0
 21
1.003312108068668E-10
 31
0.0
1001
ACAD
1000
ACAD_MTEXT_DEFINED_HEIGHT_BEGIN
1070
    46
1040
0.1725955299206738
1000
ACAD_MTEXT_DEFINED_HEIGHT_END
  0
LWPOLYLINE
  5
508
330
1F
100
AcDbEntity
  8
0
  6
CONTINUOUS
 62
     1
100
AcDbPolyline
 90
       20
 70
     1
 43
0.0
 39
31.96927622246645
 10
2969.595882753473
 20
1565.392446401327
 10
2969.595882753466
 20
1565.542446401326
 10
2970.495882753464
 20
1565.542446401328
 10
2970.495882753467
 20
1565.392446401328
 10
2970.92588275346
 20
1565.392446401328
 10
2970.925882753471
 20
1560.092446401324
 10
2967.775882753484
 20
1560.092446401321
 10
2967.775882753481
 20
1560.042446401318
 10
2964.49588275346
 20
1560.042446401312
 10
2964.495882753455
 20
1560.942446401312
 10
2964.545882753454
 20
1560.942446401312
 10
2964.545882753433
 20
1571.142446401315
 10
2964.495882753441
 20
1571.142446401314
 10
2964.495882753443
 20
1572.042446401314
 10
2967.275882753442
 20
1572.042446401347
 10
2967.275882753442
 20
1571.992446401348
 10
2968.37588275344
 20
1571.992446401322
 10
2968.375882753471
 20
1567.392446401328
 10
2967.695882753456
 20
1567.392446401324
 10
2967.695882753465
 20
1565.392446401323
  0
LWPOLYLINE
  5
509
330
1F
100
AcDbEntity
  8
DIM
100
AcDbPolyline
 90
        4
 70
     1
 43
0.0
 10
2970.417849952322
 20
1564.696725415415
 10
2968.768438590647
 20
1564.696725415392
 10
2968.76843859064
 20
1565.060855286645
 10
2970.417849952315
 20
1565.060855286667
  0
MTEXT
  5
50A
330
1F
100
AcDbEntity
  8
COL
  6
BYBLOCK
100
AcDbMText
 10
2969.576925401372
 20
1564.970425416829
 30
0.0
 40
0.2
 41
2.644179769046332
 71
     2
 72
     5
  1
878.00 SQ.FT.
  7
AN
1001
ACAD
1000
ACAD_MTEXT_DEFINED_HEIGHT_BEGIN
1070
    46
1040
0.6826164889145233
1000
ACAD_MTEXT_DEFINED_HEIGHT_END
  0
LWPOLYLINE
  5
50B
330
1F
100
AcDbEntity
  8
DIM
100
AcDbPolyline
 90
        4
 70
     1
 43
0.0
 10
2972.91652649917
 20
1565.866835441836
 10
2971.267115137494
 20
1565.866835441813
 10
2971.267115137486
 20
1566.230965313066
 10
2972.916526499162
 20
1566.230965313088
  0
MTEXT
  5
50C
330
1F
100
AcDbEntity
  8
COL
  6
BYBLOCK
100
AcDbMText
 10
2972.07560194822
 20
1566.14053544325
 30
0.0
 40
0.2
 41
2.644179769046332
 71
     2
 72
     5
  1
868.00 SQ.FT.
  7
AN
1001
ACAD
1000
ACAD_MTEXT_DEFINED_HEIGHT_BEGIN
1070
    46
1040
0.6826164889145233
1000
ACAD_MTEXT_DEFINED_HEIGHT_END
  0
LWPOLYLINE
  5
50D
330
1F
100
AcDbEntity
  8
DIM
100
AcDbPolyline
 90
        4
 70
     1
 43
0.0
 10
2972.823159296222
 20
1566.817877228401
 10
2971.173747934547
 20
1566.817877228379
 10
2971.173747934535
 20
1567.182007099631
 10
2972.82315929621
 20
1567.182007099654
  0
MTEXT
  5
50E
330
1F
100
AcDbEntity
  8
COL
  6
BYBLOCK
100
AcDbMText
 10
2971.982234745271
 20
1567.091577229816
 30
0.0
 40
0.2
 41
2.644179769046332
 71
     2
 72
     5
  1
812.00 SQ.FT.
  7
AN
1001
ACAD
1000
ACAD_MTEXT_DEFINED_HEIGHT_BEGIN
1070
    46
1040
0.6826164889145233
1000
ACAD_MTEXT_DEFINED_HEIGHT_END
  0
MTEXT
  5
50F
330
1F
100
AcDbEntity
  8
0
  6
BYBLOCK
 62
     0
100
AcDbMText
 10
2980.606781810505
 20
1559.086939623051
 30
0.0
 40
0.3
 41
9.888969489610965
 71
     8
 72
     5
  1
{\T1.5;\L1st TO 7th FLOOR PLAN}
  7
AN
1001
ACAD
1000
ACAD_MTEXT_DEFINED_HEIGHT_BEGIN
1070
    46
1040
0.6826164889145234
1000
ACAD_MTEXT_DEFINED_HEIGHT_END
  0
MTEXT
  5
510
330
1F
100
AcDbEntity
  8
0
  6
BYBLOCK
 62
     0
100
AcDbMText
 10
2980.606781810498
 20
1558.501973754441
 30
0.0
 40
0.3
 41
9.888969489610965
 71
     8
 72
     5
  1
{\T1.5;2558 X7 = 17906 SQFT}
  7
AN
1001
ACAD
1000
ACAD_MTEXT_DEFINED_HEIGHT_BEGIN
1070
    46
1040
0.6826164889145234
1000
ACAD_MTEXT_DEFINED_HEIGHT_END
  0
MTEXT
  5
511
102
{ACAD_XDICTIONARY
360
512
102
}
330
1F
100
AcDbEntity
  8
TEXT_
  6
CONTINUOUS
100
AcDbMText
 10
2972.344595993957
 20
1557.293967876042
 30
0.0
 40
0.35
 41
4.765563195387131
 71
     2
 72
     5
  1
9.00 M. WIDE ROAD
  7
AN
1001
ACAD
1000
ACAD_MTEXT_DEFINED_HEIGHT_BEGIN
1070
    46
1040
0.9843769667151415
1000
ACAD_MTEXT_DEFINED_HEIGHT_END
  0
ENDSEC
  0
SECTION
  2
OBJECTS
  0
DICTIONARY
  5
C
330
0
100
AcDbDictionary
  3
ACAD_CIP_PREVIOUS_PRODUCT_INFO
350
216
  3
ACAD_COLOR
350
6B
  3
ACAD_DETAILVIEWSTYLE
350
21B
  3
ACAD_GROUP
350
D
  3
ACAD_LAST_SAVED_VERSION_INFO
350
55E
  3
ACAD_LAYOUT
350
1A
  3
ACAD_MATERIAL
350
6A
  3
ACAD_MLEADERSTYLE
350
12D
  3
ACAD_MLINESTYLE
350
17
  3
ACAD_PLOTSETTINGS
350
19
  3
ACAD_SCALELIST
350
10C
  3
ACAD_SECTIONVIEWSTYLE
350
219
  3
ACAD_VISUALSTYLE
350
EF
  3
ACAD_WIPEOUT_VARS
350
58A
  3
ACDBHEADERROUNDTRIPXREC
350
55F
  3
ACDBVARIABLEDICTIONARY
350
305
  3
DWGPROPS
350
584
  0
DICTIONARY
  5
585
330
8
100
AcDbDictionary
280
     1
  3
ACAD_XREC_ROUNDTRIP
360
586
  0
DICTIONARY
  5
1FF
330
2
100
AcDbDictionary
280
     1
  3
ACAD_LAYERSTATES
360
200
  0
DICTIONARY
  5
4CE
330
4CD
100
AcDbDictionary
280
     1
  3
ACAD_DIMASSOC
360
4CF
  0
DICTIONARY
  5
4D1
330
4D0
100
AcDbDictionary
280
     1
  3
ACAD_DIMASSOC
360
4D2
  0
DICTIONARY
  5
4D4
330
4D3
100
AcDbDictionary
280
     1
  3
ACAD_DIMASSOC
360
4D5
  0
DICTIONARY
  5
4D7
330
4D6
100
AcDbDictionary
280
     1
  3
ACAD_DIMASSOC
360
4D8
  0
DICTIONARY
  5
512
330
511
100
AcDbDictionary
280
     1
  0
XRECORD
  5
216
102
{ACAD_REACTORS
330
C
102
}
330
C
100
AcDbXrecord
300
ACD
300
2025
300

  0
DICTIONARY
  5
6B
102
{ACAD_REACTORS
330
C
102
}
330
C
100
AcDbDictionary
  0
DICTIONARY
  5
21B
102
{ACAD_REACTORS
330
C
102
}
330
C
100
AcDbDictionary
  3
METRIC50
350
21C
  0
DICTIONARY
  5
D
102
{ACAD_REACTORS
330
C
102
}
330
C
100
AcDbDictionary
  0
XRECORD
  5
55E
102
{ACAD_REACTORS
330
C
102
}
330
C
100
AcDbXrecord
300
{413F69EF-5FDE-4B41-B0C9-207F670F4BED}
301
{EDC2743A-41FB-0B4D-B144-97D3AE2115DC}
302
{413F69EF-5FDE-4B41-B0C9-207F670F4BED}
303
C:\Users\sushi\Desktop\PROJECT A-16\Plans\10.dwg
  0
DICTIONARY
  5
1A
102
{ACAD_REACTORS
330
C
102
}
330
C
100
AcDbDictionary
  0
DICTIONARY
  5
6A
102
{ACAD_REACTORS
330
C
102
}
330
C
100
AcDbDictionary
  3
BYBLOCK
350
ED
  3
BYLAYER
350
EC
  3
GLOBAL
350
EE
  0
DICTIONARY
  5
12D
102
{ACAD_REACTORS
330
C
102
}
330
C
100
AcDbDictionary
  3
ANNOTATIVE
350
13B
  3
STANDARD
350
12E
  0
DICTIONARY
  5
17
102
{ACAD_REACTORS
330
C
102
}
330
C
100
AcDbDictionary
  3
STANDARD
350
18
  0
DICTIONARY
  5
19
102
{ACAD_REACTORS
330
C
102
}
330
C
100
AcDbDictionary
  0
DICTIONARY
  5
10C
102
{ACAD_REACTORS
330
C
102
}
330
C
100
AcDbDictionary
  3
A0
350
10D
  3
A1
350
1BE
  3
A2
350
1BF
  3
A3
350
1C0
  3
A4
350
1C1
  3
A5
350
1C2
  3
A6
350
1C3
  3
A7
350
1C4
  3
A8
350
1C5
  3
A9
350
1C6
  3
B0
350
1C7
  3
B1
350
1C8
  3
B2
350
1C9
  3
B3
350
1CA
  3
B4
350
1CB
  3
B5
350
1CC
  3
B6
350
1CD
  0
DICTIONARY
  5
219
102
{ACAD_REACTORS
330
C
102
}
330
C
100
AcDbDictionary
  3
METRIC50
350
21A
  0
DICTIONARY
  5
EF
102
{ACAD_REACTORS
330
C
102
}
330
C
100
AcDbDictionary
  3
2DWIREFRAME
350
F5
  3
BASIC
350
F4
  3
BRIGHTEN
350
FB
  3
COLORCHANGE
350
FF
  3
CONCEPTUAL
350
F8
  3
DIM
350
FA
  3
EDGECOLOROFF
350
1E6
  3
FACEPATTERN
350
FE
  3
FLAT
350
F0
  3
FLATWITHEDGES
350
F1
  3
GOURAUD
350
F2
  3
GOURAUDWITHEDGES
350
F3
  3
HIDDEN
350
F7
  3
JITTEROFF
350
1E4
  3
LINEPATTERN
350
FD
  3
OVERHANGOFF
350
1E5
  3
REALISTIC
350
F9
  3
SHADED
350
1F3
  3
SHADED_WITH_EDGES
350
1F2
  3
SHADES_OF_GRAY
350
1EF
  3
SKETCHY
350
1F0
  3
THICKEN
350
FC
  3
WIREFRAME
350
F6
  3
X-RAY
350
1F1
  0
WIPEOUTVARIABLES
  5
58A
102
{ACAD_REACTORS
330
C
102
}
330
C
100
AcDbWipeoutVariables
 70
     0
  0
DICTIONARY
  5
55F
102
{ACAD_REACTORS
330
C
102
}
330
C
100
AcDbDictionary
  3
CEPSNID
350
569
  3
CEPSNTYPE
350
568
  3
COLORDICT
350
582
  3
DIMSTYLEDATA
350
57F
  3
FINGERPRINTGUID
350
56A
  3
HYPERLINKBASE
350
562
  3
INSUNITS
350
567
  3
LAYOUTDICT
350
564
  3
LWETCUNION
350
566
  3
MATERIALDICT
350
583
  3
PLOTSETDICT
350
565
  3
PSVPSCALE
350
56C
  3
PUCSBASE
350
56F
  3
PUCSORGBACK
350
575
  3
PUCSORGBOTTOM
350
571
  3
PUCSORGFRONT
350
574
  3
PUCSORGLEFT
350
572
  3
PUCSORGRIGHT
350
573
  3
PUCSORGTOP
350
570
  3
PUCSORTHOREF
350
56D
  3
PUCSORTHOVIEW
350
56E
  3
STYLESHEET
350
563
  3
TSTACKALIGN
350
560
  3
TSTACKSIZE
350
561
  3
UCSBASE
350
578
  3
UCSORGBACK
350
57E
  3
UCSORGBOTTOM
350
57A
  3
UCSORGFRONT
350
57D
  3
UCSORGLEFT
350
57B
  3
UCSORGRIGHT
350
57C
  3
UCSORGTOP
350
579
  3
UCSORTHOREF
350
576
  3
UCSORTHOVIEW
350
577
  3
VERSIONGUID
350
56B
  0
DICTIONARY
  5
305
102
{ACAD_REACTORS
330
C
102
}
330
C
100
AcDbDictionary
  3
#REVCLOUDAPPROXARCLEN
350
306
  3
ANNOALLVISIBLE
350
307
  3
CANNOSCALE
350
308
  3
CENTEREXE
350
309
  3
CMLEADERSTYLE
350
30A
  3
CTABLESTYLE
350
30B
  3
CVIEWDETAILSTYLE
350
30C
  3
CVIEWSECTIONSTYLE
350
30D
  3
DGNFRAME
350
30E
  3
DIMADEC
350
30F
  3
DIMASSOC
350
310
  3
DWFFRAME
350
311
  3
EXPORTPAPERSPACE
350
312
  3
HIDETEXT
350
313
  3
HPCOLOR
350
314
  3
HPINHERIT
350
315
  3
HPLAYER
350
316
  3
HPTRANSPARENCY
350
317
  3
INDEXCTL
350
318
  3
LAYEREVAL
350
319
  3
LAYERNOTIFY
350
31A
  3
LIGHTINGUNITS
350
31B
  3
MLEADERSCALE
350
31C
  3
MSLTSCALE
350
31D
  3
OLEFRAME
350
31E
  3
PDFFRAME
350
31F
  3
PSOLHEIGHT
350
581
  3
PSOLWIDTH
350
580
  3
SOLIDHIST
350
320
  3
SORTENTS
350
321
  3
WIPEOUTFRAME
350
322
  0
XRECORD
  5
584
102
{ACAD_REACTORS
330
C
102
}
330
C
100
AcDbXrecord
  1
DWGPROPS COOKIE
  2

  3

  4

  6

  7

  8
cmdrun
  9

300
=
301
=
302
=
303
=
304
=
305
=
306
=
307
=
308
=
309
=
 40
0.0
 41
2460873.245208333
 42
2460942.866610764
  1

 90
        0
  0
XRECORD
  5
586
102
{ACAD_REACTORS
330
585
102
}
330
585
100
AcDbXrecord
102
VTR_0.000_0.000_1.000_1.000_VISUALSTYLE
340
F5
102
VTR_0.000_0.000_1.000_1.000_GRIDDISPLAY
 70
     3
102
VTR_0.000_0.000_1.000_1.000_GRIDMAJOR
 70
     5
102
VTR_0.000_0.000_1.000_1.000_DEFAULTLIGHTING
280
     1
102
VTR_0.000_0.000_1.000_1.000_DEFAULTLIGHTINGTYPE
 70
     1
102
VTR_0.000_0.000_1.000_1.000_BRIGHTNESS
141
0.0
102
VTR_0.000_0.000_1.000_1.000_CONTRAST
142
0.0
  0
DICTIONARY
  5
200
102
{ACAD_REACTORS
330
1FF
102
}
330
1FF
100
AcDbDictionary
  0
ACAD_PROXY_OBJECT
  5
4CF
102
{ACAD_REACTORS
330
4CE
102
}
330
4CE
100
AcDbProxyObject
 90
      499
 91
      517
 93
      772
310
40C0088A0B1A23127B9B730B82837B4B73A2932B3052028150C15B37EB3A93B47F5111416344624F736E6170506F696E745265660840502A1EDB1F6041D537CFEAA2282C688C49EE6DCC2E0A0DED2DCE8A4CACC1480A0543056CDFACEA4ED1FD40
330
4CD
330
424
330
423
330
424
 94
        0
  0
ACAD_PROXY_OBJECT
  5
4D2
102
{ACAD_REACTORS
330
4D1
102
}
330
4D1
100
AcDbProxyObject
 90
      499
 91
      517
 93
      772
310
40C0088A0B1A23127B9B730B82837B4B73A2932B3012028150000000000001C07F5111416344624F736E6170506F696E745265660840502A2469BEAC47FEF84FEAA2282C688C49EE6DCC2E0A0DED2DCE8A4CACC0480A054000000000000701FD40
330
4D0
330
422
330
4A2
330
422
 94
        0
  0
ACAD_PROXY_OBJECT
  5
4D5
102
{ACAD_REACTORS
330
4D4
102
}
330
4D4
100
AcDbProxyObject
 90
      499
 91
      517
 93
      772
310
40C0088A0B1A23127B9B730B82837B4B73A2932B3012028150000000000001C07F5111416344624F736E6170506F696E745265660840502A39163EA913FEB70FEAA2282C688C49EE6DCC2E0A0DED2DCE8A4CACC0480A054000000000000701FD40
330
4D3
330
431
330
421
330
431
 94
        0
  0
ACAD_PROXY_OBJECT
  5
4D8
102
{ACAD_REACTORS
330
4D7
102
}
330
4D7
100
AcDbProxyObject
 90
      499
 91
      517
 93
      772
310
40C0088A0B1A23127B9B730B82837B4B73A2932B3052028150265F44A758A3A67F5111416344624F736E6170506F696E745265660840502A000416BB9EA4B80FEAA2282C688C49EE6DCC2E0A0DED2DCE8A4CACC1480A0540997D129D628E99FD40
330
4D6
330
4BF
330
420
330
4BF
 94
        0
  0
ACAD_PROXY_OBJECT
  5
21C
102
{ACAD_REACTORS
330
21B
102
}
330
21B
100
AcDbProxyObject
 90
      499
 91
      516
 93
      877
310
9084D65747269633530481E0000000000000A20500E0000000000000A20233E0000000000000A20400000000000017202029B929E2E20B1AB30B9102B34B2BBA232BA30B4B624B21F129014129E2E20B1AB30B9102B34B2BBA9B1B0B632902E33101112B9B7111F1294A33A33800
340
11
340
0
340
16
340
11
340
16
340
16
 94
        0
  0
MATERIAL
  5
ED
102
{ACAD_REACTORS
330
6A
102
}
102
{ACAD_XDICTIONARY
360
1F9
102
}
330
6A
100
AcDbMaterial
  1
BYBLOCK
 73
     2
 78
     2
172
     2
176
     2
270
     2
274
     2
  0
MATERIAL
  5
EC
102
{ACAD_REACTORS
330
6A
102
}
102
{ACAD_XDICTIONARY
360
1F7
102
}
330
6A
100
AcDbMaterial
  1
BYLAYER
 73
     2
 78
     2
172
     2
176
     2
270
     2
274
     2
  0
MATERIAL
  5
EE
102
{ACAD_REACTORS
330
6A
102
}
102
{ACAD_XDICTIONARY
360
173
102
}
330
6A
100
AcDbMaterial
  1
GLOBAL
 73
     2
 43
0.0007999999797903
 43
0.0
 43
0.0
 43
0.0
 43
0.0
 43
0.0007999999797903
 43
0.0
 43
0.0
 43
0.0
 43
0.0
 43
1.0
 43
0.0
 43
0.0
 43
0.0
 43
0.0
 43
1.0
 78
     2
172
     2
 49
0.0007999999797903
 49
0.0
 49
0.0
 49
0.0
 49
0.0
 49
0.0007999999797903
 49
0.0
 49
0.0
 49
0.0
 49
0.0
 49
1.0
 49
0.0
 49
0.0
 49
0.0
 49
0.0
 49
1.0
176
     2
142
0.0007999999797903
142
0.0
142
0.0
142
0.0
142
0.0
142
0.0007999999797903
142
0.0
142
0.0
142
0.0
142
0.0
142
1.0
142
0.0
142
0.0
142
0.0
142
0.0
142
1.0
270
     2
144
0.0007999999797903
144
0.0
144
0.0
144
0.0
144
0.0
144
0.0007999999797903
144
0.0
144
0.0
144
0.0
144
0.0
144
1.0
144
0.0
144
0.0
144
0.0
144
0.0
144
1.0
274
     2
1001
ACAD
1070
    -1
1070
     3
1070
     0
1000

1071
        0
1070
     0
  0
ACAD_PROXY_OBJECT
  5
13B
102
{ACAD_REACTORS
330
12D
102
}
330
12D
100
AcDbProxyObject
 90
      499
 91
      508
 93
      610
310
40901902A4063FBFFFFFE0000000000000020400000000000020404214DD185B99185C990000000000000104090140501A00000000000004100000000000000041025766000000000000039000
340
14
340
0
340
11
340
0
 94
        0
1001
ACAD_MLEADERVER
1070
     2
  0
ACAD_PROXY_OBJECT
  5
12E
102
{ACAD_REACTORS
330
12D
102
}
330
12D
100
AcDbProxyObject
 90
      499
 91
      508
 93
      610
310
40901902A4063FBFFFFFE0000000000000020400000000000020404214DD185B99185C990000000000000104090140501A00000000000004100000000000000041025764000000000000039000
340
14
340
0
340
11
340
0
 94
        0
1001
ACAD_MLEADERVER
1070
     2
  0
MLINESTYLE
  5
18
102
{ACAD_REACTORS
330
17
102
}
330
17
100
AcDbMlineStyle
  2
STANDARD
 70
     0
  3

 62
   256
 51
90.0
 52
90.0
 71
     2
 49
0.5
 62
   256
  6
BYLAYER
 49
-0.5
 62
   256
  6
BYLAYER
  0
ACAD_PROXY_OBJECT
  5
10D
102
{ACAD_REACTORS
330
10C
102
}
330
10C
100
AcDbProxyObject
 90
      499
 91
      507
 93
       41
310
903313A31580
  0
ACAD_PROXY_OBJECT
  5
1BE
102
{ACAD_REACTORS
330
10C
102
}
330
10C
100
AcDbProxyObject
 90
      499
 91
      507
 93
      105
310
903313A324000000000000004000
  0
ACAD_PROXY_OBJECT
  5
1BF
102
{ACAD_REACTORS
330
10C
102
}
330
10C
100
AcDbProxyObject
 90
      499
 91
      507
 93
      105
310
903313A344000000000000104000
  0
ACAD_PROXY_OBJECT
  5
1C0
102
{ACAD_REACTORS
330
10C
102
}
330
10C
100
AcDbProxyObject
 90
      499
 91
      507
 93
      105
310
903313A354000000000000144000
  0
ACAD_PROXY_OBJECT
  5
1C1
102
{ACAD_REACTORS
330
10C
102
}
330
10C
100
AcDbProxyObject
 90
      499
 91
      507
 93
      105
310
903313A384000000000000204000
  0
ACAD_PROXY_OBJECT
  5
1C2
102
{ACAD_REACTORS
330
10C
102
}
330
10C
100
AcDbProxyObject
 90
      499
 91
      507
 93
      113
310
904313A31304000000000000244000
  0
ACAD_PROXY_OBJECT
  5
1C3
102
{ACAD_REACTORS
330
10C
102
}
330
10C
100
AcDbProxyObject
 90
      499
 91
      507
 93
      113
310
904313A31364000000000000304000
  0
ACAD_PROXY_OBJECT
  5
1C4
102
{ACAD_REACTORS
330
10C
102
}
330
10C
100
AcDbProxyObject
 90
      499
 91
      507
 93
      113
310
904313A32304000000000000344000
  0
ACAD_PROXY_OBJECT
  5
1C5
102
{ACAD_REACTORS
330
10C
102
}
330
10C
100
AcDbProxyObject
 90
      499
 91
      507
 93
      113
310
904313A333040000000000003E4000
  0
ACAD_PROXY_OBJECT
  5
1C6
102
{ACAD_REACTORS
330
10C
102
}
330
10C
100
AcDbProxyObject
 90
      499
 91
      507
 93
      113
310
904313A34304000000000000444000
  0
ACAD_PROXY_OBJECT
  5
1C7
102
{ACAD_REACTORS
330
10C
102
}
330
10C
100
AcDbProxyObject
 90
      499
 91
      507
 93
      113
310
904313A35304000000000000494000
  0
ACAD_PROXY_OBJECT
  5
1C8
102
{ACAD_REACTORS
330
10C
102
}
330
10C
100
AcDbProxyObject
 90
      499
 91
      507
 93
      121
310
905313A3130304000000000000594000
  0
ACAD_PROXY_OBJECT
  5
1C9
102
{ACAD_REACTORS
330
10C
102
}
330
10C
100
AcDbProxyObject
 90
      499
 91
      507
 93
      105
310
903323A310000000000000010100
  0
ACAD_PROXY_OBJECT
  5
1CA
102
{ACAD_REACTORS
330
10C
102
}
330
10C
100
AcDbProxyObject
 90
      499
 91
      507
 93
      105
310
903343A310000000000000410100
  0
ACAD_PROXY_OBJECT
  5
1CB
102
{ACAD_REACTORS
330
10C
102
}
330
10C
100
AcDbProxyObject
 90
      499
 91
      507
 93
      105
310
903383A310000000000000810100
  0
ACAD_PROXY_OBJECT
  5
1CC
102
{ACAD_REACTORS
330
10C
102
}
330
10C
100
AcDbProxyObject
 90
      499
 91
      507
 93
      113
310
90431303A310000000000000910100
  0
ACAD_PROXY_OBJECT
  5
1CD
102
{ACAD_REACTORS
330
10C
102
}
330
10C
100
AcDbProxyObject
 90
      499
 91
      507
 93
      121
310
9053130303A310000000000001650100
  0
ACAD_PROXY_OBJECT
  5
21A
102
{ACAD_REACTORS
330
219
102
}
330
219
100
AcDbProxyObject
 90
      499
 91
      515
 93
     2015
310
9084D657472696335304B360000000000000A2060000000000000A202209258409E5840A25840A65840B05840B40000000000001220233A65800000000000028800000000000000A2060000000000000A2040000000000001720202AC929E2E20B1AB30B9102B34B2BBA9B2B1BA34B7B729BA30B93A24B21F1296929E2E20B
310
1AB30B9102B34B2BBA9B2B1BA34B7B722B73224B21F129014129E2E20B1AB30B9102B34B2BBA9B1B0B632902E33101112B9B7111F1294E0080A0C829CA6926662C400000000000002204000000000000022020D0305A88A9F643F27E32B9969C2960E81F87FA0718D4DE3E87E32B9969C2960E85F9E5129FC49EA5FA7E
340
11
340
0
340
0
340
16
340
16
340
11
 94
        0
  0
ACAD_PROXY_OBJECT
  5
F5
102
{ACAD_REACTORS
330
EF
102
}
330
EF
100
AcDbProxyObject
 90
      499
 91
      506
 93
      444
310
42CC9915DA5C99599C985B59504902404333333333333E33F0000000000000F90107901411070040501600405405064090741402480A0340
1001
ACAD
1000
AcDbSavedByObjectVersion
1070
     0
  0
ACAD_PROXY_OBJECT
  5
F4
102
{ACAD_REACTORS
330
EF
102
}
330
EF
100
AcDbProxyObject
 90
      499
 91
      506
 93
      388
310
4150985CDA58D07406404333333333333E33F0000000000000F90107A41107004050150841D405064090741402480A0350
1001
ACAD
1000
AcDbSavedByObjectVersion
1070
     0
  0
ACAD_PROXY_OBJECT
  5
FB
102
{ACAD_REACTORS
330
EF
102
}
330
EF
100
AcDbProxyObject
 90
      499
 91
      506
 93
      436
310
42109C9A59DA1D195B90C40902404333333333333E33F0000000000000F9010790141107004050150841D405064090741402480A029950
1001
ACAD
1000
AcDbSavedByObjectVersion
1070
     0
  0
ACAD_PROXY_OBJECT
  5
FF
102
{ACAD_REACTORS
330
EF
102
}
330
EF
100
AcDbProxyObject
 90
      499
 91
      506
 93
      452
310
42D0DBDB1BDC90DA185B99D95104090240C333333333333E33F0000000000000F90108901411070040501508421405064090741402480A0350
1001
ACAD
1000
AcDbSavedByObjectVersion
1070
     0
  0
ACAD_PROXY_OBJECT
  5
F8
102
{ACAD_REACTORS
330
EF
102
}
330
EF
100
AcDbProxyObject
 90
      499
 91
      506
 93
      508
310
4290DBDB98D95C1D1D585B10940D02404333333333333E33F0000000000000F90107902409070040501000000000000111010841D405064090740C02480A0340
1001
ACAD
1000
AcDbSavedByObjectVersion
1070
     0
  0
ACAD_PROXY_OBJECT
  5
FA
102
{ACAD_REACTORS
330
EF
102
}
330
EF
100
AcDbProxyObject
 90
      499
 91
      506
 93
      420
310
40D11A5B50B40902404333333333333E33F0000000000000F9010790141107004050150841D405064090741402480A02677FFFFFD0
1001
ACAD
1000
AcDbSavedByObjectVersion
1070
     0
  0
ACAD_PROXY_OBJECT
  5
1E6
102
{ACAD_REACTORS
330
EF
102
}
330
EF
100
AcDbProxyObject
 90
      499
 91
      506
 93
      452
310
43115919D950DBDB1BDC93D999916409028333333333333E33F0000000000000F9010790141107004050150841D405064090741402480A0350
1001
ACAD
1000
AcDbSavedByObjectVersion
1070
     0
  0
ACAD_PROXY_OBJECT
  5
FE
102
{ACAD_REACTORS
330
EF
102
}
330
EF
100
AcDbProxyObject
 90
      499
 91
      506
 93
      452
310
42D19858D95C185D1D195C9B90F40902404333333333333E33F0000000000000F9010790141107004050150841D405064090741402480A0350
1001
ACAD
1000
AcDbSavedByObjectVersion
1070
     0
  0
ACAD_PROXY_OBJECT
  5
F0
102
{ACAD_REACTORS
330
EF
102
}
330
EF
100
AcDbProxyObject
 90
      499
 91
      506
 93
      380
310
41119B185D240901404333333333333E33F0000000000000F9010740A907004050150841D405064090741402480A1B50
1001
ACAD
1000
AcDbSavedByObjectVersion
1070
     0
  0
ACAD_PROXY_OBJECT
  5
F1
102
{ACAD_REACTORS
330
EF
102
}
330
EF
100
AcDbProxyObject
 90
      499
 91
      506
 93
      468
310
43519B185D15DA5D1A115919D95CD0140901404333333333333E33F0000000000000F90107409019070040501600405405064090741402480A1B50
1001
ACAD
1000
AcDbSavedByObjectVersion
1070
     0
  0
ACAD_PROXY_OBJECT
  5
F2
102
{ACAD_REACTORS
330
EF
102
}
330
EF
100
AcDbProxyObject
 90
      499
 91
      506
 93
      404
310
41D1DBDD5C985D5910240902404333333333333E33F0000000000000F9010740A9070040501641D405064090741402480A1B50
1001
ACAD
1000
AcDbSavedByObjectVersion
1070
     0
  0
ACAD_PROXY_OBJECT
  5
F3
102
{ACAD_REACTORS
330
EF
102
}
330
EF
100
AcDbProxyObject
 90
      499
 91
      506
 93
      492
310
4411DBDD5C985D5915DA5D1A115919D95CD0340902404333333333333E33F0000000000000F90107409019070040501600405405064090741402480A1B50
1001
ACAD
1000
AcDbSavedByObjectVersion
1070
     0
  0
ACAD_PROXY_OBJECT
  5
F7
102
{ACAD_REACTORS
330
EF
102
}
330
EF
100
AcDbProxyObject
 90
      499
 91
      506
 93
      476
310
41921A5919195B90640502408333333333333E33F0000000000000F901079024090700405020000000000001110200405405064090740C02480A0340
1001
ACAD
1000
AcDbSavedByObjectVersion
1070
     0
  0
ACAD_PROXY_OBJECT
  5
1E4
102
{ACAD_REACTORS
330
EF
102
}
330
EF
100
AcDbProxyObject
 90
      499
 91
      506
 93
      428
310
42529A5D1D195C93D999914409028333333333333E33F0000000000000F9010790141107004050150A41D405064090741402480A0350
1001
ACAD
1000
AcDbSavedByObjectVersion
1070
     0
  0
ACAD_PROXY_OBJECT
  5
FD
102
{ACAD_REACTORS
330
EF
102
}
330
EF
100
AcDbProxyObject
 90
      499
 91
      506
 93
      452
310
42D31A5B995C185D1D195C9B90E40902404333333333333E33F0000000000000F9010790141107004050750841D405064090741402483A0350
1001
ACAD
1000
AcDbSavedByObjectVersion
1070
     0
  0
ACAD_PROXY_OBJECT
  5
1E5
102
{ACAD_REACTORS
330
EF
102
}
330
EF
100
AcDbProxyObject
 90
      499
 91
      506
 93
      444
310
42D3DD995C9A185B99D3D999915409028333333333333E33F0000000000000F9010790141107004050150941D405064090741402480A0350
1001
ACAD
1000
AcDbSavedByObjectVersion
1070
     0
  0
ACAD_PROXY_OBJECT
  5
F9
102
{ACAD_REACTORS
330
EF
102
}
330
EF
100
AcDbProxyObject
 90
      499
 91
      506
 93
      428
310
425499585B1A5CDD1A58D08409038333333333333E33F0000000000000F9010740A907004050150800405405064090740C02480A1B40
1001
ACAD
1000
AcDbSavedByObjectVersion
1070
     0
  0
ACAD_PROXY_OBJECT
  5
1F3
102
{ACAD_REACTORS
330
EF
102
}
330
EF
100
AcDbProxyObject
 90
      499
 91
      506
 93
      420
310
4194DA1859195911B40902404333333333333E33F0000000000000F9010740A41107004050150800405405064090840C02480A0B40
1001
ACAD
1000
AcDbSavedByObjectVersion
1070
     0
  0
ACAD_PROXY_OBJECT
  5
1F2
102
{ACAD_REACTORS
330
EF
102
}
330
EF
100
AcDbProxyObject
 90
      499
 91
      506
 93
      516
310
4454DA18591959081DDA5D1A08195919D95CD1A40902404333333333333E33F0000000000000F901074090140907004050250800405405064090740C02480A0B40
1001
ACAD
1000
AcDbSavedByObjectVersion
1070
     0
  0
ACAD_PROXY_OBJECT
  5
1EF
102
{ACAD_REACTORS
330
EF
102
}
330
EF
100
AcDbProxyObject
 90
      499
 91
      506
 93
      532
310
4394DA1859195CC81BD98811DC985E5174090240C333333333333E33F0000000000000F901079024090741D01000000000000111010841D405064090740C02480A0340
1001
ACAD
1000
AcDbSavedByObjectVersion
1070
     0
  0
ACAD_PROXY_OBJECT
  5
1F0
102
{ACAD_REACTORS
330
EF
102
}
330
EF
100
AcDbProxyObject
 90
      499
 91
      506
 93
      476
310
41D4DAD95D18DA1E51840502408333333333333E33F0000000000000F901079024090741D01000000000000111010B41D405064090741802480A0340
1001
ACAD
1000
AcDbSavedByObjectVersion
1070
     0
  0
ACAD_PROXY_OBJECT
  5
FC
102
{ACAD_REACTORS
330
EF
102
}
330
EF
100
AcDbProxyObject
 90
      499
 91
      506
 93
      420
310
41D51A1A58DAD95B90D40902404333333333333E33F0000000000000F9010790141107004050150C41D405064090741402480A0350
1001
ACAD
1000
AcDbSavedByObjectVersion
1070
     0
  0
ACAD_PROXY_OBJECT
  5
F6
102
{ACAD_REACTORS
330
EF
102
}
330
EF
100
AcDbProxyObject
 90
      499
 91
      506
 93
      420
310
4255DA5C99599C985B595059028333333333333E33F0000000000000F90107901411070040501600405405064090740C02480A0340
1001
ACAD
1000
AcDbSavedByObjectVersion
1070
     0
  0
ACAD_PROXY_OBJECT
  5
1F1
102
{ACAD_REACTORS
330
EF
102
}
330
EF
100
AcDbProxyObject
 90
      499
 91
      506
 93
      404
310
41560B54985E51940902404000000000000E03F0000000000000F9010740501907004050150841D405064090740C02480A1B40
1001
ACAD
1000
AcDbSavedByObjectVersion
1070
     0
  0
XRECORD
  5
569
102
{ACAD_REACTORS
330
55F
102
}
330
55F
100
AcDbXrecord
340
0
  0
XRECORD
  5
568
102
{ACAD_REACTORS
330
55F
102
}
330
55F
100
AcDbXrecord
 90
        0
  0
XRECORD
  5
582
102
{ACAD_REACTORS
330
55F
102
}
330
55F
100
AcDbXrecord
340
6B
  0
XRECORD
  5
57F
102
{ACAD_REACTORS
330
55F
102
}
330
55F
100
AcDbXrecord
1000
DSTYLE
1002
{
1070
   340
340
11
1002
}
  0
XRECORD
  5
56A
102
{ACAD_REACTORS
330
55F
102
}
330
55F
100
AcDbXrecord
  1
{3256E821-706D-DB42-B586-84127F41FA46}
  0
XRECORD
  5
562
102
{ACAD_REACTORS
330
55F
102
}
330
55F
100
AcDbXrecord
  1

  0
XRECORD
  5
567
102
{ACAD_REACTORS
330
55F
102
}
330
55F
100
AcDbXrecord
 90
        4
  0
XRECORD
  5
564
102
{ACAD_REACTORS
330
55F
102
}
330
55F
100
AcDbXrecord
340
1A
  0
XRECORD
  5
566
102
{ACAD_REACTORS
330
55F
102
}
330
55F
100
AcDbXrecord
 90
    10781
  0
XRECORD
  5
583
102
{ACAD_REACTORS
330
55F
102
}
330
55F
100
AcDbXrecord
340
6A
  0
XRECORD
  5
565
102
{ACAD_REACTORS
330
55F
102
}
330
55F
100
AcDbXrecord
340
19
  0
XRECORD
  5
56C
102
{ACAD_REACTORS
330
55F
102
}
330
55F
100
AcDbXrecord
 40
0.0
  0
XRECORD
  5
56F
102
{ACAD_REACTORS
330
55F
102
}
330
55F
100
AcDbXrecord
340
0
  0
XRECORD
  5
575
102
{ACAD_REACTORS
330
55F
102
}
330
55F
100
AcDbXrecord
 10
0.0
 20
0.0
 30
0.0
  0
XRECORD
  5
571
102
{ACAD_REACTORS
330
55F
102
}
330
55F
100
AcDbXrecord
 10
0.0
 20
0.0
 30
0.0
  0
XRECORD
  5
574
102
{ACAD_REACTORS
330
55F
102
}
330
55F
100
AcDbXrecord
 10
0.0
 20
0.0
 30
0.0
  0
XRECORD
  5
572
102
{ACAD_REACTORS
330
55F
102
}
330
55F
100
AcDbXrecord
 10
0.0
 20
0.0
 30
0.0
  0
XRECORD
  5
573
102
{ACAD_REACTORS
330
55F
102
}
330
55F
100
AcDbXrecord
 10
0.0
 20
0.0
 30
0.0
  0
XRECORD
  5
570
102
{ACAD_REACTORS
330
55F
102
}
330
55F
100
AcDbXrecord
 10
0.0
 20
0.0
 30
0.0
  0
XRECORD
  5
56D
102
{ACAD_REACTORS
330
55F
102
}
330
55F
100
AcDbXrecord
340
0
  0
XRECORD
  5
56E
102
{ACAD_REACTORS
330
55F
102
}
330
55F
100
AcDbXrecord
 70
     0
  0
XRECORD
  5
563
102
{ACAD_REACTORS
330
55F
102
}
330
55F
100
AcDbXrecord
  1

  0
XRECORD
  5
560
102
{ACAD_REACTORS
330
55F
102
}
330
55F
100
AcDbXrecord
 90
        1
  0
XRECORD
  5
561
102
{ACAD_REACTORS
330
55F
102
}
330
55F
100
AcDbXrecord
 90
       70
  0
XRECORD
  5
578
102
{ACAD_REACTORS
330
55F
102
}
330
55F
100
AcDbXrecord
340
0
  0
XRECORD
  5
57E
102
{ACAD_REACTORS
330
55F
102
}
330
55F
100
AcDbXrecord
 10
0.0
 20
0.0
 30
0.0
  0
XRECORD
  5
57A
102
{ACAD_REACTORS
330
55F
102
}
330
55F
100
AcDbXrecord
 10
0.0
 20
0.0
 30
0.0
  0
XRECORD
  5
57D
102
{ACAD_REACTORS
330
55F
102
}
330
55F
100
AcDbXrecord
 10
0.0
 20
0.0
 30
0.0
  0
XRECORD
  5
57B
102
{ACAD_REACTORS
330
55F
102
}
330
55F
100
AcDbXrecord
 10
0.0
 20
0.0
 30
0.0
  0
XRECORD
  5
57C
102
{ACAD_REACTORS
330
55F
102
}
330
55F
100
AcDbXrecord
 10
0.0
 20
0.0
 30
0.0
  0
XRECORD
  5
579
102
{ACAD_REACTORS
330
55F
102
}
330
55F
100
AcDbXrecord
 10
0.0
 20
0.0
 30
0.0
  0
XRECORD
  5
576
102
{ACAD_REACTORS
330
55F
102
}
330
55F
100
AcDbXrecord
340
0
  0
XRECORD
  5
577
102
{ACAD_REACTORS
330
55F
102
}
330
55F
100
AcDbXrecord
 70
     0
  0
XRECORD
  5
56B
102
{ACAD_REACTORS
330
55F
102
}
330
55F
100
AcDbXrecord
  1
{413F69EF-5FDE-4B41-B0C9-207F670F4BED}
  0
DICTIONARYVAR
  5
306
102
{ACAD_REACTORS
330
305
102
}
330
305
100
DictionaryVariables
280
     0
  1
14.341106
  0
DICTIONARYVAR
  5
307
102
{ACAD_REACTORS
330
305
102
}
330
305
100
DictionaryVariables
280
     0
  1
1
  0
DICTIONARYVAR
  5
308
102
{ACAD_REACTORS
330
305
102
}
330
305
100
DictionaryVariables
280
     0
  1
1:1
  0
DICTIONARYVAR
  5
309
102
{ACAD_REACTORS
330
305
102
}
330
305
100
DictionaryVariables
280
     0
  1
2.000000
  0
DICTIONARYVAR
  5
30A
102
{ACAD_REACTORS
330
305
102
}
330
305
100
DictionaryVariables
280
     0
  1
Standard
  0
DICTIONARYVAR
  5
30B
102
{ACAD_REACTORS
330
305
102
}
330
305
100
DictionaryVariables
280
     0
  1
Standard
  0
DICTIONARYVAR
  5
30C
102
{ACAD_REACTORS
330
305
102
}
330
305
100
DictionaryVariables
280
     0
  1
Metric50
  0
DICTIONARYVAR
  5
30D
102
{ACAD_REACTORS
330
305
102
}
330
305
100
DictionaryVariables
280
     0
  1
Metric50
  0
DICTIONARYVAR
  5
30E
102
{ACAD_REACTORS
330
305
102
}
330
305
100
DictionaryVariables
280
     0
  1
0
  0
DICTIONARYVAR
  5
30F
102
{ACAD_REACTORS
330
305
102
}
330
305
100
DictionaryVariables
280
     0
  1
0
  0
DICTIONARYVAR
  5
310
102
{ACAD_REACTORS
330
305
102
}
330
305
100
DictionaryVariables
280
     0
  1
2
  0
DICTIONARYVAR
  5
311
102
{ACAD_REACTORS
330
305
102
}
330
305
100
DictionaryVariables
280
     0
  1
2
  0
DICTIONARYVAR
  5
312
102
{ACAD_REACTORS
330
305
102
}
330
305
100
DictionaryVariables
280
     0
  1
1
  0
DICTIONARYVAR
  5
313
102
{ACAD_REACTORS
330
305
102
}
330
305
100
DictionaryVariables
280
     0
  1
1
  0
DICTIONARYVAR
  5
314
102
{ACAD_REACTORS
330
305
102
}
330
305
100
DictionaryVariables
280
     0
  1
1
  0
DICTIONARYVAR
  5
315
102
{ACAD_REACTORS
330
305
102
}
330
305
100
DictionaryVariables
280
     0
  1
0
  0
DICTIONARYVAR
  5
316
102
{ACAD_REACTORS
330
305
102
}
330
305
100
DictionaryVariables
280
     0
  1
AR3-WALL HATCH
  0
DICTIONARYVAR
  5
317
102
{ACAD_REACTORS
330
305
102
}
330
305
100
DictionaryVariables
280
     0
  1
ByLayer
  0
DICTIONARYVAR
  5
318
102
{ACAD_REACTORS
330
305
102
}
330
305
100
DictionaryVariables
280
     0
  1
0
  0
DICTIONARYVAR
  5
319
102
{ACAD_REACTORS
330
305
102
}
330
305
100
DictionaryVariables
280
     0
  1
0
  0
DICTIONARYVAR
  5
31A
102
{ACAD_REACTORS
330
305
102
}
330
305
100
DictionaryVariables
280
     0
  1
0
  0
DICTIONARYVAR
  5
31B
102
{ACAD_REACTORS
330
305
102
}
330
305
100
DictionaryVariables
280
     0
  1
2
  0
DICTIONARYVAR
  5
31C
102
{ACAD_REACTORS
330
305
102
}
330
305
100
DictionaryVariables
280
     0
  1
1.000000
  0
DICTIONARYVAR
  5
31D
102
{ACAD_REACTORS
330
305
102
}
330
305
100
DictionaryVariables
280
     0
  1
1
  0
DICTIONARYVAR
  5
31E
102
{ACAD_REACTORS
330
305
102
}
330
305
100
DictionaryVariables
280
     0
  1
2
  0
DICTIONARYVAR
  5
31F
102
{ACAD_REACTORS
330
305
102
}
330
305
100
DictionaryVariables
280
     0
  1
1
  0
DICTIONARYVAR
  5
581
102
{ACAD_REACTORS
330
305
102
}
330
305
100
DictionaryVariables
280
     0
  1
80.000000
  0
DICTIONARYVAR
  5
580
102
{ACAD_REACTORS
330
305
102
}
330
305
100
DictionaryVariables
280
     0
  1
5.000000
  0
DICTIONARYVAR
  5
320
102
{ACAD_REACTORS
330
305
102
}
330
305
100
DictionaryVariables
280
     0
  1
0
  0
DICTIONARYVAR
  5
321
102
{ACAD_REACTORS
330
305
102
}
330
305
100
DictionaryVariables
280
     0
  1
127
  0
DICTIONARYVAR
  5
322
102
{ACAD_REACTORS
330
305
102
}
330
305
100
DictionaryVariables
280
     0
  1
0
  0
DICTIONARY
  5
1F9
330
ED
100
AcDbDictionary
280
     1
  3
ACAD_XREC_ROUNDTRIP
360
587
  3
FBXASSET
360
1FA
  0
DICTIONARY
  5
1F7
330
EC
100
AcDbDictionary
280
     1
  3
ACAD_XREC_ROUNDTRIP
360
588
  3
FBXASSET
360
1F8
  0
DICTIONARY
  5
173
330
EE
100
AcDbDictionary
280
     1
  3
ACAD_XREC_ROUNDTRIP
360
589
  3
FBXASSET
360
1FB
  0
XRECORD
  5
587
102
{ACAD_REACTORS
330
1F9
102
}
330
1F9
100
AcDbXrecord
102
MATERIAL
148
0.0
149
0.0
149
0.0
 93
        0
 94
       63
282
     0
 72
     1
 77
     1
171
     1
175
     1
179
     1
273
     0
  0
XRECORD
  5
1FA
102
{ACAD_REACTORS
330
1F9
102
}
330
1F9
100
AcDbXrecord
 70
     1
 90
429727718
  1
D62C5603-E3A1-4AEA-B7FB-FE5D8D0755AF
310
504B03040A0000080000CC70623B3DEE336E79000000790000001B0000006175746F6465736B2D64657369676E2D7061636B6167652E786D6C3C3F786D6C2076657273696F6E3D22312E302220656E636F64696E673D227574662D3822203F3E3C666F726D6174733E3C666F726D61743E687474703A2F2F736368656D612E
310
6175746F6465736B2E636F6D2F64657369676E2D7061636B6167652F323030393C2F666F726D61743E3C2F666F726D6174733E504B0304140006080800CC70623BD486FD9CA0000000F4000000130000005B436F6E74656E745F54797065735D2E786D6C7D8EC10E82300C865F65E91D8A1E8C310C0EEA1BF002731658846E
310
D98AC1B77784ABF1D8FE5FBFBF75BBCE937A534CCEB38643598122B6FEE978D0B0485F9C41B54DDD7D022595594E1A469170414C76A4D9A4D207E29CF43ECE46F218070CC6BECC4078ACAA135ACF422C856C0E68EA1BF5669944DDD7BCDE7B1F8E415D77AECB980613C2E4AC91FC167A2B244592486606FC29C8FD7F045B9A
310
EF7053A7E60B504B0304140006080800CC70623B853B8169EB0000007C01000008000000636F72652E786D6C8D90416EC3201045AF62CDB6C206821CC7C244919D9CA01740401C94182C03558F5F9C3852BBEB6A467FFE9B197D7EFC9E1EC5975982F5AE035262288C535E5B377690E21535501C055FBC8FBF6C503839990E
310
5619041F179FE64D52DE45E362569DD7661365082642A11EB9E920A89B99642953CC8E702F67A9EE7234257977194EC9EAE275C4EABCCF5EAD5940D4AC6F0E35A568B8F43562CD7046CD199FD07E60174276A7BE677B5EADB0E0D14EEFFB6A31321A0D82627C4084204C3F096B71DD52F6819B16635EADF63F509AF53FA164
310
5DDCD1EDDD17164090FCC8732078B56691CB33A85CD7DCC40F504B0304140006080800CC70623B55019EA25F0000007C00000007000000636E782E786D6C4DCB3B0E80201045D1AD90E915ED2CF8AC45050C11660C8261F98AB1B07AC9C97D42D718D865D3E909258CFD00CCE24AC6E326A164D74DC0B4128928FF32603847
310
2BA13128B1252AC747C6BAB984FC68F0B87FE8960A5C09FE86CFB69FBA01504B0304140006080800CC70623BDBABAAF470010000D40300000C0000006662782F636F72652E786D6CC553D16E823014FD95A6AF4B694182CC941A83FA05FB810A9511A125A5257EFE2E82712ECEB8A7F100CD39F7F69E734AF9FADC366850B6
310
AF8DCE7018308C942E4C59EB2AC3DE1D498AD15A706B8CFB56869196ADCAF00863C12B6B7C374385D14E6907A836A59A41D9F7CA615434B0C8705F7CAA5606D23BA8E84F41278B93AC54100640439DE0BDB320004D43C63716C7C399D30917DCFBBA9CD9BA8469F5B156168B24CED3F7248AC8769F27244EB73B92EED8862C
310
B7F13E0C179B3C8F979C8ECD82BBBABDAA2BAC924E9558448CBD9330242CFA08E3154B5651FCC6D215639C8EE5774DBE2B5F6CF2B5768B68963BB5F5588420E442FC700B1139D4CB01F450C1E918227C2E09DF070D8140C84E1E9AAB8F1340832A9CB13130A5F1376A908D57309505ECF2A0DF179C4E9D30F5B239B87E3823
310
7A79C6F31DE1A8A5AEC08474B03C7837EAE4938639B44E5932B833D2C6B6B279CDC613877FA26EE21F4A2A4C63EC7F29A2F301D1F9F7A0E37D145F504B0304140006080800CC70623B9C113CC27E0000009D0000000B0000006662782F636E782E786D6C4DCCDF0A83201C86E15B91DFB94BFB330DD428C8FB886521330DA7
310
6397BF1A1DECE883878F57749FCDA1B7892F1BBC047A23808C7F84D9FA55424E0BE6803A256208E9EF06C84F9B91703228B1C690F78B66B34CD9A5439DF5CF0BFBF65E35BCA1B8D6A5C6F540381E886698B5741C695F9503EBA150A2F8958E3DC3EA0B504B0304140006080800CC70623B7DF2F77C2A010000120200003100
310
00006662782F41393633353835312D344632462D344230382D423046372D3739314545314133324237412F636F72652E786D6C8D51DB8EC22014FC15C2939B0D2DB4B45643319AE817EC0F6041255A68B86CFCFC856D4D76DF7CE190393373060EDB3DC707F856CE6B6B7A480A0C81328395DA5C7B18C3057510EC3873D686
310
3F34088C18550F330C39BB3A1BA7051AAC09CA84841A2BD5020AEF55806078A44B0FFD7053A328440C89E1EFC52486BBB8AA8214A99D789CF9E05200300FC927E4FB4D5B375D43103D5527440FB843077C5AA3F5861C8F645F5787F59E95B390B318B55CE45AA638FAA2957BD7248B390B7A7CC51F9C124149C82B8C378810
310
84AB2F42B7B8DD56F413775B8C5999E9FF4471926F8AA236A1AE96B8B3CC434E5839373893369E1FAF30EA395917409EB7F26AF8801C171837A4A6AC9C89E9F9C9B1A58BA30FD6A5EF5DDDCF894B9AD9B6A59C957943A9FCAE2FD5BC4DFE03504B0304140006080800CC70623BAD7543B64E01000033030000300000006662
310
782F41393633353835312D344632462D344230382D423046372D3739314545314133324237412F636E782E786D6CD593CD6EC32010845F0571AD6CE3D48AD20813A9873E410FBD12D82434182C7EAAE6EDBB2424CD25871E7B41D6EC30B3FA84F9E67BB2E40B4234DE8DB46F1925E094D7C6ED479AD3AE5951B2113C789FEE
310
6C943839C1488B4C05DF079FE72A69D8C96C13AAD6B8631503449F83828872B949AC57D26200B826A308D316B4064D6E46FCDA41C05550DC9E483A00797BFD207EFB092A45DE9514C1BBD22178396BD39D891265658C238DEA00936C654E5E433CB65A26D9F6EDB5EBC14EBF49A45CB856E66048291F6939A9A81BB5C89177
310
38143CA680F4AA299D66A042CEB3354A2684DC9D8D178FE0D9B8B41CAAD720F880EE7EF93C0C18769E099ECC04D5A102C8049A8A05632F4DDF376CF1DE0F6BB65C2F8627B65A33C6BB62177CEBBDAD973006829F89F22E814B54F4BC2BE347F8AA8F681390B50FA73F804400B5F542E796F19FF974E7F78DB802FE05E20750
310
4B0304140006080800CC70623BE75B7789680500003C100000340000006662782F41393633353835312D344632462D344230382D423046372D3739314545314133324237412F6F626A656374732E786D6CAD575B8F9B3818FD2B887D06C22499CB8AA1CA655245D5B455A356FB305264C061D8018C6C3393D95FBFC7600890
310
A4CD5EF210B0B1BFEBF98E3F7B1FF6596ABC522E1296DF9BAE3D320D9A872C4AF2F8DE2CE5CEBA358D0FBEC719939D65A691938CDE9B6ADAF4BD98B3B2D05311DD91329583D9D5FC0F438434A7A611A644887B5384CF34233629258BA878B12322891DEFF6B66BD70BFB62634E8AE781D082709A4B588AF91C528CDA28B73F
310
1C998EEF39EABBEFA97FBD6A7C7E9553F9D3D79FE442923C3C523610337627CB87ABE99D359D4CC6D6E4FACAB5E6ABF9D2726FC6A3C5F56271377BB88362213924694B38DD99FE47C48627A1E7D49F5A8BB5E1A74C0A599ED3B0F21F1E56366B89112D681E218F0915D0D6F17AD41FBA2A369DCF6335D62ABBD39779D5DDD1
310
11D4D8DE3CBB96B2E04FB8202E41051754A1AA8E8F76B4C6DFE810B580B1547F4B84911149794252234D024EF8BBE963A95AE27B3D310A9D5C215C7960FAEE415ED75694C6AFB17BCACA5D99A60A9AA65F217B0BFC53292ACB92BF283FAD0D3621576592CB5BED907C2FA8E9DF794E35E97BEA31BED21FEB401ABB94C44839
310
DCACBF0E1C5DA8DA5B2F4DFFD32AD86F543D9E565E7056502E157C00AD2671CD534549AB752FCA9CDA00677A313F04E51B22FF19E57B300579E3C97EB29F682D92935CEC18CF901B7B54FD8C51F362B56FC72FE0B3C1EAE335EDCCBF5AEC39ADB17DC238973F804BA5E6F6BFE7AF1FB32E523BE9F3BD571418E3631DCA4D48
310
5250CF639223210A9446CA30052EDF057BD35F8329C1ECD84552BF0DC8D18BE7BCE23BFE6BD960AB4A7DE79923A103BEBD80F911CBAA2C60DB19B01CF164A5583B772EE6D3FFA56666CBCDA74DC97724A48F9A58967497E489C4D979006FD7A05E227A1EBDD0F737C623387A9C844D3709995625106D157315F8B8392CD4E0
310
A0B9A720C4BE9829CEF37EA1E13111214D53925356365ADA634861B52519DD27A00AEB808EAF0628E6F435519D446F45CF2C9CF5214F0A15B2F6D06B79DA3EE3CBF7F56780D2F4E7EF73A0F5E5B02A38D07DC852C6B7C1FBB6664213E0C39E3EBA7FF4E1AD23EA2829407C85E586727488B751B2DB9502BC7B228A3FD68B6E
310
A65A22397E690AA8D158D7E404EC8CDA235CC3B7D1898680131CEC2CDF2638C65196279577750F15884AEE19F94199155B92B13297978469D4F8D358DF0AEF7631E28DC8F0D9F437D5D39A83B2231A1D52D543813A824EF8D44BCFF2FA6A31BD1E8DAD87F1CCB526B3879935BF59CDADD5C37479BB1CDD4CA7B3556B516589
310
EF352754B706114D9C885EC9131DE6EFEB43D99AFE2391C2F958179413D7CFEF6B1B6DB1E7600F00DE6E5C67454A339A4BA2E0FBA85ED26F045D454F463DBFCE484C2F90F2E5E3666003662ED8F755951A7D1BECD5B30B550B2785C8E7320B7292A4838DDA71BBC863ED7613CAF659337A3354231D4FF4A182A54904C2898C
310
98B28C4AD0CE056CCF332A80986E571EE9DBC305BB5FEB7E509220A58D25CF042D712A806AC0AD0C657FDEF80D2D9CEAA2EE4D1C76F60BFE74219A06527D6F82DF6412526107381E55E353090704D085B52408A8913C4ED159D79BDA71BB4BC506F4831350EB6F975CD22D69BF7AC49B91A2C0A9DDA3D5CA36AD20FC478E37
310
E61844E2352865EBCB61A275A65283CAAA9DD27703B4102F5AF51EF5F573B75CBB5AD38BC845F7A49F82A0966A49C2E3EA5EA0ECD326CD965F1DB402C6FA8B51A4658C5C5E2EC9E214602E55810345408596591009A82E7E7FFACA19EEA299B14A0081A705CB3296EBC14CDF658DCD336EA6D1136881AAEB87B81AB9EE53D5
310
F5EB8BC8362082DA24122F98680A4E7930C01A0079749CEA14382A0783E5EBA5A10F8C098456A03D6A4AEB6BB881E2513747552A5DB22C7EDAF83BD5528081A365F7FF06504B0304140006080000CC70623B000000000000000000000000350000006662782F41393633353835312D344632462D344230382D423046372D37
310
39314545314133324237412F76657274696365732E62696E504B0304140006080800CC70623BF270F1330600000004000000360000006662782F41393633353835312D344632462D344230382D423046372D3739314545314133324237412F747269616E676C65732E62696E636660600000504B0304140006080000CC7062
310
3B000000000000000000000000370000006662782F41393633353835312D344632462D344230382D423046372D3739314545314133324237412F617474726962757465732E62696E504B0304140006080800CC70623B08DA0BD19000000041010000360000006662782F41393633353835312D344632462D344230382D4230
310
46372D3739314545314133324237412F6469726563746F72792E786D6C858F410AC3201045AF22B36F53E9A60B35CBEEBAE80D244E44489C6234F4F835464A48035D0DF398FF9F8AF63D0E6CC63039F212F8F9020C7D47C6792B21C5FE7403D62A1188E2E60C98D7234A5830286103A55745067B9D86B8A3CF9C7F90C11DE6
310
07FB144396D7B6A82D282E9A152AD114D5EF2CB866EEE831B8EEA07A7BB5A8D7D61A2BAAEB7FD5F70921FF497D00504B0304140006080800CC70623BEDD1DC58FD000000A00100003B0000006662782F41393633353835312D344632462D344230382D423046372D3739314545314133324237412F7265736F75726365732F
310
636F72652E786D6C8D504B6E833010BD0A9A6D65B00922041947112427E8052C33A156828DFCA97AFC9A40A576D7CDCCE87D344F8F9FBFE667F689CE6B6B3A6039850C8DB2A336530731DC4903D95970676DF82583CCC8193B5861107C72362E3BA4AC096842428D1D7107A5F7182053CF7474E0D507CE32973124857FE48B
310
540F3961CEF244279DE03EB81420DB9EAC1384436FA353E879B1B182C7A8C75DA3C7F453DF353A1075D537A7BA6464B8F535A99AE14A9A2BBD90E350DD183B5CFABE3AF262350B1EF4FC9351399401471025A527C218A1E53BAB5A5AB765F5469B96525EACF23FA6B88CFF34456DC2A1DCE36E360F82A5202F42F062ED2BAD
310
579969AFDD8A6F504B010214000A0000080000CC70623B3DEE336E79000000790000001B00000000000000000000000000000000006175746F6465736B2D64657369676E2D7061636B6167652E786D6C504B01021400140006080800CC70623BD486FD9CA0000000F40000001300000000000000000000000000B20000005B
310
436F6E74656E745F54797065735D2E786D6C504B01021400140006080800CC70623B853B8169EB0000007C010000080000000000000000000000000083010000636F72652E786D6C504B01021400140006080800CC70623B55019EA25F0000007C000000070000000000000000000000000094020000636E782E786D6C504B
310
01021400140006080800CC70623BDBABAAF470010000D40300000C00000000000000000000000000180300006662782F636F72652E786D6C504B01021400140006080800CC70623B9C113CC27E0000009D0000000B00000000000000000000000000B20400006662782F636E782E786D6C504B01021400140006080800CC70
310
623B7DF2F77C2A010000120200003100000000000000000000000000590500006662782F41393633353835312D344632462D344230382D423046372D3739314545314133324237412F636F72652E786D6C504B01021400140006080800CC70623BAD7543B64E010000330300003000000000000000000000000000D2060000
310
6662782F41393633353835312D344632462D344230382D423046372D3739314545314133324237412F636E782E786D6C504B01021400140006080800CC70623BE75B7789680500003C10000034000000000000000000000000006E0800006662782F41393633353835312D344632462D344230382D423046372D3739314545
310
314133324237412F6F626A656374732E786D6C504B01021400140006080000CC70623B0000000000000000000000003500000000000000000000000000280E00006662782F41393633353835312D344632462D344230382D423046372D3739314545314133324237412F76657274696365732E62696E504B01021400140006
310
080800CC70623BF270F133060000000400000036000000000000000000000000007B0E00006662782F41393633353835312D344632462D344230382D423046372D3739314545314133324237412F747269616E676C65732E62696E504B01021400140006080000CC70623B0000000000000000000000003700000000000000
310
000000000000D50E00006662782F41393633353835312D344632462D344230382D423046372D3739314545314133324237412F617474726962757465732E62696E504B01021400140006080800CC70623B08DA0BD1900000004101000036000000000000000000000000002A0F00006662782F41393633353835312D344632
310
462D344230382D423046372D3739314545314133324237412F6469726563746F72792E786D6C504B01021400140006080800CC70623BEDD1DC58FD000000A00100003B000000000000000000000000000E1000006662782F41393633353835312D344632462D344230382D423046372D3739314545314133324237412F7265
310
736F75726365732F636F72652E786D6C504B0506000000000E000E0080040000641100000000
  0
XRECORD
  5
588
102
{ACAD_REACTORS
330
1F7
102
}
330
1F7
100
AcDbXrecord
102
MATERIAL
148
0.0
149
0.0
149
0.0
 93
        0
 94
       63
282
     0
 72
     1
 77
     1
171
     1
175
     1
179
     1
273
     0
  0
XRECORD
  5
1F8
102
{ACAD_REACTORS
330
1F7
102
}
330
1F7
100
AcDbXrecord
 70
     1
 90
429727718
  1
30362254-06B7-45E0-A893-8CFA70E3D6BC
310
504B03040A0000080000CC70623B3DEE336E79000000790000001B0000006175746F6465736B2D64657369676E2D7061636B6167652E786D6C3C3F786D6C2076657273696F6E3D22312E302220656E636F64696E673D227574662D3822203F3E3C666F726D6174733E3C666F726D61743E687474703A2F2F736368656D612E
310
6175746F6465736B2E636F6D2F64657369676E2D7061636B6167652F323030393C2F666F726D61743E3C2F666F726D6174733E504B0304140006080800CC70623BD486FD9CA0000000F4000000130000005B436F6E74656E745F54797065735D2E786D6C7D8EC10E82300C865F65E91D8A1E8C310C0EEA1BF002731658846E
310
D98AC1B77784ABF1D8FE5FBFBF75BBCE937A534CCEB38643598122B6FEE978D0B0485F9C41B54DDD7D022595594E1A469170414C76A4D9A4D207E29CF43ECE46F218070CC6BECC4078ACAA135ACF422C856C0E68EA1BF5669944DDD7BCDE7B1F8E415D77AECB980613C2E4AC91FC167A2B244592486606FC29C8FD7F045B9A
310
EF7053A7E60B504B0304140006080800CC70623B1EC5D7A3EB0000007C01000008000000636F72652E786D6C8D90416EC3201045AF82665B6103C6756C6122AB4D4ED00B204C5C94182C03558F5F9C3852BBEB6A467FFE9B197D71FC9E6FE8CBACC17AD7032D0820E3B41FAD9B7A48F1820F808E52ACDEC75F36404ECDA687
310
4D0629A6D5A76597B477D1B89855E747B38B2A041301E95B6E7A08FAD3CCAA50296647B8168BD2573599823EBB0CA76447F43862C7BCCF5EAC59410E4DDD9C7973C2755553CCCFA4C603E3040F1565ED3B1FDE4E432BCA0D9622DAF9795FAF464533826484B498524CD807E51D79ED187F21878E10516EF63F505AC67F42C9
310
BA58B1FDDD071640D2FCC87D2045B96591CB3DA85CB7DCE40F504B0304140006080800CC70623B55019EA25F0000007C00000007000000636E782E786D6C4DCB3B0E80201045D1AD90E915ED2CF8AC45050C11660C8261F98AB1B07AC9C97D42D718D865D3E909258CFD00CCE24AC6E326A164D74DC0B4128928FF32603847
310
2BA13128B1252AC747C6BAB984FC68F0B87FE8960A5C09FE86CFB69FBA01504B0304140006080800CC70623B8C9102E971010000D40300000C0000006662782F636F72652E786D6CC5535B6E833010BC8AE5DF0A6C08340F1947A84D4ED00B38C6A128602363A31CBFCB234A53A551FA553EC09AD9F5CE8C31DB9E9B1AF5CA
310
7695D1198E428A91D2D214952E33ECDD315861B4E5CC1AE3BE9561A445A3323CC098B3D21ADFCE9034DA29ED00D5A6503328BA4E398C640D8B0C77F253352214DE4145770A5B214FA2546114020D759C75CE8200340D19DE981F0F6746269C33EFAB6266AB02A655C74A59CCF365BADC27CB5D902ED22848F6340DF238A141
310
BE88E2F57B92BFEDF23523433367AE6A2EEAA455C2A902F398D2751045018D3FA264435F3771F242571B4A1919CA6F9A7C5B3CD9E42BED16F12C776AEB308F40C848FC700B1139D4891EF410CEC810227CC6846F8386402064270EF5C5C709A05E49676C024C61FC95EA45ED154CA5211D1FF4FB8291A913A68E9B83EBBB33
310
E2A7673CDE118E5AE8124C0807CB8377834E366998436B950D7A7746DAD846D4CFD978E0F04FD455FC5D49D2D4C6FE9722321F10997F0F32DC47FE05504B0304140006080800CC70623BFFEA85907E0000009D0000000B0000006662782F636E782E786D6C4DCCD10A83201886E15B91FFDC95D95A811AB6F23E625948A6C3
310
E9D8E5AF46073BFAE0E1E365ED67B3E8ADC3CB78C7815C7240DA3DFC64DCC221C519D7805AC182F7F1EF06C88D9BE6703008B6049F9E274D7A1E938DBB5AE3D6131B2589BA0D3D965551E0B2EA732C9B9A624AAEB41E3A557677029960D9AFB4EF11165F504B0304140006080800CC70623B4FEEA4082C0100001202000031
310
0000006662782F39464131463745442D413632322D343644302D413938332D3331353338454246344243312F636F72652E786D6C8D515B6EC32010BC0AE2AB55850DD871ED0813254D72825EC00192A2C460F1A872FC42ED48ED5F7E00CDCECCCEB26C731F6FE05B39AFADE921293004CA082BB5B9F43086336A21D870E6AC
310
0D7F68109861543DCC30E4ECE26C9C164858139409093556AA051CBC570102714B8F1E7AF1A5C6A11862480C7F2DA6415C878B2A4891CA89C7990F2E050073937C42DE1DB7E4F87ED8A36D4329AA9B3D46DBAEAD504556557BD81DEBDD0761E52CE42C462D17B996298E3E6BE59E35C962CE821E1FF18553435012728A7187
310
0841987E927A8D9B35ADDF70BBC6989599FE4F1427F9A4286A132ABAC49D651EF234CD5CE04CDA78BA3DC2A8FB645D00B9DF8B57E215725C60BCA2A463E54C4CE327C7A65E1C7DB02E7DEFCBF594B864C5CA6CDBD49C957943E9FA5D5FBAF336F90F504B0304140006080800CC70623BAD7543B64E01000033030000300000
310
006662782F39464131463745442D413632322D343644302D413938332D3331353338454246344243312F636E782E786D6CD593CD6EC32010845F0571AD6CE3D48AD20813A9873E410FBD12D82434182C7EAAE6EDBB2424CD25871E7B41D6EC30B3FA84F9E67BB2E40B4234DE8DB46F1925E094D7C6ED479AD3AE5951B2113C
310
789FEE6C943839C1488B4C05DF079FE72A69D8C96C13AAD6B8631503449F83828872B949AC57D26200B826A308D316B4064D6E46FCDA41C05550DC9E483A00797BFD207EFB092A45DE9514C1BBD22178396BD39D891265658C238DEA00936C654E5E433CB65A26D9F6EDB5EBC14EBF49A45CB856E66048291F6939A9A81BB5
310
C8917738143CA680F4AA299D66A042CEB3354A2684DC9D8D178FE0D9B8B41CAAD720F880EE7EF93C0C18769E099ECC04D5A102C8049A8A05632F4DDF376CF1DE0F6BB65C2F8627B65A33C6BB62177CEBBDAD973006829F89F22E814B54F4BC2BE347F8AA8F681390B50FA73F804400B5F542E796F19FF974E7F78DB802FE05
310
E207504B0304140006080800CC70623B16AB87BA640500003C100000340000006662782F39464131463745442D413632322D343644302D413938332D3331353338454246344243312F6F626A656374732E786D6CAD575B6FA33818FD2B887DE6924B3BED8A326A92B68A663B534DD4D13E548A0C38942D60649B369D5FBFC7
310
600890A493BDE42160637FD7F31D7FF63E6FB3D478A55C242CBF3247B66B1A340F5994E4F19559CA8D75611A9F7D8F33263BCB4C232719BD32D5B4E97B316765A1A722BA21652A07B3B7B33F0D11D29C9A46981221AE4C113ED38CD8A4942CA2E2C58E882476BCD9DA23BB5ED8171B73523C0F841684D35CC252CCE79062D4
310
468DFA43D7747CCF51DF7D4FFDEB5593E3AB9CCA9FBEFE241792E4E19EB28198C968BAB8199F5D5A67D3E9C49A9E8F47D6EC76B6B0469F26EEFC7C3EBFBCBEB98462213924694B38DD98FE1D62C393D073EA4FADC5DAF04326852CCF6958F90F0F2B9BB5C48816348F90C7840A68EB78EDF68723159BCEE7891A6B95DDE9D3
310
BCEAEEE8086A6C6F9E5D4B59F0175C10A7A0820BAA5055C7473B5AE3CFDD452D602CD5DF12616444529E90D448938013FE6EFA58AA96F85E4F8C42275708571E98FE6827AF6B2B4AE3D7D83D64E5A64C53054DD3AF90BD06FEA9149565C94FCA0F6B834DC85599E4F2423B24DF0B6AFA979E534DFA9E7A4CC6FA631D486393
310
921829879BF5D781A373557BCB85E97FB90DB62B558F8795179C15944B051F40AB495CF35451D26A4727654E6D8033BD98EF82F21D91FF8AF2DD9982BCF1643BDD4EB516C9492E368C67C88DED563FC36D5EACF66DFF057C3658BDBFA69DF9578B3DA735B64F18C7F20770A9D45CFCF7FCF563D6456A277DBEF78A02637CA2
310
43B90A490AEAB94F72244481D24819A6C0E59B606BFA4B3025981DBB48EAB701D97BF19C577CC77F2D1B6C55A9EF3C732474C0B727303F625995056C3B02963D9EAC146BE78EC5FCEC7FA999EBC5EACBAAE41B12D27B4D2C0BBA49F244E2ECDC81B76B502F113D8F5EE8FB1BE3111CDD4FC2AA9B844CAB1288B68AB90A7CDC
310
1C166AB0D3DC5310625FCC14E779BFD0709F8890A629C9292B1B2DED31A4B0DA928CEE135085754027E3018A397D4D5427D15BD1330B677DC8934285AC3DF45A9EB68FF8F2B8FC0A509AFEECFD0FF2DE25CC6047F7214B195F07EFEB9A094D800F7BFAE8FED187B78EA8A3A400F115961BCAD1215E47C966530AF0EE8128FE
310
58CEBB996A8964FFA529A046635D9353B0336A8F700DDF46271A024E70B0B37C9DE01847591E54DED53D54202AB947E4076556AC49C6CA5C9E1226B7F1A7B1BE15DEED62C41B91E1B3E9AFAAA735036547343A925075041DF0A9979E893B391F8FCFA6967B3EFB644DCF6E5CEBFAE272625DCC6FAF3FB93793C5F90CE1EF57
310
407342756B10D1C489E8953CD1617E5CEECAD6F4EF8914CE5D5D504E5C3F1F9736DA62CFC11E00BCDDB8CC8A9466349744C1F75EBDA4DF09BA8A9E8C7A7E9991989E20E5DBDD6A6003664ED8F7A04A8DBE0DF6EAD9B9AA858342E47399053949D2C146EDB85DE4B176BB0965FBAC19BD19AA918E27FA50C1D22402E144464C
310
59462568E704B6E71915404CB72B8FF4EDE184DDAF753F284990D2C6926782963815403548A70C657FDEF80D2D9CEAA2AE4C1C76F60BFE74219A06527D6582DF6412526107381E55E353090704D085B52408D0933C4ED159D79BDA71BB4BC506F4831350EB6F979CD22D69BF7AC49B91A2C0A9DDA3D5CA36AD20FC478E37E6
310
1844E2352865EBCB6EA275A652E3836BE04EFB400BF1A2556F515F1FBB35B2AB35BD889C744FFA1004B5544B121E57F70215746DD2F5E2C1412B602CBF19455AC6C8E5E9922C4E01E65215385004546899059180EAFCF7A707CE7017CD8CDB0410789AB32C63B91E5CEBBBACB17AC6CD347A022D5075FD106377347AAABA7E
310
7D11590744509B44E205134DC1290F06580320F78E537D3D73540E06CB970B431F185308AD40BBD794D6D77003C5A36E8EAA54BA64597CD8F83BD552A080A365F7FF06504B0304140006080000CC70623B000000000000000000000000350000006662782F39464131463745442D413632322D343644302D413938332D3331
310
353338454246344243312F76657274696365732E62696E504B0304140006080800CC70623BF270F1330600000004000000360000006662782F39464131463745442D413632322D343644302D413938332D3331353338454246344243312F747269616E676C65732E62696E636660600000504B0304140006080000CC70623B
310
000000000000000000000000370000006662782F39464131463745442D413632322D343644302D413938332D3331353338454246344243312F617474726962757465732E62696E504B0304140006080800CC70623B08DA0BD19000000041010000360000006662782F39464131463745442D413632322D343644302D413938
310
332D3331353338454246344243312F6469726563746F72792E786D6C858F410AC3201045AF22B36F53E9A60B35CBEEBAE80D244E44489C6234F4F835464A48035D0DF398FF9F8AF63D0E6CC63039F212F8F9020C7D47C6792B21C5FE7403D62A1188E2E60C98D7234A5830286103A55745067B9D86B8A3CF9C7F90C11DE607
310
FB144396D7B6A82D282E9A152AD114D5EF2CB866EEE831B8EEA07A7BB5A8D7D61A2BAAEB7FD5F70921FF497D00504B0304140006080800CC70623B0D6EF93BFE000000A00100003B0000006662782F39464131463745442D413632322D343644302D413938332D3331353338454246344243312F7265736F75726365732F63
310
6F72652E786D6C8D50596E833010BD0A9ADFCA60B334011947A8694ED00B586642AC041B79A97AFC9A40A5F6AF3F33A3B7689E1E3F7DCD8FEC139DD7D6F4C0720A191A65476DA61E62B892236427C19DB5E1970C322367EC618541F0C9D9B8EC90B226A009093576C41D94DE63804C3DD2D18357379C652E63480A7FCF17A9
310
EE72C29CE5894E3AC17D702940B63D59270887DE46A7D0F36263058F518FBB468FE9A7BE6A7420864373B8D4873369AA8691FA421B3294352543C5CAF65C0F6FEF43CB8BD52C78D0F34F46E550061C419494B6843142CB0F5677F4B52BEB177AEC28E5C52AFF638ACBF84F53D42654E51E77B379102C05791282176B5F693D
310
CB4C7BED567C03504B010214000A0000080000CC70623B3DEE336E79000000790000001B00000000000000000000000000000000006175746F6465736B2D64657369676E2D7061636B6167652E786D6C504B01021400140006080800CC70623BD486FD9CA0000000F40000001300000000000000000000000000B20000005B
310
436F6E74656E745F54797065735D2E786D6C504B01021400140006080800CC70623B1EC5D7A3EB0000007C010000080000000000000000000000000083010000636F72652E786D6C504B01021400140006080800CC70623B55019EA25F0000007C000000070000000000000000000000000094020000636E782E786D6C504B
310
01021400140006080800CC70623B8C9102E971010000D40300000C00000000000000000000000000180300006662782F636F72652E786D6C504B01021400140006080800CC70623BFFEA85907E0000009D0000000B00000000000000000000000000B30400006662782F636E782E786D6C504B01021400140006080800CC70
310
623B4FEEA4082C0100001202000031000000000000000000000000005A0500006662782F39464131463745442D413632322D343644302D413938332D3331353338454246344243312F636F72652E786D6C504B01021400140006080800CC70623BAD7543B64E010000330300003000000000000000000000000000D5060000
310
6662782F39464131463745442D413632322D343644302D413938332D3331353338454246344243312F636E782E786D6C504B01021400140006080800CC70623B16AB87BA640500003C1000003400000000000000000000000000710800006662782F39464131463745442D413632322D343644302D413938332D3331353338
310
454246344243312F6F626A656374732E786D6C504B01021400140006080000CC70623B0000000000000000000000003500000000000000000000000000270E00006662782F39464131463745442D413632322D343644302D413938332D3331353338454246344243312F76657274696365732E62696E504B01021400140006
310
080800CC70623BF270F133060000000400000036000000000000000000000000007A0E00006662782F39464131463745442D413632322D343644302D413938332D3331353338454246344243312F747269616E676C65732E62696E504B01021400140006080000CC70623B0000000000000000000000003700000000000000
310
000000000000D40E00006662782F39464131463745442D413632322D343644302D413938332D3331353338454246344243312F617474726962757465732E62696E504B01021400140006080800CC70623B08DA0BD190000000410100003600000000000000000000000000290F00006662782F39464131463745442D413632
310
322D343644302D413938332D3331353338454246344243312F6469726563746F72792E786D6C504B01021400140006080800CC70623B0D6EF93BFE000000A00100003B000000000000000000000000000D1000006662782F39464131463745442D413632322D343644302D413938332D3331353338454246344243312F7265
310
736F75726365732F636F72652E786D6C504B0506000000000E000E0080040000641100000000
  0
XRECORD
  5
589
102
{ACAD_REACTORS
330
173
102
}
330
173
100
AcDbXrecord
102
MATERIAL
148
0.0
149
0.0
149
0.0
 93
        0
 94
       63
282
     0
 72
     1
 77
     1
171
     1
175
     1
179
     1
273
     0
  0
XRECORD
  5
1FB
102
{ACAD_REACTORS
330
173
102
}
330
173
100
AcDbXrecord
 70
     0
 90
1673772943
  1
ECE7A1D2-D628-4531-984C-D00F80459256
310
504B03040A0000080000CC70623B3DEE336E79000000790000001B0000006175746F6465736B2D64657369676E2D7061636B6167652E786D6C3C3F786D6C2076657273696F6E3D22312E302220656E636F64696E673D227574662D3822203F3E3C666F726D6174733E3C666F726D61743E687474703A2F2F736368656D612E
310
6175746F6465736B2E636F6D2F64657369676E2D7061636B6167652F323030393C2F666F726D61743E3C2F666F726D6174733E504B0304140006080800CC70623BD486FD9CA0000000F4000000130000005B436F6E74656E745F54797065735D2E786D6C7D8EC10E82300C865F65E91D8A1E8C310C0EEA1BF002731658846E
310
D98AC1B77784ABF1D8FE5FBFBF75BBCE937A534CCEB38643598122B6FEE978D0B0485F9C41B54DDD7D022595594E1A469170414C76A4D9A4D207E29CF43ECE46F218070CC6BECC4078ACAA135ACF422C856C0E68EA1BF5669944DDD7BCDE7B1F8E415D77AECB980613C2E4AC91FC167A2B244592486606FC29C8FD7F045B9A
310
EF7053A7E60B504B0304140006080800CC70623BD9DDAED0EC0000007C01000008000000636F72652E786D6C8D90416EC3201045AF82665B61836D9CD8C2444DD39CA01740405C94182C03558F5F9C3852BBEB6A467FFE9B197D7EF89E6EE8CB2CC17A37002D0820E394D7D68D03A478C17B4007C117EFE32F1B20272733C0
310
2A83E0E3E2D3BC49CABB685CCCAAF3DA6CA20CC14440EA969B0182FA34932C648AD911AEC52CD5558EA6A0CF2EC329598D1E47ACCEFBECC59A050463A7EA5833865FEBDD0E37353BE3EE8DBDE3F6786A48D375FBF6CC78B9C282473B3DEFABC5C86834888A900E538A49F5419B9EB47DD5BC907D4F082F57FB1F28CDFA9F50
310
B22ED6D5F6EE030B20687EE43E10BC5CB3C8E51E54AE6B6EE207504B0304140006080800CC70623B55019EA25F0000007C00000007000000636E782E786D6C4DCB3B0E80201045D1AD90E915ED2CF8AC45050C11660C8261F98AB1B07AC9C97D42D718D865D3E909258CFD00CCE24AC6E326A164D74DC0B4128928FF326038
310
472BA13128B1252AC747C6BAB984FC68F0B87FE8960A5C09FE86CFB69FBA01504B0304140006080800CC70623BA24EB22D72010000D40300000C0000006662782F636F72652E786D6CC5535B6E833010BC8AE5DF0A6C5E49888CA3A6694ED00B38E05014B091B1518EDFE511A5A9D228FD2A1F60CDEC7A67C6986DCE4D8D7A
310
69BA4AAB0C073EC548AA5C17952A33ECECD15B61B4E1CC686DBF9561A44423333CC098B3D268D7CE50AE9595CA02AA74216750749DB418E5352C32DCE59FB211BE70162ABA93DF8AFC244AE9073ED050C759670D0840D390E18DF9F1706664C23973AE2A66B62A605A75ACA4C13C4976E1364A12EF355A2EBD384AF65EFA96
310
BC7B8BED2EA6719AAE16FB8491A199335B351775B991C2CA02F390D2D40B028F861F41BCA68B7518BFD0D59A524686F29B26D7164F36B94AD9289CE54E6D1DE6010819891F6E21228B3AD1831EC219194284CF98F06DD01008846CC5A1BEF83801D4CBDC6A1303536877A57A513B0953A94FC707FDBE6064EA84A9E3E6E0FA
310
EE8CF0E9198F7784A316AA0413C2C2F2E0ECA0934D1AE6D05A69BCDE9E91D2A611F573361E38FC1375157F5752AE6B6DFE4B11990F88CCBF0719EE23FF02504B0304140006080800CC70623B408A7D3B7C0000009D0000000B0000006662782F636E782E786D6C4DCCD10A83201886E15B91FFDC552A92A0064DBC8F581632
310
D3703A76F9ABD1C18E3E78F878E5F0D9027ABBFCF2292AE86E2D20171F69F6715550CB827B40839639A5F2770314A7CD293819B45C73AAFB45B35BA61ACAA1C1C7E7855C58C15BC331339661262CC762340413D68D77DA5B42298546CBE6573AF60CEB2F504B0304140006080800CC70623B449FB9BD290100001202000031
310
0000006662782F36394639363044362D344446342D343946362D394244322D3234314243333846323333332F636F72652E786D6C8D515B6EC32010BC0AE22B55850D98B871848994463E412FE002495162B07854397EA176A4F62F3F2C9A9D991D587EB84F37F0AD7D30CEF6905418026DA553C65E7A98E219ED203808EE9D
310
8B7F6810D871D23D2C3014FCE25D9A57483A1BB58D19B54EE9151C43D0110279CB971E06F9A5A7B11A53CC8C70ADE6515EC78BAE4895DB992778883E0700CB907242D17643D7E2538BD869608875438BBAE38922CAC8F1BDD90DB4691A5E2F42C153326A951B95E398B3D1FE599322163C9AE9115F7A3D46ADA0A018778810
310
84E907617BDCEE297BC5BB3DC6BC2EF47FA234AB2745C9D8D8D035EE220B50105E2F0DC1954B9FB747187D9F9D8FA0CCDB042D5FA0C015C65B42DF78BD10F3F3B363CB56C7109DCFDFBBB97E662ED92EB62D13BC2E1BCAE5777DB9966D8A1F504B0304140006080800CC70623BAD7543B64E01000033030000300000006662
310
782F36394639363044362D344446342D343946362D394244322D3234314243333846323333332F636E782E786D6CD593CD6EC32010845F0571AD6CE3D48AD20813A9873E410FBD12D82434182C7EAAE6EDBB2424CD25871E7B41D6EC30B3FA84F9E67BB2E40B4234DE8DB46F1925E094D7C6ED479AD3AE5951B2113C789FEE
310
6C943839C1488B4C05DF079FE72A69D8C96C13AAD6B8631503449F83828872B949AC57D26200B826A308D316B4064D6E46FCDA41C05550DC9E483A00797BFD207EFB092A45DE9514C1BBD22178396BD39D891265658C238DEA00936C654E5E433CB65A26D9F6EDB5EBC14EBF49A45CB856E66048291F6939A9A81BB5C89177
310
38143CA680F4AA299D66A042CEB3354A2684DC9D8D178FE0D9B8B41CAAD720F880EE7EF93C0C18769E099ECC04D5A102C8049A8A05632F4DDF376CF1DE0F6BB65C2F8627B65A33C6BB62177CEBBDAD973006829F89F22E814B54F4BC2BE347F8AA8F681390B50FA73F804400B5F542E796F19FF974E7F78DB802FE05E20750
310
4B0304140006080800CC70623B8D05915C650500003B100000340000006662782F36394639363044362D344446342D343946362D394244322D3234314243333846323333332F6F626A656374732E786D6CAD575B6FA33814FE2B887D06429276DA1565D4266D158D3A339A6846FB502932E050B66023DB74D2FDF5FB190C01
310
9276B2973C046C8ECFF53B17071F77456EBD502133CEAE6CDF9DD81665314F32965ED995DA3A17B6F5310C04E7AA47665B8C14F4CAD6DB7618A48257A5D94AE89654B91AEDDEDDFC61C998326A5B714EA4BCB265FC440BE2924AF184CA6737218AB8E976E7FA6E4338649B0A523E8D98964450A6A029F619B8588D52FE7039
310
B1BD30F0F4F730D0FF866AF6369557DB33949F31A9088B0F848DD8CCFCF9F2767A76E99CCDE733677E3EF59D9BBB9BA5E37F984D16E78BC5E5F5ED25044B25C0C96822E8D60EEFE11B91C581D77CEA34368A1F5329E68CD1B8B61F16D63A1B8E092D294B10C78C4A48EB593D192E7DED9BDEE7995E1B91FDEDD3ACEA9FE831
310
6A756F9F7D4D79F4274C90A7A04248AA51D5F8C718DAE06FB2F75AC4796EBE65D22A88A22223B995679120E2D50E41AA49C260C046A35368846B0BECD0DFF3EBEB8AD4F835768F69B9ADF25C43D30E6B646F807FAA64AD59F61715C7A54127C4AACA98BA3006A9D792DAE165E0D59B61A01FB3A9F9D838D2DAE62445C86166
310
F37564E842E7DE6A69879FEEA2DD5AE7E371E1A5E025154AC307D06A03D73EB5978C58FFA4C8E9033066E0F3BD53BEC1F39F91BE7B55103791EDE6BBB991A2046172CB4581D8B893FA674DDA17A77B3B7C413D1B511FD2743BFF8A38F03A658705E3ADF8015C3A3417FF3D7E439FF591DA0B5F18BC20C1B8981957AE6392A3
310
F43C640C01D1A0B4728E2DD4F26DB4B3C3152A252A3B4E913CEC1C72F012782FF88EFF8637AA552DBEF76408E8A8DE9E50F9E1CB3A2DA0DB1B6039A893B56063DC5B3E3FFB5F72E67AB9FEB4AEC496C4F4C1149625DD662C53E89D7BF0F6151A046260D1337DFDC94502430F83B0EE07A130A224BCAD7DAE1D9FB6CD422FF6
310
920702629C4BB9AE79C12F243C6432A6794E18E5552BA56B431AAB5D91317302B2B071E86C3A42B1A02F999E24061403B5D0EB639195DA655DD3EBEAB4FB862DDF579F014AD0E73C22F99E28DA57FB98E75C6CA2D74D53086D600F4786E0FE3144B771A8A7B900F03594DB8A633CBC49B2EDB69228BB479CF863B5E807AAAB
310
23872F6DFEB4129B949CA33823F58830E86D65621E10047D9DB34D862E8EAC3C2ABC2F7B2C40D67CDFE01F5545B92105AF983AC54D93D69E56FB8E797F88913F898A9FEC705D3F9D1B54EC8426FB500D40A03BD0119B06E1B95DDC7EB8F6975367793EBD70E66733DFB9BC982F9CE564727731999F5D4ECFCE3B8D6A4DC2A0
310
6D50FD148437D110834A64C6CDDF57FBACB5C307A2A477DFE4939736CFEF2B175371E0E10CF0DD1D5C15654E0BCA14D1E87DD02FF93782A162C0A3D95F1524A52770F972BF1EE9809D13CE7DD599467F8ECE9ADD85CE85A34CD45355448C64F9E8A031DC2D596ACC6E5DD93D9B82DE2EF5CAF81363A8E47996A0DE24564A79
310
4115AACE09C55E14540231FDA13C319787134EBF34E3A022514E5B4D9E0826E25C02D5805B15ABE1BEF51B26383D445DD9E875EE33FE4C22DA16427D65A3BCA92CA6D28DD01DF5DC53330704308475351050232CCD31583787BA75774AFB06E5070DD0C8EF484E19968C5D83BA5B90B244D31E54D55A372320FE4786B7EA58
310
44E135AA5467CB7EA333A61683CC6A8C3257034C10CF46F40EF9F5BE59BE5BD30C3C72D235E95D10345C1D45445A5F0BB47E46A5EBE5570F9380B5FA629579952296A773720405982B9DE04011506178964401AA8BDF1FBF0A8EAB6861DD6580C0E38217056766716DAEB2D6FA0917D3E4116581EADB879C4E7CFFB11EFACD
310
3D641311495D92C8676CB409A72D18610D803CE8A626049E8EC1887CB5B44CC39883690DDA8399B4B9855B481E7D71D4A9D22F96E5BB73BF5793020C02137BF837504B0304140006080000CC70623B000000000000000000000000350000006662782F36394639363044362D344446342D343946362D394244322D32343142
310
43333846323333332F76657274696365732E62696E504B0304140006080800CC70623BF270F1330600000004000000360000006662782F36394639363044362D344446342D343946362D394244322D3234314243333846323333332F747269616E676C65732E62696E636660600000504B0304140006080000CC70623B0000
310
00000000000000000000370000006662782F36394639363044362D344446342D343946362D394244322D3234314243333846323333332F617474726962757465732E62696E504B0304140006080800CC70623B08DA0BD19000000041010000360000006662782F36394639363044362D344446342D343946362D394244322D
310
3234314243333846323333332F6469726563746F72792E786D6C858F410AC3201045AF22B36F53E9A60B35CBEEBAE80D244E44489C6234F4F835464A48035D0DF398FF9F8AF63D0E6CC63039F212F8F9020C7D47C6792B21C5FE7403D62A1188E2E60C98D7234A5830286103A55745067B9D86B8A3CF9C7F90C11DE607FB14
310
4396D7B6A82D282E9A152AD114D5EF2CB866EEE831B8EEA07A7BB5A8D7D61A2BAAEB7FD5F70921FF497D00504B0304140006080800CC70623BCA768048FE000000A00100003B0000006662782F36394639363044362D344446342D343946362D394244322D3234314243333846323333332F7265736F75726365732F636F72
310
652E786D6C8D50596E833010BD0A9ADFCA60D600328E9AA639412F609909B1126CE4A5EAF16B0295DABFFECC8CDEA2797AECF8353F924FB44E193D409E5248504B332A3D0D10FC95B4901C39B3C6F85F3248B49871801506CE266BC2B243D2688FDA47549B11775038871E12F988C7004EDE7016A9083E2ADC3D5D84BC8B09
310
D33C8D74D471E6BC8D0192EDC93A815B742658898E651BCB59086ADC356A8C3FD555A1055ED7E7E254D615792D0F075295F585746FF53B694EE78A565DD736979A65AB9933AFE69F8CD2A2F038022F28ED489E135A7CE4554F9BBEA85E68DB53CAB255FEC71496F19FA6A0B42F8B3DEE6673C0F318E4497096AD7DC5F52C33
310
EEB55BFE0D504B010214000A0000080000CC70623B3DEE336E79000000790000001B00000000000000000000000000000000006175746F6465736B2D64657369676E2D7061636B6167652E786D6C504B01021400140006080800CC70623BD486FD9CA0000000F40000001300000000000000000000000000B20000005B436F
310
6E74656E745F54797065735D2E786D6C504B01021400140006080800CC70623BD9DDAED0EC0000007C010000080000000000000000000000000083010000636F72652E786D6C504B01021400140006080800CC70623B55019EA25F0000007C000000070000000000000000000000000095020000636E782E786D6C504B0102
310
1400140006080800CC70623BA24EB22D72010000D40300000C00000000000000000000000000190300006662782F636F72652E786D6C504B01021400140006080800CC70623B408A7D3B7C0000009D0000000B00000000000000000000000000B50400006662782F636E782E786D6C504B01021400140006080800CC70623B
310
449FB9BD290100001202000031000000000000000000000000005A0500006662782F36394639363044362D344446342D343946362D394244322D3234314243333846323333332F636F72652E786D6C504B01021400140006080800CC70623BAD7543B64E010000330300003000000000000000000000000000D20600006662
310
782F36394639363044362D344446342D343946362D394244322D3234314243333846323333332F636E782E786D6C504B01021400140006080800CC70623B8D05915C650500003B10000034000000000000000000000000006E0800006662782F36394639363044362D344446342D343946362D394244322D32343142433338
310
46323333332F6F626A656374732E786D6C504B01021400140006080000CC70623B0000000000000000000000003500000000000000000000000000250E00006662782F36394639363044362D344446342D343946362D394244322D3234314243333846323333332F76657274696365732E62696E504B010214001400060808
310
00CC70623BF270F13306000000040000003600000000000000000000000000780E00006662782F36394639363044362D344446342D343946362D394244322D3234314243333846323333332F747269616E676C65732E62696E504B01021400140006080000CC70623B00000000000000000000000037000000000000000000
310
00000000D20E00006662782F36394639363044362D344446342D343946362D394244322D3234314243333846323333332F617474726962757465732E62696E504B01021400140006080800CC70623B08DA0BD190000000410100003600000000000000000000000000270F00006662782F36394639363044362D344446342D
310
343946362D394244322D3234314243333846323333332F6469726563746F72792E786D6C504B01021400140006080800CC70623BCA768048FE000000A00100003B000000000000000000000000000B1000006662782F36394639363044362D344446342D343946362D394244322D3234314243333846323333332F7265736F
310
75726365732F636F72652E786D6C504B0506000000000E000E0080040000621100000000
  0
ENDSEC
  0
EOF
