  0
SECTION
  2
HEADER
  9
$ACADVER
  1
AC1014
  9
$ACADMAINTVER
 70
     9
  9
$DWGCODEPAGE
  3
ANSI_1252
  9
$INSBASE
 10
0.0
 20
0.0
 30
0.0
  9
$EXTMIN
 10
2916.743639199983
 20
1436.791379961061
 30
0.0
  9
$EXTMAX
 10
2948.199969907807
 20
1463.768325218862
 30
0.0
  9
$LIMMIN
 10
0.0
 20
0.0
  9
$LIMMAX
 10
420.0
 20
297.0
  9
$ORTHOMODE
 70
     0
  9
$REGENMODE
 70
     1
  9
$FILLMODE
 70
     1
  9
$QTEXTMODE
 70
     0
  9
$MIRRTEXT
 70
     0
  9
$DRAGMODE
 70
     2
  9
$LTSCALE
 40
1.0
  9
$OSMODE
 70
    37
  9
$ATTMODE
 70
     1
  9
$TEXTSIZE
 40
2.5
  9
$TRACEWID
 40
1.0
  9
$TEXTSTYLE
  7
STANDARD
  9
$CLAYER
  8
0
  9
$CELTYPE
  6
BYLAYER
  9
$CECOLOR
 62
   256
  9
$CELTSCALE
 40
1.0
  9
$DELOBJ
 70
     1
  9
$DISPSILH
 70
     0
  9
$DIMSCALE
 40
1.0
  9
$DIMASZ
 40
2.5
  9
$DIMEXO
 40
0.625
  9
$DIMDLI
 40
3.75
  9
$DIMRND
 40
0.0
  9
$DIMDLE
 40
0.0
  9
$DIMEXE
 40
1.25
  9
$DIMTP
 40
0.0
  9
$DIMTM
 40
0.0
  9
$DIMTXT
 40
2.5
  9
$DIMCEN
 40
2.5
  9
$DIMTSZ
 40
0.0
  9
$DIMTOL
 70
     0
  9
$DIMLIM
 70
     0
  9
$DIMTIH
 70
     0
  9
$DIMTOH
 70
     0
  9
$DIMSE1
 70
     0
  9
$DIMSE2
 70
     0
  9
$DIMTAD
 70
     1
  9
$DIMZIN
 70
     8
  9
$DIMBLK
  1

  9
$DIMASO
 70
     1
  9
$DIMSHO
 70
     1
  9
$DIMPOST
  1

  9
$DIMAPOST
  1

  9
$DIMALT
 70
     0
  9
$DIMALTD
 70
     3
  9
$DIMALTF
 40
0.03937007874016
  9
$DIMLFAC
 40
1.0
  9
$DIMTOFL
 70
     1
  9
$DIMTVP
 40
0.0
  9
$DIMTIX
 70
     0
  9
$DIMSOXD
 70
     0
  9
$DIMSAH
 70
     0
  9
$DIMBLK1
  1

  9
$DIMBLK2
  1

  9
$DIMSTYLE
  2
ISO-25
  9
$DIMCLRD
 70
     0
  9
$DIMCLRE
 70
     0
  9
$DIMCLRT
 70
     0
  9
$DIMTFAC
 40
1.0
  9
$DIMGAP
 40
0.625
  9
$DIMJUST
 70
     0
  9
$DIMSD1
 70
     0
  9
$DIMSD2
 70
     0
  9
$DIMTOLJ
 70
     0
  9
$DIMTZIN
 70
     8
  9
$DIMALTZ
 70
     0
  9
$DIMALTTZ
 70
     0
  9
$DIMFIT
 70
     3
  9
$DIMUPT
 70
     0
  9
$DIMUNIT
 70
     2
  9
$DIMDEC
 70
     2
  9
$DIMTDEC
 70
     2
  9
$DIMALTU
 70
     2
  9
$DIMALTTD
 70
     3
  9
$DIMTXSTY
  7
STANDARD
  9
$DIMAUNIT
 70
     0
  9
$LUNITS
 70
     2
  9
$LUPREC
 70
     4
  9
$SKETCHINC
 40
1.0
  9
$FILLETRAD
 40
0.0
  9
$AUNITS
 70
     0
  9
$AUPREC
 70
     0
  9
$MENU
  1
.
  9
$ELEVATION
 40
0.0
  9
$PELEVATION
 40
0.0
  9
$THICKNESS
 40
0.0
  9
$LIMCHECK
 70
     0
  9
$CHAMFERA
 40
0.0
  9
$CHAMFERB
 40
0.0
  9
$CHAMFERC
 40
0.0
  9
$CHAMFERD
 40
0.0
  9
$SKPOLY
 70
     0
  9
$TDCREATE
 40
2460873.285949074
  9
$TDUPDATE
 40
2460942.907692095
  9
$TDINDWG
 40
0.0001273148
  9
$TDUSRTIMER
 40
0.0001273148
  9
$USRTIMER
 70
     1
  9
$ANGBASE
 50
0.0
  9
$ANGDIR
 70
     0
  9
$PDMODE
 70
     0
  9
$PDSIZE
 40
0.0
  9
$PLINEWID
 40
0.0
  9
$COORDS
 70
     1
  9
$SPLFRAME
 70
     0
  9
$SPLINETYPE
 70
     6
  9
$SPLINESEGS
 70
     8
  9
$ATTDIA
 70
     0
  9
$ATTREQ
 70
     1
  9
$HANDLING
 70
     1
  9
$HANDSEED
  5
5EE
  9
$SURFTAB1
 70
     6
  9
$SURFTAB2
 70
     6
  9
$SURFTYPE
 70
     6
  9
$SURFU
 70
     6
  9
$SURFV
 70
     6
  9
$UCSNAME
  2

  9
$UCSORG
 10
0.0
 20
0.0
 30
0.0
  9
$UCSXDIR
 10
1.0
 20
0.0
 30
0.0
  9
$UCSYDIR
 10
0.0
 20
1.0
 30
0.0
  9
$PUCSNAME
  2

  9
$PUCSORG
 10
0.0
 20
0.0
 30
0.0
  9
$PUCSXDIR
 10
1.0
 20
0.0
 30
0.0
  9
$PUCSYDIR
 10
0.0
 20
1.0
 30
0.0
  9
$USERI1
 70
     0
  9
$USERI2
 70
     0
  9
$USERI3
 70
     0
  9
$USERI4
 70
     0
  9
$USERI5
 70
     0
  9
$USERR1
 40
0.0
  9
$USERR2
 40
0.0
  9
$USERR3
 40
0.0
  9
$USERR4
 40
0.0
  9
$USERR5
 40
0.0
  9
$WORLDVIEW
 70
     1
  9
$SHADEDGE
 70
     3
  9
$SHADEDIF
 70
    70
  9
$TILEMODE
 70
     1
  9
$MAXACTVP
 70
    64
  9
$PINSBASE
 10
0.0
 20
0.0
 30
0.0
  9
$PLIMCHECK
 70
     0
  9
$PEXTMIN
 10
0.0
 20
0.0
 30
0.0
  9
$PEXTMAX
 10
0.0
 20
0.0
 30
0.0
  9
$PLIMMIN
 10
0.0
 20
0.0
  9
$PLIMMAX
 10
12.0
 20
9.0
  9
$UNITMODE
 70
     0
  9
$VISRETAIN
 70
     1
  9
$PLINEGEN
 70
     0
  9
$PSLTSCALE
 70
     1
  9
$TREEDEPTH
 70
  3020
  9
$PICKSTYLE
 70
     1
  9
$CMLSTYLE
  2
STANDARD
  9
$CMLJUST
 70
     0
  9
$CMLSCALE
 40
20.0
  9
$PROXYGRAPHICS
 70
     1
  9
$MEASUREMENT
 70
     1
  0
ENDSEC
  0
SECTION
  2
CLASSES
  0
CLASS
  1
ACDBDICTIONARYWDFLT
  2
AcDbDictionaryWithDefault
  3
ObjectDBX Classes
 90
        0
280
     0
281
     0
  0
CLASS
  1
ACDBPLACEHOLDER
  2
AcDbPlaceHolder
  3
ObjectDBX Classes
 90
        0
280
     0
281
     0
  0
CLASS
  1
LAYOUT
  2
AcDbLayout
  3
ObjectDBX Classes
 90
        0
280
     0
281
     0
  0
CLASS
  1
DICTIONARYVAR
  2
AcDbDictionaryVar
  3
ObjectDBX Classes
 90
        0
280
     0
281
     0
  0
CLASS
  1
TABLESTYLE
  2
AcDbTableStyle
  3
ObjectDBX Classes
 90
     4095
280
     0
281
     0
  0
CLASS
  1
MATERIAL
  2
AcDbMaterial
  3
ObjectDBX Classes
 90
     1153
280
     0
281
     0
  0
CLASS
  1
VISUALSTYLE
  2
AcDbVisualStyle
  3
ObjectDBX Classes
 90
     4095
280
     0
281
     0
  0
CLASS
  1
SCALE
  2
AcDbScale
  3
ObjectDBX Classes
 90
     1153
280
     0
281
     0
  0
CLASS
  1
MLEADERSTYLE
  2
AcDbMLeaderStyle
  3
ACDB_MLEADERSTYLE_CLASS
 90
     4095
280
     0
281
     0
  0
CLASS
  1
CELLSTYLEMAP
  2
AcDbCellStyleMap
  3
ObjectDBX Classes
 90
     1152
280
     0
281
     0
  0
CLASS
  1
EXACXREFPANELOBJECT
  2
ExAcXREFPanelObject
  3
EXAC_ESW
 90
     1025
280
     1
281
     0
  0
CLASS
  1
NPOCOLLECTION
  2
AcDbImpNonPersistentObjectsCollection
  3
ObjectDBX Classes
 90
     1153
280
     1
281
     0
  0
CLASS
  1
LAYER_INDEX
  2
AcDbLayerIndex
  3
ObjectDBX Classes
 90
        0
280
     0
281
     0
  0
CLASS
  1
SPATIAL_INDEX
  2
AcDbSpatialIndex
  3
AutoCAD 2000
 90
        0
280
     0
281
     0
  0
CLASS
  1
IDBUFFER
  2
AcDbIdBuffer
  3
ObjectDBX Classes
 90
        0
280
     0
281
     0
  0
CLASS
  1
ACDBSECTIONVIEWSTYLE
  2
AcDbSectionViewStyle
  3
ObjectDBX Classes
 90
     1025
280
     0
281
     0
  0
CLASS
  1
ACDBDETAILVIEWSTYLE
  2
AcDbDetailViewStyle
  3
ObjectDBX Classes
 90
     1025
280
     0
281
     0
  0
CLASS
  1
SORTENTSTABLE
  2
AcDbSortentsTable
  3
ObjectDBX Classes
 90
        0
280
     0
281
     0
  0
CLASS
  1
DIMASSOC
  2
AcDbDimAssoc
  3
"AcDbDimAssoc|Product Desc:     AcDim ARX App For Dimension|Company:          Autodesk, Inc.|WEB Address:      www.autodesk.com"
 90
        0
280
     0
281
     0
  0
CLASS
  1
WIPEOUTVARIABLES
  2
AcDbWipeoutVariables
  3
WipeOut|AutoCAD Express Tool|expresstools@autodesk.com
 90
        0
280
     0
281
     0
  0
CLASS
  1
XRECORD
  2
AcDbXrecord
  3
ObjectDBX Classes
 90
        0
280
     0
281
     0
  0
CLASS
  1
LWPOLYLINE
  2
AcDbPolyline
  3
ObjectDBX Classes
 90
        0
280
     0
281
     1
  0
CLASS
  1
HATCH
  2
AcDbHatch
  3
ObjectDBX Classes
 90
        0
280
     0
281
     1
  0
ENDSEC
  0
SECTION
  2
TABLES
  0
TABLE
  2
VPORT
  5
8
102
{ACAD_XDICTIONARY
360
5E7
102
}
330
0
100
AcDbSymbolTable
 70
     1
  0
VPORT
  5
EA
330
8
100
AcDbSymbolTableRecord
100
AcDbViewportTableRecord
  2
*ACTIVE
 70
     0
 10
0.0
 20
0.0
 11
1.0
 21
1.0
 12
2933.900719268339
 22
1447.558722902645
 13
0.0
 23
0.0
 14
10.0
 24
10.0
 15
10.0
 25
10.0
 16
0.0
 26
0.0
 36
1.0
 17
0.0
 27
0.0
 37
0.0
 40
40.04695315580375
 41
2.57085020242915
 42
50.0
 43
0.0
 44
0.0
 50
0.0
 51
0.0
 71
     0
 72
  1000
 73
     1
 74
     3
 75
     0
 76
     1
 77
     0
 78
     0
1001
ACAD_NAV_VCDISPLAY
1070
     3
  0
ENDTAB
  0
TABLE
  2
LTYPE
  5
5
330
0
100
AcDbSymbolTable
 70
     1
  0
LTYPE
  5
14
330
5
100
AcDbSymbolTableRecord
100
AcDbLinetypeTableRecord
  2
BYBLOCK
 70
     0
  3

 72
    65
 73
     0
 40
0.0
  0
LTYPE
  5
15
330
5
100
AcDbSymbolTableRecord
100
AcDbLinetypeTableRecord
  2
BYLAYER
 70
     0
  3

 72
    65
 73
     0
 40
0.0
  0
LTYPE
  5
16
330
5
100
AcDbSymbolTableRecord
100
AcDbLinetypeTableRecord
  2
CONTINUOUS
 70
     0
  3
Solid line
 72
    65
 73
     0
 40
0.0
  0
ENDTAB
  0
TABLE
  2
LAYER
  5
2
102
{ACAD_XDICTIONARY
360
1FF
102
}
330
0
100
AcDbSymbolTable
 70
     2
  0
LAYER
  5
10
330
2
100
AcDbSymbolTableRecord
100
AcDbLayerTableRecord
  2
0
 70
     0
 62
     7
  6
CONTINUOUS
  0
LAYER
  5
309
330
2
100
AcDbSymbolTableRecord
100
AcDbLayerTableRecord
  2
DEFPOINTS
 70
     0
 62
     7
  6
CONTINUOUS
  0
ENDTAB
  0
TABLE
  2
STYLE
  5
3
330
0
100
AcDbSymbolTable
 70
     3
  0
STYLE
  5
11
330
3
100
AcDbSymbolTableRecord
100
AcDbTextStyleTableRecord
  2
STANDARD
 70
     0
 40
0.0
 41
1.0
 50
0.0
 71
     0
 42
2.5
  3
arial.ttf
  4

1001
ACAD
1000
Arial
1071
       34
  0
STYLE
  5
132
330
3
100
AcDbSymbolTableRecord
100
AcDbTextStyleTableRecord
  2
ANNOTATIVE
 70
     0
 40
0.0
 41
1.0
 50
0.0
 71
     0
 42
2.5
  3
arial.ttf
  4

1001
ACADANNOTATIVE
1000
AnnotativeData
1002
{
1070
     1
1070
     1
1002
}
1001
ACAD
1000
Arial
1071
       34
  0
STYLE
  5
30A
330
3
100
AcDbSymbolTableRecord
100
AcDbTextStyleTableRecord
  2
AN
 70
     0
 40
0.0
 41
1.0
 50
0.0
 71
     0
 42
0.8
  3
ARIALN.TTF
  4

1001
ACAD
1000
Arial Narrow
1071
       34
  0
ENDTAB
  0
TABLE
  2
VIEW
  5
6
330
0
100
AcDbSymbolTable
 70
     0
  0
ENDTAB
  0
TABLE
  2
UCS
  5
7
330
0
100
AcDbSymbolTable
 70
     0
  0
ENDTAB
  0
TABLE
  2
APPID
  5
9
330
0
100
AcDbSymbolTable
 70
     9
  0
APPID
  5
12
330
9
100
AcDbSymbolTableRecord
100
AcDbRegAppTableRecord
  2
ACAD
 70
     0
  0
APPID
  5
9E
330
9
100
AcDbSymbolTableRecord
100
AcDbRegAppTableRecord
  2
ACAD_PSEXT
 70
     0
  0
APPID
  5
133
330
9
100
AcDbSymbolTableRecord
100
AcDbRegAppTableRecord
  2
ACADANNOPO
 70
     0
  0
APPID
  5
134
330
9
100
AcDbSymbolTableRecord
100
AcDbRegAppTableRecord
  2
ACADANNOTATIVE
 70
     0
  0
APPID
  5
135
330
9
100
AcDbSymbolTableRecord
100
AcDbRegAppTableRecord
  2
ACAD_DSTYLE_DIMJAG
 70
     0
  0
APPID
  5
136
330
9
100
AcDbSymbolTableRecord
100
AcDbRegAppTableRecord
  2
ACAD_DSTYLE_DIMTALN
 70
     0
  0
APPID
  5
165
330
9
100
AcDbSymbolTableRecord
100
AcDbRegAppTableRecord
  2
ACAD_MLEADERVER
 70
     0
  0
APPID
  5
217
330
9
100
AcDbSymbolTableRecord
100
AcDbRegAppTableRecord
  2
ACAD_NAV_VCDISPLAY
 70
     0
  0
APPID
  5
30C
330
9
100
AcDbSymbolTableRecord
100
AcDbRegAppTableRecord
  2
ACAD_DSTYLE_DIMJOGGED_JOGA
 70
     0
  0
ENDTAB
  0
TABLE
  2
DIMSTYLE
  5
A
330
0
100
AcDbSymbolTable
 70
     4
  0
DIMSTYLE
105
1B0
330
A
100
AcDbSymbolTableRecord
100
AcDbDimStyleTableRecord
  2
STANDARD
 70
     0
  3

  4

  5

  6

  7

 40
1.0
 41
0.18
 42
0.0625
 43
0.38
 44
0.18
 45
0.0
 46
0.0
 47
0.0
 48
0.0
140
0.18
141
0.09
142
0.0
143
25.4
144
1.0
145
0.0
146
1.0
147
0.09
 71
     0
 72
     0
 73
     1
 74
     1
 75
     0
 76
     0
 77
     0
 78
     0
170
     0
171
     2
172
     0
173
     0
174
     0
175
     0
176
     0
177
     0
178
     0
270
     2
271
     4
272
     4
273
     2
274
     2
340
11
275
     0
280
     0
281
     0
282
     0
283
     1
284
     0
285
     0
286
     0
287
     3
288
     0
  0
DIMSTYLE
105
137
330
A
100
AcDbSymbolTableRecord
100
AcDbDimStyleTableRecord
  2
ANNOTATIVE
 70
     0
  3

  4

  5

  6

  7

 40
0.0
 41
2.5
 42
0.625
 43
3.75
 44
1.25
 45
0.0
 46
0.0
 47
0.0
 48
0.0
140
2.5
141
2.5
142
0.0
143
0.03937007874016
144
1.0
145
0.0
146
1.0
147
0.625
 71
     0
 72
     0
 73
     0
 74
     0
 75
     0
 76
     0
 77
     1
 78
     8
170
     0
171
     3
172
     1
173
     0
174
     0
175
     0
176
     0
177
     0
178
     0
270
     2
271
     2
272
     2
273
     2
274
     3
340
11
275
     0
280
     0
281
     0
282
     0
283
     0
284
     8
285
     0
286
     0
287
     3
288
     0
1001
ACADANNOTATIVE
1000
AnnotativeData
1002
{
1070
     1
1070
     1
1002
}
1001
ACAD_DSTYLE_DIMJAG
1070
   388
1040
1.5
1001
ACAD_DSTYLE_DIMTALN
1070
   392
1070
     0
  0
DIMSTYLE
105
27
330
A
100
AcDbSymbolTableRecord
100
AcDbDimStyleTableRecord
  2
ISO-25
 70
     0
  3

  4

  5

  6

  7

 40
1.0
 41
2.5
 42
0.625
 43
3.75
 44
1.25
 45
0.0
 46
0.0
 47
0.0
 48
0.0
140
2.5
141
2.5
142
0.0
143
0.03937007874016
144
1.0
145
0.0
146
1.0
147
0.625
 71
     0
 72
     0
 73
     0
 74
     0
 75
     0
 76
     0
 77
     1
 78
     8
170
     0
171
     3
172
     1
173
     0
174
     0
175
     0
176
     0
177
     0
178
     0
270
     2
271
     2
272
     2
273
     2
274
     3
340
11
275
     0
280
     0
281
     0
282
     0
283
     0
284
     8
285
     0
286
     0
287
     3
288
     0
  0
DIMSTYLE
105
30B
102
{ACAD_REACTORS
330
552
330
555
330
558
330
55B
330
55E
330
561
102
}
330
A
100
AcDbSymbolTableRecord
100
AcDbDimStyleTableRecord
  2
DIM
 70
     0
  3

  4

  5

  6
OBLIQUE
  7
OBLIQUE
 40
1.0
 41
0.06
 42
0.3
 43
0.05
 44
0.05
 45
0.0
 46
0.0
 47
0.0
 48
0.0
140
0.2
141
0.001
142
0.0
143
0.0394
144
-1.0
145
0.0
146
1.0
147
0.05
 71
     0
 72
     0
 73
     0
 74
     0
 75
     1
 76
     1
 77
     0
 78
     1
170
     0
171
     4
172
     0
173
     1
174
     0
175
     0
176
   252
177
   256
178
     1
179
     4
270
     2
271
     3
272
     3
273
     1
274
     4
340
30A
275
     0
280
     0
281
     0
282
     0
283
     1
284
     1
285
     1
286
     1
287
     5
288
     0
1001
ACAD_DSTYLE_DIMJOGGED_JOGA
1070
   384
1040
1.570796326794896
1001
ACAD_DSTYLE_DIMJAG
1070
   388
1040
1.5
1001
ACAD_DSTYLE_DIMTALN
1070
   392
1070
     0
  0
ENDTAB
  0
TABLE
  2
BLOCK_RECORD
  5
1
330
0
100
AcDbSymbolTable
 70
     7
  0
BLOCK_RECORD
  5
1F
330
1
100
AcDbSymbolTableRecord
100
AcDbBlockTableRecord
  2
*MODEL_SPACE
  0
BLOCK_RECORD
  5
D2
330
1
100
AcDbSymbolTableRecord
100
AcDbBlockTableRecord
  2
*PAPER_SPACE
  0
BLOCK_RECORD
  5
2C1
102
{ACAD_XDICTIONARY
360
2C2
102
}
330
1
100
AcDbSymbolTableRecord
100
AcDbBlockTableRecord
  2
_OBLIQUE
  0
BLOCK_RECORD
  5
564
330
1
100
AcDbSymbolTableRecord
100
AcDbBlockTableRecord
  2
*D9
  0
BLOCK_RECORD
  5
56F
330
1
100
AcDbSymbolTableRecord
100
AcDbBlockTableRecord
  2
*D10
  0
BLOCK_RECORD
  5
57A
330
1
100
AcDbSymbolTableRecord
100
AcDbBlockTableRecord
  2
*D11
  0
BLOCK_RECORD
  5
585
330
1
100
AcDbSymbolTableRecord
100
AcDbBlockTableRecord
  2
*D12
  0
BLOCK_RECORD
  5
590
330
1
100
AcDbSymbolTableRecord
100
AcDbBlockTableRecord
  2
*D13
  0
BLOCK_RECORD
  5
59B
330
1
100
AcDbSymbolTableRecord
100
AcDbBlockTableRecord
  2
*D14
  0
ENDTAB
  0
ENDSEC
  0
SECTION
  2
BLOCKS
  0
BLOCK
  5
20
330
1F
100
AcDbEntity
  8
0
100
AcDbBlockBegin
  2
*MODEL_SPACE
 70
     0
 10
0.0
 20
0.0
 30
0.0
  3
*MODEL_SPACE
  1

  0
ENDBLK
  5
21
330
1F
100
AcDbEntity
  8
0
100
AcDbBlockEnd
  0
BLOCK
  5
D4
330
D2
100
AcDbEntity
 67
     1
  8
0
100
AcDbBlockBegin
  2
*PAPER_SPACE
 70
     0
 10
0.0
 20
0.0
 30
0.0
  3
*PAPER_SPACE
  1

  0
ENDBLK
  5
D5
330
D2
100
AcDbEntity
 67
     1
  8
0
100
AcDbBlockEnd
  0
BLOCK
  5
2C4
330
2C1
100
AcDbEntity
  8
0
100
AcDbBlockBegin
  2
_OBLIQUE
 70
     0
 10
0.0
 20
0.0
 30
0.0
  3
_OBLIQUE
  1

  0
LINE
  5
2C5
330
2C1
100
AcDbEntity
  8
0
  6
BYBLOCK
 62
     0
100
AcDbLine
 10
-0.5
 20
-0.5
 30
0.0
 11
0.5
 21
0.5
 31
0.0
  0
ENDBLK
  5
2C6
330
2C1
100
AcDbEntity
  8
0
100
AcDbBlockEnd
  0
BLOCK
  5
565
330
564
100
AcDbEntity
  8
0
100
AcDbBlockBegin
  2
*D9
 70
     1
 10
0.0
 20
0.0
 30
0.0
  3
*D9
  1

  0
LINE
  5
5A6
330
564
100
AcDbEntity
  8
0
 62
   252
100
AcDbLine
 10
2919.974606094935
 20
1448.652707539167
 30
0.0
 11
2919.302436927131
 21
1448.652707539165
 31
0.0
  0
LINE
  5
5A7
330
564
100
AcDbEntity
  8
0
 62
   252
100
AcDbLine
 10
2917.974606094934
 20
1448.652707539163
 30
0.0
 11
2918.646775262738
 21
1448.652707539164
 31
0.0
  0
INSERT
  5
5A8
330
564
100
AcDbEntity
  8
0
 62
   252
100
AcDbBlockReference
  2
_OBLIQUE
 10
2919.974606094935
 20
1448.652707539167
 30
0.0
 41
0.06
 42
0.06
 43
0.06
 50
0.0000000001302958
  0
INSERT
  5
5A9
330
564
100
AcDbEntity
  8
0
 62
   252
100
AcDbBlockReference
  2
_OBLIQUE
 10
2917.974606094934
 20
1448.652707539163
 30
0.0
 41
0.06
 42
0.06
 43
0.06
 50
180.0000000001303
  0
MTEXT
  5
5AA
330
564
100
AcDbEntity
  8
0
 62
     1
100
AcDbMText
 10
2918.974606094934
 20
1448.652707539165
 30
0.0
 40
0.2
 41
0.0
 71
     5
 72
     1
  1
\A1;2.000
  7
AN
  0
POINT
  5
5AB
330
564
100
AcDbEntity
  8
DEFPOINTS
 62
     0
100
AcDbPoint
 10
2919.974606094935
 20
1448.623764138253
 30
0.0
  0
POINT
  5
5AC
330
564
100
AcDbEntity
  8
DEFPOINTS
 62
     0
100
AcDbPoint
 10
2917.974606094934
 20
1448.623764138249
 30
0.0
  0
POINT
  5
5AD
330
564
100
AcDbEntity
  8
DEFPOINTS
 62
     0
100
AcDbPoint
 10
2917.974606094934
 20
1448.652707539163
 30
0.0
  0
ENDBLK
  5
566
330
564
100
AcDbEntity
  8
0
100
AcDbBlockEnd
  0
BLOCK
  5
570
330
56F
100
AcDbEntity
  8
0
100
AcDbBlockBegin
  2
*D10
 70
     1
 10
0.0
 20
0.0
 30
0.0
  3
*D10
  1

  0
LINE
  5
572
330
56F
100
AcDbEntity
  8
0
 62
   252
100
AcDbLine
 10
2931.708881588306
 20
1450.285133342354
 30
0.0
 11
2932.055073106892
 21
1450.866215022888
 31
0.0
  0
LINE
  5
573
330
56F
100
AcDbEntity
  8
0
 62
   252
100
AcDbLine
 10
2932.737335311065
 20
1452.011390588671
 30
0.0
 11
2932.391143792478
 21
1451.430308908136
 31
0.0
  0
INSERT
  5
574
330
56F
100
AcDbEntity
  8
0
 62
   252
100
AcDbBlockReference
  2
_OBLIQUE
 10
2931.708881588306
 20
1450.285133342354
 30
0.0
 41
0.06
 42
0.06
 43
0.06
 50
239.2147474522543
  0
INSERT
  5
575
330
56F
100
AcDbEntity
  8
0
 62
   252
100
AcDbBlockReference
  2
_OBLIQUE
 10
2932.737335311065
 20
1452.011390588671
 30
0.0
 41
0.06
 42
0.06
 43
0.06
 50
59.21474745225427
  0
MTEXT
  5
576
330
56F
100
AcDbEntity
  8
0
 62
     1
100
AcDbMText
 10
2932.223108449685
 20
1451.148261965513
 30
0.0
 40
0.2
 41
0.0
 71
     5
 72
     1
  1
\A1;2.009
  7
AN
 11
0.5118217588508917
 21
0.85909166400727
 31
0.0
  0
POINT
  5
577
330
56F
100
AcDbEntity
  8
DEFPOINTS
 62
     0
100
AcDbPoint
 10
2931.708881588307
 20
1450.285133342353
 30
0.0
  0
POINT
  5
578
330
56F
100
AcDbEntity
  8
DEFPOINTS
 62
     0
100
AcDbPoint
 10
2932.737335311066
 20
1452.011390588671
 30
0.0
  0
POINT
  5
579
330
56F
100
AcDbEntity
  8
DEFPOINTS
 62
     0
100
AcDbPoint
 10
2932.737335311065
 20
1452.011390588671
 30
0.0
  0
ENDBLK
  5
571
330
56F
100
AcDbEntity
  8
0
100
AcDbBlockEnd
  0
BLOCK
  5
57B
330
57A
100
AcDbEntity
  8
0
100
AcDbBlockBegin
  2
*D11
 70
     1
 10
0.0
 20
0.0
 30
0.0
  3
*D11
  1

  0
LINE
  5
57D
330
57A
100
AcDbEntity
  8
0
 62
   252
100
AcDbLine
 10
2926.324606094949
 20
1440.703099444036
 30
0.0
 11
2926.329677769247
 21
1440.024629219772
 31
0.0
  0
LINE
  5
57E
330
57A
100
AcDbEntity
  8
0
 62
   252
100
AcDbLine
 10
2926.339644364602
 20
1438.691334179908
 30
0.0
 11
2926.334572690304
 21
1439.369804404173
 31
0.0
  0
INSERT
  5
57F
330
57A
100
AcDbEntity
  8
0
 62
   252
100
AcDbBlockReference
  2
_OBLIQUE
 10
2926.324606094949
 20
1440.703099444036
 30
0.0
 41
0.06
 42
0.06
 43
0.06
 50
90.42828721097533
  0
INSERT
  5
580
330
57A
100
AcDbEntity
  8
0
 62
   252
100
AcDbBlockReference
  2
_OBLIQUE
 10
2926.339644364602
 20
1438.691334179908
 30
0.0
 41
0.06
 42
0.06
 43
0.06
 50
270.4282872109753
  0
MTEXT
  5
581
330
57A
100
AcDbEntity
  8
0
 62
     1
100
AcDbMText
 10
2926.332125229775
 20
1439.697216811972
 30
0.0
 40
0.2
 41
0.0
 71
     5
 72
     1
  1
\A1;2.012
  7
AN
 11
0.007474952363567377
 21
-0.9999720621533196
 31
0.0
  0
POINT
  5
582
330
57A
100
AcDbEntity
  8
DEFPOINTS
 62
     0
100
AcDbPoint
 10
2926.32460609495
 20
1440.703099444036
 30
0.0
  0
POINT
  5
583
330
57A
100
AcDbEntity
  8
DEFPOINTS
 62
     0
100
AcDbPoint
 10
2926.339644364602
 20
1438.691334179908
 30
0.0
  0
POINT
  5
584
330
57A
100
AcDbEntity
  8
DEFPOINTS
 62
     0
100
AcDbPoint
 10
2926.339644364602
 20
1438.691334179908
 30
0.0
  0
ENDBLK
  5
57C
330
57A
100
AcDbEntity
  8
0
100
AcDbBlockEnd
  0
BLOCK
  5
586
330
585
100
AcDbEntity
  8
0
100
AcDbBlockBegin
  2
*D12
 70
     1
 10
0.0
 20
0.0
 30
0.0
  3
*D12
  1

  0
LINE
  5
588
330
585
100
AcDbEntity
  8
0
 62
   252
100
AcDbLine
 10
2918.632569998799
 20
1463.761928928274
 30
0.0
 11
2933.08063112103
 21
1453.137544512154
 31
0.0
  0
LINE
  5
589
330
585
100
AcDbEntity
  8
0
 62
   252
100
AcDbLine
 10
2948.15802843112
 20
1442.050377613994
 30
0.0
 11
2933.709967308891
 21
1452.674762030114
 31
0.0
  0
INSERT
  5
58A
330
585
100
AcDbEntity
  8
0
 62
   252
100
AcDbBlockReference
  2
_OBLIQUE
 10
2918.632569998799
 20
1463.761928928274
 30
0.0
 41
0.06
 42
0.06
 43
0.06
 50
143.6710890127897
  0
INSERT
  5
58B
330
585
100
AcDbEntity
  8
0
 62
   252
100
AcDbBlockReference
  2
_OBLIQUE
 10
2948.15802843112
 20
1442.050377613994
 30
0.0
 41
0.06
 42
0.06
 43
0.06
 50
323.6710890127897
  0
MTEXT
  5
58C
330
585
100
AcDbEntity
  8
0
 62
     1
100
AcDbMText
 10
2933.39529921496
 20
1452.906153271134
 30
0.0
 40
0.2
 41
0.0
 71
     5
 72
     1
  1
\A1;36.649
  7
AN
 11
0.8056294545966104
 21
-0.5924197683115986
 31
0.0
  0
POINT
  5
58D
330
585
100
AcDbEntity
  8
DEFPOINTS
 62
     0
100
AcDbPoint
 10
2917.974606094906
 20
1462.86716624581
 30
0.0
  0
POINT
  5
58E
330
585
100
AcDbEntity
  8
DEFPOINTS
 62
     0
100
AcDbPoint
 10
2947.500064527226
 20
1441.155614931531
 30
0.0
  0
POINT
  5
58F
330
585
100
AcDbEntity
  8
DEFPOINTS
 62
     0
100
AcDbPoint
 10
2948.15802843112
 20
1442.050377613994
 30
0.0
  0
ENDBLK
  5
587
330
585
100
AcDbEntity
  8
0
100
AcDbBlockEnd
  0
BLOCK
  5
591
330
590
100
AcDbEntity
  8
0
100
AcDbBlockBegin
  2
*D13
 70
     1
 10
0.0
 20
0.0
 30
0.0
  3
*D13
  1

  0
LINE
  5
593
330
590
100
AcDbEntity
  8
0
 62
   252
100
AcDbLine
 10
2918.078546067054
 20
1436.824648832837
 30
0.0
 11
2932.451481247224
 21
1438.498478900322
 31
0.0
  0
LINE
  5
594
330
590
100
AcDbEntity
  8
0
 62
   252
100
AcDbLine
 10
2947.604004499324
 20
1440.263097518558
 30
0.0
 11
2933.231069319152
 21
1438.589267451073
 31
0.0
  0
INSERT
  5
595
330
590
100
AcDbEntity
  8
0
 62
   252
100
AcDbBlockReference
  2
_OBLIQUE
 10
2918.078546067054
 20
1436.824648832837
 30
0.0
 41
0.06
 42
0.06
 43
0.06
 50
186.6425776033221
  0
INSERT
  5
596
330
590
100
AcDbEntity
  8
0
 62
   252
100
AcDbBlockReference
  2
_OBLIQUE
 10
2947.604004499324
 20
1440.263097518558
 30
0.0
 41
0.06
 42
0.06
 43
0.06
 50
6.64257760332212
  0
MTEXT
  5
597
330
590
100
AcDbEntity
  8
0
 62
     1
100
AcDbMText
 10
2932.841275283188
 20
1438.543873175698
 30
0.0
 40
0.2
 41
0.0
 71
     5
 72
     1
  1
\A1;29.725
  7
AN
 11
0.9932870793025858
 21
0.1156753132286189
 31
0.0
  0
POINT
  5
598
330
590
100
AcDbEntity
  8
DEFPOINTS
 62
     0
100
AcDbPoint
 10
2917.974606094956
 20
1437.717166245811
 30
0.0
  0
POINT
  5
599
330
590
100
AcDbEntity
  8
DEFPOINTS
 62
     0
100
AcDbPoint
 10
2947.500064527226
 20
1441.155614931532
 30
0.0
  0
POINT
  5
59A
330
590
100
AcDbEntity
  8
DEFPOINTS
 62
     0
100
AcDbPoint
 10
2947.604004499324
 20
1440.263097518558
 30
0.0
  0
ENDBLK
  5
592
330
590
100
AcDbEntity
  8
0
100
AcDbBlockEnd
  0
BLOCK
  5
59C
330
59B
100
AcDbEntity
  8
0
100
AcDbBlockBegin
  2
*D14
 70
     1
 10
0.0
 20
0.0
 30
0.0
  3
*D14
  1

  0
LINE
  5
59E
330
59B
100
AcDbEntity
  8
0
 62
   252
100
AcDbLine
 10
2916.906736062197
 20
1462.867166245811
 30
0.0
 11
2916.906736062197
 21
1450.683707855634
 31
0.0
  0
LINE
  5
59F
330
59B
100
AcDbEntity
  8
0
 62
   252
100
AcDbLine
 10
2916.906736062197
 20
1437.717166245811
 30
0.0
 11
2916.906736062197
 21
1449.900624635988
 31
0.0
  0
INSERT
  5
5A0
330
59B
100
AcDbEntity
  8
0
 62
   252
100
AcDbBlockReference
  2
_OBLIQUE
 10
2916.906736062197
 20
1462.867166245811
 30
0.0
 41
0.06
 42
0.06
 43
0.06
 50
90.0
  0
INSERT
  5
5A1
330
59B
100
AcDbEntity
  8
0
 62
   252
100
AcDbBlockReference
  2
_OBLIQUE
 10
2916.906736062197
 20
1437.717166245811
 30
0.0
 41
0.06
 42
0.06
 43
0.06
 50
270.0
  0
MTEXT
  5
5A2
330
59B
100
AcDbEntity
  8
0
 62
     1
100
AcDbMText
 10
2916.906736062197
 20
1450.29216624581
 30
0.0
 40
0.2
 41
0.0
 71
     5
 72
     1
  1
\A1;25.150
  7
AN
 11
6.123233995736766E-17
 21
1.0
 31
0.0
  0
POINT
  5
5A3
330
59B
100
AcDbEntity
  8
DEFPOINTS
 62
     0
100
AcDbPoint
 10
2917.974606094906
 20
1462.867166245811
 30
0.0
  0
POINT
  5
5A4
330
59B
100
AcDbEntity
  8
DEFPOINTS
 62
     0
100
AcDbPoint
 10
2917.974606094957
 20
1437.717166245811
 30
0.0
  0
POINT
  5
5A5
330
59B
100
AcDbEntity
  8
DEFPOINTS
 62
     0
100
AcDbPoint
 10
2916.906736062197
 20
1437.717166245811
 30
0.0
  0
ENDBLK
  5
59D
330
59B
100
AcDbEntity
  8
0
100
AcDbBlockEnd
  0
ENDSEC
  0
SECTION
  2
ENTITIES
  0
LINE
  5
44B
102
{ACAD_REACTORS
330
554
330
55D
330
560
330
563
102
}
330
1F
100
AcDbEntity
  8
0
100
AcDbLine
 10
2917.974606094956
 20
1437.717166245811
 30
0.0
 11
2917.974606094906
 21
1462.86716624581
 31
0.0
  0
LINE
  5
44C
330
1F
100
AcDbEntity
  8
0
100
AcDbLine
 10
2920.124606094948
 20
1441.492082494872
 30
0.0
 11
2920.12460609494
 21
1445.68513334233
 31
0.0
  0
LINE
  5
44D
330
1F
100
AcDbEntity
  8
0
100
AcDbLine
 10
2920.124606094939
 20
1445.785133342329
 30
0.0
 11
2920.12460609493
 21
1449.73513334233
 31
0.0
  0
LINE
  5
44E
330
1F
100
AcDbEntity
  8
0
100
AcDbLine
 10
2920.124606094929
 20
1449.835133342329
 30
0.0
 11
2920.124606094922
 21
1452.335133342329
 31
0.0
  0
LINE
  5
44F
330
1F
100
AcDbEntity
  8
0
100
AcDbLine
 10
2920.124606094924
 20
1452.43513334233
 30
0.0
 11
2920.124606094919
 21
1455.37404689424
 31
0.0
  0
LINE
  5
450
330
1F
100
AcDbEntity
  8
0
100
AcDbLine
 10
2920.124606094918
 20
1455.524046894241
 30
0.0
 11
2920.124606094918
 21
1456.42404689424
 31
0.0
  0
LINE
  5
451
330
1F
100
AcDbEntity
  8
0
100
AcDbLine
 10
2923.424606094938
 20
1445.685133342336
 30
0.0
 11
2923.424606094934
 21
1448.535133342337
 31
0.0
  0
LINE
  5
452
330
1F
100
AcDbEntity
  8
0
100
AcDbLine
 10
2923.124606094932
 20
1449.385133342337
 30
0.0
 11
2923.124606094932
 21
1449.835133342337
 31
0.0
  0
LINE
  5
453
330
1F
100
AcDbEntity
  8
0
100
AcDbLine
 10
2923.524606094939
 20
1445.785133342336
 30
0.0
 11
2923.524606094937
 21
1446.985133342336
 31
0.0
  0
LINE
  5
454
330
1F
100
AcDbEntity
  8
0
100
AcDbLine
 10
2923.574606094937
 20
1447.085133342336
 30
0.0
 11
2923.574606094935
 21
1448.535133342337
 31
0.0
  0
LINE
  5
455
330
1F
100
AcDbEntity
  8
0
100
AcDbLine
 10
2923.224606094933
 20
1449.385133342338
 30
0.0
 11
2923.224606094932
 21
1449.735133342337
 31
0.0
  0
LINE
  5
456
330
1F
100
AcDbEntity
  8
0
100
AcDbLine
 10
2923.224606094932
 20
1449.835133342337
 30
0.0
 11
2923.224606094932
 21
1449.835133342337
 31
0.0
  0
LINE
  5
457
330
1F
100
AcDbEntity
  8
0
100
AcDbLine
 10
2924.574606094936
 20
1446.985133342338
 30
0.0
 11
2924.574606094934
 21
1448.635133342339
 31
0.0
  0
LINE
  5
458
330
1F
100
AcDbEntity
  8
0
100
AcDbLine
 10
2924.724606094937
 20
1447.135133342339
 30
0.0
 11
2924.724606094935
 21
1448.48513334234
 31
0.0
  0
LINE
  5
459
330
1F
100
AcDbEntity
  8
0
100
AcDbLine
 10
2924.224606094934
 20
1448.635133342339
 30
0.0
 11
2924.224606094932
 21
1449.835133342339
 31
0.0
  0
LINE
  5
45A
330
1F
100
AcDbEntity
  8
0
100
AcDbLine
 10
2923.124606094929
 20
1450.835133342336
 30
0.0
 11
2923.124606094918
 21
1455.524046894247
 31
0.0
  0
LINE
  5
45B
330
1F
100
AcDbEntity
  8
0
100
AcDbLine
 10
2922.224606094926
 20
1452.335133342334
 30
0.0
 11
2922.224606094926
 21
1452.435133342334
 31
0.0
  0
LINE
  5
45C
330
1F
100
AcDbEntity
  8
0
100
AcDbLine
 10
2922.224606094919
 20
1455.374046894245
 30
0.0
 11
2922.224606094918
 21
1455.524046894245
 31
0.0
  0
LINE
  5
45D
330
1F
100
AcDbEntity
  8
0
100
AcDbLine
 10
2923.124606094919
 20
1455.524046894247
 30
0.0
 11
2923.124606094918
 21
1456.424046894247
 31
0.0
  0
LINE
  5
45E
330
1F
100
AcDbEntity
  8
0
100
AcDbLine
 10
2922.424606094943
 20
1444.485133342334
 30
0.0
 11
2922.42460609494
 21
1445.785133342335
 31
0.0
  0
LINE
  5
45F
330
1F
100
AcDbEntity
  8
0
100
AcDbLine
 10
2921.674606094939
 20
1445.685133342332
 30
0.0
 11
2921.67460609494
 21
1445.785133342333
 31
0.0
  0
LINE
  5
460
330
1F
100
AcDbEntity
  8
0
100
AcDbLine
 10
2922.524606094945
 20
1444.385133342335
 30
0.0
 11
2922.524606094942
 21
1445.785133342335
 31
0.0
  0
LINE
  5
461
102
{ACAD_REACTORS
330
554
102
}
330
1F
100
AcDbEntity
  8
0
100
AcDbLine
 10
2919.97460609495
 20
1441.342082494871
 30
0.0
 11
2919.97460609492
 21
1455.524046894241
 31
0.0
  0
LINE
  5
462
102
{ACAD_REACTORS
330
55A
330
560
102
}
330
1F
100
AcDbEntity
  8
0
100
AcDbLine
 10
2917.974606094956
 20
1437.717166245811
 30
0.0
 11
2947.500064527226
 21
1441.155614931532
 31
0.0
  0
LINE
  5
463
102
{ACAD_REACTORS
330
557
330
55D
330
563
102
}
330
1F
100
AcDbEntity
  8
0
100
AcDbLine
 10
2917.974606094906
 20
1462.86716624581
 30
0.0
 11
2947.500064527226
 21
1441.155614931532
 31
0.0
  0
LINE
  5
464
330
1F
100
AcDbEntity
  8
0
100
AcDbLine
 10
2919.974606094952
 20
1440.342082494871
 30
0.0
 11
2923.52460609495
 21
1440.342082494878
 31
0.0
  0
LINE
  5
465
330
1F
100
AcDbEntity
  8
0
100
AcDbLine
 10
2920.124606094951
 20
1440.442082494872
 30
0.0
 11
2923.42460609495
 21
1440.442082494878
 31
0.0
  0
LINE
  5
466
330
1F
100
AcDbEntity
  8
0
100
AcDbLine
 10
2919.97460609495
 20
1441.342082494871
 30
0.0
 11
2922.524606094948
 21
1441.342082494877
 31
0.0
  0
LINE
  5
467
330
1F
100
AcDbEntity
  8
0
100
AcDbLine
 10
2920.124606094948
 20
1441.492082494872
 30
0.0
 11
2922.524606094948
 21
1441.492082494876
 31
0.0
  0
LINE
  5
468
330
1F
100
AcDbEntity
  8
0
100
AcDbLine
 10
2938.499483207567
 20
1442.282230116561
 30
0.0
 11
2938.499483207562
 21
1445.031360659065
 31
0.0
  0
LINE
  5
469
330
1F
100
AcDbEntity
  8
0
100
AcDbLine
 10
2935.749483207569
 20
1442.282230116554
 30
0.0
 11
2935.749483207563
 21
1445.347542175688
 31
0.0
  0
LINE
  5
46A
330
1F
100
AcDbEntity
  8
0
100
AcDbLine
 10
2935.749483207558
 20
1446.397542175688
 30
0.0
 11
2935.749483207554
 21
1447.313876194968
 31
0.0
  0
LINE
  5
46B
330
1F
100
AcDbEntity
  8
0
100
AcDbLine
 10
2936.845602455541
 20
1445.031360659061
 30
0.0
 11
2936.845602455539
 21
1446.247542175691
 31
0.0
  0
LINE
  5
46C
330
1F
100
AcDbEntity
  8
0
100
AcDbLine
 10
2936.995602455539
 20
1445.181360659061
 30
0.0
 11
2936.995602455537
 21
1446.397542175693
 31
0.0
  0
LINE
  5
46D
330
1F
100
AcDbEntity
  8
0
100
AcDbLine
 10
2935.649483207568
 20
1442.132230116553
 30
0.0
 11
2935.649483207561
 21
1445.347542175688
 31
0.0
  0
LINE
  5
46E
330
1F
100
AcDbEntity
  8
0
100
AcDbLine
 10
2935.649483207561
 20
1446.247542175688
 30
0.0
 11
2935.649483207558
 21
1447.163876194968
 31
0.0
  0
LINE
  5
46F
330
1F
100
AcDbEntity
  8
0
100
AcDbLine
 10
2938.649483207569
 20
1442.132230116561
 30
0.0
 11
2938.649483207563
 21
1445.181360659065
 31
0.0
  0
LINE
  5
470
330
1F
100
AcDbEntity
  8
0
100
AcDbLine
 10
2922.524606094945
 20
1444.385133342335
 30
0.0
 11
2920.124606094942
 21
1444.38513334233
 31
0.0
  0
LINE
  5
471
330
1F
100
AcDbEntity
  8
0
100
AcDbLine
 10
2923.524606094942
 20
1444.485133342336
 30
0.0
 11
2922.524606094945
 21
1444.485133342334
 31
0.0
  0
LINE
  5
472
330
1F
100
AcDbEntity
  8
0
100
AcDbLine
 10
2922.424606094943
 20
1444.485133342333
 30
0.0
 11
2920.124606094942
 21
1444.48513334233
 31
0.0
  0
LINE
  5
473
330
1F
100
AcDbEntity
  8
0
100
AcDbLine
 10
2929.446669015842
 20
1446.185133342349
 30
0.0
 11
2928.574606094938
 21
1446.185133342347
 31
0.0
  0
LINE
  5
474
330
1F
100
AcDbEntity
  8
0
100
AcDbLine
 10
2928.724606094936
 20
1447.085133342347
 30
0.0
 11
2928.574606094936
 21
1447.085133342347
 31
0.0
  0
LINE
  5
475
330
1F
100
AcDbEntity
  8
0
100
AcDbLine
 10
2928.574606094939
 20
1446.185133342347
 30
0.0
 11
2927.274606094938
 21
1446.185133342344
 31
0.0
  0
LINE
  5
476
330
1F
100
AcDbEntity
  8
0
100
AcDbLine
 10
2925.374606094938
 20
1445.78513334234
 30
0.0
 11
2923.52460609494
 21
1445.785133342336
 31
0.0
  0
LINE
  5
477
330
1F
100
AcDbEntity
  8
0
100
AcDbLine
 10
2926.374606094936
 20
1446.985133342342
 30
0.0
 11
2923.524606094938
 21
1446.985133342336
 31
0.0
  0
LINE
  5
478
330
1F
100
AcDbEntity
  8
0
100
AcDbLine
 10
2925.474606094937
 20
1446.23513334234
 30
0.0
 11
2925.374606094937
 21
1446.23513334234
 31
0.0
  0
LINE
  5
479
330
1F
100
AcDbEntity
  8
0
100
AcDbLine
 10
2921.67460609494
 20
1445.785133342333
 30
0.0
 11
2920.12460609494
 21
1445.785133342329
 31
0.0
  0
LINE
  5
47A
330
1F
100
AcDbEntity
  8
0
100
AcDbLine
 10
2926.224606094936
 20
1447.135133342341
 30
0.0
 11
2924.724606094937
 21
1447.135133342339
 31
0.0
  0
LINE
  5
47B
330
1F
100
AcDbEntity
  8
0
100
AcDbLine
 10
2926.224606094933
 20
1448.485133342343
 30
0.0
 11
2924.724606094935
 21
1448.48513334234
 31
0.0
  0
LINE
  5
47C
330
1F
100
AcDbEntity
  8
0
100
AcDbLine
 10
2924.574606094937
 20
1447.085133342338
 30
0.0
 11
2923.574606094938
 21
1447.085133342337
 31
0.0
  0
LINE
  5
47D
330
1F
100
AcDbEntity
  8
0
100
AcDbLine
 10
2924.224606094932
 20
1449.835133342339
 30
0.0
 11
2923.224606094932
 21
1449.835133342337
 31
0.0
  0
LINE
  5
47E
330
1F
100
AcDbEntity
  8
0
100
AcDbLine
 10
2926.224606094932
 20
1448.635133342344
 30
0.0
 11
2920.124606094932
 21
1448.635133342329
 31
0.0
  0
LINE
  5
47F
330
1F
100
AcDbEntity
  8
0
100
AcDbLine
 10
2924.124606094932
 20
1449.735133342339
 30
0.0
 11
2923.224606094932
 21
1449.735133342336
 31
0.0
  0
LINE
  5
480
330
1F
100
AcDbEntity
  8
0
100
AcDbLine
 10
2922.524606094942
 20
1445.785133342335
 30
0.0
 11
2922.42460609494
 21
1445.785133342335
 31
0.0
  0
LINE
  5
481
330
1F
100
AcDbEntity
  8
0
100
AcDbLine
 10
2922.12460609493
 20
1449.735133342334
 30
0.0
 11
2920.12460609493
 21
1449.73513334233
 31
0.0
  0
LINE
  5
482
330
1F
100
AcDbEntity
  8
0
100
AcDbLine
 10
2922.224606094926
 20
1452.335133342334
 30
0.0
 11
2920.124606094924
 21
1452.335133342329
 31
0.0
  0
LINE
  5
483
330
1F
100
AcDbEntity
  8
0
100
AcDbLine
 10
2922.224606094931
 20
1449.385133342335
 30
0.0
 11
2922.124606094931
 21
1449.385133342335
 31
0.0
  0
LINE
  5
484
330
1F
100
AcDbEntity
  8
0
100
AcDbLine
 10
2924.574606094934
 20
1448.53513334234
 30
0.0
 11
2923.574606094935
 21
1448.535133342337
 31
0.0
  0
LINE
  5
485
330
1F
100
AcDbEntity
  8
0
100
AcDbLine
 10
2923.224606094932
 20
1449.385133342337
 30
0.0
 11
2923.124606094932
 21
1449.385133342337
 31
0.0
  0
LINE
  5
486
330
1F
100
AcDbEntity
  8
0
100
AcDbLine
 10
2923.424606094935
 20
1448.535133342337
 30
0.0
 11
2920.124606094932
 21
1448.53513334233
 31
0.0
  0
LINE
  5
487
330
1F
100
AcDbEntity
  8
0
100
AcDbLine
 10
2922.224606094926
 20
1452.435133342334
 30
0.0
 11
2920.124606094924
 21
1452.43513334233
 31
0.0
  0
LINE
  5
488
330
1F
100
AcDbEntity
  8
0
100
AcDbLine
 10
2926.374606094938
 20
1446.185133342342
 30
0.0
 11
2926.374606094933
 21
1448.635133342344
 31
0.0
  0
LINE
  5
489
330
1F
100
AcDbEntity
  8
0
100
AcDbLine
 10
2926.37460609493
 20
1449.535133342344
 30
0.0
 11
2926.374606094922
 21
1454.207693812148
 31
0.0
  0
LINE
  5
48A
330
1F
100
AcDbEntity
  8
0
100
AcDbLine
 10
2922.224606094931
 20
1449.835133342335
 30
0.0
 11
2920.12460609493
 21
1449.835133342329
 31
0.0
  0
LINE
  5
48B
330
1F
100
AcDbEntity
  8
0
100
AcDbLine
 10
2923.224606094927
 20
1450.835133342337
 30
0.0
 11
2923.12460609493
 21
1450.835133342337
 31
0.0
  0
LINE
  5
48C
330
1F
100
AcDbEntity
  8
0
100
AcDbLine
 10
2923.224606094927
 20
1450.835133342337
 30
0.0
 11
2923.224606094917
 21
1455.524046894247
 31
0.0
  0
LINE
  5
48D
330
1F
100
AcDbEntity
  8
0
100
AcDbLine
 10
2921.674606094939
 20
1445.685133342332
 30
0.0
 11
2920.12460609494
 21
1445.68513334233
 31
0.0
  0
LINE
  5
48E
330
1F
100
AcDbEntity
  8
0
100
AcDbLine
 10
2923.52460609495
 20
1440.342082494878
 30
0.0
 11
2923.524606094942
 21
1444.485133342336
 31
0.0
  0
LINE
  5
48F
330
1F
100
AcDbEntity
  8
0
100
AcDbLine
 10
2924.424606094948
 20
1441.703099444032
 30
0.0
 11
2924.424606094948
 21
1441.853099444032
 31
0.0
  0
LINE
  5
490
330
1F
100
AcDbEntity
  8
0
100
AcDbLine
 10
2929.346669015841
 20
1446.035133342348
 30
0.0
 11
2928.574606094938
 21
1446.035133342346
 31
0.0
  0
LINE
  5
491
330
1F
100
AcDbEntity
  8
0
100
AcDbLine
 10
2928.574606094939
 20
1446.035133342346
 30
0.0
 11
2927.274606094938
 21
1446.035133342344
 31
0.0
  0
LINE
  5
492
330
1F
100
AcDbEntity
  8
0
100
AcDbLine
 10
2926.374606094938
 20
1446.035133342342
 30
0.0
 11
2926.224606094938
 21
1446.035133342342
 31
0.0
  0
LINE
  5
493
330
1F
100
AcDbEntity
  8
0
100
AcDbLine
 10
2926.324606094941
 20
1445.035133342342
 30
0.0
 11
2926.224606094941
 21
1445.035133342342
 31
0.0
  0
LINE
  5
494
330
1F
100
AcDbEntity
  8
0
100
AcDbLine
 10
2925.474606094938
 20
1445.685133342341
 30
0.0
 11
2923.424606094938
 21
1445.685133342336
 31
0.0
  0
LINE
  5
495
330
1F
100
AcDbEntity
  8
0
100
AcDbLine
 10
2926.224606094936
 20
1446.785133342341
 30
0.0
 11
2926.224606094935
 21
1446.985133342342
 31
0.0
  0
LINE
  5
496
330
1F
100
AcDbEntity
  8
0
100
AcDbLine
 10
2926.224606094936
 20
1447.135133342341
 30
0.0
 11
2926.224606094936
 21
1447.360133342343
 31
0.0
  0
LINE
  5
497
330
1F
100
AcDbEntity
  8
0
100
AcDbLine
 10
2926.224606094932
 20
1448.260133342342
 30
0.0
 11
2926.224606094931
 21
1448.485133342343
 31
0.0
  0
LINE
  5
498
330
1F
100
AcDbEntity
  8
0
100
AcDbLine
 10
2925.474606094938
 20
1445.685133342341
 30
0.0
 11
2925.474606094937
 21
1446.23513334234
 31
0.0
  0
LINE
  5
499
330
1F
100
AcDbEntity
  8
0
100
AcDbLine
 10
2925.374606094938
 20
1445.785133342339
 30
0.0
 11
2925.374606094937
 21
1446.23513334234
 31
0.0
  0
LINE
  5
49A
330
1F
100
AcDbEntity
  8
0
100
AcDbLine
 10
2926.22460609493
 20
1449.535133342344
 30
0.0
 11
2926.224606094921
 21
1454.057693812148
 31
0.0
  0
LINE
  5
49B
330
1F
100
AcDbEntity
  8
0
100
AcDbLine
 10
2926.32460609495
 20
1440.703099444036
 30
0.0
 11
2926.324606094949
 21
1441.066685776542
 31
0.0
  0
LINE
  5
49C
330
1F
100
AcDbEntity
  8
0
100
AcDbLine
 10
2926.324606094949
 20
1441.216685776543
 30
0.0
 11
2926.32460609494
 21
1445.035133342342
 31
0.0
  0
LINE
  5
49D
330
1F
100
AcDbEntity
  8
0
100
AcDbLine
 10
2928.574606094936
 20
1447.085133342347
 30
0.0
 11
2928.574606094924
 21
1452.577873966022
 31
0.0
  0
LINE
  5
49E
330
1F
100
AcDbEntity
  8
0
100
AcDbLine
 10
2926.374606094938
 20
1446.035133342342
 30
0.0
 11
2926.374606094938
 21
1446.185133342341
 31
0.0
  0
LINE
  5
49F
330
1F
100
AcDbEntity
  8
0
100
AcDbLine
 10
2927.274606094938
 20
1446.035133342344
 30
0.0
 11
2927.274606094938
 21
1446.185133342343
 31
0.0
  0
LINE
  5
4A0
330
1F
100
AcDbEntity
  8
0
100
AcDbLine
 10
2928.724606094936
 20
1447.085133342347
 30
0.0
 11
2928.724606094925
 21
1452.727873966023
 31
0.0
  0
LINE
  5
4A1
330
1F
100
AcDbEntity
  8
0
100
AcDbLine
 10
2929.624606094932
 20
1449.135133342349
 30
0.0
 11
2929.624606094932
 21
1449.285133342348
 31
0.0
  0
LINE
  5
4A2
330
1F
100
AcDbEntity
  8
0
100
AcDbLine
 10
2926.224606094949
 20
1441.066685776542
 30
0.0
 11
2926.224606094948
 21
1441.703099444036
 31
0.0
  0
LINE
  5
4A3
330
1F
100
AcDbEntity
  8
0
100
AcDbLine
 10
2926.224606094947
 20
1441.853099444037
 30
0.0
 11
2926.22460609494
 21
1445.035133342342
 31
0.0
  0
LINE
  5
4A4
330
1F
100
AcDbEntity
  8
0
100
AcDbLine
 10
2926.224606094938
 20
1446.035133342342
 30
0.0
 11
2926.224606094937
 21
1446.785133342342
 31
0.0
  0
LINE
  5
4A5
330
1F
100
AcDbEntity
  8
0
100
AcDbLine
 10
2929.346669015852
 20
1441.216685776548
 30
0.0
 11
2929.346669015841
 21
1446.185133342348
 31
0.0
  0
LINE
  5
4A6
330
1F
100
AcDbEntity
  8
0
100
AcDbLine
 10
2923.42460609495
 20
1440.442082494878
 30
0.0
 11
2923.424606094941
 21
1444.485133342336
 31
0.0
  0
LINE
  5
4A7
330
1F
100
AcDbEntity
  8
0
100
AcDbLine
 10
2922.524606094948
 20
1441.342082494877
 30
0.0
 11
2922.524606094947
 21
1441.492082494876
 31
0.0
  0
LINE
  5
4A8
330
1F
100
AcDbEntity
  8
0
100
AcDbLine
 10
2922.52460609494
 20
1444.385133342335
 30
0.0
 11
2922.52460609494
 21
1444.485133342333
 31
0.0
  0
LINE
  5
4A9
330
1F
100
AcDbEntity
  8
0
100
AcDbLine
 10
2929.446669015854
 20
1441.066685776549
 30
0.0
 11
2929.446669015845
 21
1444.735133342349
 31
0.0
  0
LINE
  5
4AA
330
1F
100
AcDbEntity
  8
0
100
AcDbLine
 10
2929.446669015845
 20
1444.835133342348
 30
0.0
 11
2929.446669015842
 21
1446.035133342348
 31
0.0
  0
LINE
  5
4AB
330
1F
100
AcDbEntity
  8
0
100
AcDbLine
 10
2930.446669015845
 20
1444.835133342351
 30
0.0
 11
2930.446669015842
 21
1446.035133342352
 31
0.0
  0
LINE
  5
4AC
330
1F
100
AcDbEntity
  8
0
100
AcDbLine
 10
2930.546669015845
 20
1444.735133342352
 30
0.0
 11
2930.546669015842
 21
1446.185133342351
 31
0.0
  0
LINE
  5
4AD
102
{ACAD_REACTORS
330
55A
102
}
330
1F
100
AcDbEntity
  8
0
100
AcDbLine
 10
2926.32460609495
 20
1440.703099444036
 30
0.0
 11
2923.524606094949
 21
1440.703099444031
 31
0.0
  0
LINE
  5
4AE
330
1F
100
AcDbEntity
  8
0
100
AcDbLine
 10
2926.224606094949
 20
1440.803099444036
 30
0.0
 11
2923.524606094949
 21
1440.803099444031
 31
0.0
  0
LINE
  5
4AF
330
1F
100
AcDbEntity
  8
0
100
AcDbLine
 10
2926.324606094948
 20
1441.703099444036
 30
0.0
 11
2924.424606094947
 21
1441.703099444032
 31
0.0
  0
LINE
  5
4B0
330
1F
100
AcDbEntity
  8
0
100
AcDbLine
 10
2926.224606094947
 20
1441.853099444036
 30
0.0
 11
2924.424606094947
 21
1441.853099444032
 31
0.0
  0
LINE
  5
4B1
330
1F
100
AcDbEntity
  8
0
100
AcDbLine
 10
2929.446669015855
 20
1441.066685776549
 30
0.0
 11
2926.224606094949
 21
1441.066685776542
 31
0.0
  0
LINE
  5
4B2
330
1F
100
AcDbEntity
  8
0
100
AcDbLine
 10
2929.346669015853
 20
1441.216685776548
 30
0.0
 11
2926.324606094949
 21
1441.216685776542
 31
0.0
  0
LINE
  5
4B3
330
1F
100
AcDbEntity
  8
0
100
AcDbLine
 10
2922.224606094918
 20
1455.524046894245
 30
0.0
 11
2919.97460609492
 21
1455.524046894241
 31
0.0
  0
LINE
  5
4B4
330
1F
100
AcDbEntity
  8
0
100
AcDbLine
 10
2922.224606094919
 20
1455.374046894245
 30
0.0
 11
2920.124606094919
 21
1455.374046894241
 31
0.0
  0
LINE
  5
4B5
330
1F
100
AcDbEntity
  8
0
100
AcDbLine
 10
2923.224606094915
 20
1456.524046894247
 30
0.0
 11
2919.97460609492
 21
1456.524046894241
 31
0.0
  0
LINE
  5
4B6
330
1F
100
AcDbEntity
  8
0
100
AcDbLine
 10
2923.224606094921
 20
1454.057693812142
 30
0.0
 11
2926.224606094921
 21
1454.057693812148
 31
0.0
  0
LINE
  5
4B7
330
1F
100
AcDbEntity
  8
0
100
AcDbLine
 10
2923.124606094918
 20
1456.424046894247
 30
0.0
 11
2920.124606094918
 21
1456.42404689424
 31
0.0
  0
LINE
  5
4B8
330
1F
100
AcDbEntity
  8
0
100
AcDbLine
 10
2923.22460609492
 20
1454.207693812142
 30
0.0
 11
2926.374606094919
 21
1454.207693812149
 31
0.0
  0
LINE
  5
4B9
330
1F
100
AcDbEntity
  8
0
100
AcDbLine
 10
2923.224606094918
 20
1455.207693812142
 30
0.0
 11
2925.014709788808
 21
1455.207693812146
 31
0.0
  0
LINE
  5
4BA
330
1F
100
AcDbEntity
  8
0
100
AcDbLine
 10
2923.224606094918
 20
1455.107693812143
 30
0.0
 11
2924.914709788808
 21
1455.107693812145
 31
0.0
  0
LINE
  5
4BB
330
1F
100
AcDbEntity
  8
0
100
AcDbLine
 10
2938.649483207569
 20
1442.132230116561
 30
0.0
 11
2935.649483207568
 21
1442.132230116553
 31
0.0
  0
LINE
  5
4BC
330
1F
100
AcDbEntity
  8
0
100
AcDbLine
 10
2935.74948320757
 20
1441.815832535902
 30
0.0
 11
2933.395637555403
 21
1441.815832535896
 31
0.0
  0
LINE
  5
4BD
330
1F
100
AcDbEntity
  8
0
100
AcDbLine
 10
2935.649483207569
 20
1441.915832535903
 30
0.0
 11
2933.395637555402
 21
1441.915832535895
 31
0.0
  0
LINE
  5
4BE
330
1F
100
AcDbEntity
  8
0
100
AcDbLine
 10
2935.649483207567
 20
1442.8158325359
 30
0.0
 11
2934.295637555399
 21
1442.815832535899
 31
0.0
  0
LINE
  5
4BF
330
1F
100
AcDbEntity
  8
0
100
AcDbLine
 10
2935.649483207566
 20
1442.965832535901
 30
0.0
 11
2934.295637555399
 21
1442.965832535898
 31
0.0
  0
LINE
  5
4C0
330
1F
100
AcDbEntity
  8
0
100
AcDbLine
 10
2933.395637555403
 20
1441.526804866105
 30
0.0
 11
2929.448676132567
 21
1441.526804866095
 31
0.0
  0
LINE
  5
4C1
330
1F
100
AcDbEntity
  8
0
100
AcDbLine
 10
2938.499483207567
 20
1442.282230116561
 30
0.0
 11
2935.749483207569
 21
1442.282230116554
 31
0.0
  0
LINE
  5
4C2
330
1F
100
AcDbEntity
  8
0
100
AcDbLine
 10
2933.297644672116
 20
1441.676804866105
 30
0.0
 11
2932.297644672116
 21
1441.676804866102
 31
0.0
  0
LINE
  5
4C3
330
1F
100
AcDbEntity
  8
0
100
AcDbLine
 10
2932.197644672116
 20
1441.676804866102
 30
0.0
 11
2929.448676132567
 21
1441.676804866096
 31
0.0
  0
LINE
  5
4C4
330
1F
100
AcDbEntity
  8
0
100
AcDbLine
 10
2938.499483207562
 20
1445.031360659065
 30
0.0
 11
2936.845602455539
 21
1445.03136065906
 31
0.0
  0
LINE
  5
4C5
330
1F
100
AcDbEntity
  8
0
100
AcDbLine
 10
2935.649483207558
 20
1447.163876194968
 30
0.0
 11
2933.054767525033
 21
1447.163876194962
 31
0.0
  0
LINE
  5
4C6
330
1F
100
AcDbEntity
  8
0
100
AcDbLine
 10
2932.734435088828
 20
1446.035133342357
 30
0.0
 11
2930.546669015842
 21
1446.035133342351
 31
0.0
  0
LINE
  5
4C7
330
1F
100
AcDbEntity
  8
0
100
AcDbLine
 10
2930.446669015842
 20
1446.035133342351
 30
0.0
 11
2929.44666901584
 21
1446.035133342348
 31
0.0
  0
LINE
  5
4C8
330
1F
100
AcDbEntity
  8
0
100
AcDbLine
 10
2933.395637555395
 20
1444.835133342358
 30
0.0
 11
2933.295637555397
 21
1444.835133342357
 31
0.0
  0
LINE
  5
4C9
330
1F
100
AcDbEntity
  8
0
100
AcDbLine
 10
2931.445637555397
 20
1444.835133342354
 30
0.0
 11
2930.546669015845
 21
1444.835133342351
 31
0.0
  0
LINE
  5
4CA
330
1F
100
AcDbEntity
  8
0
100
AcDbLine
 10
2930.446669015845
 20
1444.835133342351
 30
0.0
 11
2929.446669015843
 21
1444.835133342348
 31
0.0
  0
LINE
  5
4CB
330
1F
100
AcDbEntity
  8
0
100
AcDbLine
 10
2932.295637555398
 20
1444.735133342356
 30
0.0
 11
2932.195637555397
 21
1444.735133342356
 31
0.0
  0
LINE
  5
4CC
330
1F
100
AcDbEntity
  8
0
100
AcDbLine
 10
2931.445637555397
 20
1444.735133342354
 30
0.0
 11
2929.346669015845
 21
1444.735133342348
 31
0.0
  0
LINE
  5
4CD
330
1F
100
AcDbEntity
  8
0
100
AcDbLine
 10
2932.546272903624
 20
1443.835133342357
 30
0.0
 11
2932.195637555399
 21
1443.835133342356
 31
0.0
  0
LINE
  5
4CE
330
1F
100
AcDbEntity
  8
0
100
AcDbLine
 10
2932.546336453593
 20
1443.735133342357
 30
0.0
 11
2932.295730549434
 21
1443.735133342356
 31
0.0
  0
LINE
  5
4CF
330
1F
100
AcDbEntity
  8
0
100
AcDbLine
 10
2932.195730549433
 20
1443.735133342356
 30
0.0
 11
2932.195637555399
 21
1443.735133342356
 31
0.0
  0
LINE
  5
4D0
330
1F
100
AcDbEntity
  8
0
100
AcDbLine
 10
2938.649483207563
 20
1445.181360659065
 30
0.0
 11
2936.995602455539
 21
1445.181360659061
 31
0.0
  0
LINE
  5
4D1
330
1F
100
AcDbEntity
  8
0
100
AcDbLine
 10
2935.749483207563
 20
1445.347542175688
 30
0.0
 11
2935.649483207562
 21
1445.347542175688
 31
0.0
  0
LINE
  5
4D2
330
1F
100
AcDbEntity
  8
0
100
AcDbLine
 10
2936.845602455539
 20
1446.247542175691
 30
0.0
 11
2935.649483207561
 21
1446.247542175688
 31
0.0
  0
LINE
  5
4D3
330
1F
100
AcDbEntity
  8
0
100
AcDbLine
 10
2936.995602455537
 20
1446.397542175692
 30
0.0
 11
2935.749483207558
 21
1446.397542175688
 31
0.0
  0
LINE
  5
4D4
330
1F
100
AcDbEntity
  8
0
100
AcDbLine
 10
2935.749483207554
 20
1447.313876194968
 30
0.0
 11
2933.204767525031
 21
1447.313876194962
 31
0.0
  0
LINE
  5
4D5
330
1F
100
AcDbEntity
  8
0
100
AcDbLine
 10
2932.734435088829
 20
1446.185133342357
 30
0.0
 11
2929.446669015841
 21
1446.185133342348
 31
0.0
  0
LINE
  5
4D6
330
1F
100
AcDbEntity
  8
0
100
AcDbLine
 10
2933.204767525029
 20
1449.285133342358
 30
0.0
 11
2929.624606094932
 21
1449.285133342348
 31
0.0
  0
LINE
  5
4D7
330
1F
100
AcDbEntity
  8
0
100
AcDbLine
 10
2931.708881588307
 20
1450.285133342354
 30
0.0
 11
2928.724606094928
 21
1450.285133342346
 31
0.0
  0
LINE
  5
4D8
330
1F
100
AcDbEntity
  8
0
100
AcDbLine
 10
2931.608881588307
 20
1450.185133342354
 30
0.0
 11
2928.724606094929
 21
1450.185133342346
 31
0.0
  0
LINE
  5
4D9
330
1F
100
AcDbEntity
  8
0
100
AcDbLine
 10
2933.05476752503
 20
1449.135133342358
 30
0.0
 11
2929.624606094932
 21
1449.135133342349
 31
0.0
  0
LINE
  5
4DA
330
1F
100
AcDbEntity
  8
0
100
AcDbLine
 10
2933.204767525028
 20
1449.285133342358
 30
0.0
 11
2933.204767525031
 21
1447.313876194962
 31
0.0
  0
LINE
  5
4DB
330
1F
100
AcDbEntity
  8
0
100
AcDbLine
 10
2932.734435088828
 20
1446.185133342357
 30
0.0
 11
2932.734435088828
 21
1446.035133342356
 31
0.0
  0
LINE
  5
4DC
330
1F
100
AcDbEntity
  8
0
100
AcDbLine
 10
2933.05476752503
 20
1449.135133342358
 30
0.0
 11
2933.054767525033
 21
1447.163876194962
 31
0.0
  0
LINE
  5
4DD
330
1F
100
AcDbEntity
  8
0
100
AcDbLine
 10
2933.395637555395
 20
1444.835133342357
 30
0.0
 11
2933.395637555403
 21
1441.526804866105
 31
0.0
  0
LINE
  5
4DE
330
1F
100
AcDbEntity
  8
0
100
AcDbLine
 10
2934.295637555399
 20
1442.965832535898
 30
0.0
 11
2934.295637555399
 21
1442.815832535898
 31
0.0
  0
LINE
  5
4DF
330
1F
100
AcDbEntity
  8
0
100
AcDbLine
 10
2933.295637555398
 20
1444.835133342357
 30
0.0
 11
2933.297644672116
 21
1441.676804866105
 31
0.0
  0
LINE
  5
4E0
330
1F
100
AcDbEntity
  8
0
100
AcDbLine
 10
2932.546272903624
 20
1443.835133342357
 30
0.0
 11
2932.546336453593
 21
1443.735133342357
 31
0.0
  0
LINE
  5
4E1
330
1F
100
AcDbEntity
  8
0
100
AcDbLine
 10
2932.295730549434
 20
1443.735133342356
 30
0.0
 11
2932.297644672116
 21
1441.676804866102
 31
0.0
  0
LINE
  5
4E2
330
1F
100
AcDbEntity
  8
0
100
AcDbLine
 10
2932.195637555399
 20
1443.835133342357
 30
0.0
 11
2932.197644672116
 21
1441.676804866102
 31
0.0
  0
LINE
  5
4E3
330
1F
100
AcDbEntity
  8
0
100
AcDbLine
 10
2922.22460609493
 20
1449.835133342335
 30
0.0
 11
2922.224606094931
 21
1449.385133342335
 31
0.0
  0
LINE
  5
4E4
330
1F
100
AcDbEntity
  8
0
100
AcDbLine
 10
2922.12460609493
 20
1449.735133342334
 30
0.0
 11
2922.124606094931
 21
1449.385133342334
 31
0.0
  0
LINE
  5
4E5
330
1F
100
AcDbEntity
  8
0
100
AcDbLine
 10
2923.124606094932
 20
1449.835133342337
 30
0.0
 11
2923.224606094932
 21
1449.835133342337
 31
0.0
  0
LINE
  5
4E6
330
1F
100
AcDbEntity
  8
0
100
AcDbLine
 10
2924.574606094934
 20
1448.53513334234
 30
0.0
 11
2923.574606094937
 21
1447.085133342337
 31
0.0
  0
LINE
  5
4E7
330
1F
100
AcDbEntity
  8
0
100
AcDbLine
 10
2923.574606094935
 20
1448.535133342337
 30
0.0
 11
2924.574606094937
 21
1447.085133342338
 31
0.0
  0
LINE
  5
4E8
330
1F
100
AcDbEntity
  8
0
100
AcDbLine
 10
2926.224606094932
 20
1448.635133342344
 30
0.0
 11
2926.374606094932
 21
1448.635133342344
 31
0.0
  0
LINE
  5
4E9
330
1F
100
AcDbEntity
  8
0
100
AcDbLine
 10
2926.22460609493
 20
1449.535133342344
 30
0.0
 11
2926.374606094932
 21
1449.535133342345
 31
0.0
  0
LINE
  5
4EA
330
1F
100
AcDbEntity
  8
0
100
AcDbLine
 10
2927.474606094931
 20
1449.375133342347
 30
0.0
 11
2928.574606094931
 21
1449.375133342348
 31
0.0
  0
LINE
  5
4EB
330
1F
100
AcDbEntity
  8
0
100
AcDbLine
 10
2927.474606094932
 20
1449.125133342347
 30
0.0
 11
2928.574606094932
 21
1449.125133342348
 31
0.0
  0
LINE
  5
4EC
330
1F
100
AcDbEntity
  8
0
100
AcDbLine
 10
2926.374606094932
 20
1449.625133342344
 30
0.0
 11
2928.57460609493
 21
1449.625133342348
 31
0.0
  0
LINE
  5
4ED
330
1F
100
AcDbEntity
  8
0
100
AcDbLine
 10
2926.374606094931
 20
1449.875133342344
 30
0.0
 11
2928.57460609493
 21
1449.875133342348
 31
0.0
  0
LINE
  5
4EE
330
1F
100
AcDbEntity
  8
0
100
AcDbLine
 10
2926.37460609493
 20
1450.125133342344
 30
0.0
 11
2928.57460609493
 21
1450.125133342348
 31
0.0
  0
LINE
  5
4EF
330
1F
100
AcDbEntity
  8
0
100
AcDbLine
 10
2926.37460609493
 20
1450.375133342344
 30
0.0
 11
2928.574606094929
 21
1450.375133342348
 31
0.0
  0
LINE
  5
4F0
330
1F
100
AcDbEntity
  8
0
100
AcDbLine
 10
2926.374606094929
 20
1450.625133342344
 30
0.0
 11
2928.574606094928
 21
1450.625133342348
 31
0.0
  0
LINE
  5
4F1
330
1F
100
AcDbEntity
  8
0
100
AcDbLine
 10
2926.374606094928
 20
1450.875133342344
 30
0.0
 11
2928.574606094927
 21
1450.875133342348
 31
0.0
  0
LINE
  5
4F2
330
1F
100
AcDbEntity
  8
0
100
AcDbLine
 10
2926.374606094928
 20
1451.125133342344
 30
0.0
 11
2928.574606094927
 21
1451.125133342348
 31
0.0
  0
LINE
  5
4F3
330
1F
100
AcDbEntity
  8
0
100
AcDbLine
 10
2926.374606094928
 20
1451.375133342344
 30
0.0
 11
2928.574606094927
 21
1451.375133342348
 31
0.0
  0
LINE
  5
4F4
330
1F
100
AcDbEntity
  8
0
100
AcDbLine
 10
2928.724606094925
 20
1452.727873966023
 30
0.0
 11
2926.374606094924
 21
1452.727873966018
 31
0.0
  0
LINE
  5
4F5
330
1F
100
AcDbEntity
  8
0
100
AcDbLine
 10
2928.574606094924
 20
1452.577873966022
 30
0.0
 11
2926.374606094925
 21
1452.577873966018
 31
0.0
  0
LINE
  5
4F6
330
1F
100
AcDbEntity
  8
0
100
AcDbLine
 10
2927.474606094926
 20
1451.375133342346
 30
0.0
 11
2927.474606094932
 21
1449.125133342347
 31
0.0
  0
LINE
  5
4F7
330
1F
100
AcDbEntity
  8
0
100
AcDbLine
 10
2923.124606094932
 20
1449.385133342337
 30
0.0
 11
2923.124606094935
 21
1448.635133342337
 31
0.0
  0
LINE
  5
4F8
330
1F
100
AcDbEntity
  8
0
100
AcDbLine
 10
2922.224606094931
 20
1449.385133342335
 30
0.0
 11
2922.224606094934
 21
1448.635133342335
 31
0.0
  0
LINE
  5
4F9
330
1F
100
AcDbEntity
  8
0
100
AcDbLine
 10
2923.424606094938
 20
1445.685133342336
 30
0.0
 11
2922.524606094942
 21
1445.685133342334
 31
0.0
  0
LINE
  5
4FA
330
1F
100
AcDbEntity
  8
0
100
AcDbLine
 10
2921.674606094939
 20
1445.685133342332
 30
0.0
 11
2922.42460609494
 21
1445.685133342334
 31
0.0
  0
LINE
  5
4FB
330
1F
100
AcDbEntity
  8
0
100
AcDbLine
 10
2924.124606094932
 20
1449.735133342339
 30
0.0
 11
2924.124606094933
 21
1448.635133342339
 31
0.0
  0
LINE
  5
4FC
330
1F
100
AcDbEntity
  8
0
100
AcDbLine
 10
2925.014709788808
 20
1455.207693812146
 30
0.0
 11
2925.014709788809
 21
1454.207693812146
 31
0.0
  0
LINE
  5
4FD
330
1F
100
AcDbEntity
  8
0
100
AcDbLine
 10
2924.914709788808
 20
1455.107693812145
 30
0.0
 11
2924.91470978881
 21
1454.207693812146
 31
0.0
  0
MTEXT
  5
4FE
102
{ACAD_XDICTIONARY
360
4FF
102
}
330
1F
100
AcDbEntity
  8
0
100
AcDbMText
 10
2925.85475514104
 20
1452.333197881934
 30
0.0
 40
0.2
 41
2.211096954099958
 71
     3
 72
     5
  1
{\FArial Narrow;\W2.30559; }LIVING\P{\FArial Narrow;\W0.75797; }3.00X4.22        {\FArial Narrow;\W0.75797; }(10'0"X14'0")
  7
AN
1001
ACAD
1000
ACAD_MTEXT_DEFINED_HEIGHT_BEGIN
1070
    46
1040
0.4826164889144779
1000
ACAD_MTEXT_DEFINED_HEIGHT_END
  0
LINE
  5
500
330
1F
100
AcDbEntity
  8
0
100
AcDbLine
 10
2923.12460609492
 20
1455.524046894247
 30
0.0
 11
2923.224606094917
 21
1455.524046894247
 31
0.0
  0
LINE
  5
501
330
1F
100
AcDbEntity
  8
0
100
AcDbLine
 10
2923.224606094916
 20
1455.524046894247
 30
0.0
 11
2923.224606094915
 21
1456.524046894247
 31
0.0
  0
LINE
  5
502
330
1F
100
AcDbEntity
  8
0
100
AcDbLine
 10
2919.97460609492
 20
1455.524046894241
 30
0.0
 11
2919.97460609492
 21
1456.524046894241
 31
0.0
  0
MTEXT
  5
503
102
{ACAD_XDICTIONARY
360
504
102
}
330
1F
100
AcDbEntity
  8
0
100
AcDbMText
 10
2922.481458559276
 20
1454.191418749087
 30
0.0
 40
0.2
 41
2.211096954099958
 71
     3
 72
     5
  1
{\FArial Narrow;\W2.13892; }BED\P3.00X2.94        (10'0"X9'8")
  7
AN
1001
ACAD
1000
ACAD_MTEXT_DEFINED_HEIGHT_BEGIN
1070
    46
1040
0.4826164889144779
1000
ACAD_MTEXT_DEFINED_HEIGHT_END
  0
MTEXT
  5
505
102
{ACAD_XDICTIONARY
360
506
102
}
330
1F
100
AcDbEntity
  8
0
100
AcDbMText
 10
2922.481458559281
 20
1451.628583719236
 30
0.0
 40
0.2
 41
2.211096954099958
 71
     3
 72
     5
  1
{\FArial Narrow;\W0.54369; }KITCHEN\P3.00X2.50        (10'0"X8'2")
  7
AN
1001
ACAD
1000
ACAD_MTEXT_DEFINED_HEIGHT_BEGIN
1070
    46
1040
0.4826164889144779
1000
ACAD_MTEXT_DEFINED_HEIGHT_END
  0
MTEXT
  5
507
330
1F
100
AcDbEntity
  8
0
100
AcDbMText
 10
2922.717925916876
 20
1455.839663060134
 30
0.0
 40
0.2
 41
2.783809893604484
 71
     9
 72
     5
  1
3'3'' WIDE BALCONY
  7
AN
1001
ACAD
1000
ACAD_MTEXT_DEFINED_HEIGHT_BEGIN
1070
    46
1040
0.9536097476146965
1000
ACAD_MTEXT_DEFINED_HEIGHT_END
  0
MTEXT
  5
508
330
1F
100
AcDbEntity
  8
0
100
AcDbMText
 10
2924.766937769861
 20
1454.522982652034
 30
0.0
 40
0.2
 41
2.783809893604484
 71
     9
 72
     5
  1
3'3'' W. BAL.
  7
AN
1001
ACAD
1000
ACAD_MTEXT_DEFINED_HEIGHT_BEGIN
1070
    46
1040
0.9536097476146965
1000
ACAD_MTEXT_DEFINED_HEIGHT_END
  0
LINE
  5
509
330
1F
100
AcDbEntity
  8
0
100
AcDbLine
 10
2922.224606094918
 20
1455.524046894245
 30
0.0
 11
2923.124606094918
 21
1455.524046894247
 31
0.0
  0
MTEXT
  5
50A
102
{ACAD_XDICTIONARY
360
50B
102
}
330
1F
100
AcDbEntity
  8
0
100
AcDbMText
 10
2922.254158539054
 20
1449.653547544437
 30
0.0
 40
0.2
 41
2.211096954099958
 71
     3
 72
     5
  1
{\FArial Narrow;\W0.82940; }BATH\P2.00X1.10        (6'6"X3'7")
  7
AN
1001
ACAD
1000
ACAD_MTEXT_DEFINED_HEIGHT_BEGIN
1070
    46
1040
0.4826164889144779
1000
ACAD_MTEXT_DEFINED_HEIGHT_END
  0
MTEXT
  5
50C
102
{ACAD_XDICTIONARY
360
50D
102
}
330
1F
100
AcDbEntity
  8
0
100
AcDbMText
 10
2924.770026254863
 20
1449.472896400337
 30
0.0
 40
0.1
 41
2.211096954099958
 71
     3
 72
     5
  1
WC\P0.90X1.10\P  (3'0"X3'7")
  7
AN
1001
ACAD
1000
ACAD_MTEXT_DEFINED_HEIGHT_BEGIN
1070
    46
1040
0.4826164889144779
1000
ACAD_MTEXT_DEFINED_HEIGHT_END
  0
MTEXT
  5
50E
102
{ACAD_XDICTIONARY
360
50F
102
}
330
1F
100
AcDbEntity
  8
0
100
AcDbMText
 10
2928.952080185199
 20
1444.620094347506
 30
0.0
 40
0.2
 41
2.211096954099958
 71
     3
 72
     5
  1
{\FArial Narrow;\W2.30559; }LIVING\P{\FArial Narrow;\W0.75797; }3.02X4.82        {\FArial Narrow;\W0.75797; }(10'0"X16'0")
  7
AN
1001
ACAD
1000
ACAD_MTEXT_DEFINED_HEIGHT_BEGIN
1070
    46
1040
0.4826164889144779
1000
ACAD_MTEXT_DEFINED_HEIGHT_END
  0
MTEXT
  5
510
102
{ACAD_XDICTIONARY
360
511
102
}
330
1F
100
AcDbEntity
  8
0
100
AcDbMText
 10
2926.101797887356
 20
1444.022958900473
 30
0.0
 40
0.2
 41
2.211096954099958
 71
     3
 72
     5
  1
{\FArial Narrow;\W0.54369; }KITCHEN\P2.70X3.93        (9'0"X13'0")
  7
AN
1001
ACAD
1000
ACAD_MTEXT_DEFINED_HEIGHT_BEGIN
1070
    46
1040
0.4826164889144779
1000
ACAD_MTEXT_DEFINED_HEIGHT_END
  0
LINE
  5
512
330
1F
100
AcDbEntity
  8
0
100
AcDbLine
 10
2926.224606094949
 20
1440.803099444036
 30
0.0
 11
2926.224606094949
 21
1441.066685776542
 31
0.0
  0
LINE
  5
513
330
1F
100
AcDbEntity
  8
0
100
AcDbLine
 10
2922.524606094948
 20
1441.342082494877
 30
0.0
 11
2923.424606094948
 21
1441.342082494878
 31
0.0
  0
LINE
  5
514
330
1F
100
AcDbEntity
  8
0
100
AcDbLine
 10
2924.424606094947
 20
1441.703099444032
 30
0.0
 11
2923.524606094948
 21
1441.703099444031
 31
0.0
  0
LINE
  5
515
330
1F
100
AcDbEntity
  8
0
100
AcDbLine
 10
2919.974606094951
 20
1440.342082494871
 30
0.0
 11
2919.97460609495
 21
1441.342082494871
 31
0.0
  0
LINE
  5
516
330
1F
100
AcDbEntity
  8
0
100
AcDbLine
 10
2920.124606094951
 20
1440.442082494872
 30
0.0
 11
2920.12460609495
 21
1441.342082494871
 31
0.0
  0
MTEXT
  5
517
102
{ACAD_XDICTIONARY
360
518
102
}
330
1F
100
AcDbEntity
  8
0
100
AcDbMText
 10
2922.666532682661
 20
1443.445233180086
 30
0.0
 40
0.2
 41
2.211096954099958
 71
     3
 72
     5
  1
{\FArial Narrow;\W2.13892; }BED\P3.30X2.89        (11'0"X9'6")
  7
AN
1001
ACAD
1000
ACAD_MTEXT_DEFINED_HEIGHT_BEGIN
1070
    46
1040
0.4826164889144779
1000
ACAD_MTEXT_DEFINED_HEIGHT_END
  0
MTEXT
  5
519
330
1F
100
AcDbEntity
  8
0
100
AcDbMText
 10
2922.738393951504
 20
1440.705822002089
 30
0.0
 40
0.2
 41
2.783809893604484
 71
     9
 72
     5
  1
3'3'' WIDE BALCONY
  7
AN
1001
ACAD
1000
ACAD_MTEXT_DEFINED_HEIGHT_BEGIN
1070
    46
1040
0.9536097476146965
1000
ACAD_MTEXT_DEFINED_HEIGHT_END
  0
MTEXT
  5
51A
330
1F
100
AcDbEntity
  8
0
100
AcDbMText
 10
2925.913086149364
 20
1441.105283887598
 30
0.0
 40
0.2
 41
2.783809893604484
 71
     9
 72
     5
  1
3'3'' WIDE BALCONY
  7
AN
1001
ACAD
1000
ACAD_MTEXT_DEFINED_HEIGHT_BEGIN
1070
    46
1040
0.9536097476146965
1000
ACAD_MTEXT_DEFINED_HEIGHT_END
  0
MTEXT
  5
51B
102
{ACAD_XDICTIONARY
360
51C
102
}
330
1F
100
AcDbEntity
  8
0
100
AcDbMText
 10
2922.666532682652
 20
1447.722092991275
 30
0.0
 40
0.2
 41
2.211096954099958
 71
     3
 72
     5
  1
{\FArial Narrow;\W2.13892; }BED\P3.30X2.75        (11'0"X9'1")
  7
AN
1001
ACAD
1000
ACAD_MTEXT_DEFINED_HEIGHT_BEGIN
1070
    46
1040
0.4826164889144779
1000
ACAD_MTEXT_DEFINED_HEIGHT_END
  0
MTEXT
  5
51D
102
{ACAD_XDICTIONARY
360
51E
102
}
330
1F
100
AcDbEntity
  8
0
100
AcDbMText
 10
2922.254158539062
 20
1445.497802435513
 30
0.0
 40
0.2
 41
2.211096954099958
 71
     3
 72
     5
  1
{\FArial Narrow;\W0.32940; }TOILET\P2.30X1.20        (7'7"X4'0")
  7
AN
1001
ACAD
1000
ACAD_MTEXT_DEFINED_HEIGHT_BEGIN
1070
    46
1040
0.4826164889144779
1000
ACAD_MTEXT_DEFINED_HEIGHT_END
  0
LINE
  5
51F
330
1F
100
AcDbEntity
  8
0
100
AcDbLine
 10
2922.224606094926
 20
1452.335133342334
 30
0.0
 11
2923.124606094925
 21
1452.335133342336
 31
0.0
  0
MTEXT
  5
520
102
{ACAD_XDICTIONARY
360
521
102
}
330
1F
100
AcDbEntity
  8
0
100
AcDbMText
 10
2925.635703049037
 20
1446.801269470968
 30
0.0
 40
0.2
 41
2.211096954099958
 71
     3
 72
     5
  1
{\FArial Narrow;\W0.32940; }TOILET\P1.85X1.20        (6'1"X4'0")
  7
AN
1001
ACAD
1000
ACAD_MTEXT_DEFINED_HEIGHT_BEGIN
1070
    46
1040
0.4826164889144779
1000
ACAD_MTEXT_DEFINED_HEIGHT_END
  0
LINE
  5
522
330
1F
100
AcDbEntity
  8
0
100
AcDbLine
 10
2925.474606094937
 20
1446.23513334234
 30
0.0
 11
2925.474606094936
 21
1446.98513334234
 31
0.0
  0
LINE
  5
523
330
1F
100
AcDbEntity
  8
0
100
AcDbLine
 10
2926.374606094932
 20
1449.535133342345
 30
0.0
 11
2926.374606094933
 21
1448.635133342344
 31
0.0
  0
MTEXT
  5
524
102
{ACAD_XDICTIONARY
360
525
102
}
330
1F
100
AcDbEntity
  8
0
100
AcDbMText
 10
2926.544358622496
 20
1448.256065900969
 30
0.0
 40
0.2
 41
2.211096954099958
 71
     3
 72
     5
  1
{\FArial Narrow;\W1.18654; }LIFT\P1.50X1.35        (5'1"X4'6")
  7
AN
1001
ACAD
1000
ACAD_MTEXT_DEFINED_HEIGHT_BEGIN
1070
    46
1040
0.4826164889144779
1000
ACAD_MTEXT_DEFINED_HEIGHT_END
  0
LINE
  5
526
330
1F
100
AcDbEntity
  8
0
100
AcDbLine
 10
2926.224606094934
 20
1447.360133342343
 30
0.0
 11
2926.374606094935
 21
1447.360133342343
 31
0.0
  0
LINE
  5
527
330
1F
100
AcDbEntity
  8
0
100
AcDbLine
 10
2926.224606094932
 20
1448.260133342342
 30
0.0
 11
2926.374606094933
 21
1448.260133342343
 31
0.0
  0
LINE
  5
528
330
1F
100
AcDbEntity
  8
0
100
AcDbLine
 10
2928.574606094936
 20
1447.085133342347
 30
0.0
 11
2928.574606094938
 21
1446.185133342346
 31
0.0
  0
LINE
  5
529
330
1F
100
AcDbEntity
  8
0
100
AcDbLine
 10
2927.274606094938
 20
1446.185133342344
 30
0.0
 11
2926.374606094938
 21
1446.185133342342
 31
0.0
  0
LINE
  5
52A
330
1F
100
AcDbEntity
  8
0
100
AcDbLine
 10
2932.195637555397
 20
1444.735133342355
 30
0.0
 11
2932.195637555394
 21
1446.035133342355
 31
0.0
  0
LINE
  5
52B
330
1F
100
AcDbEntity
  8
0
100
AcDbLine
 10
2931.445637555397
 20
1444.735133342353
 30
0.0
 11
2931.445637555397
 21
1444.835133342354
 31
0.0
  0
LINE
  5
52C
330
1F
100
AcDbEntity
  8
0
100
AcDbLine
 10
2932.295637555398
 20
1444.735133342356
 30
0.0
 11
2932.295637555394
 21
1446.035133342355
 31
0.0
  0
LINE
  5
52D
330
1F
100
AcDbEntity
  8
0
100
AcDbLine
 10
2929.446669015842
 20
1446.035133342348
 30
0.0
 11
2930.446669015845
 21
1444.835133342351
 31
0.0
  0
LINE
  5
52E
330
1F
100
AcDbEntity
  8
0
100
AcDbLine
 10
2929.446669015845
 20
1444.835133342348
 30
0.0
 11
2930.446669015841
 21
1446.035133342351
 31
0.0
  0
LINE
  5
52F
330
1F
100
AcDbEntity
  8
0
100
AcDbLine
 10
2932.295637555398
 20
1444.735133342356
 30
0.0
 11
2932.295637555399
 21
1443.835133342357
 31
0.0
  0
LINE
  5
530
330
1F
100
AcDbEntity
  8
0
100
AcDbLine
 10
2935.649483207569
 20
1441.915832535903
 30
0.0
 11
2935.649483207568
 21
1442.132230116553
 31
0.0
  0
LINE
  5
531
330
1F
100
AcDbEntity
  8
0
100
AcDbLine
 10
2935.74948320757
 20
1441.815832535902
 30
0.0
 11
2935.749483207569
 21
1442.132230116554
 31
0.0
  0
LINE
  5
532
102
{ACAD_REACTORS
330
557
102
}
330
1F
100
AcDbEntity
  8
0
100
AcDbLine
 10
2931.708881588307
 20
1450.285133342354
 30
0.0
 11
2931.70888158831
 21
1449.285133342354
 31
0.0
  0
LINE
  5
533
330
1F
100
AcDbEntity
  8
0
100
AcDbLine
 10
2931.608881588307
 20
1450.185133342354
 30
0.0
 11
2931.608881588309
 21
1449.285133342354
 31
0.0
  0
MTEXT
  5
534
330
1F
100
AcDbEntity
  8
0
100
AcDbMText
 10
2931.334183618063
 20
1449.66883356435
 30
0.0
 40
0.2
 41
2.783809893604484
 71
     9
 72
     5
  1
3'3'' WIDE BALCONY
  7
AN
1001
ACAD
1000
ACAD_MTEXT_DEFINED_HEIGHT_BEGIN
1070
    46
1040
0.9536097476146965
1000
ACAD_MTEXT_DEFINED_HEIGHT_END
  0
MTEXT
  5
535
330
1F
100
AcDbEntity
  8
0
100
AcDbMText
 10
2935.396690822276
 20
1442.240529416983
 30
0.0
 40
0.16
 41
2.227047914883588
 71
     9
 72
     5
  1
3'3'' WIDE BALCONY
  7
AN
1001
ACAD
1000
ACAD_MTEXT_DEFINED_HEIGHT_BEGIN
1070
    46
1040
0.7628877980917572
1000
ACAD_MTEXT_DEFINED_HEIGHT_END
  0
MTEXT
  5
536
102
{ACAD_XDICTIONARY
360
537
102
}
330
1F
100
AcDbEntity
  8
0
100
AcDbMText
 10
2931.891178670922
 20
1448.275559665892
 30
0.0
 40
0.2
 41
2.211096954099958
 71
     3
 72
     5
  1
{\FArial Narrow;\W1.35321; }LIVING\P4.33X2.95        (14'3"X9'8")
  7
AN
1001
ACAD
1000
ACAD_MTEXT_DEFINED_HEIGHT_BEGIN
1070
    46
1040
0.4826164889144779
1000
ACAD_MTEXT_DEFINED_HEIGHT_END
  0
MTEXT
  5
538
102
{ACAD_XDICTIONARY
360
539
102
}
330
1F
100
AcDbEntity
  8
0
100
AcDbMText
 10
2931.854297734905
 20
1443.859364411612
 30
0.0
 40
0.2
 41
2.211096954099958
 71
     3
 72
     5
  1
{\FArial Narrow;\W2.13892; }BED\P2.75X3.06        (9'0"X10'0")
  7
AN
1001
ACAD
1000
ACAD_MTEXT_DEFINED_HEIGHT_BEGIN
1070
    46
1040
0.4826164889144779
1000
ACAD_MTEXT_DEFINED_HEIGHT_END
  0
MTEXT
  5
53A
102
{ACAD_XDICTIONARY
360
53B
102
}
330
1F
100
AcDbEntity
  8
0
100
AcDbMText
 10
2932.517254297623
 20
1445.813823661641
 30
0.0
 40
0.2
 41
2.211096954099958
 71
     3
 72
     5
  1
{\FArial Narrow;\W0.32940; }TOILET\P1.65X1.20        (5'6"X4'0")
  7
AN
1001
ACAD
1000
ACAD_MTEXT_DEFINED_HEIGHT_BEGIN
1070
    46
1040
0.4826164889144779
1000
ACAD_MTEXT_DEFINED_HEIGHT_END
  0
LINE
  5
53C
330
1F
100
AcDbEntity
  8
0
100
AcDbLine
 10
2931.445637555397
 20
1444.735133342353
 30
0.0
 11
2932.195637555397
 21
1444.735133342355
 31
0.0
  0
LINE
  5
53D
330
1F
100
AcDbEntity
  8
0
100
AcDbLine
 10
2932.546272903624
 20
1443.835133342357
 30
0.0
 11
2933.296272752177
 21
1443.835609967017
 31
0.0
  0
MTEXT
  5
53E
102
{ACAD_XDICTIONARY
360
53F
102
}
330
1F
100
AcDbEntity
  8
0
100
AcDbMText
 10
2933.68503050192
 20
1442.99254193694
 30
0.0
 40
0.16
 41
1.768877563279966
 71
     3
 72
     5
  1
{\FArial Narrow;\W0.32940; }TOILET\P1.00X2.06        (3'3"X6'9")
  7
AN
1001
ACAD
1000
ACAD_MTEXT_DEFINED_HEIGHT_BEGIN
1070
    46
1040
0.3860931911315824
1000
ACAD_MTEXT_DEFINED_HEIGHT_END
  0
LINE
  5
540
330
1F
100
AcDbEntity
  8
0
100
AcDbLine
 10
2934.295637555399
 20
1442.815832535898
 30
0.0
 11
2933.3956375554
 21
1442.815832535896
 31
0.0
  0
MTEXT
  5
541
102
{ACAD_XDICTIONARY
360
542
102
}
330
1F
100
AcDbEntity
  8
0
100
AcDbMText
 10
2935.674483207562
 20
1444.849754768566
 30
0.0
 40
0.2
 41
2.211096954099958
 71
     3
 72
     5
  1
{\FArial Narrow;\W0.54369; }KITCHEN\P2.25X4.20        (7'6"X14'0")
  7
AN
1001
ACAD
1000
ACAD_MTEXT_DEFINED_HEIGHT_BEGIN
1070
    46
1040
0.4826164889144779
1000
ACAD_MTEXT_DEFINED_HEIGHT_END
  0
MTEXT
  5
543
102
{ACAD_XDICTIONARY
360
544
102
}
330
1F
100
AcDbEntity
  8
0
100
AcDbMText
 10
2938.214116211423
 20
1444.197549951951
 30
0.0
 40
0.2
 41
2.211096954099958
 71
     3
 72
     5
  1
{\FArial Narrow;\W1.18654; }BED\P2.75X2.75        (9'1"X9'1")
  7
AN
1001
ACAD
1000
ACAD_MTEXT_DEFINED_HEIGHT_BEGIN
1070
    46
1040
0.4826164889144779
1000
ACAD_MTEXT_DEFINED_HEIGHT_END
  0
LINE
  5
545
330
1F
100
AcDbEntity
  8
0
100
AcDbLine
 10
2935.64948320756
 20
1445.347542175688
 30
0.0
 11
2935.64948320756
 21
1446.247542175688
 31
0.0
  0
LWPOLYLINE
  5
546
330
1F
100
AcDbEntity
  8
0
100
AcDbPolyline
 90
       17
 70
     1
 43
0.0
 10
2926.374606094938
 20
1446.035133342342
 10
2926.374606094938
 20
1446.185133342342
 10
2927.274606094938
 20
1446.185133342344
 10
2927.274606094938
 20
1446.035133342344
 10
2929.346669015841
 20
1446.035133342348
 10
2929.34666901585
 20
1441.216685776548
 10
2926.224606094949
 20
1441.216685776542
 10
2926.224606094949
 20
1440.803099444036
 10
2923.524606094949
 20
1440.803099444031
 10
2923.424606094949
 20
1440.80309944403
 10
2923.42460609495
 20
1440.442082494878
 10
2920.124606094951
 20
1440.442082494874
 10
2920.124606094932
 20
1448.53513334233
 10
2923.424606094934
 20
1448.535133342335
 10
2923.424606094937
 20
1446.985133342336
 10
2926.224606094936
 20
1446.985133342342
 10
2926.224606094937
 20
1446.035133342342
  0
LWPOLYLINE
  5
547
330
1F
100
AcDbEntity
  8
0
100
AcDbPolyline
 90
       12
 70
     1
 43
0.0
 10
2926.22460609493
 20
1449.535133342344
 10
2926.374606094932
 20
1449.535133342345
 10
2926.374606094933
 20
1448.635133342344
 10
2920.124606094932
 20
1448.63513334233
 10
2920.124606094916
 20
1456.42404689424
 10
2923.124606094918
 20
1456.424046894244
 10
2923.12460609492
 20
1455.524046894248
 10
2923.124606094918
 20
1455.374046894247
 10
2923.124606094919
 20
1455.107693812142
 10
2924.914709788808
 20
1455.107693812145
 10
2924.91470978881
 20
1454.057693812145
 10
2926.22460609492
 20
1454.057693812148
  0
LINE
  5
548
330
1F
100
AcDbEntity
  8
0
100
AcDbLine
 10
2929.624606094932
 20
1449.285133342348
 30
0.0
 11
2928.724606094931
 21
1449.285133342346
 31
0.0
  0
LWPOLYLINE
  5
549
330
1F
100
AcDbEntity
  8
0
100
AcDbPolyline
 90
       22
 70
     1
 43
0.0
 10
2928.724606094936
 20
1447.085133342347
 10
2928.574606094936
 20
1447.085133342347
 10
2928.574606094939
 20
1446.185133342347
 10
2930.546669015842
 20
1446.185133342351
 10
2930.546669015845
 20
1444.735133342352
 10
2929.446669015845
 20
1444.735133342349
 10
2929.448676132567
 20
1441.676804866096
 10
2933.297643117674
 20
1441.679250883361
 10
2933.297643117673
 20
1441.915829839389
 10
2935.649483207569
 20
1441.915829839394
 10
2935.649483207568
 20
1442.282230116554
 10
2938.499483207567
 20
1442.282230116561
 10
2938.499483207562
 20
1445.031360659065
 10
2936.845602455541
 20
1445.03136065906
 10
2936.845602455537
 20
1446.247542175691
 10
2935.649483207561
 20
1446.247542175687
 10
2935.649483207558
 20
1447.163876194968
 10
2933.054767525033
 20
1447.163876194962
 10
2933.054767525028
 20
1449.135133342358
 10
2931.608881588309
 20
1449.135133342355
 10
2931.608881588307
 20
1450.185133342354
 10
2928.724606094929
 20
1450.185133342346
  0
MTEXT
  5
54A
330
1F
100
AcDbEntity
  8
0
100
AcDbMText
 10
2930.045271838069
 20
1446.708476009424
 30
0.0
 40
0.1675209830339041
 41
1.944643468811659
 71
     3
 72
     5
  1
810.00 SQ.FT
  7
AN
1001
ACAD
1000
ACAD_MTEXT_DEFINED_HEIGHT_BEGIN
1070
    46
1040
0.5717629262905654
1000
ACAD_MTEXT_DEFINED_HEIGHT_END
  0
LWPOLYLINE
  5
54B
330
1F
100
AcDbEntity
  8
0
100
AcDbPolyline
 90
        4
 70
     1
 43
0.0
 10
2930.092460071493
 20
1446.811900457135
 10
2928.760908193064
 20
1446.811900457132
 10
2928.760908193065
 20
1446.425239733582
 10
2930.092460071494
 20
1446.425239733584
  0
MTEXT
  5
54C
330
1F
100
AcDbEntity
  8
0
100
AcDbMText
 10
2927.856484854085
 20
1445.795247748132
 30
0.0
 40
0.1675209830339041
 41
1.944643468811659
 71
     3
 72
     5
  1
892.00 SQ.FT
  7
AN
1001
ACAD
1000
ACAD_MTEXT_DEFINED_HEIGHT_BEGIN
1070
    46
1040
0.5717629262905654
1000
ACAD_MTEXT_DEFINED_HEIGHT_END
  0
LWPOLYLINE
  5
54D
330
1F
100
AcDbEntity
  8
0
100
AcDbPolyline
 90
        4
 70
     1
 43
0.0
 10
2927.90367308751
 20
1445.898672195843
 10
2926.57212120908
 20
1445.89867219584
 10
2926.57212120908
 20
1445.51201147229
 10
2927.90367308751
 20
1445.512011472293
  0
MTEXT
  5
54E
330
1F
100
AcDbEntity
  8
0
100
AcDbMText
 10
2926.108653204926
 20
1449.196148712218
 30
0.0
 40
0.1675209830339041
 41
1.944643468811659
 71
     3
 72
     5
  1
636.00 SQ.FT
  7
AN
1001
ACAD
1000
ACAD_MTEXT_DEFINED_HEIGHT_BEGIN
1070
    46
1040
0.5717629262905654
1000
ACAD_MTEXT_DEFINED_HEIGHT_END
  0
LWPOLYLINE
  5
54F
330
1F
100
AcDbEntity
  8
0
100
AcDbPolyline
 90
        4
 70
     1
 43
0.0
 10
2926.15584143835
 20
1449.29957315993
 10
2924.824289559921
 20
1449.299573159927
 10
2924.824289559921
 20
1448.912912436377
 10
2926.155841438351
 20
1448.912912436379
  0
MTEXT
  5
550
330
1F
100
AcDbEntity
  8
0
100
AcDbMText
 10
2936.668438140002
 20
1441.159999023082
 30
0.0
 40
0.3
 41
9.888969489610965
 71
     8
 72
     5
  1
{\T1.5;\L1st TO 5th FLOOR PLAN}
  7
AN
1001
ACAD
1000
ACAD_MTEXT_DEFINED_HEIGHT_BEGIN
1070
    46
1040
0.6826164889145234
1000
ACAD_MTEXT_DEFINED_HEIGHT_END
  0
MTEXT
  5
551
330
1F
100
AcDbEntity
  8
0
100
AcDbMText
 10
2936.832621017526
 20
1440.638382850855
 30
0.0
 40
0.3
 41
9.888969489610965
 71
     8
 72
     5
  1
{\T1.5;\L2338 X5 = 11690 SQFT}
  7
AN
1001
ACAD
1000
ACAD_MTEXT_DEFINED_HEIGHT_BEGIN
1070
    46
1040
0.6826164889145234
1000
ACAD_MTEXT_DEFINED_HEIGHT_END
  0
DIMENSION
  5
552
102
{ACAD_REACTORS
330
554
102
}
102
{ACAD_XDICTIONARY
360
553
102
}
330
1F
100
AcDbEntity
  8
0
100
AcDbDimension
  2
*D9
 10
2917.974606094934
 20
1448.652707539163
 30
0.0
 11
2918.974606094934
 21
1448.652707539165
 31
0.0
 70
    33
  3
DIM
100
AcDbAlignedDimension
 13
2919.974606094935
 23
1448.623764138253
 33
0.0
 14
2917.974606094934
 24
1448.623764138249
 34
0.0
  0
DIMENSION
  5
555
102
{ACAD_REACTORS
330
557
102
}
102
{ACAD_XDICTIONARY
360
556
102
}
330
1F
100
AcDbEntity
  8
0
100
AcDbDimension
  2
*D10
 10
2932.737335311065
 20
1452.011390588671
 30
0.0
 11
2932.223108449685
 21
1451.148261965513
 31
0.0
 70
    33
  3
DIM
100
AcDbAlignedDimension
 13
2931.708881588307
 23
1450.285133342354
 33
0.0
 14
2932.737335311066
 24
1452.011390588671
 34
0.0
  0
DIMENSION
  5
558
102
{ACAD_REACTORS
330
55A
102
}
102
{ACAD_XDICTIONARY
360
559
102
}
330
1F
100
AcDbEntity
  8
0
100
AcDbDimension
  2
*D11
 10
2926.339644364602
 20
1438.691334179908
 30
0.0
 11
2926.332125229775
 21
1439.697216811972
 31
0.0
 70
    33
  3
DIM
100
AcDbAlignedDimension
 13
2926.32460609495
 23
1440.703099444036
 33
0.0
 14
2926.339644364602
 24
1438.691334179909
 34
0.0
  0
DIMENSION
  5
55B
102
{ACAD_REACTORS
330
55D
102
}
102
{ACAD_XDICTIONARY
360
55C
102
}
330
1F
100
AcDbEntity
  8
0
100
AcDbDimension
  2
*D12
 10
2948.15802843112
 20
1442.050377613994
 30
0.0
 11
2933.39529921496
 21
1452.906153271134
 31
0.0
 70
    33
  3
DIM
100
AcDbAlignedDimension
 13
2917.974606094906
 23
1462.86716624581
 33
0.0
 14
2947.500064527226
 24
1441.155614931532
 34
0.0
  0
DIMENSION
  5
55E
102
{ACAD_REACTORS
330
560
102
}
102
{ACAD_XDICTIONARY
360
55F
102
}
330
1F
100
AcDbEntity
  8
0
100
AcDbDimension
  2
*D13
 10
2947.604004499324
 20
1440.263097518558
 30
0.0
 11
2932.841275283188
 21
1438.543873175698
 31
0.0
 70
    33
  3
DIM
100
AcDbAlignedDimension
 13
2917.974606094956
 23
1437.717166245811
 33
0.0
 14
2947.500064527226
 24
1441.155614931532
 34
0.0
  0
DIMENSION
  5
561
102
{ACAD_REACTORS
330
563
102
}
102
{ACAD_XDICTIONARY
360
562
102
}
330
1F
100
AcDbEntity
  8
0
100
AcDbDimension
  2
*D14
 10
2916.906736062197
 20
1437.717166245811
 30
0.0
 11
2916.906736062197
 21
1450.29216624581
 31
0.0
 70
    33
  3
DIM
100
AcDbAlignedDimension
 13
2917.974606094906
 23
1462.86716624581
 33
0.0
 14
2917.974606094956
 24
1437.717166245811
 34
0.0
  0
ENDSEC
  0
SECTION
  2
OBJECTS
  0
DICTIONARY
  5
C
330
0
100
AcDbDictionary
  3
ACAD_CIP_PREVIOUS_PRODUCT_INFO
350
216
  3
ACAD_COLOR
350
6B
  3
ACAD_DETAILVIEWSTYLE
350
21B
  3
ACAD_GROUP
350
D
  3
ACAD_LAST_SAVED_VERSION_INFO
350
5AE
  3
ACAD_LAYOUT
350
1A
  3
ACAD_MATERIAL
350
6A
  3
ACAD_MLEADERSTYLE
350
12D
  3
ACAD_MLINESTYLE
350
17
  3
ACAD_PLOTSETTINGS
350
19
  3
ACAD_SCALELIST
350
10C
  3
ACAD_SECTIONVIEWSTYLE
350
219
  3
ACAD_VISUALSTYLE
350
EF
  3
ACAD_WIPEOUT_VARS
350
5ED
  3
ACDB_RECOMPOSE_DATA
350
5EC
  3
ACDBHEADERROUNDTRIPXREC
350
5AF
  3
ACDBVARIABLEDICTIONARY
350
30D
  3
DWGPROPS
350
5D4
  0
DICTIONARY
  5
5E7
330
8
100
AcDbDictionary
280
     1
  3
ACAD_XREC_ROUNDTRIP
360
5E8
  0
DICTIONARY
  5
1FF
330
2
100
AcDbDictionary
280
     1
  3
ACAD_LAYERSTATES
360
200
  0
DICTIONARY
  5
2C2
330
2C1
100
AcDbDictionary
280
     1
  3
ACAD_SORTENTS
360
2C3
  0
DICTIONARY
  5
4FF
330
4FE
100
AcDbDictionary
280
     1
  3
ACAD_MTEXT_RT
360
5D5
  0
DICTIONARY
  5
504
330
503
100
AcDbDictionary
280
     1
  3
ACAD_MTEXT_RT
360
5D6
  0
DICTIONARY
  5
506
330
505
100
AcDbDictionary
280
     1
  3
ACAD_MTEXT_RT
360
5D7
  0
DICTIONARY
  5
50B
330
50A
100
AcDbDictionary
280
     1
  3
ACAD_MTEXT_RT
360
5D8
  0
DICTIONARY
  5
50D
330
50C
100
AcDbDictionary
280
     1
  3
ACAD_MTEXT_RT
360
5D9
  0
DICTIONARY
  5
50F
330
50E
100
AcDbDictionary
280
     1
  3
ACAD_MTEXT_RT
360
5DA
  0
DICTIONARY
  5
511
330
510
100
AcDbDictionary
280
     1
  3
ACAD_MTEXT_RT
360
5DB
  0
DICTIONARY
  5
518
330
517
100
AcDbDictionary
280
     1
  3
ACAD_MTEXT_RT
360
5DC
  0
DICTIONARY
  5
51C
330
51B
100
AcDbDictionary
280
     1
  3
ACAD_MTEXT_RT
360
5DD
  0
DICTIONARY
  5
51E
330
51D
100
AcDbDictionary
280
     1
  3
ACAD_MTEXT_RT
360
5DE
  0
DICTIONARY
  5
521
330
520
100
AcDbDictionary
280
     1
  3
ACAD_MTEXT_RT
360
5DF
  0
DICTIONARY
  5
525
330
524
100
AcDbDictionary
280
     1
  3
ACAD_MTEXT_RT
360
5E0
  0
DICTIONARY
  5
537
330
536
100
AcDbDictionary
280
     1
  3
ACAD_MTEXT_RT
360
5E1
  0
DICTIONARY
  5
539
330
538
100
AcDbDictionary
280
     1
  3
ACAD_MTEXT_RT
360
5E2
  0
DICTIONARY
  5
53B
330
53A
100
AcDbDictionary
280
     1
  3
ACAD_MTEXT_RT
360
5E3
  0
DICTIONARY
  5
53F
330
53E
100
AcDbDictionary
280
     1
  3
ACAD_MTEXT_RT
360
5E4
  0
DICTIONARY
  5
542
330
541
100
AcDbDictionary
280
     1
  3
ACAD_MTEXT_RT
360
5E5
  0
DICTIONARY
  5
544
330
543
100
AcDbDictionary
280
     1
  3
ACAD_MTEXT_RT
360
5E6
  0
DICTIONARY
  5
553
330
552
100
AcDbDictionary
280
     1
  3
ACAD_DIMASSOC
360
554
  0
DICTIONARY
  5
556
330
555
100
AcDbDictionary
280
     1
  3
ACAD_DIMASSOC
360
557
  0
DICTIONARY
  5
559
330
558
100
AcDbDictionary
280
     1
  3
ACAD_DIMASSOC
360
55A
  0
DICTIONARY
  5
55C
330
55B
100
AcDbDictionary
280
     1
  3
ACAD_DIMASSOC
360
55D
  0
DICTIONARY
  5
55F
330
55E
100
AcDbDictionary
280
     1
  3
ACAD_DIMASSOC
360
560
  0
DICTIONARY
  5
562
330
561
100
AcDbDictionary
280
     1
  3
ACAD_DIMASSOC
360
563
  0
XRECORD
  5
216
102
{ACAD_REACTORS
330
C
102
}
330
C
100
AcDbXrecord
300
ACD
300
2025
300

  0
DICTIONARY
  5
6B
102
{ACAD_REACTORS
330
C
102
}
330
C
100
AcDbDictionary
  0
DICTIONARY
  5
21B
102
{ACAD_REACTORS
330
C
102
}
330
C
100
AcDbDictionary
  3
METRIC50
350
21C
  0
DICTIONARY
  5
D
102
{ACAD_REACTORS
330
C
102
}
330
C
100
AcDbDictionary
  0
XRECORD
  5
5AE
102
{ACAD_REACTORS
330
C
102
}
330
C
100
AcDbXrecord
300
{BAF0BE94-20A2-1648-AE25-7E387AF57BBD}
301
{EDC2743A-41FB-0B4D-B144-97D3AE2115DC}
302
{BAF0BE94-20A2-1648-AE25-7E387AF57BBD}
303
C:\Users\sushi\Desktop\PROJECT A-16\Plans\8.dwg
  0
DICTIONARY
  5
1A
102
{ACAD_REACTORS
330
C
102
}
330
C
100
AcDbDictionary
  0
DICTIONARY
  5
6A
102
{ACAD_REACTORS
330
C
102
}
330
C
100
AcDbDictionary
  3
BYBLOCK
350
ED
  3
BYLAYER
350
EC
  3
GLOBAL
350
EE
  0
DICTIONARY
  5
12D
102
{ACAD_REACTORS
330
C
102
}
330
C
100
AcDbDictionary
  3
ANNOTATIVE
350
13B
  3
STANDARD
350
12E
  0
DICTIONARY
  5
17
102
{ACAD_REACTORS
330
C
102
}
330
C
100
AcDbDictionary
  3
STANDARD
350
18
  0
DICTIONARY
  5
19
102
{ACAD_REACTORS
330
C
102
}
330
C
100
AcDbDictionary
  0
DICTIONARY
  5
10C
102
{ACAD_REACTORS
330
C
102
}
330
C
100
AcDbDictionary
  3
A0
350
10D
  3
A1
350
1BE
  3
A2
350
1BF
  3
A3
350
1C0
  3
A4
350
1C1
  3
A5
350
1C2
  3
A6
350
1C3
  3
A7
350
1C4
  3
A8
350
1C5
  3
A9
350
1C6
  3
B0
350
1C7
  3
B1
350
1C8
  3
B2
350
1C9
  3
B3
350
1CA
  3
B4
350
1CB
  3
B5
350
1CC
  3
B6
350
1CD
  0
DICTIONARY
  5
219
102
{ACAD_REACTORS
330
C
102
}
330
C
100
AcDbDictionary
  3
METRIC50
350
21A
  0
DICTIONARY
  5
EF
102
{ACAD_REACTORS
330
C
102
}
330
C
100
AcDbDictionary
  3
2DWIREFRAME
350
F5
  3
BASIC
350
F4
  3
BRIGHTEN
350
FB
  3
COLORCHANGE
350
FF
  3
CONCEPTUAL
350
F8
  3
DIM
350
FA
  3
EDGECOLOROFF
350
1E6
  3
FACEPATTERN
350
FE
  3
FLAT
350
F0
  3
FLATWITHEDGES
350
F1
  3
GOURAUD
350
F2
  3
GOURAUDWITHEDGES
350
F3
  3
HIDDEN
350
F7
  3
JITTEROFF
350
1E4
  3
LINEPATTERN
350
FD
  3
OVERHANGOFF
350
1E5
  3
REALISTIC
350
F9
  3
SHADED
350
1F3
  3
SHADED_WITH_EDGES
350
1F2
  3
SHADES_OF_GRAY
350
1EF
  3
SKETCHY
350
1F0
  3
THICKEN
350
FC
  3
WIREFRAME
350
F6
  3
X-RAY
350
1F1
  0
WIPEOUTVARIABLES
  5
5ED
102
{ACAD_REACTORS
330
C
102
}
330
C
100
AcDbWipeoutVariables
 70
     0
  0
XRECORD
  5
5EC
102
{ACAD_REACTORS
330
C
102
}
330
C
100
AcDbXrecord
 90
        1
330
50A
330
50C
330
503
330
541
330
543
330
517
330
524
330
51B
330
51D
330
520
330
536
330
538
330
53A
330
53E
330
50E
330
510
330
4FE
330
505
  0
DICTIONARY
  5
5AF
102
{ACAD_REACTORS
330
C
102
}
330
C
100
AcDbDictionary
  3
CEPSNID
350
5B9
  3
CEPSNTYPE
350
5B8
  3
COLORDICT
350
5D2
  3
DIMSTYLEDATA
350
5CF
  3
FINGERPRINTGUID
350
5BA
  3
HYPERLINKBASE
350
5B2
  3
INSUNITS
350
5B7
  3
LAYOUTDICT
350
5B4
  3
LWETCUNION
350
5B6
  3
MATERIALDICT
350
5D3
  3
PLOTSETDICT
350
5B5
  3
PSVPSCALE
350
5BC
  3
PUCSBASE
350
5BF
  3
PUCSORGBACK
350
5C5
  3
PUCSORGBOTTOM
350
5C1
  3
PUCSORGFRONT
350
5C4
  3
PUCSORGLEFT
350
5C2
  3
PUCSORGRIGHT
350
5C3
  3
PUCSORGTOP
350
5C0
  3
PUCSORTHOREF
350
5BD
  3
PUCSORTHOVIEW
350
5BE
  3
STYLESHEET
350
5B3
  3
TSTACKALIGN
350
5B0
  3
TSTACKSIZE
350
5B1
  3
UCSBASE
350
5C8
  3
UCSORGBACK
350
5CE
  3
UCSORGBOTTOM
350
5CA
  3
UCSORGFRONT
350
5CD
  3
UCSORGLEFT
350
5CB
  3
UCSORGRIGHT
350
5CC
  3
UCSORGTOP
350
5C9
  3
UCSORTHOREF
350
5C6
  3
UCSORTHOVIEW
350
5C7
  3
VERSIONGUID
350
5BB
  0
DICTIONARY
  5
30D
102
{ACAD_REACTORS
330
C
102
}
330
C
100
AcDbDictionary
  3
#REVCLOUDAPPROXARCLEN
350
30E
  3
ANNOALLVISIBLE
350
30F
  3
CANNOSCALE
350
310
  3
CENTEREXE
350
311
  3
CMLEADERSTYLE
350
312
  3
CTABLESTYLE
350
313
  3
CVIEWDETAILSTYLE
350
314
  3
CVIEWSECTIONSTYLE
350
315
  3
DGNFRAME
350
316
  3
DIMADEC
350
317
  3
DIMASSOC
350
318
  3
DWFFRAME
350
319
  3
EXPORTPAPERSPACE
350
31A
  3
HIDETEXT
350
31B
  3
HPCOLOR
350
31C
  3
HPINHERIT
350
31D
  3
HPLAYER
350
31E
  3
HPTRANSPARENCY
350
31F
  3
INDEXCTL
350
320
  3
LAYEREVAL
350
321
  3
LAYERNOTIFY
350
322
  3
LIGHTINGUNITS
350
323
  3
MLEADERSCALE
350
324
  3
MSLTSCALE
350
325
  3
OLEFRAME
350
326
  3
PDFFRAME
350
327
  3
PSOLHEIGHT
350
5D1
  3
PSOLWIDTH
350
5D0
  3
SOLIDHIST
350
328
  3
SORTENTS
350
329
  3
WIPEOUTFRAME
350
32A
  0
XRECORD
  5
5D4
102
{ACAD_REACTORS
330
C
102
}
330
C
100
AcDbXrecord
  1
DWGPROPS COOKIE
  2

  3

  4

  6

  7

  8
cmdrun
  9

300
=
301
=
302
=
303
=
304
=
305
=
306
=
307
=
308
=
309
=
 40
0.0
 41
2460873.244282407
 42
2460942.866025428
  1

 90
        0
  0
XRECORD
  5
5E8
102
{ACAD_REACTORS
330
5E7
102
}
330
5E7
100
AcDbXrecord
102
VTR_0.000_0.000_1.000_1.000_VISUALSTYLE
340
F5
102
VTR_0.000_0.000_1.000_1.000_GRIDDISPLAY
 70
     3
102
VTR_0.000_0.000_1.000_1.000_GRIDMAJOR
 70
     5
102
VTR_0.000_0.000_1.000_1.000_DEFAULTLIGHTING
280
     1
102
VTR_0.000_0.000_1.000_1.000_DEFAULTLIGHTINGTYPE
 70
     1
102
VTR_0.000_0.000_1.000_1.000_BRIGHTNESS
141
0.0
102
VTR_0.000_0.000_1.000_1.000_CONTRAST
142
0.0
  0
DICTIONARY
  5
200
102
{ACAD_REACTORS
330
1FF
102
}
330
1FF
100
AcDbDictionary
  0
SORTENTSTABLE
  5
2C3
102
{ACAD_REACTORS
330
2C2
102
}
330
2C2
100
AcDbSortentsTable
330
2C1
  0
XRECORD
  5
5D5
102
{ACAD_REACTORS
330
4FF
102
}
330
4FF
100
AcDbXrecord
 40
498318.0
  1
\pxqc;LIVING\P3.00X4.22        (10'0"X14'0")
  0
XRECORD
  5
5D6
102
{ACAD_REACTORS
330
504
102
}
330
504
100
AcDbXrecord
 40
104207.0
  1
\pxqc;BED\P3.00X2.94        (10'0"X9'8")
  0
XRECORD
  5
5D7
102
{ACAD_REACTORS
330
506
102
}
330
506
100
AcDbXrecord
 40
119874.0
  1
\pxqc;KITCHEN\P3.00X2.50        (10'0"X8'2")
  0
XRECORD
  5
5D8
102
{ACAD_REACTORS
330
50B
102
}
330
50B
100
AcDbXrecord
 40
104890.0
  1
\pxqc;BATH\P2.00X1.10        (6'6"X3'7")
  0
XRECORD
  5
5D9
102
{ACAD_REACTORS
330
50D
102
}
330
50D
100
AcDbXrecord
 40
20604.0
  1
\pxqc;WC\P0.90X1.10\P  (3'0"X3'7")
  0
XRECORD
  5
5DA
102
{ACAD_REACTORS
330
50F
102
}
330
50F
100
AcDbXrecord
 40
499122.0
  1
\pxqc;LIVING\P3.02X4.82        (10'0"X16'0")
  0
XRECORD
  5
5DB
102
{ACAD_REACTORS
330
511
102
}
330
511
100
AcDbXrecord
 40
120531.0
  1
\pxqc;KITCHEN\P2.70X3.93        (9'0"X13'0")
  0
XRECORD
  5
5DC
102
{ACAD_REACTORS
330
518
102
}
330
518
100
AcDbXrecord
 40
104417.0
  1
\pxqc;BED\P3.30X2.89        (11'0"X9'6")
  0
XRECORD
  5
5DD
102
{ACAD_REACTORS
330
51C
102
}
330
51C
100
AcDbXrecord
 40
103908.0
  1
\pxqc;BED\P3.30X2.75        (11'0"X9'1")
  0
XRECORD
  5
5DE
102
{ACAD_REACTORS
330
51E
102
}
330
51E
100
AcDbXrecord
 40
113404.0
  1
\pxqc;TOILET\P2.30X1.20        (7'7"X4'0")
  0
XRECORD
  5
5DF
102
{ACAD_REACTORS
330
521
102
}
330
521
100
AcDbXrecord
 40
113365.0
  1
\pxqc;TOILET\P1.85X1.20        (6'1"X4'0")
  0
XRECORD
  5
5E0
102
{ACAD_REACTORS
330
525
102
}
330
525
100
AcDbXrecord
 40
105548.0
  1
\pxqc;LIFT\P1.50X1.35        (5'1"X4'6")
  0
XRECORD
  5
5E1
102
{ACAD_REACTORS
330
537
102
}
330
537
100
AcDbXrecord
 40
117436.0
  1
\pxqc;LIVING\P4.33X2.95        (14'3"X9'8")
  0
XRECORD
  5
5E2
102
{ACAD_REACTORS
330
539
102
}
330
539
100
AcDbXrecord
 40
103818.0
  1
\pxqc;BED\P2.75X3.06        (9'0"X10'0")
  0
XRECORD
  5
5E3
102
{ACAD_REACTORS
330
53B
102
}
330
53B
100
AcDbXrecord
 40
113517.0
  1
\pxqc;TOILET\P1.65X1.20        (5'6"X4'0")
  0
XRECORD
  5
5E4
102
{ACAD_REACTORS
330
53F
102
}
330
53F
100
AcDbXrecord
 40
113704.0
  1
\pxqc;TOILET\P1.00X2.06        (3'3"X6'9")
  0
XRECORD
  5
5E5
102
{ACAD_REACTORS
330
542
102
}
330
542
100
AcDbXrecord
 40
120424.0
  1
\pxqc;KITCHEN\P2.25X4.20        (7'6"X14'0")
  0
XRECORD
  5
5E6
102
{ACAD_REACTORS
330
544
102
}
330
544
100
AcDbXrecord
 40
101646.0
  1
\pxqc;BED\P2.75X2.75        (9'1"X9'1")
  0
ACAD_PROXY_OBJECT
  5
554
102
{ACAD_REACTORS
330
553
102
}
330
553
100
AcDbProxyObject
 90
      499
 91
      518
 93
      772
310
40C0088A0B1A23127B9B730B82837B4B73A2932B3052028151329913324EDDC07F5111416344624F736E6170506F696E745265660840502A3509724187B076CFEAA2282C688C49EE6DCC2E0A0DED2DCE8A4CACC1480A0544CA644CC93B7701FD40
330
552
330
461
330
44B
330
461
 94
        0
  0
ACAD_PROXY_OBJECT
  5
557
102
{ACAD_REACTORS
330
556
102
}
330
556
100
AcDbProxyObject
 90
      499
 91
      518
 93
      521
310
40C0088A0B1A23127B9B730B82837B4B73A2932B306A02815544D323F62870DB0A5111416344624F736E6170506F696E745265660240502A128000000000380FEA00
330
555
330
532
330
463
 94
        0
  0
ACAD_PROXY_OBJECT
  5
55A
102
{ACAD_REACTORS
330
559
102
}
330
559
100
AcDbProxyObject
 90
      499
 91
      518
 93
      521
310
40C0088A0B1A23127B9B730B82837B4B73A2932B306A02815544D323F62870DB0A5111416344624F736E6170506F696E745265660A40502A28ADDE3B7648748FEA00
330
558
330
4AD
330
462
 94
        0
  0
ACAD_PROXY_OBJECT
  5
55D
102
{ACAD_REACTORS
330
55C
102
}
330
55C
100
AcDbProxyObject
 90
      499
 91
      518
 93
      521
310
40C0088A0B1A23127B9B730B82837B4B73A2932B300A02815344D323F62870DB0A5111416344624F736E6170506F696E745265660140502A689A647EC50E1B614A00
330
55B
330
44B
330
463
 94
        0
  0
ACAD_PROXY_OBJECT
  5
560
102
{ACAD_REACTORS
330
55F
102
}
330
55F
100
AcDbProxyObject
 90
      499
 91
      518
 93
      230
310
4040088A0B1A23127B9B730B82837B4B73A2932B305A02815552028150
330
55E
330
462
330
44B
 94
        0
  0
ACAD_PROXY_OBJECT
  5
563
102
{ACAD_REACTORS
330
562
102
}
330
562
100
AcDbProxyObject
 90
      499
 91
      518
 93
      521
310
40C0088A0B1A23127B9B730B82837B4B73A2932B306A02815544D323F62870DB0A5111416344624F736E6170506F696E745265660D40502AA89A647EC50E1B614A00
330
561
330
463
330
44B
 94
        0
  0
ACAD_PROXY_OBJECT
  5
21C
102
{ACAD_REACTORS
330
21B
102
}
330
21B
100
AcDbProxyObject
 90
      499
 91
      516
 93
      877
310
9084D65747269633530481E0000000000000A20500E0000000000000A20233E0000000000000A20400000000000017202029B929E2E20B1AB30B9102B34B2BBA232BA30B4B624B21F129014129E2E20B1AB30B9102B34B2BBA9B1B0B632902E33101112B9B7111F1294A33A33800
340
11
340
0
340
16
340
11
340
16
340
16
 94
        0
  0
MATERIAL
  5
ED
102
{ACAD_REACTORS
330
6A
102
}
102
{ACAD_XDICTIONARY
360
1F9
102
}
330
6A
100
AcDbMaterial
  1
BYBLOCK
 73
     2
 78
     2
172
     2
176
     2
270
     2
274
     2
  0
MATERIAL
  5
EC
102
{ACAD_REACTORS
330
6A
102
}
102
{ACAD_XDICTIONARY
360
1F7
102
}
330
6A
100
AcDbMaterial
  1
BYLAYER
 73
     2
 78
     2
172
     2
176
     2
270
     2
274
     2
  0
MATERIAL
  5
EE
102
{ACAD_REACTORS
330
6A
102
}
102
{ACAD_XDICTIONARY
360
173
102
}
330
6A
100
AcDbMaterial
  1
GLOBAL
 73
     2
 43
0.0007999999797903
 43
0.0
 43
0.0
 43
0.0
 43
0.0
 43
0.0007999999797903
 43
0.0
 43
0.0
 43
0.0
 43
0.0
 43
1.0
 43
0.0
 43
0.0
 43
0.0
 43
0.0
 43
1.0
 78
     2
172
     2
 49
0.0007999999797903
 49
0.0
 49
0.0
 49
0.0
 49
0.0
 49
0.0007999999797903
 49
0.0
 49
0.0
 49
0.0
 49
0.0
 49
1.0
 49
0.0
 49
0.0
 49
0.0
 49
0.0
 49
1.0
176
     2
142
0.0007999999797903
142
0.0
142
0.0
142
0.0
142
0.0
142
0.0007999999797903
142
0.0
142
0.0
142
0.0
142
0.0
142
1.0
142
0.0
142
0.0
142
0.0
142
0.0
142
1.0
270
     2
144
0.0007999999797903
144
0.0
144
0.0
144
0.0
144
0.0
144
0.0007999999797903
144
0.0
144
0.0
144
0.0
144
0.0
144
1.0
144
0.0
144
0.0
144
0.0
144
0.0
144
1.0
274
     2
1001
ACAD
1070
    -1
1070
     3
1070
     0
1000

1071
        0
1070
     0
  0
ACAD_PROXY_OBJECT
  5
13B
102
{ACAD_REACTORS
330
12D
102
}
330
12D
100
AcDbProxyObject
 90
      499
 91
      508
 93
      610
310
40901902A4063FBFFFFFE0000000000000020400000000000020404214DD185B99185C990000000000000104090140501A00000000000004100000000000000041025766000000000000039000
340
14
340
0
340
11
340
0
 94
        0
1001
ACAD_MLEADERVER
1070
     2
  0
ACAD_PROXY_OBJECT
  5
12E
102
{ACAD_REACTORS
330
12D
102
}
330
12D
100
AcDbProxyObject
 90
      499
 91
      508
 93
      610
310
40901902A4063FBFFFFFE0000000000000020400000000000020404214DD185B99185C990000000000000104090140501A00000000000004100000000000000041025764000000000000039000
340
14
340
0
340
11
340
0
 94
        0
1001
ACAD_MLEADERVER
1070
     2
  0
MLINESTYLE
  5
18
102
{ACAD_REACTORS
330
17
102
}
330
17
100
AcDbMlineStyle
  2
STANDARD
 70
     0
  3

 62
   256
 51
90.0
 52
90.0
 71
     2
 49
0.5
 62
   256
  6
BYLAYER
 49
-0.5
 62
   256
  6
BYLAYER
  0
ACAD_PROXY_OBJECT
  5
10D
102
{ACAD_REACTORS
330
10C
102
}
330
10C
100
AcDbProxyObject
 90
      499
 91
      507
 93
       41
310
903313A31580
  0
ACAD_PROXY_OBJECT
  5
1BE
102
{ACAD_REACTORS
330
10C
102
}
330
10C
100
AcDbProxyObject
 90
      499
 91
      507
 93
      105
310
903313A324000000000000004000
  0
ACAD_PROXY_OBJECT
  5
1BF
102
{ACAD_REACTORS
330
10C
102
}
330
10C
100
AcDbProxyObject
 90
      499
 91
      507
 93
      105
310
903313A344000000000000104000
  0
ACAD_PROXY_OBJECT
  5
1C0
102
{ACAD_REACTORS
330
10C
102
}
330
10C
100
AcDbProxyObject
 90
      499
 91
      507
 93
      105
310
903313A354000000000000144000
  0
ACAD_PROXY_OBJECT
  5
1C1
102
{ACAD_REACTORS
330
10C
102
}
330
10C
100
AcDbProxyObject
 90
      499
 91
      507
 93
      105
310
903313A384000000000000204000
  0
ACAD_PROXY_OBJECT
  5
1C2
102
{ACAD_REACTORS
330
10C
102
}
330
10C
100
AcDbProxyObject
 90
      499
 91
      507
 93
      113
310
904313A31304000000000000244000
  0
ACAD_PROXY_OBJECT
  5
1C3
102
{ACAD_REACTORS
330
10C
102
}
330
10C
100
AcDbProxyObject
 90
      499
 91
      507
 93
      113
310
904313A31364000000000000304000
  0
ACAD_PROXY_OBJECT
  5
1C4
102
{ACAD_REACTORS
330
10C
102
}
330
10C
100
AcDbProxyObject
 90
      499
 91
      507
 93
      113
310
904313A32304000000000000344000
  0
ACAD_PROXY_OBJECT
  5
1C5
102
{ACAD_REACTORS
330
10C
102
}
330
10C
100
AcDbProxyObject
 90
      499
 91
      507
 93
      113
310
904313A333040000000000003E4000
  0
ACAD_PROXY_OBJECT
  5
1C6
102
{ACAD_REACTORS
330
10C
102
}
330
10C
100
AcDbProxyObject
 90
      499
 91
      507
 93
      113
310
904313A34304000000000000444000
  0
ACAD_PROXY_OBJECT
  5
1C7
102
{ACAD_REACTORS
330
10C
102
}
330
10C
100
AcDbProxyObject
 90
      499
 91
      507
 93
      113
310
904313A35304000000000000494000
  0
ACAD_PROXY_OBJECT
  5
1C8
102
{ACAD_REACTORS
330
10C
102
}
330
10C
100
AcDbProxyObject
 90
      499
 91
      507
 93
      121
310
905313A3130304000000000000594000
  0
ACAD_PROXY_OBJECT
  5
1C9
102
{ACAD_REACTORS
330
10C
102
}
330
10C
100
AcDbProxyObject
 90
      499
 91
      507
 93
      105
310
903323A310000000000000010100
  0
ACAD_PROXY_OBJECT
  5
1CA
102
{ACAD_REACTORS
330
10C
102
}
330
10C
100
AcDbProxyObject
 90
      499
 91
      507
 93
      105
310
903343A310000000000000410100
  0
ACAD_PROXY_OBJECT
  5
1CB
102
{ACAD_REACTORS
330
10C
102
}
330
10C
100
AcDbProxyObject
 90
      499
 91
      507
 93
      105
310
903383A310000000000000810100
  0
ACAD_PROXY_OBJECT
  5
1CC
102
{ACAD_REACTORS
330
10C
102
}
330
10C
100
AcDbProxyObject
 90
      499
 91
      507
 93
      113
310
90431303A310000000000000910100
  0
ACAD_PROXY_OBJECT
  5
1CD
102
{ACAD_REACTORS
330
10C
102
}
330
10C
100
AcDbProxyObject
 90
      499
 91
      507
 93
      121
310
9053130303A310000000000001650100
  0
ACAD_PROXY_OBJECT
  5
21A
102
{ACAD_REACTORS
330
219
102
}
330
219
100
AcDbProxyObject
 90
      499
 91
      515
 93
     2015
310
9084D657472696335304B360000000000000A2060000000000000A202209258409E5840A25840A65840B05840B40000000000001220233A65800000000000028800000000000000A2060000000000000A2040000000000001720202AC929E2E20B1AB30B9102B34B2BBA9B2B1BA34B7B729BA30B93A24B21F1296929E2E20B
310
1AB30B9102B34B2BBA9B2B1BA34B7B722B73224B21F129014129E2E20B1AB30B9102B34B2BBA9B1B0B632902E33101112B9B7111F1294E0080A0C829CA6926662C400000000000002204000000000000022020D0305A88A9F643F27E32B9969C2960E81F87FA0718D4DE3E87E32B9969C2960E85F9E5129FC49EA5FA7E
340
11
340
0
340
0
340
16
340
16
340
11
 94
        0
  0
ACAD_PROXY_OBJECT
  5
F5
102
{ACAD_REACTORS
330
EF
102
}
330
EF
100
AcDbProxyObject
 90
      499
 91
      506
 93
      444
310
42CC9915DA5C99599C985B59504902404333333333333E33F0000000000000F90107901411070040501600405405064090741402480A0340
1001
ACAD
1000
AcDbSavedByObjectVersion
1070
     0
  0
ACAD_PROXY_OBJECT
  5
F4
102
{ACAD_REACTORS
330
EF
102
}
330
EF
100
AcDbProxyObject
 90
      499
 91
      506
 93
      388
310
4150985CDA58D07406404333333333333E33F0000000000000F90107A41107004050150841D405064090741402480A0350
1001
ACAD
1000
AcDbSavedByObjectVersion
1070
     0
  0
ACAD_PROXY_OBJECT
  5
FB
102
{ACAD_REACTORS
330
EF
102
}
330
EF
100
AcDbProxyObject
 90
      499
 91
      506
 93
      436
310
42109C9A59DA1D195B90C40902404333333333333E33F0000000000000F9010790141107004050150841D405064090741402480A029950
1001
ACAD
1000
AcDbSavedByObjectVersion
1070
     0
  0
ACAD_PROXY_OBJECT
  5
FF
102
{ACAD_REACTORS
330
EF
102
}
330
EF
100
AcDbProxyObject
 90
      499
 91
      506
 93
      452
310
42D0DBDB1BDC90DA185B99D95104090240C333333333333E33F0000000000000F90108901411070040501508421405064090741402480A0350
1001
ACAD
1000
AcDbSavedByObjectVersion
1070
     0
  0
ACAD_PROXY_OBJECT
  5
F8
102
{ACAD_REACTORS
330
EF
102
}
330
EF
100
AcDbProxyObject
 90
      499
 91
      506
 93
      508
310
4290DBDB98D95C1D1D585B10940D02404333333333333E33F0000000000000F90107902409070040501000000000000111010841D405064090740C02480A0340
1001
ACAD
1000
AcDbSavedByObjectVersion
1070
     0
  0
ACAD_PROXY_OBJECT
  5
FA
102
{ACAD_REACTORS
330
EF
102
}
330
EF
100
AcDbProxyObject
 90
      499
 91
      506
 93
      420
310
40D11A5B50B40902404333333333333E33F0000000000000F9010790141107004050150841D405064090741402480A02677FFFFFD0
1001
ACAD
1000
AcDbSavedByObjectVersion
1070
     0
  0
ACAD_PROXY_OBJECT
  5
1E6
102
{ACAD_REACTORS
330
EF
102
}
330
EF
100
AcDbProxyObject
 90
      499
 91
      506
 93
      452
310
43115919D950DBDB1BDC93D999916409028333333333333E33F0000000000000F9010790141107004050150841D405064090741402480A0350
1001
ACAD
1000
AcDbSavedByObjectVersion
1070
     0
  0
ACAD_PROXY_OBJECT
  5
FE
102
{ACAD_REACTORS
330
EF
102
}
330
EF
100
AcDbProxyObject
 90
      499
 91
      506
 93
      452
310
42D19858D95C185D1D195C9B90F40902404333333333333E33F0000000000000F9010790141107004050150841D405064090741402480A0350
1001
ACAD
1000
AcDbSavedByObjectVersion
1070
     0
  0
ACAD_PROXY_OBJECT
  5
F0
102
{ACAD_REACTORS
330
EF
102
}
330
EF
100
AcDbProxyObject
 90
      499
 91
      506
 93
      380
310
41119B185D240901404333333333333E33F0000000000000F9010740A907004050150841D405064090741402480A1B50
1001
ACAD
1000
AcDbSavedByObjectVersion
1070
     0
  0
ACAD_PROXY_OBJECT
  5
F1
102
{ACAD_REACTORS
330
EF
102
}
330
EF
100
AcDbProxyObject
 90
      499
 91
      506
 93
      468
310
43519B185D15DA5D1A115919D95CD0140901404333333333333E33F0000000000000F90107409019070040501600405405064090741402480A1B50
1001
ACAD
1000
AcDbSavedByObjectVersion
1070
     0
  0
ACAD_PROXY_OBJECT
  5
F2
102
{ACAD_REACTORS
330
EF
102
}
330
EF
100
AcDbProxyObject
 90
      499
 91
      506
 93
      404
310
41D1DBDD5C985D5910240902404333333333333E33F0000000000000F9010740A9070040501641D405064090741402480A1B50
1001
ACAD
1000
AcDbSavedByObjectVersion
1070
     0
  0
ACAD_PROXY_OBJECT
  5
F3
102
{ACAD_REACTORS
330
EF
102
}
330
EF
100
AcDbProxyObject
 90
      499
 91
      506
 93
      492
310
4411DBDD5C985D5915DA5D1A115919D95CD0340902404333333333333E33F0000000000000F90107409019070040501600405405064090741402480A1B50
1001
ACAD
1000
AcDbSavedByObjectVersion
1070
     0
  0
ACAD_PROXY_OBJECT
  5
F7
102
{ACAD_REACTORS
330
EF
102
}
330
EF
100
AcDbProxyObject
 90
      499
 91
      506
 93
      476
310
41921A5919195B90640502408333333333333E33F0000000000000F901079024090700405020000000000001110200405405064090740C02480A0340
1001
ACAD
1000
AcDbSavedByObjectVersion
1070
     0
  0
ACAD_PROXY_OBJECT
  5
1E4
102
{ACAD_REACTORS
330
EF
102
}
330
EF
100
AcDbProxyObject
 90
      499
 91
      506
 93
      428
310
42529A5D1D195C93D999914409028333333333333E33F0000000000000F9010790141107004050150A41D405064090741402480A0350
1001
ACAD
1000
AcDbSavedByObjectVersion
1070
     0
  0
ACAD_PROXY_OBJECT
  5
FD
102
{ACAD_REACTORS
330
EF
102
}
330
EF
100
AcDbProxyObject
 90
      499
 91
      506
 93
      452
310
42D31A5B995C185D1D195C9B90E40902404333333333333E33F0000000000000F9010790141107004050750841D405064090741402483A0350
1001
ACAD
1000
AcDbSavedByObjectVersion
1070
     0
  0
ACAD_PROXY_OBJECT
  5
1E5
102
{ACAD_REACTORS
330
EF
102
}
330
EF
100
AcDbProxyObject
 90
      499
 91
      506
 93
      444
310
42D3DD995C9A185B99D3D999915409028333333333333E33F0000000000000F9010790141107004050150941D405064090741402480A0350
1001
ACAD
1000
AcDbSavedByObjectVersion
1070
     0
  0
ACAD_PROXY_OBJECT
  5
F9
102
{ACAD_REACTORS
330
EF
102
}
330
EF
100
AcDbProxyObject
 90
      499
 91
      506
 93
      428
310
425499585B1A5CDD1A58D08409038333333333333E33F0000000000000F9010740A907004050150800405405064090740C02480A1B40
1001
ACAD
1000
AcDbSavedByObjectVersion
1070
     0
  0
ACAD_PROXY_OBJECT
  5
1F3
102
{ACAD_REACTORS
330
EF
102
}
330
EF
100
AcDbProxyObject
 90
      499
 91
      506
 93
      420
310
4194DA1859195911B40902404333333333333E33F0000000000000F9010740A41107004050150800405405064090840C02480A0B40
1001
ACAD
1000
AcDbSavedByObjectVersion
1070
     0
  0
ACAD_PROXY_OBJECT
  5
1F2
102
{ACAD_REACTORS
330
EF
102
}
330
EF
100
AcDbProxyObject
 90
      499
 91
      506
 93
      516
310
4454DA18591959081DDA5D1A08195919D95CD1A40902404333333333333E33F0000000000000F901074090140907004050250800405405064090740C02480A0B40
1001
ACAD
1000
AcDbSavedByObjectVersion
1070
     0
  0
ACAD_PROXY_OBJECT
  5
1EF
102
{ACAD_REACTORS
330
EF
102
}
330
EF
100
AcDbProxyObject
 90
      499
 91
      506
 93
      532
310
4394DA1859195CC81BD98811DC985E5174090240C333333333333E33F0000000000000F901079024090741D01000000000000111010841D405064090740C02480A0340
1001
ACAD
1000
AcDbSavedByObjectVersion
1070
     0
  0
ACAD_PROXY_OBJECT
  5
1F0
102
{ACAD_REACTORS
330
EF
102
}
330
EF
100
AcDbProxyObject
 90
      499
 91
      506
 93
      476
310
41D4DAD95D18DA1E51840502408333333333333E33F0000000000000F901079024090741D01000000000000111010B41D405064090741802480A0340
1001
ACAD
1000
AcDbSavedByObjectVersion
1070
     0
  0
ACAD_PROXY_OBJECT
  5
FC
102
{ACAD_REACTORS
330
EF
102
}
330
EF
100
AcDbProxyObject
 90
      499
 91
      506
 93
      420
310
41D51A1A58DAD95B90D40902404333333333333E33F0000000000000F9010790141107004050150C41D405064090741402480A0350
1001
ACAD
1000
AcDbSavedByObjectVersion
1070
     0
  0
ACAD_PROXY_OBJECT
  5
F6
102
{ACAD_REACTORS
330
EF
102
}
330
EF
100
AcDbProxyObject
 90
      499
 91
      506
 93
      420
310
4255DA5C99599C985B595059028333333333333E33F0000000000000F90107901411070040501600405405064090740C02480A0340
1001
ACAD
1000
AcDbSavedByObjectVersion
1070
     0
  0
ACAD_PROXY_OBJECT
  5
1F1
102
{ACAD_REACTORS
330
EF
102
}
330
EF
100
AcDbProxyObject
 90
      499
 91
      506
 93
      404
310
41560B54985E51940902404000000000000E03F0000000000000F9010740501907004050150841D405064090740C02480A1B40
1001
ACAD
1000
AcDbSavedByObjectVersion
1070
     0
  0
XRECORD
  5
5B9
102
{ACAD_REACTORS
330
5AF
102
}
330
5AF
100
AcDbXrecord
340
0
  0
XRECORD
  5
5B8
102
{ACAD_REACTORS
330
5AF
102
}
330
5AF
100
AcDbXrecord
 90
        0
  0
XRECORD
  5
5D2
102
{ACAD_REACTORS
330
5AF
102
}
330
5AF
100
AcDbXrecord
340
6B
  0
XRECORD
  5
5CF
102
{ACAD_REACTORS
330
5AF
102
}
330
5AF
100
AcDbXrecord
1000
DSTYLE
1002
{
1070
   340
340
11
1002
}
  0
XRECORD
  5
5BA
102
{ACAD_REACTORS
330
5AF
102
}
330
5AF
100
AcDbXrecord
  1
{4B1B78C5-EEF8-F342-AB44-030DDA4BE101}
  0
XRECORD
  5
5B2
102
{ACAD_REACTORS
330
5AF
102
}
330
5AF
100
AcDbXrecord
  1

  0
XRECORD
  5
5B7
102
{ACAD_REACTORS
330
5AF
102
}
330
5AF
100
AcDbXrecord
 90
        4
  0
XRECORD
  5
5B4
102
{ACAD_REACTORS
330
5AF
102
}
330
5AF
100
AcDbXrecord
340
1A
  0
XRECORD
  5
5B6
102
{ACAD_REACTORS
330
5AF
102
}
330
5AF
100
AcDbXrecord
 90
    10781
  0
XRECORD
  5
5D3
102
{ACAD_REACTORS
330
5AF
102
}
330
5AF
100
AcDbXrecord
340
6A
  0
XRECORD
  5
5B5
102
{ACAD_REACTORS
330
5AF
102
}
330
5AF
100
AcDbXrecord
340
19
  0
XRECORD
  5
5BC
102
{ACAD_REACTORS
330
5AF
102
}
330
5AF
100
AcDbXrecord
 40
0.0
  0
XRECORD
  5
5BF
102
{ACAD_REACTORS
330
5AF
102
}
330
5AF
100
AcDbXrecord
340
0
  0
XRECORD
  5
5C5
102
{ACAD_REACTORS
330
5AF
102
}
330
5AF
100
AcDbXrecord
 10
0.0
 20
0.0
 30
0.0
  0
XRECORD
  5
5C1
102
{ACAD_REACTORS
330
5AF
102
}
330
5AF
100
AcDbXrecord
 10
0.0
 20
0.0
 30
0.0
  0
XRECORD
  5
5C4
102
{ACAD_REACTORS
330
5AF
102
}
330
5AF
100
AcDbXrecord
 10
0.0
 20
0.0
 30
0.0
  0
XRECORD
  5
5C2
102
{ACAD_REACTORS
330
5AF
102
}
330
5AF
100
AcDbXrecord
 10
0.0
 20
0.0
 30
0.0
  0
XRECORD
  5
5C3
102
{ACAD_REACTORS
330
5AF
102
}
330
5AF
100
AcDbXrecord
 10
0.0
 20
0.0
 30
0.0
  0
XRECORD
  5
5C0
102
{ACAD_REACTORS
330
5AF
102
}
330
5AF
100
AcDbXrecord
 10
0.0
 20
0.0
 30
0.0
  0
XRECORD
  5
5BD
102
{ACAD_REACTORS
330
5AF
102
}
330
5AF
100
AcDbXrecord
340
0
  0
XRECORD
  5
5BE
102
{ACAD_REACTORS
330
5AF
102
}
330
5AF
100
AcDbXrecord
 70
     0
  0
XRECORD
  5
5B3
102
{ACAD_REACTORS
330
5AF
102
}
330
5AF
100
AcDbXrecord
  1

  0
XRECORD
  5
5B0
102
{ACAD_REACTORS
330
5AF
102
}
330
5AF
100
AcDbXrecord
 90
        1
  0
XRECORD
  5
5B1
102
{ACAD_REACTORS
330
5AF
102
}
330
5AF
100
AcDbXrecord
 90
       70
  0
XRECORD
  5
5C8
102
{ACAD_REACTORS
330
5AF
102
}
330
5AF
100
AcDbXrecord
340
0
  0
XRECORD
  5
5CE
102
{ACAD_REACTORS
330
5AF
102
}
330
5AF
100
AcDbXrecord
 10
0.0
 20
0.0
 30
0.0
  0
XRECORD
  5
5CA
102
{ACAD_REACTORS
330
5AF
102
}
330
5AF
100
AcDbXrecord
 10
0.0
 20
0.0
 30
0.0
  0
XRECORD
  5
5CD
102
{ACAD_REACTORS
330
5AF
102
}
330
5AF
100
AcDbXrecord
 10
0.0
 20
0.0
 30
0.0
  0
XRECORD
  5
5CB
102
{ACAD_REACTORS
330
5AF
102
}
330
5AF
100
AcDbXrecord
 10
0.0
 20
0.0
 30
0.0
  0
XRECORD
  5
5CC
102
{ACAD_REACTORS
330
5AF
102
}
330
5AF
100
AcDbXrecord
 10
0.0
 20
0.0
 30
0.0
  0
XRECORD
  5
5C9
102
{ACAD_REACTORS
330
5AF
102
}
330
5AF
100
AcDbXrecord
 10
0.0
 20
0.0
 30
0.0
  0
XRECORD
  5
5C6
102
{ACAD_REACTORS
330
5AF
102
}
330
5AF
100
AcDbXrecord
340
0
  0
XRECORD
  5
5C7
102
{ACAD_REACTORS
330
5AF
102
}
330
5AF
100
AcDbXrecord
 70
     0
  0
XRECORD
  5
5BB
102
{ACAD_REACTORS
330
5AF
102
}
330
5AF
100
AcDbXrecord
  1
{BAF0BE94-20A2-1648-AE25-7E387AF57BBD}
  0
DICTIONARYVAR
  5
30E
102
{ACAD_REACTORS
330
30D
102
}
330
30D
100
DictionaryVariables
280
     0
  1
14.341106
  0
DICTIONARYVAR
  5
30F
102
{ACAD_REACTORS
330
30D
102
}
330
30D
100
DictionaryVariables
280
     0
  1
1
  0
DICTIONARYVAR
  5
310
102
{ACAD_REACTORS
330
30D
102
}
330
30D
100
DictionaryVariables
280
     0
  1
1:1
  0
DICTIONARYVAR
  5
311
102
{ACAD_REACTORS
330
30D
102
}
330
30D
100
DictionaryVariables
280
     0
  1
2.000000
  0
DICTIONARYVAR
  5
312
102
{ACAD_REACTORS
330
30D
102
}
330
30D
100
DictionaryVariables
280
     0
  1
Standard
  0
DICTIONARYVAR
  5
313
102
{ACAD_REACTORS
330
30D
102
}
330
30D
100
DictionaryVariables
280
     0
  1
Standard
  0
DICTIONARYVAR
  5
314
102
{ACAD_REACTORS
330
30D
102
}
330
30D
100
DictionaryVariables
280
     0
  1
Metric50
  0
DICTIONARYVAR
  5
315
102
{ACAD_REACTORS
330
30D
102
}
330
30D
100
DictionaryVariables
280
     0
  1
Metric50
  0
DICTIONARYVAR
  5
316
102
{ACAD_REACTORS
330
30D
102
}
330
30D
100
DictionaryVariables
280
     0
  1
0
  0
DICTIONARYVAR
  5
317
102
{ACAD_REACTORS
330
30D
102
}
330
30D
100
DictionaryVariables
280
     0
  1
0
  0
DICTIONARYVAR
  5
318
102
{ACAD_REACTORS
330
30D
102
}
330
30D
100
DictionaryVariables
280
     0
  1
2
  0
DICTIONARYVAR
  5
319
102
{ACAD_REACTORS
330
30D
102
}
330
30D
100
DictionaryVariables
280
     0
  1
2
  0
DICTIONARYVAR
  5
31A
102
{ACAD_REACTORS
330
30D
102
}
330
30D
100
DictionaryVariables
280
     0
  1
1
  0
DICTIONARYVAR
  5
31B
102
{ACAD_REACTORS
330
30D
102
}
330
30D
100
DictionaryVariables
280
     0
  1
1
  0
DICTIONARYVAR
  5
31C
102
{ACAD_REACTORS
330
30D
102
}
330
30D
100
DictionaryVariables
280
     0
  1
1
  0
DICTIONARYVAR
  5
31D
102
{ACAD_REACTORS
330
30D
102
}
330
30D
100
DictionaryVariables
280
     0
  1
0
  0
DICTIONARYVAR
  5
31E
102
{ACAD_REACTORS
330
30D
102
}
330
30D
100
DictionaryVariables
280
     0
  1
AR3-WALL HATCH
  0
DICTIONARYVAR
  5
31F
102
{ACAD_REACTORS
330
30D
102
}
330
30D
100
DictionaryVariables
280
     0
  1
ByLayer
  0
DICTIONARYVAR
  5
320
102
{ACAD_REACTORS
330
30D
102
}
330
30D
100
DictionaryVariables
280
     0
  1
0
  0
DICTIONARYVAR
  5
321
102
{ACAD_REACTORS
330
30D
102
}
330
30D
100
DictionaryVariables
280
     0
  1
0
  0
DICTIONARYVAR
  5
322
102
{ACAD_REACTORS
330
30D
102
}
330
30D
100
DictionaryVariables
280
     0
  1
0
  0
DICTIONARYVAR
  5
323
102
{ACAD_REACTORS
330
30D
102
}
330
30D
100
DictionaryVariables
280
     0
  1
2
  0
DICTIONARYVAR
  5
324
102
{ACAD_REACTORS
330
30D
102
}
330
30D
100
DictionaryVariables
280
     0
  1
1.000000
  0
DICTIONARYVAR
  5
325
102
{ACAD_REACTORS
330
30D
102
}
330
30D
100
DictionaryVariables
280
     0
  1
1
  0
DICTIONARYVAR
  5
326
102
{ACAD_REACTORS
330
30D
102
}
330
30D
100
DictionaryVariables
280
     0
  1
2
  0
DICTIONARYVAR
  5
327
102
{ACAD_REACTORS
330
30D
102
}
330
30D
100
DictionaryVariables
280
     0
  1
1
  0
DICTIONARYVAR
  5
5D1
102
{ACAD_REACTORS
330
30D
102
}
330
30D
100
DictionaryVariables
280
     0
  1
80.000000
  0
DICTIONARYVAR
  5
5D0
102
{ACAD_REACTORS
330
30D
102
}
330
30D
100
DictionaryVariables
280
     0
  1
5.000000
  0
DICTIONARYVAR
  5
328
102
{ACAD_REACTORS
330
30D
102
}
330
30D
100
DictionaryVariables
280
     0
  1
0
  0
DICTIONARYVAR
  5
329
102
{ACAD_REACTORS
330
30D
102
}
330
30D
100
DictionaryVariables
280
     0
  1
127
  0
DICTIONARYVAR
  5
32A
102
{ACAD_REACTORS
330
30D
102
}
330
30D
100
DictionaryVariables
280
     0
  1
0
  0
DICTIONARY
  5
1F9
330
ED
100
AcDbDictionary
280
     1
  3
ACAD_XREC_ROUNDTRIP
360
5E9
  3
FBXASSET
360
1FA
  0
DICTIONARY
  5
1F7
330
EC
100
AcDbDictionary
280
     1
  3
ACAD_XREC_ROUNDTRIP
360
5EA
  3
FBXASSET
360
1F8
  0
DICTIONARY
  5
173
330
EE
100
AcDbDictionary
280
     1
  3
ACAD_XREC_ROUNDTRIP
360
5EB
  3
FBXASSET
360
1FB
  0
XRECORD
  5
5E9
102
{ACAD_REACTORS
330
1F9
102
}
330
1F9
100
AcDbXrecord
102
MATERIAL
148
0.0
149
0.0
149
0.0
 93
        0
 94
       63
282
     0
 72
     1
 77
     1
171
     1
175
     1
179
     1
273
     0
  0
XRECORD
  5
1FA
102
{ACAD_REACTORS
330
1F9
102
}
330
1F9
100
AcDbXrecord
 70
     1
 90
429727718
  1
D62C5603-E3A1-4AEA-B7FB-FE5D8D0755AF
310
504B03040A0000080000CC70623B3DEE336E79000000790000001B0000006175746F6465736B2D64657369676E2D7061636B6167652E786D6C3C3F786D6C2076657273696F6E3D22312E302220656E636F64696E673D227574662D3822203F3E3C666F726D6174733E3C666F726D61743E687474703A2F2F736368656D612E
310
6175746F6465736B2E636F6D2F64657369676E2D7061636B6167652F323030393C2F666F726D61743E3C2F666F726D6174733E504B0304140006080800CC70623BD486FD9CA0000000F4000000130000005B436F6E74656E745F54797065735D2E786D6C7D8EC10E82300C865F65E91D8A1E8C310C0EEA1BF002731658846E
310
D98AC1B77784ABF1D8FE5FBFBF75BBCE937A534CCEB38643598122B6FEE978D0B0485F9C41B54DDD7D022595594E1A469170414C76A4D9A4D207E29CF43ECE46F218070CC6BECC4078ACAA135ACF422C856C0E68EA1BF5669944DDD7BCDE7B1F8E415D77AECB980613C2E4AC91FC167A2B244592486606FC29C8FD7F045B9A
310
EF7053A7E60B504B0304140006080800CC70623B853B8169EB0000007C01000008000000636F72652E786D6C8D90416EC3201045AF62CDB6C206821CC7C244919D9CA01740401C94182C03558F5F9C3852BBEB6A467FFE9B197D7EFC9E1EC5975982F5AE035262288C535E5B377690E21535501C055FBC8FBF6C503839990E
310
5619041F179FE64D52DE45E362569DD7661365082642A11EB9E920A89B99642953CC8E702F67A9EE7234257977194EC9EAE275C4EABCCF5EAD5940D4AC6F0E35A568B8F43562CD7046CD199FD07E60174276A7BE677B5EADB0E0D14EEFFB6A31321A0D82627C4084204C3F096B71DD52F6819B16635EADF63F509AF53FA164
310
5DDCD1EDDD17164090FCC8732078B56691CB33A85CD7DCC40F504B0304140006080800CC70623B55019EA25F0000007C00000007000000636E782E786D6C4DCB3B0E80201045D1AD90E915ED2CF8AC45050C11660C8261F98AB1B07AC9C97D42D718D865D3E909258CFD00CCE24AC6E326A164D74DC0B4128928FF32603847
310
2BA13128B1252AC747C6BAB984FC68F0B87FE8960A5C09FE86CFB69FBA01504B0304140006080800CC70623BDBABAAF470010000D40300000C0000006662782F636F72652E786D6CC553D16E823014FD95A6AF4B694182CC941A83FA05FB810A9511A125A5257EFE2E82712ECEB8A7F100CD39F7F69E734AF9FADC366850B6
310
AF8DCE7018308C942E4C59EB2AC3DE1D498AD15A706B8CFB56869196ADCAF00863C12B6B7C374385D14E6907A836A59A41D9F7CA615434B0C8705F7CAA5606D23BA8E84F41278B93AC54100640439DE0BDB320004D43C63716C7C399D30917DCFBBA9CD9BA8469F5B156168B24CED3F7248AC8769F27244EB73B92EED8862C
310
B7F13E0C179B3C8F979C8ECD82BBBABDAA2BAC924E9558448CBD9330242CFA08E3154B5651FCC6D215639C8EE5774DBE2B5F6CF2B5768B68963BB5F5588420E442FC700B1139D4CB01F450C1E918227C2E09DF070D8140C84E1E9AAB8F1340832A9CB13130A5F1376A908D57309505ECF2A0DF179C4E9D30F5B239B87E3823
310
7A79C6F31DE1A8A5AEC08474B03C7837EAE4938639B44E5932B833D2C6B6B279CDC613877FA26EE21F4A2A4C63EC7F29A2F301D1F9F7A0E37D145F504B0304140006080800CC70623B9C113CC27E0000009D0000000B0000006662782F636E782E786D6C4DCCDF0A83201C86E15B91DFB94BFB330DD428C8FB886521330DA7
310
6397BF1A1DECE883878F57749FCDA1B7892F1BBC047A23808C7F84D9FA55424E0BE6803A256208E9EF06C84F9B91703228B1C690F78B66B34CD9A5439DF5CF0BFBF65E35BCA1B8D6A5C6F540381E886698B5741C695F9503EBA150A2F8958E3DC3EA0B504B0304140006080800CC70623B7DF2F77C2A010000120200003100
310
00006662782F41393633353835312D344632462D344230382D423046372D3739314545314133324237412F636F72652E786D6C8D51DB8EC22014FC15C2939B0D2DB4B45643319AE817EC0F6041255A68B86CFCFC856D4D76DF7CE190393373060EDB3DC707F856CE6B6B7A480A0C81328395DA5C7B18C3057510EC3873D686
310
3F34088C18550F330C39BB3A1BA7051AAC09CA84841A2BD5020AEF55806078A44B0FFD7053A328440C89E1EFC52486BBB8AA8214A99D789CF9E05200300FC927E4FB4D5B375D43103D5527440FB843077C5AA3F5861C8F645F5787F59E95B390B318B55CE45AA638FAA2957BD7248B390B7A7CC51F9C124149C82B8C378810
310
84AB2F42B7B8DD56F413775B8C5999E9FF4471926F8AA236A1AE96B8B3CC434E5839373893369E1FAF30EA395917409EB7F26AF8801C171837A4A6AC9C89E9F9C9B1A58BA30FD6A5EF5DDDCF894B9AD9B6A59C957943A9FCAE2FD5BC4DFE03504B0304140006080800CC70623BAD7543B64E01000033030000300000006662
310
782F41393633353835312D344632462D344230382D423046372D3739314545314133324237412F636E782E786D6CD593CD6EC32010845F0571AD6CE3D48AD20813A9873E410FBD12D82434182C7EAAE6EDBB2424CD25871E7B41D6EC30B3FA84F9E67BB2E40B4234DE8DB46F1925E094D7C6ED479AD3AE5951B2113C789FEE
310
6C943839C1488B4C05DF079FE72A69D8C96C13AAD6B8631503449F83828872B949AC57D26200B826A308D316B4064D6E46FCDA41C05550DC9E483A00797BFD207EFB092A45DE9514C1BBD22178396BD39D891265658C238DEA00936C654E5E433CB65A26D9F6EDB5EBC14EBF49A45CB856E66048291F6939A9A81BB5C89177
310
38143CA680F4AA299D66A042CEB3354A2684DC9D8D178FE0D9B8B41CAAD720F880EE7EF93C0C18769E099ECC04D5A102C8049A8A05632F4DDF376CF1DE0F6BB65C2F8627B65A33C6BB62177CEBBDAD973006829F89F22E814B54F4BC2BE347F8AA8F681390B50FA73F804400B5F542E796F19FF974E7F78DB802FE05E20750
310
4B0304140006080800CC70623BE75B7789680500003C100000340000006662782F41393633353835312D344632462D344230382D423046372D3739314545314133324237412F6F626A656374732E786D6CAD575B8F9B3818FD2B887D06C22499CB8AA1CA655245D5B455A356FB305264C061D8018C6C3393D95FBFC7600890
310
A4CD5EF210B0B1BFEBF98E3F7B1FF6596ABC522E1296DF9BAE3D320D9A872C4AF2F8DE2CE5CEBA358D0FBEC719939D65A691938CDE9B6ADAF4BD98B3B2D05311DD91329583D9D5FC0F438434A7A611A644887B5384CF34233629258BA878B12322891DEFF6B66BD70BFB62634E8AE781D082709A4B588AF91C528CDA28B73F
310
1C998EEF39EABBEFA97FBD6A7C7E9553F9D3D79FE442923C3C523610337627CB87ABE99D359D4CC6D6E4FACAB5E6ABF9D2726FC6A3C5F56271377BB88362213924694B38DD99FE47C48627A1E7D49F5A8BB5E1A74C0A599ED3B0F21F1E56366B89112D681E218F0915D0D6F17AD41FBA2A369DCF6335D62ABBD39779D5DDD1
310
11D4D8DE3CBB96B2E04FB8202E41051754A1AA8E8F76B4C6DFE810B580B1547F4B84911149794252234D024EF8BBE963A95AE27B3D310A9D5C215C7960FAEE415ED75694C6AFB17BCACA5D99A60A9AA65F217B0BFC53292ACB92BF283FAD0D3621576592CB5BED907C2FA8E9DF794E35E97BEA31BED21FEB401ABB94C44839
310
DCACBF0E1C5DA8DA5B2F4DFFD32AD86F543D9E565E7056502E157C00AD2671CD534549AB752FCA9CDA00677A313F04E51B22FF19E57B300579E3C97EB29F682D92935CEC18CF901B7B54FD8C51F362B56FC72FE0B3C1EAE335EDCCBF5AEC39ADB17DC238973F804BA5E6F6BFE7AF1FB32E523BE9F3BD571418E3631DCA4D48
310
5250CF639223210A9446CA30052EDF057BD35F8329C1ECD84552BF0DC8D18BE7BCE23BFE6BD960AB4A7DE79923A103BEBD80F911CBAA2C60DB19B01CF164A5583B772EE6D3FFA56666CBCDA74DC97724A48F9A58967497E489C4D979006FD7A05E227A1EBDD0F737C623387A9C844D3709995625106D157315F8B8392CD4E0
310
A0B9A720C4BE9829CEF37EA1E13111214D53925356365ADA634861B52519DD27A00AEB808EAF0628E6F435519D446F45CF2C9CF5214F0A15B2F6D06B79DA3EE3CBF7F56780D2F4E7EF73A0F5E5B02A38D07DC852C6B7C1FBB6664213E0C39E3EBA7FF4E1AD23EA2829407C85E586727488B751B2DB9502BC7B228A3FD68B6E
310
A65A22397E690AA8D158D7E404EC8CDA235CC3B7D1898680131CEC2CDF2638C65196279577750F15884AEE19F94199155B92B13297978469D4F8D358DF0AEF7631E28DC8F0D9F437D5D39A83B2231A1D52D543813A824EF8D44BCFF2FA6A31BD1E8DAD87F1CCB526B3879935BF59CDADD5C37479BB1CDD4CA7B3556B516589
310
EF352754B706114D9C885EC9131DE6EFEB43D99AFE2391C2F958179413D7CFEF6B1B6DB1E7600F00DE6E5C67454A339A4BA2E0FBA85ED26F045D454F463DBFCE484C2F90F2E5E3666003662ED8F755951A7D1BECD5B30B550B2785C8E7320B7292A4838DDA71BBC863ED7613CAF659337A3354231D4FF4A182A54904C2898C
310
98B28C4AD0CE056CCF332A80986E571EE9DBC305BB5FEB7E509220A58D25CF042D712A806AC0AD0C657FDEF80D2D9CEAA2EE4D1C76F60BFE74219A06527D6F82DF6412526107381E55E353090704D085B52408A8913C4ED159D79BDA71BB4BC506F4831350EB6F975CD22D69BF7AC49B91A2C0A9DDA3D5CA36AD20FC478E37
310
E61844E2352865EBCB61A275A65283CAAA9DD27703B4102F5AF51EF5F573B75CBB5AD38BC845F7A49F82A0966A49C2E3EA5EA0ECD326CD965F1DB402C6FA8B51A4658C5C5E2EC9E214602E55810345408596591009A82E7E7FFACA19EEA299B14A0081A705CB3296EBC14CDF658DCD336EA6D1136881AAEB87B81AB9EE53D5
310
F5EB8BC8362082DA24122F98680A4E7930C01A0079749CEA14382A0783E5EBA5A10F8C098456A03D6A4AEB6BB881E2513747552A5DB22C7EDAF83BD5528081A365F7FF06504B0304140006080000CC70623B000000000000000000000000350000006662782F41393633353835312D344632462D344230382D423046372D37
310
39314545314133324237412F76657274696365732E62696E504B0304140006080800CC70623BF270F1330600000004000000360000006662782F41393633353835312D344632462D344230382D423046372D3739314545314133324237412F747269616E676C65732E62696E636660600000504B0304140006080000CC7062
310
3B000000000000000000000000370000006662782F41393633353835312D344632462D344230382D423046372D3739314545314133324237412F617474726962757465732E62696E504B0304140006080800CC70623B08DA0BD19000000041010000360000006662782F41393633353835312D344632462D344230382D4230
310
46372D3739314545314133324237412F6469726563746F72792E786D6C858F410AC3201045AF22B36F53E9A60B35CBEEBAE80D244E44489C6234F4F835464A48035D0DF398FF9F8AF63D0E6CC63039F212F8F9020C7D47C6792B21C5FE7403D62A1188E2E60C98D7234A5830286103A55745067B9D86B8A3CF9C7F90C11DE6
310
07FB144396D7B6A82D282E9A152AD114D5EF2CB866EEE831B8EEA07A7BB5A8D7D61A2BAAEB7FD5F70921FF497D00504B0304140006080800CC70623BEDD1DC58FD000000A00100003B0000006662782F41393633353835312D344632462D344230382D423046372D3739314545314133324237412F7265736F75726365732F
310
636F72652E786D6C8D504B6E833010BD0A9A6D65B00922041947112427E8052C33A156828DFCA97AFC9A40A576D7CDCCE87D344F8F9FBFE667F689CE6B6B3A6039850C8DB2A336530731DC4903D95970676DF82583CCC8193B5861107C72362E3BA4AC096842428D1D7107A5F7182053CF7474E0D507CE32973124857FE48B
310
540F3961CEF244279DE03EB81420DB9EAC1384436FA353E879B1B182C7A8C75DA3C7F453DF353A1075D537A7BA6464B8F535A99AE14A9A2BBD90E350DD183B5CFABE3AF262350B1EF4FC9351399401471025A527C218A1E53BAB5A5AB765F5469B96525EACF23FA6B88CFF34456DC2A1DCE36E360F82A5202F42F062ED2BAD
310
579969AFDD8A6F504B010214000A0000080000CC70623B3DEE336E79000000790000001B00000000000000000000000000000000006175746F6465736B2D64657369676E2D7061636B6167652E786D6C504B01021400140006080800CC70623BD486FD9CA0000000F40000001300000000000000000000000000B20000005B
310
436F6E74656E745F54797065735D2E786D6C504B01021400140006080800CC70623B853B8169EB0000007C010000080000000000000000000000000083010000636F72652E786D6C504B01021400140006080800CC70623B55019EA25F0000007C000000070000000000000000000000000094020000636E782E786D6C504B
310
01021400140006080800CC70623BDBABAAF470010000D40300000C00000000000000000000000000180300006662782F636F72652E786D6C504B01021400140006080800CC70623B9C113CC27E0000009D0000000B00000000000000000000000000B20400006662782F636E782E786D6C504B01021400140006080800CC70
310
623B7DF2F77C2A010000120200003100000000000000000000000000590500006662782F41393633353835312D344632462D344230382D423046372D3739314545314133324237412F636F72652E786D6C504B01021400140006080800CC70623BAD7543B64E010000330300003000000000000000000000000000D2060000
310
6662782F41393633353835312D344632462D344230382D423046372D3739314545314133324237412F636E782E786D6C504B01021400140006080800CC70623BE75B7789680500003C10000034000000000000000000000000006E0800006662782F41393633353835312D344632462D344230382D423046372D3739314545
310
314133324237412F6F626A656374732E786D6C504B01021400140006080000CC70623B0000000000000000000000003500000000000000000000000000280E00006662782F41393633353835312D344632462D344230382D423046372D3739314545314133324237412F76657274696365732E62696E504B01021400140006
310
080800CC70623BF270F133060000000400000036000000000000000000000000007B0E00006662782F41393633353835312D344632462D344230382D423046372D3739314545314133324237412F747269616E676C65732E62696E504B01021400140006080000CC70623B0000000000000000000000003700000000000000
310
000000000000D50E00006662782F41393633353835312D344632462D344230382D423046372D3739314545314133324237412F617474726962757465732E62696E504B01021400140006080800CC70623B08DA0BD1900000004101000036000000000000000000000000002A0F00006662782F41393633353835312D344632
310
462D344230382D423046372D3739314545314133324237412F6469726563746F72792E786D6C504B01021400140006080800CC70623BEDD1DC58FD000000A00100003B000000000000000000000000000E1000006662782F41393633353835312D344632462D344230382D423046372D3739314545314133324237412F7265
310
736F75726365732F636F72652E786D6C504B0506000000000E000E0080040000641100000000
  0
XRECORD
  5
5EA
102
{ACAD_REACTORS
330
1F7
102
}
330
1F7
100
AcDbXrecord
102
MATERIAL
148
0.0
149
0.0
149
0.0
 93
        0
 94
       63
282
     0
 72
     1
 77
     1
171
     1
175
     1
179
     1
273
     0
  0
XRECORD
  5
1F8
102
{ACAD_REACTORS
330
1F7
102
}
330
1F7
100
AcDbXrecord
 70
     1
 90
429727718
  1
30362254-06B7-45E0-A893-8CFA70E3D6BC
310
504B03040A0000080000CC70623B3DEE336E79000000790000001B0000006175746F6465736B2D64657369676E2D7061636B6167652E786D6C3C3F786D6C2076657273696F6E3D22312E302220656E636F64696E673D227574662D3822203F3E3C666F726D6174733E3C666F726D61743E687474703A2F2F736368656D612E
310
6175746F6465736B2E636F6D2F64657369676E2D7061636B6167652F323030393C2F666F726D61743E3C2F666F726D6174733E504B0304140006080800CC70623BD486FD9CA0000000F4000000130000005B436F6E74656E745F54797065735D2E786D6C7D8EC10E82300C865F65E91D8A1E8C310C0EEA1BF002731658846E
310
D98AC1B77784ABF1D8FE5FBFBF75BBCE937A534CCEB38643598122B6FEE978D0B0485F9C41B54DDD7D022595594E1A469170414C76A4D9A4D207E29CF43ECE46F218070CC6BECC4078ACAA135ACF422C856C0E68EA1BF5669944DDD7BCDE7B1F8E415D77AECB980613C2E4AC91FC167A2B244592486606FC29C8FD7F045B9A
310
EF7053A7E60B504B0304140006080800CC70623B1EC5D7A3EB0000007C01000008000000636F72652E786D6C8D90416EC3201045AF82665B6103C6756C6122AB4D4ED00B204C5C94182C03558F5F9C3852BBEB6A467FFE9B197D71FC9E6FE8CBACC17AD7032D0820E3B41FAD9B7A48F1820F808E52ACDEC75F36404ECDA687
310
4D0629A6D5A76597B477D1B89855E747B38B2A041301E95B6E7A08FAD3CCAA50296647B8168BD2573599823EBB0CA76447F43862C7BCCF5EAC59410E4DDD9C7973C2755553CCCFA4C603E3040F1565ED3B1FDE4E432BCA0D9622DAF9795FAF464533826484B498524CD807E51D79ED187F21878E10516EF63F505AC67F42C9
310
BA58B1FDDD071640D2FCC87D2045B96591CB3DA85CB7DCE40F504B0304140006080800CC70623B55019EA25F0000007C00000007000000636E782E786D6C4DCB3B0E80201045D1AD90E915ED2CF8AC45050C11660C8261F98AB1B07AC9C97D42D718D865D3E909258CFD00CCE24AC6E326A164D74DC0B4128928FF32603847
310
2BA13128B1252AC747C6BAB984FC68F0B87FE8960A5C09FE86CFB69FBA01504B0304140006080800CC70623B8C9102E971010000D40300000C0000006662782F636F72652E786D6CC5535B6E833010BC8AE5DF0A6C08340F1947A84D4ED00B38C6A128602363A31CBFCB234A53A551FA553EC09AD9F5CE8C31DB9E9B1AF5CA
310
7695D1198E428A91D2D214952E33ECDD315861B4E5CC1AE3BE9561A445A3323CC098B3D21ADFCE9034DA29ED00D5A6503328BA4E398C640D8B0C77F253352214DE4145770A5B214FA2546114020D759C75CE8200340D19DE981F0F6746269C33EFAB6266AB02A655C74A59CCF365BADC27CB5D902ED22848F6340DF238A141
310
BE88E2F57B92BFEDF23523433367AE6A2EEAA455C2A902F398D2751045018D3FA264435F3771F242571B4A1919CA6F9A7C5B3CD9E42BED16F12C776AEB308F40C848FC700B1139D4891EF410CEC810227CC6846F8386402064270EF5C5C709A05E49676C024C61FC95EA45ED154CA5211D1FF4FB8291A913A68E9B83EBBB33
310
E2A7673CDE118E5AE8124C0807CB8377834E366998436B950D7A7746DAD846D4CFD978E0F04FD455FC5D49D2D4C6FE9722321F10997F0F32DC47FE05504B0304140006080800CC70623BFFEA85907E0000009D0000000B0000006662782F636E782E786D6C4DCCD10A83201886E15B91FFDC95D95A811AB6F23E625948A6C3
310
E9D8E5AF46073BFAE0E1E365ED67B3E8ADC3CB78C7815C7240DA3DFC64DCC221C519D7805AC182F7F1EF06C88D9BE6703008B6049F9E274D7A1E938DBB5AE3D6131B2589BA0D3D965551E0B2EA732C9B9A624AAEB41E3A557677029960D9AFB4EF11165F504B0304140006080800CC70623B4FEEA4082C0100001202000031
310
0000006662782F39464131463745442D413632322D343644302D413938332D3331353338454246344243312F636F72652E786D6C8D515B6EC32010BC0AE2AB55850DD871ED0813254D72825EC00192A2C460F1A872FC42ED48ED5F7E00CDCECCCEB26C731F6FE05B39AFADE921293004CA082BB5B9F43086336A21D870E6AC
310
0D7F68109861543DCC30E4ECE26C9C164858139409093556AA051CBC570102714B8F1E7AF1A5C6A11862480C7F2DA6415C878B2A4891CA89C7990F2E050073937C42DE1DB7E4F87ED8A36D4329AA9B3D46DBAEAD504556557BD81DEBDD0761E52CE42C462D17B996298E3E6BE59E35C962CE821E1FF18553435012728A7187
310
0841987E927A8D9B35ADDF70BBC6989599FE4F1427F9A4286A132ABAC49D651EF234CD5CE04CDA78BA3DC2A8FB645D00B9DF8B57E215725C60BCA2A463E54C4CE327C7A65E1C7DB02E7DEFCBF594B864C5CA6CDBD49C957943E9FA5D5FBAF336F90F504B0304140006080800CC70623BAD7543B64E01000033030000300000
310
006662782F39464131463745442D413632322D343644302D413938332D3331353338454246344243312F636E782E786D6CD593CD6EC32010845F0571AD6CE3D48AD20813A9873E410FBD12D82434182C7EAAE6EDBB2424CD25871E7B41D6EC30B3FA84F9E67BB2E40B4234DE8DB46F1925E094D7C6ED479AD3AE5951B2113C
310
789FEE6C943839C1488B4C05DF079FE72A69D8C96C13AAD6B8631503449F83828872B949AC57D26200B826A308D316B4064D6E46FCDA41C05550DC9E483A00797BFD207EFB092A45DE9514C1BBD22178396BD39D891265658C238DEA00936C654E5E433CB65A26D9F6EDB5EBC14EBF49A45CB856E66048291F6939A9A81BB5
310
C8917738143CA680F4AA299D66A042CEB3354A2684DC9D8D178FE0D9B8B41CAAD720F880EE7EF93C0C18769E099ECC04D5A102C8049A8A05632F4DDF376CF1DE0F6BB65C2F8627B65A33C6BB62177CEBBDAD973006829F89F22E814B54F4BC2BE347F8AA8F681390B50FA73F804400B5F542E796F19FF974E7F78DB802FE05
310
E207504B0304140006080800CC70623B16AB87BA640500003C100000340000006662782F39464131463745442D413632322D343644302D413938332D3331353338454246344243312F6F626A656374732E786D6CAD575B6FA33818FD2B887DE6924B3BED8A326A92B68A663B534DD4D13E548A0C38942D60649B369D5FBFC7
310
600890A493BDE42160637FD7F31D7FF63E6FB3D478A55C242CBF3247B66B1A340F5994E4F19559CA8D75611A9F7D8F33263BCB4C232719BD32D5B4E97B316765A1A722BA21652A07B3B7B33F0D11D29C9A46981221AE4C113ED38CD8A4942CA2E2C58E882476BCD9DA23BB5ED8171B73523C0F841684D35CC252CCE79062D4
310
468DFA43D7747CCF51DF7D4FFDEB5593E3AB9CCA9FBEFE241792E4E19EB28198C968BAB8199F5D5A67D3E9C49A9E8F47D6EC76B6B0469F26EEFC7C3EBFBCBEB98462213924694B38DD98FE1D62C393D073EA4FADC5DAF04326852CCF6958F90F0F2B9BB5C48816348F90C7840A68EB78EDF68723159BCEE7891A6B95DDE9D3
310
BCEAEEE8086A6C6F9E5D4B59F0175C10A7A0820BAA5055C7473B5AE3CFDD452D602CD5DF12616444529E90D448938013FE6EFA58AA96F85E4F8C42275708571E98FE6827AF6B2B4AE3D7D83D64E5A64C53054DD3AF90BD06FEA9149565C94FCA0F6B834DC85599E4F2423B24DF0B6AFA979E534DFA9E7A4CC6FA631D486393
310
921829879BF5D781A373557BCB85E97FB90DB62B558F8795179C15944B051F40AB495CF35451D26A4727654E6D8033BD98EF82F21D91FF8AF2DD9982BCF1643BDD4EB516C9492E368C67C88DED563FC36D5EACF66DFF057C3658BDBFA69DF9578B3DA735B64F18C7F20770A9D45CFCF7FCF563D6456A277DBEF78A02637CA2
310
43B90A490AEAB94F72244481D24819A6C0E59B606BFA4B3025981DBB48EAB701D97BF19C577CC77F2D1B6C55A9EF3C732474C0B727303F625995056C3B02963D9EAC146BE78EC5FCEC7FA999EBC5EACBAAE41B12D27B4D2C0BBA49F244E2ECDC81B76B502F113D8F5EE8FB1BE3111CDD4FC2AA9B844CAB1288B68AB90A7CDC
310
1C166AB0D3DC5310625FCC14E779BFD0709F8890A629C9292B1B2DED31A4B0DA928CEE135085754027E3018A397D4D5427D15BD1330B677DC8934285AC3DF45A9EB68FF8F2B8FC0A509AFEECFD0FF2DE25CC6047F7214B195F07EFEB9A094D800F7BFAE8FED187B78EA8A3A400F115961BCAD1215E47C966530AF0EE8128FE
310
58CEBB996A8964FFA529A046635D9353B0336A8F700DDF46271A024E70B0B37C9DE01847591E54DED53D54202AB947E4076556AC49C6CA5C9E1226B7F1A7B1BE15DEED62C41B91E1B3E9AFAAA735036547343A925075041DF0A9979E893B391F8FCFA6967B3EFB644DCF6E5CEBFAE272625DCC6FAF3FB93793C5F90CE1EF57
310
407342756B10D1C489E8953CD1617E5CEECAD6F4EF8914CE5D5D504E5C3F1F9736DA62CFC11E00BCDDB8CC8A9466349744C1F75EBDA4DF09BA8A9E8C7A7E9991989E20E5DBDD6A6003664ED8F7A04A8DBE0DF6EAD9B9AA858342E47399053949D2C146EDB85DE4B176BB0965FBAC19BD19AA918E27FA50C1D22402E144464C
310
59462568E704B6E71915404CB72B8FF4EDE184DDAF753F284990D2C6926782963815403548A70C657FDEF80D2D9CEAA2AE4C1C76F60BFE74219A06527D6582DF6412526107381E55E353090704D085B52408D0933C4ED159D79BDA71BB4BC506F4831350EB6F979CD22D69BF7AC49B91A2C0A9DDA3D5CA36AD20FC478E37E6
310
1844E2352865EBCB6EA275A652E3836BE04EFB400BF1A2556F515F1FBB35B2AB35BD889C744FFA1004B5544B121E57F70215746DD2F5E2C1412B602CBF19455AC6C8E5E9922C4E01E65215385004546899059180EAFCF7A707CE7017CD8CDB0410789AB32C63B91E5CEBBBACB17AC6CD347A022D5075FD106377347AAABA7E
310
7D11590744509B44E205134DC1290F06580320F78E537D3D73540E06CB970B431F185308AD40BBD794D6D77003C5A36E8EAA54BA64597CD8F83BD552A080A365F7FF06504B0304140006080000CC70623B000000000000000000000000350000006662782F39464131463745442D413632322D343644302D413938332D3331
310
353338454246344243312F76657274696365732E62696E504B0304140006080800CC70623BF270F1330600000004000000360000006662782F39464131463745442D413632322D343644302D413938332D3331353338454246344243312F747269616E676C65732E62696E636660600000504B0304140006080000CC70623B
310
000000000000000000000000370000006662782F39464131463745442D413632322D343644302D413938332D3331353338454246344243312F617474726962757465732E62696E504B0304140006080800CC70623B08DA0BD19000000041010000360000006662782F39464131463745442D413632322D343644302D413938
310
332D3331353338454246344243312F6469726563746F72792E786D6C858F410AC3201045AF22B36F53E9A60B35CBEEBAE80D244E44489C6234F4F835464A48035D0DF398FF9F8AF63D0E6CC63039F212F8F9020C7D47C6792B21C5FE7403D62A1188E2E60C98D7234A5830286103A55745067B9D86B8A3CF9C7F90C11DE607
310
FB144396D7B6A82D282E9A152AD114D5EF2CB866EEE831B8EEA07A7BB5A8D7D61A2BAAEB7FD5F70921FF497D00504B0304140006080800CC70623B0D6EF93BFE000000A00100003B0000006662782F39464131463745442D413632322D343644302D413938332D3331353338454246344243312F7265736F75726365732F63
310
6F72652E786D6C8D50596E833010BD0A9ADFCA60B334011947A8694ED00B586642AC041B79A97AFC9A40A5F6AF3F33A3B7689E1E3F7DCD8FEC139DD7D6F4C0720A191A65476DA61E62B892236427C19DB5E1970C322367EC618541F0C9D9B8EC90B226A009093576C41D94DE63804C3DD2D18357379C652E63480A7FCF17A9
310
EE72C29CE5894E3AC17D702940B63D59270887DE46A7D0F36263058F518FBB468FE9A7BE6A7420864373B8D4873369AA8691FA421B3294352543C5CAF65C0F6FEF43CB8BD52C78D0F34F46E550061C419494B6843142CB0F5677F4B52BEB177AEC28E5C52AFF638ACBF84F53D42654E51E77B379102C05791282176B5F693D
310
CB4C7BED567C03504B010214000A0000080000CC70623B3DEE336E79000000790000001B00000000000000000000000000000000006175746F6465736B2D64657369676E2D7061636B6167652E786D6C504B01021400140006080800CC70623BD486FD9CA0000000F40000001300000000000000000000000000B20000005B
310
436F6E74656E745F54797065735D2E786D6C504B01021400140006080800CC70623B1EC5D7A3EB0000007C010000080000000000000000000000000083010000636F72652E786D6C504B01021400140006080800CC70623B55019EA25F0000007C000000070000000000000000000000000094020000636E782E786D6C504B
310
01021400140006080800CC70623B8C9102E971010000D40300000C00000000000000000000000000180300006662782F636F72652E786D6C504B01021400140006080800CC70623BFFEA85907E0000009D0000000B00000000000000000000000000B30400006662782F636E782E786D6C504B01021400140006080800CC70
310
623B4FEEA4082C0100001202000031000000000000000000000000005A0500006662782F39464131463745442D413632322D343644302D413938332D3331353338454246344243312F636F72652E786D6C504B01021400140006080800CC70623BAD7543B64E010000330300003000000000000000000000000000D5060000
310
6662782F39464131463745442D413632322D343644302D413938332D3331353338454246344243312F636E782E786D6C504B01021400140006080800CC70623B16AB87BA640500003C1000003400000000000000000000000000710800006662782F39464131463745442D413632322D343644302D413938332D3331353338
310
454246344243312F6F626A656374732E786D6C504B01021400140006080000CC70623B0000000000000000000000003500000000000000000000000000270E00006662782F39464131463745442D413632322D343644302D413938332D3331353338454246344243312F76657274696365732E62696E504B01021400140006
310
080800CC70623BF270F133060000000400000036000000000000000000000000007A0E00006662782F39464131463745442D413632322D343644302D413938332D3331353338454246344243312F747269616E676C65732E62696E504B01021400140006080000CC70623B0000000000000000000000003700000000000000
310
000000000000D40E00006662782F39464131463745442D413632322D343644302D413938332D3331353338454246344243312F617474726962757465732E62696E504B01021400140006080800CC70623B08DA0BD190000000410100003600000000000000000000000000290F00006662782F39464131463745442D413632
310
322D343644302D413938332D3331353338454246344243312F6469726563746F72792E786D6C504B01021400140006080800CC70623B0D6EF93BFE000000A00100003B000000000000000000000000000D1000006662782F39464131463745442D413632322D343644302D413938332D3331353338454246344243312F7265
310
736F75726365732F636F72652E786D6C504B0506000000000E000E0080040000641100000000
  0
XRECORD
  5
5EB
102
{ACAD_REACTORS
330
173
102
}
330
173
100
AcDbXrecord
102
MATERIAL
148
0.0
149
0.0
149
0.0
 93
        0
 94
       63
282
     0
 72
     1
 77
     1
171
     1
175
     1
179
     1
273
     0
  0
XRECORD
  5
1FB
102
{ACAD_REACTORS
330
173
102
}
330
173
100
AcDbXrecord
 70
     0
 90
1673772943
  1
ECE7A1D2-D628-4531-984C-D00F80459256
310
504B03040A0000080000CC70623B3DEE336E79000000790000001B0000006175746F6465736B2D64657369676E2D7061636B6167652E786D6C3C3F786D6C2076657273696F6E3D22312E302220656E636F64696E673D227574662D3822203F3E3C666F726D6174733E3C666F726D61743E687474703A2F2F736368656D612E
310
6175746F6465736B2E636F6D2F64657369676E2D7061636B6167652F323030393C2F666F726D61743E3C2F666F726D6174733E504B0304140006080800CC70623BD486FD9CA0000000F4000000130000005B436F6E74656E745F54797065735D2E786D6C7D8EC10E82300C865F65E91D8A1E8C310C0EEA1BF002731658846E
310
D98AC1B77784ABF1D8FE5FBFBF75BBCE937A534CCEB38643598122B6FEE978D0B0485F9C41B54DDD7D022595594E1A469170414C76A4D9A4D207E29CF43ECE46F218070CC6BECC4078ACAA135ACF422C856C0E68EA1BF5669944DDD7BCDE7B1F8E415D77AECB980613C2E4AC91FC167A2B244592486606FC29C8FD7F045B9A
310
EF7053A7E60B504B0304140006080800CC70623BD9DDAED0EC0000007C01000008000000636F72652E786D6C8D90416EC3201045AF82665B61836D9CD8C2444DD39CA01740405C94182C03558F5F9C3852BBEB6A467FFE9B197D7EF89E6EE8CB2CC17A37002D0820E394D7D68D03A478C17B4007C117EFE32F1B20272733C0
310
2A83E0E3E2D3BC49CABB685CCCAAF3DA6CA20CC14440EA969B0182FA34932C648AD911AEC52CD5558EA6A0CF2EC329598D1E47ACCEFBECC59A050463A7EA5833865FEBDD0E37353BE3EE8DBDE3F6786A48D375FBF6CC78B9C282473B3DEFABC5C86834888A900E538A49F5419B9EB47DD5BC907D4F082F57FB1F28CDFA9F50
310
B22ED6D5F6EE030B20687EE43E10BC5CB3C8E51E54AE6B6EE207504B0304140006080800CC70623B55019EA25F0000007C00000007000000636E782E786D6C4DCB3B0E80201045D1AD90E915ED2CF8AC45050C11660C8261F98AB1B07AC9C97D42D718D865D3E909258CFD00CCE24AC6E326A164D74DC0B4128928FF326038
310
472BA13128B1252AC747C6BAB984FC68F0B87FE8960A5C09FE86CFB69FBA01504B0304140006080800CC70623BA24EB22D72010000D40300000C0000006662782F636F72652E786D6CC5535B6E833010BC8AE5DF0A6C5E49888CA3A6694ED00B38E05014B091B1518EDFE511A5A9D228FD2A1F60CDEC7A67C6986DCE4D8D7A
310
69BA4AAB0C073EC548AA5C17952A33ECECD15B61B4E1CC686DBF9561A44423333CC098B3D268D7CE50AE9595CA02AA74216750749DB418E5352C32DCE59FB211BE70162ABA93DF8AFC244AE9073ED050C759670D0840D390E18DF9F1706664C23973AE2A66B62A605A75ACA4C13C4976E1364A12EF355A2EBD384AF65EFA96
310
BC7B8BED2EA6719AAE16FB8491A199335B351775B991C2CA02F390D2D40B028F861F41BCA68B7518BFD0D59A524686F29B26D7164F36B94AD9289CE54E6D1DE6010819891F6E21228B3AD1831EC219194284CF98F06DD01008846CC5A1BEF83801D4CBDC6A1303536877A57A513B0953A94FC707FDBE6064EA84A9E3E6E0FA
310
EE8CF0E9198F7784A316AA0413C2C2F2E0ECA0934D1AE6D05A69BCDE9E91D2A611F573361E38FC1375157F5752AE6B6DFE4B11990F88CCBF0719EE23FF02504B0304140006080800CC70623B408A7D3B7C0000009D0000000B0000006662782F636E782E786D6C4DCCD10A83201886E15B91FFDC552A92A0064DBC8F581632
310
D3703A76F9ABD1C18E3E78F878E5F0D9027ABBFCF2292AE86E2D20171F69F6715550CB827B40839639A5F2770314A7CD293819B45C73AAFB45B35BA61ACAA1C1C7E7855C58C15BC331339661262CC762340413D68D77DA5B42298546CBE6573AF60CEB2F504B0304140006080800CC70623B449FB9BD290100001202000031
310
0000006662782F36394639363044362D344446342D343946362D394244322D3234314243333846323333332F636F72652E786D6C8D515B6EC32010BC0AE22B55850D98B871848994463E412FE002495162B07854397EA176A4F62F3F2C9A9D991D587EB84F37F0AD7D30CEF6905418026DA553C65E7A98E219ED203808EE9D
310
8B7F6810D871D23D2C3014FCE25D9A57483A1BB58D19B54EE9151C43D0110279CB971E06F9A5A7B11A53CC8C70ADE6515EC78BAE4895DB992778883E0700CB907242D17643D7E2538BD869608875438BBAE38922CAC8F1BDD90DB4691A5E2F42C153326A951B95E398B3D1FE599322163C9AE9115F7A3D46ADA0A018778810
310
84E907617BDCEE297BC5BB3DC6BC2EF47FA234AB2745C9D8D8D035EE220B50105E2F0DC1954B9FB747187D9F9D8FA0CCDB042D5FA0C015C65B42DF78BD10F3F3B363CB56C7109DCFDFBBB97E662ED92EB62D13BC2E1BCAE5777DB9966D8A1F504B0304140006080800CC70623BAD7543B64E01000033030000300000006662
310
782F36394639363044362D344446342D343946362D394244322D3234314243333846323333332F636E782E786D6CD593CD6EC32010845F0571AD6CE3D48AD20813A9873E410FBD12D82434182C7EAAE6EDBB2424CD25871E7B41D6EC30B3FA84F9E67BB2E40B4234DE8DB46F1925E094D7C6ED479AD3AE5951B2113C789FEE
310
6C943839C1488B4C05DF079FE72A69D8C96C13AAD6B8631503449F83828872B949AC57D26200B826A308D316B4064D6E46FCDA41C05550DC9E483A00797BFD207EFB092A45DE9514C1BBD22178396BD39D891265658C238DEA00936C654E5E433CB65A26D9F6EDB5EBC14EBF49A45CB856E66048291F6939A9A81BB5C89177
310
38143CA680F4AA299D66A042CEB3354A2684DC9D8D178FE0D9B8B41CAAD720F880EE7EF93C0C18769E099ECC04D5A102C8049A8A05632F4DDF376CF1DE0F6BB65C2F8627B65A33C6BB62177CEBBDAD973006829F89F22E814B54F4BC2BE347F8AA8F681390B50FA73F804400B5F542E796F19FF974E7F78DB802FE05E20750
310
4B0304140006080800CC70623B8D05915C650500003B100000340000006662782F36394639363044362D344446342D343946362D394244322D3234314243333846323333332F6F626A656374732E786D6CAD575B6FA33814FE2B887D06429276DA1565D4266D158D3A339A6846FB502932E050B66023DB74D2FDF5FB190C01
310
9276B2973C046C8ECFF53B17071F77456EBD502133CEAE6CDF9DD81665314F32965ED995DA3A17B6F5310C04E7AA47665B8C14F4CAD6DB7618A48257A5D94AE89654B91AEDDEDDFC61C998326A5B714EA4BCB265FC440BE2924AF184CA6737218AB8E976E7FA6E4338649B0A523E8D98964450A6A029F619B8588D52FE7039
310
B1BD30F0F4F730D0FF866AF6369557DB33949F31A9088B0F848DD8CCFCF9F2767A76E99CCDE733677E3EF59D9BBB9BA5E37F984D16E78BC5E5F5ED25044B25C0C96822E8D60EEFE11B91C581D77CEA34368A1F5329E68CD1B8B61F16D63A1B8E092D294B10C78C4A48EB593D192E7DED9BDEE7995E1B91FDEDD3ACEA9FE831
310
6A756F9F7D4D79F4274C90A7A04248AA51D5F8C718DAE06FB2F75AC4796EBE65D22A88A22223B995679120E2D50E41AA49C260C046A35368846B0BECD0DFF3EBEB8AD4F835768F69B9ADF25C43D30E6B646F807FAA64AD59F61715C7A54127C4AACA98BA3006A9D792DAE165E0D59B61A01FB3A9F9D838D2DAE62445C86166
310
F37564E842E7DE6A69879FEEA2DD5AE7E371E1A5E025154AC307D06A03D73EB5978C58FFA4C8E9033066E0F3BD53BEC1F39F91BE7B55103791EDE6BBB991A2046172CB4581D8B893FA674DDA17A77B3B7C413D1B511FD2743BFF8A38F03A658705E3ADF8015C3A3417FF3D7E439FF591DA0B5F18BC20C1B8981957AE6392A3
310
F43C640C01D1A0B4728E2DD4F26DB4B3C3152A252A3B4E913CEC1C72F012782FF88EFF8637AA552DBEF76408E8A8DE9E50F9E1CB3A2DA0DB1B6039A893B56063DC5B3E3FFB5F72E67AB9FEB4AEC496C4F4C1149625DD662C53E89D7BF0F6151A046260D1337DFDC94502430F83B0EE07A130A224BCAD7DAE1D9FB6CD422FF6
310
920702629C4BB9AE79C12F243C6432A6794E18E5552BA56B431AAB5D91317302B2B071E86C3A42B1A02F999E24061403B5D0EB639195DA655DD3EBEAB4FB862DDF579F014AD0E73C22F99E28DA57FB98E75C6CA2D74D53086D600F4786E0FE3144B771A8A7B900F03594DB8A633CBC49B2EDB69228BB479CF863B5E807AAAB
310
23872F6DFEB4129B949CA33823F58830E86D65621E10047D9DB34D862E8EAC3C2ABC2F7B2C40D67CDFE01F5545B92105AF983AC54D93D69E56FB8E797F88913F898A9FEC705D3F9D1B54EC8426FB500D40A03BD0119B06E1B95DDC7EB8F6975367793EBD70E66733DFB9BC982F9CE564727731999F5D4ECFCE3B8D6A4DC2A0
310
6D50FD148437D110834A64C6CDDF57FBACB5C307A2A477DFE4939736CFEF2B175371E0E10CF0DD1D5C15654E0BCA14D1E87DD02FF93782A162C0A3D95F1524A52770F972BF1EE9809D13CE7DD599467F8ECE9ADD85CE85A34CD45355448C64F9E8A031DC2D596ACC6E5DD93D9B82DE2EF5CAF81363A8E47996A0DE24564A79
310
4115AACE09C55E14540231FDA13C319787134EBF34E3A022514E5B4D9E0826E25C02D5805B15ABE1BEF51B26383D445DD9E875EE33FE4C22DA16427D65A3BCA92CA6D28DD01DF5DC53330704308475351050232CCD31583787BA75774AFB06E5070DD0C8EF484E19968C5D83BA5B90B244D31E54D55A372320FE4786B7EA58
310
44E135AA5467CB7EA333A61683CC6A8C3257034C10CF46F40EF9F5BE59BE5BD30C3C72D235E95D10345C1D45445A5F0BB47E46A5EBE5570F9380B5FA629579952296A773720405982B9DE04011506178964401AA8BDF1FBF0A8EAB6861DD6580C0E38217056766716DAEB2D6FA0917D3E4116581EADB879C4E7CFFB11EFACD
310
3D641311495D92C8676CB409A72D18610D803CE8A626049E8EC1887CB5B44CC39883690DDA8399B4B9855B481E7D71D4A9D22F96E5BB73BF5793020C02137BF837504B0304140006080000CC70623B000000000000000000000000350000006662782F36394639363044362D344446342D343946362D394244322D32343142
310
43333846323333332F76657274696365732E62696E504B0304140006080800CC70623BF270F1330600000004000000360000006662782F36394639363044362D344446342D343946362D394244322D3234314243333846323333332F747269616E676C65732E62696E636660600000504B0304140006080000CC70623B0000
310
00000000000000000000370000006662782F36394639363044362D344446342D343946362D394244322D3234314243333846323333332F617474726962757465732E62696E504B0304140006080800CC70623B08DA0BD19000000041010000360000006662782F36394639363044362D344446342D343946362D394244322D
310
3234314243333846323333332F6469726563746F72792E786D6C858F410AC3201045AF22B36F53E9A60B35CBEEBAE80D244E44489C6234F4F835464A48035D0DF398FF9F8AF63D0E6CC63039F212F8F9020C7D47C6792B21C5FE7403D62A1188E2E60C98D7234A5830286103A55745067B9D86B8A3CF9C7F90C11DE607FB14
310
4396D7B6A82D282E9A152AD114D5EF2CB866EEE831B8EEA07A7BB5A8D7D61A2BAAEB7FD5F70921FF497D00504B0304140006080800CC70623BCA768048FE000000A00100003B0000006662782F36394639363044362D344446342D343946362D394244322D3234314243333846323333332F7265736F75726365732F636F72
310
652E786D6C8D50596E833010BD0A9ADFCA60D600328E9AA639412F609909B1126CE4A5EAF16B0295DABFFECC8CDEA2797AECF8353F924FB44E193D409E5248504B332A3D0D10FC95B4901C39B3C6F85F3248B49871801506CE266BC2B243D2688FDA47549B11775038871E12F988C7004EDE7016A9083E2ADC3D5D84BC8B09
310
D33C8D74D471E6BC8D0192EDC93A815B742658898E651BCB59086ADC356A8C3FD555A1055ED7E7E254D615792D0F075295F585746FF53B694EE78A565DD736979A65AB9933AFE69F8CD2A2F038022F28ED489E135A7CE4554F9BBEA85E68DB53CAB255FEC71496F19FA6A0B42F8B3DEE6673C0F318E4497096AD7DC5F52C33
310
EEB55BFE0D504B010214000A0000080000CC70623B3DEE336E79000000790000001B00000000000000000000000000000000006175746F6465736B2D64657369676E2D7061636B6167652E786D6C504B01021400140006080800CC70623BD486FD9CA0000000F40000001300000000000000000000000000B20000005B436F
310
6E74656E745F54797065735D2E786D6C504B01021400140006080800CC70623BD9DDAED0EC0000007C010000080000000000000000000000000083010000636F72652E786D6C504B01021400140006080800CC70623B55019EA25F0000007C000000070000000000000000000000000095020000636E782E786D6C504B0102
310
1400140006080800CC70623BA24EB22D72010000D40300000C00000000000000000000000000190300006662782F636F72652E786D6C504B01021400140006080800CC70623B408A7D3B7C0000009D0000000B00000000000000000000000000B50400006662782F636E782E786D6C504B01021400140006080800CC70623B
310
449FB9BD290100001202000031000000000000000000000000005A0500006662782F36394639363044362D344446342D343946362D394244322D3234314243333846323333332F636F72652E786D6C504B01021400140006080800CC70623BAD7543B64E010000330300003000000000000000000000000000D20600006662
310
782F36394639363044362D344446342D343946362D394244322D3234314243333846323333332F636E782E786D6C504B01021400140006080800CC70623B8D05915C650500003B10000034000000000000000000000000006E0800006662782F36394639363044362D344446342D343946362D394244322D32343142433338
310
46323333332F6F626A656374732E786D6C504B01021400140006080000CC70623B0000000000000000000000003500000000000000000000000000250E00006662782F36394639363044362D344446342D343946362D394244322D3234314243333846323333332F76657274696365732E62696E504B010214001400060808
310
00CC70623BF270F13306000000040000003600000000000000000000000000780E00006662782F36394639363044362D344446342D343946362D394244322D3234314243333846323333332F747269616E676C65732E62696E504B01021400140006080000CC70623B00000000000000000000000037000000000000000000
310
00000000D20E00006662782F36394639363044362D344446342D343946362D394244322D3234314243333846323333332F617474726962757465732E62696E504B01021400140006080800CC70623B08DA0BD190000000410100003600000000000000000000000000270F00006662782F36394639363044362D344446342D
310
343946362D394244322D3234314243333846323333332F6469726563746F72792E786D6C504B01021400140006080800CC70623BCA768048FE000000A00100003B000000000000000000000000000B1000006662782F36394639363044362D344446342D343946362D394244322D3234314243333846323333332F7265736F
310
75726365732F636F72652E786D6C504B0506000000000E000E0080040000621100000000
  0
ENDSEC
  0
EOF
